<svg preserveAspectRatio="none" width="100%" height="100%" overflow="visible" style="display: block;" viewBox="0 0 1487.2 282.1" fill="none" xmlns="http://www.w3.org/2000/svg">
<g id="Group 72">
<g id="Vector" filter="url(#filter0_d_0_194)">
<path d="M20.6576 212.963C24.0803 211.966 27.1918 211.302 30.6145 213.961C36.5264 215.955 41.1937 218.281 47.4168 217.284C53.0175 218.946 58.6183 224.263 64.2191 218.613C72.6202 211.302 81.0213 213.961 89.4225 212.963C100.624 208.643 111.826 210.969 123.338 212.963C129.561 212.963 132.984 214.958 138.585 215.955C141.074 218.613 142.319 220.94 144.808 216.952C151.653 218.281 159.743 224.263 166.588 216.952C169.7 217.616 172.189 208.975 175.301 213.296C178.101 216.952 181.213 213.296 184.013 212.963C188.68 219.278 189.614 212.963 193.97 209.972C197.082 202.328 200.193 211.634 203.305 208.975C212.95 211.634 222.907 207.313 232.553 208.975C238.776 211.634 245.31 198.672 251.222 208.643C258.068 204.322 263.668 213.628 270.514 215.955C273.625 222.602 276.426 209.308 279.226 219.278C288.561 226.59 297.584 218.281 307.23 222.269C312.208 222.934 317.187 228.252 321.854 220.608C325.277 228.584 327.766 211.966 330.877 214.625C336.478 202.993 342.39 205.984 348.302 210.969C355.147 209.64 361.682 211.966 368.216 212.963C374.75 214.293 381.284 210.637 388.13 214.958C393.73 213.96 398.087 212.299 402.754 216.619C409.91 216.287 417.067 220.94 423.912 216.952C429.824 221.605 436.67 203.99 442.581 216.619C450.36 221.605 458.139 211.302 465.918 216.619C473.697 205.319 481.476 231.907 489.254 216.619C497.344 219.61 505.435 210.969 513.525 216.619C520.37 205.652 524.726 209.972 531.26 211.302C536.55 208.643 541.839 208.975 547.129 210.637C550.241 209.64 552.419 214.293 555.219 206.981C558.642 196.346 561.131 200.334 564.243 204.987C567.976 195.349 570.154 201.664 574.199 201.331C581.356 204.987 591.002 211.634 597.847 201.331C600.959 199.005 603.448 199.669 606.871 196.014C610.916 192.69 614.027 196.678 617.761 197.675C623.051 199.337 628.34 206.649 634.252 203.325C637.675 210.969 640.475 200.334 643.898 201.664C647.32 193.355 652.299 195.017 655.722 201.664C657.588 201.331 659.144 204.322 661.634 204.655C665.679 203.99 670.346 209.308 674.391 204.987C679.058 199.337 683.103 208.643 687.459 203.658C692.749 198.34 698.35 194.019 704.262 196.678C710.173 201.996 716.396 189.699 722.308 195.681C729.465 196.678 736.31 199.669 743.467 200.666C750.623 200.666 757.78 200.666 765.248 202.661C771.471 206.316 777.694 201.664 783.917 200.999C788.584 198.672 791.073 197.011 795.741 195.681C801.964 199.005 807.876 195.017 813.165 198.34C816.899 202.993 820.322 202.661 824.367 204.655C827.167 204.655 830.59 204.987 833.39 204.987C841.48 202.661 852.059 207.313 859.216 206.981C864.506 212.299 869.484 208.643 875.707 208.975C880.374 207.313 882.552 214.293 886.597 207.646C887.531 207.978 888.464 202.993 889.398 205.652C891.576 200.666 895.621 203.99 897.799 205.319C901.533 204.322 900.288 206.316 903.4 208.311C909.312 213.628 914.601 206.981 920.513 210.969C927.047 214.293 933.27 208.643 939.493 211.302C945.717 211.966 951.628 217.616 958.163 214.293C965.941 218.946 973.098 219.943 981.188 218.613C987.1 219.943 994.256 217.616 1000.17 218.281C1001.72 217.616 1002.97 221.272 1004.52 220.275C1011.37 223.931 1018.53 224.928 1025.68 222.269C1031.28 220.275 1036.57 220.94 1042.17 222.269C1049.02 217.949 1057.11 218.946 1063.95 222.602C1070.18 231.575 1074.53 233.902 1081.38 227.919C1089.47 228.584 1099.43 226.59 1107.52 227.919C1110.94 228.584 1110.63 228.252 1113.43 224.263C1114.98 226.922 1118.41 220.275 1120.27 222.602C1124.94 220.275 1128.99 226.257 1133.03 216.952C1135.21 214.293 1137.39 217.949 1139.88 212.963C1143.61 214.293 1147.97 219.943 1151.7 212.631C1158.23 207.646 1163.52 214.293 1169.75 214.625C1179.39 218.613 1188.73 213.961 1198.06 213.296C1203.04 206.316 1203.97 208.311 1208.33 208.975C1211.44 201.996 1211.44 208.643 1214.24 207.313C1218.91 208.311 1223.58 197.011 1228.24 200.999C1236.96 196.678 1248.78 188.702 1258.11 199.669C1262.78 199.005 1271.81 199.337 1275.85 199.337C1277.09 197.343 1277.72 195.349 1278.96 195.349C1280.21 188.037 1282.38 190.696 1283.94 192.358C1289.85 185.046 1295.76 191.028 1301.99 190.031C1306.65 191.028 1309.77 196.014 1314.12 188.702C1320.03 186.375 1326.88 188.702 1333.1 188.37C1334.97 186.043 1337.15 187.04 1339.01 188.702C1341.19 187.705 1341.81 190.696 1344.3 192.358C1347.42 195.349 1351.77 191.693 1355.19 192.358C1362.04 190.031 1368.57 187.705 1375.42 192.358C1383.82 194.352 1390.04 195.017 1397.51 198.672C1405.29 199.669 1412.14 203.325 1420.54 201.996C1424.89 202.993 1431.43 199.005 1435.78 201.664C1438.58 208.975 1439.21 207.313 1441.38 206.316C1442.94 205.319 1444.5 208.975 1446.05 207.978C1454.14 206.316 1460.99 214.625 1469.39 211.302C1469.39 212.299 1478.1 238.554 1478.1 237.557C1474.99 242.21 1473.43 239.884 1470.63 240.881C1468.14 239.884 1465.34 239.551 1462.54 241.213C1458.19 236.893 1452.9 244.869 1448.54 241.213C1443.87 241.213 1440.14 248.193 1435.47 246.531C1429.56 247.86 1423.96 244.204 1418.67 244.204C1411.82 241.213 1405.91 233.569 1398.13 227.919C1396.58 229.913 1393.16 224.928 1391.6 227.919C1386.62 227.255 1380.09 219.943 1375.73 228.916C1371.69 228.916 1367.95 227.255 1363.28 231.243C1359.86 223.931 1361.73 226.922 1357.37 226.257C1353.64 228.916 1349.44 221.888 1345.7 228.203C1339.79 227.206 1337.77 219.943 1332.79 231.575C1325.32 232.572 1311.32 230.91 1303.54 232.24C1296.39 233.569 1288.3 222.269 1281.14 232.24C1275.85 231.243 1270.25 237.89 1265.58 236.228C1260.29 236.228 1254.69 238.554 1249.09 241.546C1240.07 240.216 1229.49 235.563 1220.46 241.878C1214.55 243.207 1208.33 241.213 1202.42 241.878C1196.2 236.228 1192.15 248.857 1185.93 247.86C1180.02 248.857 1173.17 251.184 1167.57 247.528C1165.7 251.184 1164.46 250.851 1162.59 249.522C1160.1 249.19 1156.68 248.525 1153.88 249.522C1152.32 245.866 1149.83 248.525 1148.28 249.19C1146.1 249.19 1145.17 247.86 1143.3 244.204C1140.5 244.537 1134.59 248.525 1131.79 243.872C1127.12 243.207 1122.45 246.531 1118.1 245.534C1111.87 250.187 1107.52 253.178 1099.74 253.178C1094.14 246.198 1088.22 251.184 1082.62 253.178C1077.65 255.172 1072.36 253.51 1068 252.181C1066.44 251.848 1065.2 248.193 1063.64 249.522C1060.53 251.516 1056.8 249.522 1053.38 247.528C1048.09 246.198 1042.49 250.851 1037.2 247.528C1033.46 249.522 1026.31 254.507 1022.88 247.196C1020.7 237.225 1019.77 240.549 1017.28 240.549C1011.99 236.56 1002.35 241.878 996.435 238.222C993.323 240.549 993.634 237.225 990.211 239.219C985.233 235.896 981.81 253.843 976.832 247.86C971.231 246.531 965.319 253.51 959.407 249.522C952.562 250.187 945.717 252.845 938.871 249.522C937.004 250.519 934.826 252.181 932.959 249.19C927.67 252.513 926.425 254.84 921.758 256.834C917.713 263.481 913.045 259.16 909 256.834C903.4 248.857 898.11 259.493 892.198 258.828C886.286 254.175 880.374 258.495 874.462 258.828C870.729 257.166 866.061 257.831 862.327 258.828C859.216 255.504 856.104 266.14 852.993 260.822C844.592 262.816 835.257 259.825 827.789 256.501C823.122 256.169 819.388 250.851 814.721 249.522C812.232 251.516 810.676 241.878 808.187 246.531C804.764 243.54 801.341 247.86 797.608 245.534C792.318 253.178 786.406 242.875 781.116 245.534C773.338 248.525 767.737 242.543 760.58 234.899C756.224 234.566 750.001 237.89 745.334 233.902C739.422 237.89 734.443 233.902 728.843 237.557C726.976 235.896 725.109 247.196 723.242 238.222C721.375 238.554 719.819 243.872 717.952 241.213C707.995 237.557 697.727 254.507 687.148 247.196C680.614 245.201 673.768 249.522 667.234 246.863C660.7 242.543 653.855 244.537 647.32 248.525C641.72 253.51 636.119 257.498 630.829 246.531C625.54 237.225 622.739 241.878 616.827 243.207C606.248 242.543 595.669 241.546 585.09 243.207C578.867 245.534 572.955 244.204 566.732 243.207C561.131 241.878 556.775 240.549 551.174 245.201C539.973 248.193 529.393 241.546 519.436 248.857C515.08 252.181 510.724 261.154 506.368 254.507C499.211 254.507 492.677 259.825 484.898 261.819C475.875 265.142 469.341 255.837 460.94 258.495C449.738 261.487 438.537 250.187 427.024 256.169C419.867 252.845 409.91 259.493 403.376 255.837C398.087 255.172 395.597 252.513 389.374 248.525C384.085 243.54 378.173 256.501 372.883 248.525C367.282 249.854 361.993 249.854 356.392 252.845C352.347 260.822 348.302 248.857 344.257 252.513C337.723 253.178 331.189 246.863 324.343 252.513C317.809 252.513 311.275 251.848 304.429 252.513C297.273 242.543 290.116 256.501 283.271 254.84C277.048 262.484 273.003 261.819 266.158 262.151C258.379 267.469 253.089 259.825 245.933 257.831C239.398 258.163 233.175 257.166 226.641 256.169C219.485 255.837 213.261 254.84 206.727 250.851C199.571 249.854 194.281 240.549 186.191 247.196C175.612 251.184 165.033 252.845 154.765 247.196C148.542 251.184 144.497 246.198 138.274 245.201C130.184 240.549 122.405 248.857 114.315 246.531C106.225 247.86 97.5125 252.513 89.1114 248.857C82.8883 249.522 78.5322 250.187 72.9314 255.504C66.3972 260.822 57.6848 251.516 50.5282 256.501C44.3052 259.825 40.2603 253.178 34.6595 252.845C29.3699 253.178 16.6126 253.843 13.8122 245.201C13.8122 238.222 5.1 203.99 5.1 209.308C7.90038 217.949 16.6126 212.299 20.6576 212.963Z" fill="var(--fill-0, #F6EFE9)"/>
</g>
<rect id="Rectangle 3466923" x="33.1" width="1440" height="205" fill="var(--fill-0, #F6EFE9)"/>
</g>
<defs>
<filter id="filter0_d_0_194" x="-1.19209e-07" y="187" width="1487.2" height="95.1" filterUnits="userSpaceOnUse" color-interpolation-filters="sRGB">
<feFlood flood-opacity="0" result="BackgroundImageFix"/>
<feColorMatrix in="SourceAlpha" type="matrix" values="0 0 0 0 0 0 0 0 0 0 0 0 0 0 0 0 0 0 127 0" result="hardAlpha"/>
<feOffset dx="2" dy="11"/>
<feGaussianBlur stdDeviation="3.55"/>
<feComposite in2="hardAlpha" operator="out"/>
<feColorMatrix type="matrix" values="0 0 0 0 0 0 0 0 0 0 0 0 0 0 0 0 0 0 0.25 0"/>
<feBlend mode="normal" in2="BackgroundImageFix" result="effect1_dropShadow_0_194"/>
<feBlend mode="normal" in="SourceGraphic" in2="effect1_dropShadow_0_194" result="shape"/>
</filter>
</defs>
</svg>
