<svg width="109" height="109" viewBox="0 0 109 109" fill="none" xmlns="http://www.w3.org/2000/svg">
<path fill-rule="evenodd" clip-rule="evenodd" d="M27.4942 26.2657C27.6787 26.23 27.827 26.2583 27.9668 26.3722C28.1603 27.1278 26.4955 29.1566 25.9922 29.6837C25.3344 30.3726 24.4848 31.038 23.7393 31.6359V31.8849C23.6282 31.9645 22.244 33.2489 22.1563 33.3644C22.1552 33.3659 22.1544 33.3677 22.1534 33.3693C22.1955 33.2942 23.6243 31.9696 23.7403 31.8859C24.6522 31.2132 25.8299 30.8609 26.9571 31.0255C27.0579 31.04 27.1587 31.0566 27.2588 31.0753C26.1008 32.7097 24.7744 33.6701 22.8623 34.3253C22.2408 34.5384 21.617 34.6608 21.0118 34.8507C20.6032 35.3415 20.2144 35.9162 19.8184 36.4298L19.8164 36.4308L19.9131 36.4738C19.7981 36.6256 19.7588 36.696 19.5987 36.8009L19.6006 36.8048C19.7638 36.6986 19.802 36.6268 19.918 36.4738C21.1928 35.1709 22.5493 34.6175 24.3633 35.2159C23.2491 37.0745 20.6538 38.1677 18.5704 38.3302C18.1464 38.98 17.6125 39.8037 17.2871 40.5021C18.1596 39.3555 19.0795 38.8473 20.5235 38.6398C20.867 38.5904 21.4379 38.5411 21.7696 38.6251C22.1165 39.015 20.5372 40.2368 20.2539 40.4337C19.1432 41.2057 17.9846 41.605 16.6387 41.6798C16.2676 42.5709 15.8252 43.4836 15.4707 44.3585C16.2496 43.2063 17.0561 42.2629 18.4942 41.9513C18.8574 41.8726 19.5262 41.8175 19.835 42.0157C19.8441 42.3331 19.1884 43.1301 18.9541 43.3761C17.8592 44.526 16.5318 45.1089 15.0577 45.629C14.8756 46.1587 14.6002 46.9765 14.4952 47.5226C15.1637 46.1332 16.3276 45.4446 17.7549 44.9464C17.8753 44.9044 17.9964 44.8638 18.1172 44.8234C17.5396 46.9353 16.8742 48.2214 15.1729 49.7091C14.8303 50.0086 14.2735 50.4587 13.8799 50.6788C13.8437 50.6991 13.8068 50.719 13.7696 50.7374C13.704 51.222 13.5736 51.9269 13.5518 52.3849H13.5508C13.5798 52.4497 13.6029 52.5147 13.6426 52.5704C13.6229 52.6673 13.6098 52.7563 13.5879 52.8409C13.566 52.9256 13.5353 53.0062 13.4805 53.087V53.088C13.5904 52.9262 13.6041 52.7644 13.6436 52.5704C14.1266 51.1248 15.6352 49.812 17.0245 49.2531C16.4597 52.6918 15.6039 53.722 13.2696 56.1681L13.2432 56.8546C13.242 56.8569 13.2414 56.8598 13.2403 56.8624C13.2547 57.3296 13.2125 58.5843 13.2969 58.924C13.3238 59.1638 13.323 59.1582 13.2774 59.3956L13.2412 59.3966L13.2422 59.3986L13.2793 59.3966C13.3251 59.1587 13.3258 59.164 13.2989 58.924C13.5246 57.2955 14.2123 55.7358 15.5606 54.7316C15.7276 54.607 15.9848 54.4094 16.1846 54.3781C16.2132 54.4194 16.2544 54.4613 16.2598 54.5148C16.4907 56.8277 15.6703 59.0283 14.1836 60.7872C13.9481 61.0656 13.722 61.3745 13.5157 61.6661C13.5894 62.0232 13.634 62.5626 13.6885 62.9415C13.7886 63.6494 13.9439 64.3484 14.1524 65.0323C14.1583 64.7774 14.1053 64.3515 14.0811 64.0753C13.9421 62.4857 14.624 61.2765 15.6075 60.0812C15.7192 59.9455 15.8468 59.8366 16.0245 59.8302C16.2922 60.0157 16.3291 60.9981 16.3614 61.3077C16.5884 63.4839 15.8228 65.2944 14.8448 67.1896C14.9794 67.5355 15.5658 69.109 15.7246 69.3282C15.7406 69.233 15.5457 68.5324 15.5254 68.1573C15.4613 66.9721 16.1594 65.2971 16.9483 64.4503C17.461 65.2359 17.6501 66.0994 17.7862 67.0138C18.0253 68.6211 17.5352 70.1635 16.9073 71.6212C17.2847 72.2565 17.7563 73.0467 18.1592 73.6486C17.9977 73.1698 17.8483 72.9196 17.7657 72.3849C17.5313 70.8675 17.9419 69.5677 18.7901 68.3409C20.2454 70.7774 20.1149 72.992 19.667 75.6456C20.1847 76.206 20.6478 76.8006 21.1739 77.3546C20.8014 76.7405 20.4067 76.0992 20.3555 75.3605C20.3147 74.7716 20.492 72.4181 21.2588 72.4122C21.3103 72.4527 21.3643 72.4922 21.4014 72.547C22.7836 74.579 22.9063 76.4617 22.5811 78.7677C23.0352 79.2035 23.4916 79.637 23.9502 80.0675L23.8545 79.882C23.2726 78.7638 23.3088 77.2739 23.9034 76.1691C24.0063 76.2595 24.1078 76.3517 24.2071 76.4464C25.7314 77.9074 26.0408 79.6817 26.085 81.6935C26.4159 82.0879 27.7685 82.9671 28.2686 83.3146C27.2216 82.2677 27.0558 81.1949 27.1827 79.7404C27.1931 79.6211 27.239 79.6146 27.3272 79.5704C27.623 79.6205 27.9101 79.8067 28.1455 79.9923C29.7658 81.2696 30.0844 82.6654 30.3565 84.5607L31.5411 85.2062C31.4518 85.3581 31.4173 85.4471 31.2705 85.546C30.8626 85.6188 30.2203 85.1427 29.8282 84.9122C28.076 85.527 25.7768 86.0756 24.0528 85.3156C23.6451 85.1361 22.2888 84.5588 22.1094 84.1486C22.3921 83.5622 25.6231 83.1033 26.3467 83.132C26.609 83.1426 27.1464 83.3035 27.4141 83.3839C26.9433 83.0465 26.2791 82.6726 25.8653 82.2872C24.8513 82.5203 23.9173 82.578 22.8741 82.6105C21.0861 82.6656 19.525 81.7267 18.2842 80.4816C18.3886 80.3272 18.521 80.1 18.6983 80.0548C20.1879 79.6738 22.1697 79.7959 23.5469 80.3771C23.1137 80.0195 22.7004 79.7049 22.3174 79.2921C19.2954 79.6636 16.6021 79.1847 14.7618 76.5529C16.6168 76.1138 18.6602 76.2298 20.3418 77.1798C19.8664 76.7387 19.6063 76.4373 19.209 75.9249C18.3879 75.9015 17.1997 75.6309 16.3829 75.4601C14.5481 75.0758 13.1722 73.9495 12.1993 72.3448C12.3316 72.3379 12.4642 72.3334 12.5967 72.3302C14.4179 72.2903 16.3885 72.7196 17.7373 74.0138C17.4833 73.5103 16.7973 72.5361 16.4561 72.0411C14.4062 71.1971 12.0963 70.3439 10.9522 68.3849C10.7643 68.063 10.1853 67.1032 10.2627 66.757C10.6041 66.5393 11.0794 66.7751 11.4395 66.8986C12.6268 67.3068 13.9812 67.939 14.8731 68.8341C14.6644 68.277 14.4482 67.7229 14.2266 67.171C12.3815 66.0789 10.8591 65.2659 10.1875 63.0929C10.067 62.7031 9.73128 61.5158 9.90043 61.1759C10.1325 61.0833 10.4008 61.2233 10.5977 61.3468C11.7165 62.0499 12.7044 62.9286 13.3848 64.0616C13.1614 63.3597 13.145 63.1099 13.0323 62.4064C11.9967 61.3249 10.7444 60.1705 10.0967 58.8107C9.81275 58.2142 9.31028 55.673 9.77543 55.2657C9.81413 55.2668 9.87192 55.2647 9.90238 55.2872C10.9881 56.1243 12.1954 57.4611 12.6817 58.7277C12.6571 58.2951 12.6639 57.8794 12.667 57.4474C11.1879 55.8353 9.73055 54.3084 9.76078 52.0128C9.76509 51.6864 9.74409 51.1753 9.97562 50.9376C10.0655 50.9305 10.1527 50.9164 10.2305 50.9855C11.2725 51.9119 12.3012 53.2863 12.7344 54.6173C12.7628 54.1731 12.7901 53.7985 12.8487 53.3585C11.3706 50.9206 10.2191 49.4032 11.1475 46.4406C12.1905 47.2353 12.8741 48.7427 13.3028 49.9474C13.3934 49.6331 13.4836 49.329 13.5567 49.0099C12.9572 47.9284 12.4366 46.5902 12.1524 45.3986C11.8712 44.2195 12.2301 42.9012 12.7032 41.8156C13.7949 43.1715 14.0554 44.1492 14.4737 45.798C14.5554 45.3235 14.6783 44.9349 14.8145 44.4757C14.4248 43.2206 13.784 42.0124 13.8594 40.671C13.8889 40.1491 14.2569 37.8489 14.9463 38.0577C15.5457 38.6595 15.9723 40.9819 16.002 41.8761L16.2735 41.1681C15.9278 39.327 15.3039 37.575 16.0196 35.7316C16.3032 35.0009 16.5374 34.5308 17.0557 33.9454C17.7336 35.1297 17.6966 37.445 17.628 38.7697L17.9903 38.0997C17.9149 37.6572 17.8708 37.3641 17.8448 36.9171C17.7034 34.4973 17.8244 33.1193 19.5166 31.2384C19.5246 31.2584 19.5331 31.2789 19.5411 31.2989L19.5791 31.4005C20.1349 32.8539 19.9809 34.3184 19.6407 35.7823C19.7847 35.5737 19.9376 35.3283 20.0772 35.1134C20.063 32.3796 20.0592 30.2908 22.3233 28.3898C22.9856 30.167 22.3256 31.8243 21.4356 33.379C21.688 33.0964 22.5596 31.9799 22.753 31.6095C23.2747 30.6101 23.6161 29.8074 24.3565 28.8624C25.084 27.9339 26.2422 26.5086 27.4942 26.2657ZM81.0567 26.3966C82.0072 25.6175 84.1503 28.1971 84.6719 28.8702C85.6081 30.077 86.0245 31.3566 86.9463 32.5724C87.0948 32.7805 87.1808 32.9136 87.3526 33.0782C87.1809 32.9136 87.0958 32.7796 86.9473 32.5714L87.0967 32.4913C86.4233 31.2367 86.2725 29.7668 86.6758 28.4015C88.3529 29.7054 88.8107 31.1734 88.8985 33.212C88.9304 33.8426 88.9444 34.4743 88.9385 35.1056L89.3741 35.7697L88.9385 35.1046C88.9444 34.4733 88.9314 33.8416 88.8995 33.2111L89.0938 33.0304C89.1975 32.4269 89.2809 31.8138 89.4873 31.2374C90.7618 32.5385 91.2394 33.8671 91.2207 35.6534C91.2133 36.4951 91.1546 37.3355 91.045 38.17L91.4043 38.7267C91.3096 37.7048 91.3543 34.9287 91.8672 34.1398C92.2801 33.8925 92.5862 34.8153 92.7364 35.0939C93.8854 37.2225 93.1132 39.004 92.7598 41.172C92.8689 41.4515 92.9465 41.6358 93.0811 41.9073C93.02 41.1423 93.5393 38.2823 94.1641 37.9904C94.4158 38.0976 94.7375 38.7378 94.8418 39.0021C95.6182 40.9697 94.8782 42.6184 94.2129 44.4738C94.3295 44.8715 94.5058 45.4133 94.5899 45.8077C94.774 44.8205 95.422 42.6552 96.1778 41.9991C96.2628 41.9766 96.3226 41.9373 96.3662 41.9874C96.726 42.4045 96.9154 43.7709 96.9532 44.2706C97.0829 45.9676 96.0798 47.5707 95.4746 49.0607C95.5656 49.3711 95.6701 49.7031 95.752 50.0138C96.0927 48.6827 96.8223 47.3477 97.8584 46.4337C98.9026 49.2669 97.5398 51.0358 96.1827 53.3624L96.3174 54.5929C96.6123 53.5967 97.1041 52.9089 97.7491 52.1017C97.9667 51.8299 98.6549 50.9453 98.9854 50.8986C99.1227 50.9892 99.1583 51.0917 99.1875 51.2579C99.6846 54.0576 97.924 55.533 96.3672 57.465C96.356 57.8874 96.3384 58.3101 96.3145 58.7325C96.9223 57.4542 97.9822 56.0624 99.1748 55.2843L99.2871 55.2775C99.5277 55.6553 99.3273 57.3834 99.2373 57.8448C98.8572 59.799 97.1981 61.0054 96.0401 62.4503C95.999 62.5028 95.7188 63.8441 95.6299 64.1202C96.3133 62.8754 97.4968 61.8349 98.7911 61.1691C98.9177 61.1041 99.0016 61.1355 99.1192 61.1876C99.3161 61.5511 98.9854 62.5214 98.8916 62.9122C98.5335 64.4009 97.2688 65.8465 95.8946 66.5128C94.2883 67.2915 94.8008 67.6945 94.044 68.9708C95.027 67.9053 96.3932 67.265 97.7637 66.8536C97.9957 66.7839 98.5244 66.6245 98.753 66.6525C98.8509 66.9074 98.6546 67.2286 98.5508 67.4835C97.498 70.0682 95.0154 71.0939 92.5332 72.0577C92.1128 72.7224 91.6857 73.383 91.252 74.0392C92.8624 72.5656 94.676 72.3159 96.7989 72.3302C96.0528 73.7469 94.7801 74.8144 93.2549 75.3009C92.5392 75.5223 90.5742 75.9195 89.8204 75.9366C89.3871 76.4705 89.1426 76.7525 88.6455 77.2208C90.3119 76.1761 92.358 76.173 94.2325 76.5333C93.6204 77.6071 92.0307 78.7834 90.8418 79.1056C89.6624 79.4255 87.9131 79.4503 86.7071 79.2911C86.2478 79.7361 85.9735 80.0293 85.4258 80.3741C86.8925 79.8505 88.1364 79.7648 89.6866 79.9132C90.1293 79.9558 90.6105 79.9936 90.7012 80.5089C90.1701 81.1811 88.8021 82.0335 87.9942 82.3273C86.6482 82.8157 84.5258 82.5762 83.1475 82.299C82.735 82.6518 82.0666 83.0806 81.6036 83.3722C83.3029 82.8847 85.4644 83.3448 87.0137 84.0968C84.8098 86.1902 81.8537 85.9189 79.2188 84.9034C78.7622 85.1488 78.2597 85.4082 77.8164 85.67C77.7133 85.5111 77.6047 85.3502 77.5069 85.1886C77.9134 84.9529 78.2973 84.7761 78.6954 84.5558C78.8476 82.858 79.3412 81.292 80.6797 80.1466C80.8928 79.9645 81.4586 79.5263 81.7315 79.546C81.8521 79.6598 81.8548 79.8306 81.8575 79.9923C81.8777 81.2919 81.8163 82.2064 80.8926 83.174C80.8506 83.2181 80.8082 83.2621 80.7657 83.3058C81.3948 82.8768 82.4011 82.2203 82.9668 81.7179C82.9105 79.7967 83.3798 77.872 84.7491 76.4962C84.9156 76.3291 84.9145 76.3154 85.1172 76.3058C85.2875 76.3931 85.4024 76.5118 85.4375 76.7023C85.6648 77.9296 85.6689 79.0304 85.0489 80.1124C85.4123 79.7538 86.111 79.1147 86.4219 78.7628C86.201 76.5333 86.1901 74.3223 87.7139 72.4542C87.7532 72.406 87.7937 72.3579 87.834 72.3107C88.5557 73.0946 88.6895 74.0811 88.6719 75.1241C88.6565 76.0816 88.273 76.6568 87.7871 77.421C88.3188 76.909 88.8551 76.1749 89.3809 75.6075C88.7784 73.0976 88.9176 70.6332 90.212 68.3585C90.8192 69.1249 91.0646 69.7313 91.2461 70.6935C91.4686 71.8745 91.2595 72.5732 90.8555 73.6691C91.3191 72.982 91.6936 72.2826 92.1407 71.5939C91.9912 71.347 91.9062 71.1226 91.7998 70.8566C90.9202 68.6554 90.9813 66.5545 92.0498 64.4279C92.904 65.3544 93.5946 66.9773 93.4942 68.2482C93.4761 68.477 93.3372 69.219 93.3516 69.2648C93.648 68.575 93.9145 67.8745 94.1934 67.1779C93.4154 65.899 92.7481 64.1116 92.6475 62.6183C92.6076 62.0255 92.6374 60.3735 92.9561 59.882C93.5272 59.6425 94.448 61.7215 94.67 62.0968C95.2235 63.0319 94.7826 63.9867 94.9327 64.7697C95.1791 64.2465 95.4138 62.2718 95.5176 61.6613C95.0998 61.0785 94.6179 60.5298 94.2198 59.9454C93.0185 58.1822 92.592 56.4226 92.7735 54.3097C94.466 55.2571 95.2749 56.625 95.6592 58.5011L95.7657 59.3605C95.766 59.357 95.7653 59.3533 95.7657 59.3497L95.6612 58.5001C95.8936 58.1976 95.6712 56.713 95.7754 56.1447C95.7751 56.1421 95.7757 56.1394 95.7754 56.1368C95.528 55.9394 94.9772 55.3324 94.7403 55.0822C93.0686 53.3184 92.359 51.6533 92.0039 49.2687C93.5027 49.8748 94.3888 50.7227 95.2159 52.1573C95.3298 52.355 95.4366 52.82 95.5606 53.0958C95.5962 53.0174 95.2925 51.1398 95.2745 50.8282L95.2725 50.7765C92.8924 49.2312 91.6202 47.5391 90.9043 44.8263C91.1443 44.9086 91.3838 44.994 91.6211 45.0831C92.9363 45.5773 93.956 46.2846 94.542 47.5753C94.3632 46.8852 94.2113 46.3071 93.9825 45.6329C92.9638 45.2546 91.8248 44.813 90.961 44.1505C90.4916 43.7906 89.3216 42.7562 89.2412 42.17C89.3901 41.7341 90.0403 41.8713 90.4063 41.9366C91.5849 42.1475 92.5454 42.8906 93.209 43.8663C93.2947 43.992 93.2647 43.9846 93.3955 44.0626C93.3948 43.9315 92.5041 41.9963 92.3829 41.6779C90.5596 41.6683 87.8962 40.338 87.1045 38.6359C89.0725 38.4167 90.4496 38.9898 91.7354 40.4523C91.4091 39.862 90.8675 38.8473 90.4444 38.3419C88.093 38.0983 86.038 37.1298 84.6143 35.2091C86.1609 34.788 87.5929 34.9622 88.7686 36.132L88.9414 36.0646C88.6328 35.66 88.3362 35.2671 88.0196 34.8663C87.482 34.6675 86.7155 34.5037 86.1446 34.3087C84.1378 33.6229 83.0057 32.7229 81.7588 31.0792C81.8449 31.0633 81.9315 31.0492 82.0176 31.0363C83.3231 30.8432 84.4126 31.2444 85.4424 32.004L85.5782 31.8282C84.1118 30.7943 82.731 29.547 81.7344 28.047C81.4982 27.6906 80.965 26.8254 81.0567 26.3966ZM69.6592 71.5909C70.5534 71.5478 70.9747 71.9522 71.418 72.6505C71.1658 72.659 70.9091 72.6494 70.6563 72.6447C68.4067 70.5554 68.2801 75.8404 70.5918 73.9142C70.8631 73.811 71.1296 73.8304 71.42 73.8273C70.9005 74.7441 70.0063 75.3037 68.9883 74.7072C68.5929 74.4751 68.3086 74.0916 68.2022 73.6456C67.9364 72.5177 68.6168 71.8278 69.6592 71.5909ZM76.752 71.6085C77.6653 71.4499 78.5332 72.0648 78.6875 72.9786C78.8417 73.8924 78.2239 74.7573 77.3096 74.9073C76.4002 75.0572 75.541 74.4436 75.3877 73.5353C75.2346 72.627 75.8448 71.7657 76.752 71.6085ZM56.5235 71.5929C57.086 71.5615 58.2083 71.9824 58.2286 72.587C57.7741 72.827 56.9883 72.1547 56.6827 72.1788C55.2644 72.2933 55.4652 74.675 57.0274 74.2716C57.3936 74.1769 57.4698 73.9342 57.6758 73.6085C57.2559 73.6085 56.9207 73.7002 56.5567 73.5597C56.4295 73.4011 56.4731 73.3996 56.462 73.1447C56.6339 73.0302 57.9345 73.081 58.3379 73.0363C58.3576 74.791 56.717 75.5371 55.4082 74.337C54.8803 73.8532 54.9211 72.9108 55.2862 72.3488C55.5895 71.8818 55.9755 71.7131 56.5235 71.5929ZM31.6153 71.5929C31.6008 72.4913 31.6454 73.3982 31.6153 74.296C31.6056 74.5822 31.5358 74.786 31.2774 74.92C31.1153 74.9147 31.1011 74.8871 30.9649 74.7999C30.8612 74.6136 30.8903 74.4555 30.8946 74.2335L30.9258 72.8595C30.6593 73.4231 30.3585 74.4825 29.9493 74.8556C29.5483 74.9637 29.3711 74.4395 29.2442 74.1261C29.0762 73.7115 28.935 73.3134 28.7403 72.9073C28.7192 73.4571 28.9283 74.5322 28.4873 74.84C28.3173 74.8591 28.3011 74.8721 28.1348 74.8195C27.9613 74.6158 28.0039 71.9917 28.0196 71.5929C29.0148 71.6078 28.8862 71.7939 29.2725 72.6847C29.4646 73.128 29.6503 73.5886 29.8457 74.0314C30.0556 73.495 30.5837 72.0673 30.8985 71.6349C31.1272 71.6104 31.3834 71.6035 31.6153 71.5929ZM35.8194 71.5919C36.3836 71.5717 36.6098 71.6718 37.0411 72.0333L37.2266 72.5597C36.1333 72.5964 36.5246 72.221 35.8116 72.089C35.5606 72.1731 35.5194 72.4052 35.5821 72.6447C35.8278 72.9536 36.4554 73.073 36.8916 73.255C37.4868 74.0651 37.2024 74.7505 36.209 74.9113C35.3103 74.9027 35.103 74.7731 34.7588 73.962L35.4864 73.9728C35.7331 74.316 36.0441 74.531 36.4502 74.255C36.8722 73.3594 34.9064 73.5846 34.8399 72.7648C34.779 72.0101 35.1353 71.742 35.8194 71.5919ZM59.6553 71.6095C60.6314 71.5957 60.5063 72.0769 60.8457 72.9161C60.9628 73.2057 61.471 74.6028 61.4502 74.7843C61.2784 74.8854 61.2859 74.8916 61.0762 74.8986C60.58 74.733 60.7986 74.2555 60.3692 74.2491L59.3614 74.2413C59.2619 74.5387 59.2528 74.6835 58.9981 74.8341C58.8161 74.8437 58.671 74.8753 58.5166 74.7902C58.5156 74.5319 59.4855 71.7676 59.6553 71.6095ZM71.5489 71.6388C72.0715 71.6372 73.735 71.4582 74.0176 71.8361C74.0304 72.0294 74.0529 71.944 73.9561 72.1036C73.732 72.1877 73.3774 72.151 73.1241 72.1447C73.1427 72.7502 73.1369 73.3972 73.1407 74.006C73.1545 74.3731 73.2369 74.7343 72.8223 74.8956C72.6472 74.8818 72.6571 74.8889 72.5235 74.7755C72.3625 74.4715 72.4546 72.6255 72.4668 72.1573C72.2167 72.16 71.7893 72.2059 71.6036 72.0968C71.5003 71.8962 71.5404 71.9007 71.5489 71.6388ZM40.1924 71.6085C40.6105 71.6207 41.7737 71.5666 42.0664 71.6798C42.1525 71.8288 42.1326 71.856 42.1172 72.0284C41.8878 72.2099 41.1907 72.1414 40.8633 72.1329L40.8741 73.0206C41.2008 73.0073 41.6641 72.9471 41.9434 73.0724C42.0665 73.2288 42.0325 73.1404 42.0332 73.3536C41.8039 73.5921 41.3362 73.441 40.9073 73.507L40.8682 73.5978L40.8711 74.3595C41.2295 74.3504 41.8923 74.2477 42.1299 74.5138C42.1285 74.7066 42.1514 74.6174 42.0489 74.7892C41.6967 74.9435 40.5924 74.872 40.1621 74.8624C40.1885 74.0496 40.1069 72.2727 40.1924 71.6085ZM45.8672 71.6339C46.0739 72.1076 46.3427 72.6228 46.5635 73.1124C46.7563 72.5989 46.9911 72.1019 47.2647 71.6261L47.9053 71.6212L47.9493 71.6886C47.684 72.3571 47.2112 73.0099 46.9502 73.672C46.8648 73.8886 46.9917 74.4709 46.8428 74.7775C46.6521 74.8865 46.4429 74.8689 46.2159 74.879C46.204 73.8848 46.2311 73.7679 45.7666 72.9083L45.0977 71.6154L45.8672 71.6339ZM62.501 71.6027C62.4856 72.5208 62.4976 73.4656 62.4981 74.3859C62.8376 74.3619 63.2628 74.2834 63.5469 74.4425C63.6464 74.6176 63.609 74.5846 63.5782 74.8341C63.0981 74.8889 62.2782 74.8938 61.8008 74.8507C61.8386 73.8565 61.7402 72.504 61.8184 71.5997C62.0366 71.6072 62.2802 71.6021 62.501 71.6027ZM52.8057 71.6241C53.3668 71.6316 54.2132 71.5807 54.7305 71.6515C54.8108 71.7686 54.7884 71.8714 54.7852 72.0177C54.584 72.2061 53.8516 72.1463 53.5323 72.1437C53.5413 72.4437 53.5366 72.723 53.5313 73.0226C53.882 73.0135 54.1805 73.0071 54.5313 73.0236C54.6745 73.154 54.6222 73.0741 54.6621 73.2902C54.4795 73.7094 53.8728 73.2828 53.5391 73.5792L53.544 73.7531C53.5419 73.9399 53.5257 74.1689 53.5752 74.3419C53.9919 74.4608 54.5343 74.1738 54.8125 74.4786C54.7998 74.9513 54.321 74.8678 53.9698 74.8741C53.5834 74.8811 53.1868 74.8674 52.7998 74.8605C52.8142 73.7817 52.8158 72.7029 52.8057 71.6241ZM75.0313 71.6173C74.9823 72.6555 75.0656 73.756 75.0108 74.8156C74.7665 74.8608 74.5368 74.9446 74.3399 74.7716C74.2638 74.3918 74.2497 71.9622 74.3545 71.5929L75.0313 71.6173ZM31.8155 71.6281C31.9475 71.6238 32.2943 71.6044 32.4043 71.6544C32.8386 71.8508 33.0567 72.6492 33.2315 73.1085C33.4798 72.6168 33.6845 72.0926 33.9864 71.6349L34.6993 71.631C34.4711 72.0435 34.2557 72.4781 34.0411 72.8986C33.9122 73.1566 33.7156 73.4738 33.6524 73.7462C33.5906 74.0129 33.6488 74.6247 33.462 74.8136C33.2712 74.891 33.2745 74.8811 33.0791 74.8615C32.7684 74.6577 33.0016 74.1745 32.9434 73.9738C32.7573 73.3362 32.1207 72.2327 31.8155 71.6281ZM79.6377 71.6427C80.0279 72.042 80.8903 73.4529 81.167 73.9718L81.1534 73.8243C81.0916 73.1628 81.1039 72.2734 81.1348 71.6075L81.8243 71.6017C81.8099 72.657 81.8087 73.7133 81.8194 74.7687C81.6054 74.9214 81.3716 74.866 81.1055 74.8468C80.6899 74.3103 80.0452 73.2709 79.6748 72.67C79.6722 73.2937 79.6871 73.9415 79.6748 74.5646C79.6711 74.7537 79.6606 74.734 79.5645 74.8077C79.3681 74.8285 79.273 74.8511 79.0772 74.8107C78.9053 74.5574 78.9477 72.0347 78.9786 71.5939C79.1951 71.6061 79.4201 71.6262 79.6377 71.6427ZM37.462 71.629C38.0371 71.6459 39.5522 71.4444 39.9014 71.8361C39.9101 72.0282 39.9319 71.9428 39.8448 72.1046C39.6206 72.1913 39.2664 72.1544 39.0118 72.1486L39.0196 74.0597L39.0147 74.8419C38.7581 74.8648 38.5386 74.9164 38.3409 74.7667C38.2457 74.3725 38.2841 72.612 38.3223 72.1691C38.0784 72.1558 37.7267 72.2072 37.5469 72.1056C37.4233 71.8936 37.4667 71.9131 37.462 71.629ZM51.5401 71.6066C51.5211 72.5219 51.5343 73.4727 51.5352 74.3907C51.8745 74.3657 52.2307 74.2911 52.5166 74.4464C52.6325 74.6173 52.5936 74.6236 52.6075 74.8673C52.259 74.837 51.25 74.8666 50.8301 74.8634C50.8386 73.8399 50.7865 72.5865 50.8409 71.5939C51.0692 71.6045 51.3105 71.6034 51.5401 71.6066ZM64.7989 71.6261C65.1837 71.6298 66.5458 71.5703 66.8077 71.6779C66.889 71.8241 66.8659 71.8693 66.8526 72.0382C66.6046 72.1979 65.858 72.1454 65.5205 72.1427C65.5365 72.4763 65.5495 72.6905 65.5235 73.0245C65.8721 73.0166 66.3755 72.9063 66.6241 73.1495C66.6496 73.3372 66.6293 73.3527 66.5713 73.5304C66.2144 73.5511 65.8771 73.5357 65.5196 73.5245C65.552 74.0245 65.557 74.3342 65.5352 74.8341C65.2984 74.8575 65.1208 74.9018 64.9053 74.8146C64.7584 74.6249 64.8047 72.0343 64.7989 71.6261ZM42.5625 71.6095C43.4909 71.6196 45.234 71.4397 44.9004 72.9464C44.8249 73.287 44.5052 73.4535 44.2305 73.6222C44.5243 74.0628 44.7135 74.3932 44.9659 74.8556C44.7269 74.8614 44.4499 74.846 44.208 74.838C43.9464 74.5177 43.6749 73.744 43.3614 73.5861C43.0475 73.7745 43.452 74.4489 43.125 74.839C42.2088 75.0108 42.578 73.8281 42.5664 73.2872C42.5555 72.7827 42.4705 72.0896 42.5625 71.6095ZM67.8409 71.5939C67.8361 72.1304 67.9115 74.5121 67.795 74.84C67.5785 74.8522 67.3155 74.9027 67.1729 74.7247C67.1213 74.3644 67.1165 71.93 67.1612 71.5968L67.8409 71.5939ZM76.8291 72.1681C75.5944 72.7253 75.8349 74.3889 77.2315 74.3107C78.1243 74.0269 78.1596 73.182 77.751 72.4562C77.4333 72.2433 77.2266 72.125 76.8291 72.1681ZM59.9473 72.5245C59.8584 72.7832 59.5879 73.405 59.5938 73.6046C59.7247 73.8611 59.8684 73.7813 60.1563 73.7648L60.3262 73.7579C60.4327 73.5568 60.0958 72.6783 59.9473 72.5245ZM48.2412 73.049C48.6196 72.8861 49.6606 72.9561 50.1416 72.9454L50.1729 72.9611C50.2558 73.093 50.2212 73.3361 50.2149 73.507C49.5552 73.5043 48.927 73.503 48.2676 73.5275L48.1954 73.4982C48.1202 73.3226 48.1342 73.1968 48.2412 73.049ZM43.2432 73.1915C43.5706 73.1569 43.8768 73.147 44.1758 73.0118C44.6076 72.2036 43.7922 72.1553 43.2286 72.1505L43.2432 73.1915ZM56.7637 66.2491C57.3044 66.2215 58.4296 66.146 58.5166 66.8663C58.5863 67.4469 57.986 67.7912 57.5049 67.8663C57.6784 68.1563 58.1071 68.815 58.0479 69.1212L57.9424 69.1339C57.7829 69.0653 57.729 68.9051 57.6397 68.7423C57.4108 68.3288 57.4589 67.8635 56.8985 67.8566C56.5328 68.1419 56.8102 68.6508 56.4571 69.1818L56.3829 69.1495C56.2945 68.5652 56.6493 66.9091 56.7637 66.2491ZM51.9102 66.2511C52.2477 66.2415 53.17 66.2004 53.458 66.3312C53.3032 66.4871 52.9426 66.4873 52.7305 66.4894C52.5376 66.4899 52.3443 66.4882 52.1514 66.4845C52.1161 66.9023 52.0947 67.1507 52.0059 67.5568C52.2473 67.5519 52.9116 67.5053 53.0899 67.629C52.8933 67.8903 52.3107 67.7743 51.9961 67.7716C51.9131 67.9173 51.919 68.0154 51.8916 68.1886C51.8831 68.4292 51.7824 68.9897 51.5645 69.1095C51.4458 68.8093 51.6223 67.9917 51.6836 67.6388C51.7587 67.2168 51.8644 66.674 51.9102 66.2511ZM54.8741 66.2208C55.3034 66.1905 55.5101 66.28 55.876 66.4816C56.6169 67.5417 56.0247 68.767 54.8204 69.089C53.8299 69.098 53.6015 68.8291 53.3662 67.9142C53.577 66.9514 53.8459 66.4172 54.8741 66.2208ZM54.9532 66.4816C53.473 66.7456 53.1803 68.7506 54.7412 68.8575C55.2393 68.6697 55.5473 68.5097 55.7735 67.9904C56.114 67.2092 55.8747 66.494 54.9532 66.4816ZM57.1924 66.4796C56.9051 66.6387 56.8765 67.3442 56.835 67.6759C57.1277 67.6647 57.4512 67.6659 57.7354 67.6095C58.2239 67.4194 58.4313 66.8038 57.8204 66.5382C57.7297 66.499 57.3018 66.4849 57.1924 66.4796ZM53.0704 60.6857C53.9481 60.7247 54.6464 61.4347 54.67 62.3126C54.6934 63.1907 54.0338 63.9383 53.1592 64.0236C52.2847 64.1087 51.4932 63.5023 51.3467 62.6359L51.1534 62.6505V62.6515C51.0021 63.5024 50.227 64.0968 49.3662 64.0236C48.5053 63.9496 47.8423 63.2316 47.8379 62.3673C47.8335 61.5036 48.4886 60.779 49.3487 60.6964C50.2086 60.6139 50.9891 61.1999 51.1495 62.049L51.334 62.1671C51.4341 61.2937 52.1926 60.6474 53.0704 60.6857ZM60.0557 60.7374C60.9539 60.5098 61.8657 61.055 62.0899 61.9542C62.3139 62.8531 61.7641 63.7636 60.8643 63.9835C59.9697 64.2022 59.0664 63.6563 58.8438 62.7628C58.6208 61.8692 59.1632 60.9636 60.0557 60.7374ZM45.0547 60.7325C45.7348 60.7384 47.555 60.5663 47.5537 61.5343C47.5533 61.8785 47.3378 62.0671 47.1114 62.2804C47.1973 62.6559 47.8278 62.5806 47.5782 63.3849C47.0549 64.2183 45.973 63.9886 45.0733 64.0216C45.0567 62.9205 45.0905 61.8464 45.0547 60.7325ZM33.6387 60.7335C34.0965 60.7372 34.569 60.7267 35.0245 60.7618C36.0823 60.8422 36.4848 61.4953 35.6924 62.299C35.8032 62.8109 36.4044 62.5175 36.0245 63.5792C35.5116 64.1434 34.386 63.9933 33.6543 64.0226C33.606 63.1151 33.6478 61.7031 33.6387 60.7335ZM36.4571 60.7374C36.8734 60.7497 38.1292 60.677 38.4034 60.8292C38.5826 61.4684 37.5706 61.2673 37.1582 61.2482L37.1641 62.0587C37.5024 62.0523 37.9092 62.034 38.2393 62.0675C38.3833 62.2403 38.3655 62.3819 38.3077 62.5861C38.0733 62.7185 37.5518 62.5383 37.1856 62.6456L37.1573 62.7413C37.1733 63.0005 37.1684 63.1996 37.1621 63.4572C37.5626 63.4475 38.0219 63.3413 38.3409 63.5382C38.4484 63.6843 38.4304 63.7171 38.4356 63.8995C38.2153 64.0553 36.8906 63.9897 36.4639 64.0216C36.4616 62.9194 36.4743 61.8429 36.4571 60.7374ZM41.3653 60.7462C41.7986 60.7755 43.6158 60.6262 43.8164 60.8507C43.8286 61.0231 43.8372 61.0629 43.8125 61.2374C43.6503 61.3023 43.1123 61.2619 42.9034 61.255C42.9585 61.7153 42.9349 62.5331 42.9346 63.0206C42.9327 63.3388 42.9481 63.687 42.9571 64.0079C42.7272 64.0053 42.4697 64.0164 42.2373 64.0206L42.2461 61.2521C41.9899 61.2569 41.6061 61.319 41.419 61.214C41.3132 61.0107 41.3544 61.0138 41.3653 60.7462ZM39.5889 60.7316C40.0101 60.6922 40.2423 60.7091 40.6329 60.8868C40.9041 61.0098 41.2689 61.2878 41.0225 61.6202C40.3629 61.7219 39.9876 60.9904 39.5381 61.3234C39.4661 61.5096 39.478 61.5155 39.4932 61.7081C39.8612 62.3243 41.673 62.1286 41.0293 63.4357C40.8539 63.792 40.6914 63.8583 40.3311 63.9855C39.3791 64.0914 39.0729 63.9199 38.7002 63.0802C39.2108 63.0791 39.2091 63.0712 39.6338 63.3468C39.8706 63.5006 40.169 63.4759 40.375 63.2697C40.5434 62.6507 39.4804 62.5199 38.9825 62.256C38.5576 61.5284 38.7394 60.9466 39.5889 60.7316ZM57.6631 60.7189C57.2666 61.2607 56.7621 61.8362 56.3204 62.3429C56.5737 62.6818 56.9942 63.1423 57.2784 63.4738C57.4507 63.7147 57.5482 63.7981 57.7598 63.9943C57.4168 64.0139 57.2077 63.9972 56.8662 63.9728C56.5544 63.6801 55.9373 62.8756 55.6631 62.5216C55.6716 63.025 55.6798 63.5075 55.709 64.0109L54.9952 64.0128L54.9883 60.7306H55.6827L55.6778 62.2208C56.0046 61.7615 56.4902 61.1636 56.8692 60.757L57.6631 60.7189ZM62.4454 60.7423C62.8559 60.7513 64.2839 60.6739 64.5362 60.8165C64.575 60.9863 64.5756 60.9749 64.5411 61.1447C64.313 61.3472 63.5072 61.2646 63.1592 61.255C63.1794 61.5876 63.1767 61.776 63.1602 62.1085C63.5124 62.0724 63.8922 62.0827 64.2481 62.0822C64.2476 62.2876 64.2724 62.4535 64.2969 62.6573L63.1602 62.6544C63.1911 63.0743 63.1772 63.5615 63.2022 64.0079L62.4424 63.9952C62.4195 62.9728 62.4448 61.7812 62.4454 60.7423ZM75.8936 60.5997C76.15 60.618 75.7843 62.3886 76.0586 62.7042C76.2066 62.7383 76.2919 62.7404 76.3936 62.8517C76.4111 63.0335 76.4132 63.0202 76.335 63.1857C75.9727 63.4628 76.0245 63.4583 75.9405 63.9249C75.8303 64.0005 75.4597 63.9844 75.292 63.9913C75.2894 63.7455 75.3252 63.4964 75.1778 63.3224L75.0049 63.3214C74.6228 63.3273 74.0685 63.3535 73.7051 63.3019L73.6387 63.213C73.6505 62.6299 74.8353 61.104 75.2286 60.6193C75.4318 60.6012 75.6856 60.604 75.8936 60.5997ZM70.0245 60.5656L70.4786 60.8605C70.5499 60.9855 70.6149 61.1152 70.6729 61.2472C71.0215 62.0604 70.9529 63.5376 69.9922 63.924C69.3962 64.0218 68.7486 63.9435 68.5 63.3331C68.1344 62.4337 68.1612 61.0421 69.1368 60.5753C69.442 60.5429 69.7181 60.5581 70.0245 60.5656ZM72.6563 60.5382C74.1816 61.3802 72.9455 62.7121 72.0205 63.3976H73.4805L73.4493 63.924L71.917 63.9298C71.5817 63.9468 71.336 64.0128 71.087 63.7999C70.9011 63.116 73.3293 62.2059 72.5108 61.1613C71.9201 60.8303 71.8728 61.6189 71.3555 61.7355C71.189 61.702 71.2013 61.7018 71.0801 61.5812C70.9886 61.1698 71.4712 60.745 71.8028 60.5704C72.0528 60.546 72.3983 60.5456 72.6563 60.5382ZM66.7911 60.5323C67.3078 60.5196 67.4607 60.618 67.8243 60.9708C68.1579 62.1752 67.5366 62.6727 66.6612 63.3917C67.1129 63.4082 67.6226 63.2933 67.9844 63.464C68.1286 63.6455 68.0866 63.568 68.1143 63.8185L68.042 63.8917C67.6077 63.9758 66.5396 63.9326 66.0362 63.9288C65.8516 63.9326 65.8079 63.9527 65.6905 63.8263C65.6048 63.1243 67.6427 62.255 67.2598 61.2726C66.627 60.6898 66.487 61.4605 66.1543 61.6622C65.8967 61.7186 65.6821 61.6417 65.6592 61.3575C65.8412 60.9 66.2957 60.5601 66.7911 60.5323ZM60.458 61.2726C59.0987 61.5137 59.1199 63.1904 60.5245 63.4825C61.4819 63.1212 61.4854 62.7403 61.3555 61.7882C61.0421 61.4343 60.9417 61.3274 60.458 61.2726ZM52.9102 61.2618C51.9163 61.562 51.9235 62.1881 52.1836 63.0636C52.54 63.3141 52.6579 63.4179 53.0987 63.4796C53.599 63.2668 53.6875 63.2059 53.9688 62.7198C53.9725 62.4809 53.9829 62.2165 53.9717 61.9796C53.6812 61.5375 53.4909 61.279 52.9102 61.2618ZM49.4971 61.2736C48.4707 61.46 48.3949 62.1881 48.709 63.0714C49.0605 63.3495 49.1624 63.408 49.6045 63.4777C50.8971 62.9545 50.8011 61.4343 49.4971 61.2736ZM45.7705 62.588L45.7774 63.463C46.1894 63.4609 46.5204 63.5182 46.8438 63.2921C46.9427 63.0992 46.9472 63.1095 46.9229 62.8995C46.6708 62.5122 46.1951 62.5864 45.7705 62.588ZM34.3418 62.587C34.349 62.8372 34.3725 63.2261 34.3506 63.464C34.6717 63.4603 35.0773 63.4912 35.3496 63.3615C35.7575 62.4966 34.9106 62.5849 34.3418 62.587ZM69.3838 61.1486C69.1428 61.3119 69.0443 61.4997 69.0108 61.7892C68.9283 62.5077 68.845 63.3324 69.7471 63.3595C69.9621 63.235 70.0545 63.1388 70.0987 62.8898C70.2243 62.1814 70.3376 61.1693 69.3838 61.1486ZM75.3379 61.4054C75.1805 61.6114 74.4901 62.5642 74.4746 62.7589L75.333 62.7413C75.3256 62.5155 75.3484 61.4815 75.3379 61.4054ZM34.3506 61.2452C34.35 61.5028 34.3576 61.809 34.3438 62.0616C34.6827 62.0585 34.9872 62.0724 35.3145 61.9835C35.3904 61.7771 35.4095 61.7562 35.3838 61.546C35.1592 61.1905 34.7374 61.2516 34.3506 61.2452ZM45.7715 62.0597C46.0911 62.0592 46.459 62.0869 46.7539 61.9865C46.9644 61.2717 46.5432 61.2665 45.9834 61.2511L45.7754 61.2462L45.7715 62.0597ZM56.6377 55.256C56.9161 55.2432 57.0031 55.2252 57.2676 55.2902C57.5052 55.4554 58.5357 58.3197 58.458 58.5118C57.9301 58.8114 57.7742 58.2947 57.5518 57.9318L57.3916 57.9093L56.3526 57.924L56.3399 57.9679L56.3174 58.0402C56.2509 58.2626 56.2658 58.2895 56.1084 58.4532C55.8994 58.5639 55.6765 58.528 55.4297 58.5216C55.6277 57.965 56.4184 55.6369 56.6377 55.256ZM63.1875 55.2599C64.0955 55.0779 64.9805 55.6659 65.1631 56.5743C65.3457 57.4829 64.7562 58.3674 63.8477 58.5499C62.9395 58.7322 62.0558 58.1436 61.8731 57.2355C61.6911 56.3275 62.279 55.4424 63.1875 55.2599ZM67.4834 55.2687C67.6984 55.2527 67.9564 55.2053 68.1416 55.2941C68.2577 55.4958 68.2146 55.5324 68.2178 55.8038C68.2215 56.4389 68.2911 57.8749 67.8877 58.1554C66.3104 59.2513 65.2168 58.0428 65.5127 56.3654C65.5451 56.1809 65.5071 55.3854 65.5049 55.2491L66.2159 55.2482C66.2084 55.6826 66.1087 57.5424 66.3682 57.7384C67.8555 58.8548 67.4767 55.9385 67.4834 55.2687ZM39.7071 55.2579C39.9233 55.8248 40.1294 56.4295 40.337 57.0011C40.453 57.3205 40.7734 58.0515 40.8184 58.3458C40.749 58.5337 40.8078 58.4651 40.6377 58.5616C39.8432 58.6191 40.2356 57.9914 39.7735 57.9083L38.7315 57.9142L38.4727 58.504L37.7901 58.5275C37.9839 57.9122 38.7169 55.6982 39.0235 55.2491L39.7071 55.2579ZM32.7442 55.2521C33.626 55.2632 35.6081 55.0954 35.1426 56.6573C35.0583 56.9404 34.7505 57.112 34.4864 57.2062C34.6665 57.5772 35.154 58.2142 35.1231 58.4728C34.9592 58.576 34.8365 58.5378 34.6153 58.5372C34.163 58.4154 34.0361 57.4584 33.5889 57.3077C33.4013 57.4999 33.4758 58.2374 33.4854 58.5275L32.7784 58.5363C32.7834 57.4416 32.7721 56.3467 32.7442 55.2521ZM50.4346 55.254C51.3356 55.1886 51.6205 55.4246 51.9873 56.2042C51.7416 56.2074 51.4732 56.195 51.2256 56.1886C50.979 55.8927 50.5569 55.6419 50.2481 55.9894C50.2005 56.4311 50.7967 56.6453 51.1426 56.7316C52.388 57.0429 52.1592 58.3056 51.003 58.5431C50.1395 58.5511 49.7695 58.482 49.4942 57.6163C49.7173 57.611 49.9525 57.6162 50.1768 57.6173C50.4498 57.9472 50.8877 58.2085 51.2276 57.8077C51.4013 56.9935 49.7513 57.2295 49.5889 56.507C49.4211 55.7597 49.7475 55.4685 50.4346 55.254ZM41.1543 55.2452C41.9717 55.2707 43.2098 55.1747 43.7403 55.9171C44.265 56.6521 44.1334 57.406 43.6036 58.0909C42.906 58.6524 42.0587 58.5065 41.1534 58.5421C41.1931 57.5375 41.1674 56.2573 41.1543 55.2452ZM73.0293 55.2697C73.3636 55.2681 74.7869 55.1812 74.9258 55.3888C74.9152 55.6187 74.9552 55.6419 74.8418 55.7872C74.605 55.8846 74.2892 55.8455 74.0215 55.838C74.0476 56.5879 74.0316 57.4288 74.0342 58.1857C74.0465 58.3165 74.0417 58.3277 74.0225 58.4591C73.8363 58.5783 73.6118 58.5367 73.3633 58.5372C73.3357 57.7736 73.3385 56.5941 73.3731 55.84C72.9941 55.8479 72.6385 55.9174 72.4043 55.5587L72.4287 55.4513C72.6278 55.248 72.7351 55.2755 73.0293 55.2697ZM46.6846 55.2687C47.6455 55.2506 48.2677 55.1402 49.0245 55.7267C49.252 56.4479 49.2042 56.9074 48.4346 57.2198C48.6957 57.6444 48.919 58.0766 49.1963 58.5187C48.9679 58.5277 48.732 58.5177 48.503 58.5118C48.1698 58.3846 47.9475 57.404 47.5069 57.297C47.3599 57.5136 47.4158 58.2301 47.4209 58.5411L46.6934 58.504C46.6966 57.3887 46.7094 56.3925 46.6846 55.2687ZM75.2207 55.2521C75.8365 55.2856 76.5578 55.2792 77.1709 55.2579C77.1821 55.6614 77.2128 55.9149 76.6817 55.8644C76.4289 55.8404 76.1582 55.8401 75.9034 55.839C75.9395 56.1916 75.9457 56.2838 75.918 56.6417C76.1826 56.6406 76.8542 56.5859 77.0059 56.7159C77.2209 57.5569 76.3213 56.8961 75.92 57.1915L75.9297 57.3458C75.9526 57.6084 75.9318 57.7446 75.9063 58.004C76.2304 57.9992 77.4659 57.7754 77.1397 58.4865C76.7916 58.5465 75.6738 58.5199 75.2286 58.5402C75.2333 57.4444 75.2309 56.3479 75.2207 55.2521ZM35.5879 55.257C35.9531 55.274 37.3851 55.1769 37.5557 55.3956C37.5564 55.6554 37.6022 55.6463 37.4737 55.7882C37.1579 55.8989 36.6174 55.8471 36.2647 55.838C36.2835 56.0933 36.2844 56.3852 36.292 56.6437C36.5927 56.6362 37.2404 56.5401 37.4229 56.7628C37.4569 56.9367 37.4708 56.9318 37.4004 57.09C37.15 57.2347 36.5605 57.0562 36.2774 57.1642L36.292 58.0031C36.6409 57.9866 37.1689 57.9307 37.4795 58.0616C37.5741 58.1946 37.5522 58.3609 37.4629 58.4874C37.1492 58.5476 36.0226 58.5195 35.5967 58.5392C35.611 57.4451 35.6079 56.351 35.5879 55.257ZM72.1465 55.2433C72.1258 56.3412 72.1287 57.4397 72.1553 58.5382L71.4766 58.507C71.484 57.6368 71.4357 56.0725 71.5 55.2599L72.1465 55.2433ZM61.5303 55.965C61.3398 56.5083 60.8971 57.9472 60.5469 58.463C60.4602 58.5912 59.9336 58.5199 59.7491 58.5001C59.608 58.1898 59.4251 57.6077 59.3037 57.2687L58.5625 55.2501C58.8376 55.2469 59.0767 55.2628 59.3496 55.2804C59.4561 55.8008 59.9969 57.2964 60.2168 57.797C60.4233 57.0169 60.7961 56.02 61.0723 55.2579C61.3171 55.2579 61.5599 55.2465 61.8047 55.2374L61.5303 55.965ZM68.6075 55.2677C69.5693 55.2379 71.5433 55.1224 70.9659 56.7472C70.8806 56.9865 70.5368 57.1372 70.3155 57.2091C70.505 57.512 70.9245 58.182 71.0391 58.4923C70.9129 58.5576 70.6485 58.5235 70.4815 58.5187L70.3623 58.4962C70.0494 58.2626 69.8222 57.3997 69.4278 57.297C69.237 57.516 69.3115 58.2192 69.3233 58.5284L68.6231 58.5314C68.6236 57.4431 68.6186 56.3554 68.6075 55.2677ZM44.3868 55.2667C44.7894 55.2757 46.0898 55.195 46.3311 55.3361C46.3889 55.5383 46.3795 55.6507 46.2344 55.796C45.9471 55.8955 45.4142 55.8448 45.0782 55.839C45.1148 56.1915 45.12 56.2868 45.0948 56.6447C45.3737 56.6377 46.6606 56.4698 46.084 57.1271C45.7357 57.2461 45.3659 56.985 45.0938 57.212L45.1055 57.3868C45.1275 57.5911 45.1025 57.7977 45.087 58.0031C45.3765 57.9918 46.1567 57.9162 46.3448 58.088C46.3581 58.2508 46.3886 58.3564 46.3028 58.4894C45.976 58.5468 44.7903 58.5161 44.3614 58.5177C44.3759 57.5719 44.3305 56.1581 44.3868 55.2667ZM53.2803 55.2677C53.7072 55.2762 55.018 55.1982 55.3086 55.3361C55.3799 55.4829 55.3563 55.5849 55.3467 55.7482C55.1376 55.9068 54.2809 55.8439 53.9659 55.838C54.0015 56.1919 54.0126 56.2944 53.9786 56.6534L54.5098 56.6232C54.7446 56.6072 54.7432 56.5885 54.9512 56.6837C55.1056 56.879 55.0622 56.8954 55.1075 57.1818L53.962 57.1779C54.0231 57.6259 53.974 58.0447 54.0303 58.5236L53.2608 58.5128C53.2671 57.9956 53.2194 55.5726 53.2803 55.2677ZM41.8418 55.8361C41.8858 56.3198 41.8998 57.5112 41.8428 57.9904C42.3192 57.9675 42.6148 57.9899 43.0381 57.7638C43.3952 57.3327 43.376 57.1187 43.3233 56.5695L43.3135 56.4698C42.8772 55.8142 42.5865 55.8206 41.8418 55.8361ZM63.2256 55.8419C62.9612 55.9978 62.913 56.0402 62.6924 56.256C62.3438 57.2607 62.643 58.0793 63.8243 57.9523C64.2208 57.7777 64.2846 57.5876 64.4991 57.214L64.502 56.5656C64.1157 55.9578 63.9902 55.7914 63.2256 55.8419ZM56.9532 56.1251C56.819 56.5317 56.6708 57.0287 56.5186 57.422L57.0987 57.3976L57.4112 57.3995C57.3881 57.1714 57.0862 56.298 56.9532 56.1251ZM39.3028 56.1847C39.1367 56.5237 39.0028 57.0346 38.8916 57.4093L39.4278 57.3976C39.6001 57.3843 39.673 57.4141 39.7608 57.3204C39.6791 57.0887 39.4426 56.3395 39.3028 56.1847ZM33.4659 55.837L33.4805 56.8038C33.8419 56.7943 34.0922 56.8264 34.4004 56.6359C34.8427 55.8222 34.0111 55.8269 33.4659 55.837ZM47.4229 56.8038C47.8034 56.7874 48.0544 56.8059 48.3985 56.6378C48.6555 55.7703 48.0329 55.8297 47.4043 55.8361L47.4229 56.8038ZM69.3145 56.8009C69.6793 56.7919 69.9063 56.8232 70.2325 56.6652C70.6933 55.7892 69.8837 55.8364 69.2998 55.838L69.3145 56.8009ZM54.9825 38.1368C55.4977 39.786 56.2919 41.9398 56.7022 43.5773C57.2668 43.5165 58.1852 43.5455 58.7813 43.5304C60.0287 43.4985 61.2931 43.4849 62.5411 43.4952C61.0733 44.3861 59.2714 45.836 57.7588 46.8458C57.9792 47.2954 58.164 48.0184 58.3428 48.506C58.7952 49.7397 59.1668 51.138 59.6543 52.3458C58.0726 51.2099 56.5051 50.0534 54.9532 48.8761C53.4465 50.0869 51.8046 51.1742 50.3047 52.3644C50.9259 50.5823 51.5076 48.5675 52.1709 46.8282C50.6981 45.9762 48.888 44.3504 47.4659 43.5509C48.9136 43.376 50.4561 43.5247 51.9141 43.5499C52.2544 43.5558 52.7864 43.6374 53.1026 43.5587C53.4252 43.4783 54.5663 38.8792 54.9278 38.2306C54.9453 38.1991 54.9639 38.168 54.9825 38.1368ZM65.8311 37.3995C65.953 37.5206 66.9605 40.7386 67.0498 41.1447C68.3884 41.1022 69.7501 41.1571 71.0918 41.087L67.7979 43.4415C68.1838 44.5527 68.7443 46.107 69.0381 47.2267C68.6689 46.9534 66.028 44.9281 65.8125 44.8556C64.8066 45.673 63.5993 46.5099 62.545 47.2902C63.0272 46.1861 63.4456 44.3544 63.9395 43.4542C63.6276 43.2782 63.0732 42.8593 62.7608 42.6359L60.6065 41.0958C61.955 41.1334 63.3106 41.1025 64.6543 41.1515C64.7902 40.4547 65.5751 38.1049 65.8311 37.3995ZM44.0411 37.4376C44.287 37.6061 45.1743 40.6431 45.2881 41.1398L49.3233 41.1056C48.2368 41.8844 47.1445 42.655 46.0469 43.4181C46.4851 44.6923 46.9143 45.9697 47.334 47.2501C46.2753 46.5084 45.1011 45.6115 44.0704 44.8234C43.5543 45.3312 41.4504 46.8081 40.8077 47.2579C41.1523 46.4207 41.394 45.6306 41.6807 44.7716C41.8184 44.3593 41.974 43.8189 42.1661 43.4386C41.2524 42.8493 39.7192 41.7438 38.8633 41.0773C40.0797 41.175 41.6388 41.112 42.9063 41.1495C43.1825 40.0373 43.6927 38.5643 44.0411 37.4376ZM36.7618 37.3956C36.907 37.523 37.3222 39.0732 37.3653 39.339C38.1216 39.2991 38.8212 39.3452 39.5938 39.2657C39.047 39.7147 38.2929 40.1419 37.793 40.6085C38.1071 41.2698 38.223 42.0155 38.5918 42.6876C38.0792 42.2776 37.2939 41.7738 36.8662 41.3634C36.8623 41.3621 36.8586 41.36 36.8545 41.3595C36.5828 41.3312 35.3162 42.3829 35.0528 42.6163C35.1922 42.0515 35.5286 41.129 35.7276 40.5548C35.1275 40.1462 34.5152 39.6925 33.9229 39.2677C34.5971 39.3272 35.4698 39.3162 36.167 39.3361C36.252 38.8081 36.5755 37.9228 36.7618 37.3956ZM73.1514 37.4972C73.3674 37.6858 73.7057 38.999 73.8037 39.339C74.5433 39.3017 75.2494 39.3569 75.9932 39.2609C75.5423 39.6429 74.6974 40.2108 74.1914 40.5724C74.4618 41.2462 74.642 41.9018 74.8926 42.5822C74.3148 42.1662 73.7386 41.7461 73.1661 41.3224C72.5855 41.7324 72.015 42.157 71.4551 42.5948C71.6265 42.0368 71.9288 41.0804 72.1475 40.5695C71.5484 40.1393 70.9197 39.6734 70.3057 39.2706C70.9511 39.3321 71.8708 39.3185 72.545 39.337C72.6807 38.8061 72.9178 37.98 73.1514 37.4972ZM86.7852 33.3488C86.7894 33.3511 86.7937 33.3533 86.7979 33.3556L86.7969 33.3546C86.793 33.3524 86.7892 33.35 86.7852 33.3478V33.3488ZM86.7412 33.3068L86.7422 33.3077L86.8096 33.3009V33.2999L86.7412 33.3068ZM86.3418 32.6788C86.4882 32.8588 86.6931 33.0945 86.8213 33.2794L86.8096 33.2999L86.8223 33.2794C86.694 33.0945 86.4891 32.8587 86.3428 32.6788H86.3418ZM87.4092 33.1339V33.1329C87.3992 33.124 87.3903 33.1143 87.3809 33.1056L87.377 33.1027C87.3877 33.1126 87.3978 33.1237 87.4092 33.1339ZM85.9854 32.2267L85.9864 32.2277L85.9854 32.2267Z" fill="#F6EFE9"/>
</svg>
