<svg width="100" height="100" viewBox="0 0 100 100" fill="none" xmlns="http://www.w3.org/2000/svg">
<path fill-rule="evenodd" clip-rule="evenodd" d="M34.0117 83.8313C34.8172 84.1115 35.7473 84.723 36.625 85.0715C41.0714 86.8375 45.7937 87.8317 50.5898 87.6604C50.7146 87.6562 50.8121 87.7475 50.8769 87.8567L50.8603 88.0247C50.5587 88.0642 50.3798 88.0613 50.0762 88.0598C49.9886 87.9621 50.0146 87.9932 49.956 87.8713C49.9341 87.9353 49.9326 88.01 49.8652 88.0383C49.6261 88.1389 48.7864 88.0647 48.4922 88.0637C44.9213 88.0491 40.8567 87.0716 37.4902 85.8977C36.4942 85.5507 35.5291 85.2144 34.583 84.7385L34.542 84.6545L34.5644 84.5657C34.4664 84.5018 34.4462 84.4968 34.3369 84.4592C34.3238 84.3387 34.3303 84.3122 34.3447 84.1917C34.2499 83.9653 34.1882 83.988 34.0117 83.8313ZM30.876 82.0188C31.2162 82.2663 31.4096 82.3851 31.7793 82.5891L31.7783 82.5901C32.1125 82.7704 32.424 82.9855 32.7627 83.1438L32.8867 83.218V83.22C33.0248 83.291 33.9393 83.7582 34.0088 83.8323C34.1851 83.9887 34.247 83.9656 34.3418 84.1917C34.3273 84.3122 34.3209 84.3387 34.334 84.4592C34.4432 84.4968 34.4637 84.502 34.5615 84.5657L34.5391 84.6545C34.1117 84.4935 33.6496 84.2926 33.2725 84.0344C33.4148 84.0826 33.4911 84.1164 33.5781 84.1116C33.4923 84.1155 33.4161 84.082 33.2754 84.0344C33.117 83.9749 33.0231 83.9524 32.8955 83.8391C32.6609 83.7198 32.5197 83.6296 32.3037 83.4885H32.3017C32.1279 83.4427 31.5395 83.0995 31.3906 82.9573V82.9553C31.2312 82.8836 30.9647 82.7803 30.8486 82.6672L30.9023 82.6301C30.8797 82.432 30.8803 82.2189 30.876 82.0188ZM77.3135 59.2454C77.2281 61.3251 77.451 62.7272 78.0889 64.7131C78.3233 65.4443 78.6116 66.1476 78.8437 66.884C78.9248 66.7532 79.1252 66.3311 79.2275 66.1487C79.4123 65.9629 79.5176 65.8437 79.7353 65.6936H79.7334C79.5152 65.844 79.4086 65.9627 79.2236 66.1487C79.4213 65.5972 79.6949 65.2964 79.9394 64.8167C79.9999 65.0586 80.0538 65.2812 80.1309 65.5198C80.0063 65.5768 79.9546 65.7097 79.8935 65.8557L79.8965 65.8606C79.7029 66.2512 79.2422 67.1917 78.9824 67.4905L78.9834 67.4924L78.9639 67.5891C78.8692 68.0732 78.8744 68.628 78.7666 69.1379C78.3073 71.3027 76.5652 73.485 74.748 74.7424C75.5719 73.6765 75.7442 73.135 75.9902 71.8167C75.3806 72.781 74.759 73.2975 74.0498 74.1516C73.7769 74.4806 73.477 75.1801 73.2012 75.5686C71.9599 77.317 70.7351 78.19 68.7754 78.8909L69.0869 78.6575C69.3098 78.4872 69.4332 78.319 69.6074 78.1038C69.3552 78.2082 68.1651 79.0808 67.8682 79.2737C66.8055 79.9653 65.7017 80.5927 64.5635 81.1506C57.52 84.6036 49.4088 85.6021 41.8076 83.5198V83.5188C41.6728 83.4963 41.5194 83.4459 41.3867 83.4065C41.4044 83.3904 41.7924 83.2588 42.0508 83.1741C41.7932 83.2585 41.4058 83.3897 41.3857 83.4065C41.1825 83.3801 40.4549 83.1458 40.2422 83.0764C40.273 83.0227 40.2918 82.9728 40.3047 82.927V82.926C40.2918 82.972 40.2721 83.0215 40.2412 83.0754C39.9423 83.0365 38.6547 82.5503 38.3535 82.4202L38.3525 82.4212C37.5244 82.2015 34.3955 80.6568 33.6299 80.1819C33.5443 80.0981 33.4776 80.0492 33.4336 79.9378L33.4326 79.9368C33.4766 80.0484 33.5433 80.0981 33.6289 80.1819C33.023 79.9523 31.9493 79.0569 31.2793 78.7903C31.217 78.7971 31.1542 78.8045 31.0918 78.8118L31.0908 78.8098C30.9122 78.7428 30.7345 78.6736 30.5586 78.5999C28.6651 77.7969 27.0014 75.938 26.2402 74.0442L26.0439 73.3772C25.5122 71.1041 26.3728 69.3007 26.4678 67.0354C26.5106 66.0143 26.525 64.9852 26.3887 63.97C26.3358 63.509 26.2249 63.1293 26.1641 62.7249C26.5788 63.353 27.0428 63.9752 27.4336 64.6174C28.259 65.9744 28.9334 67.5609 29.2519 69.1184C29.5272 70.4654 29.3493 71.829 29.2598 73.1819C29.1931 74.9603 29.4529 76.2278 30.2773 77.7698L30.3291 77.5178C30.5694 77.4257 31.2639 78.069 31.4805 78.2151C31.8254 78.4479 32.1631 78.6791 32.5225 78.8909C32.9388 79.1944 34.5045 79.9924 34.8017 80.2766C34.7284 80.302 34.6563 80.3127 34.5859 80.3137C34.6566 80.3127 34.729 80.3022 34.8027 80.2766C35.6524 80.6744 36.4673 81.1112 37.3476 81.4514C37.5601 81.5339 38.0867 81.7298 38.2529 81.8411C38.2977 81.9217 38.3625 81.9814 38.4355 82.0295C38.3808 81.9935 38.3314 81.9507 38.291 81.8977C38.2775 81.88 38.2651 81.8612 38.2539 81.8411C38.8402 82.0997 39.7742 82.4061 40.3974 82.6067C40.3494 82.659 40.3416 82.7228 40.3301 82.8001L40.3506 82.6946C40.36 82.6627 40.3736 82.6337 40.3974 82.6077C40.995 82.7788 41.6727 82.9967 42.2724 83.1018C42.2735 83.1016 42.2746 83.1019 42.2754 83.1018C42.8279 83.319 43.3211 83.3123 43.7978 83.4739C47.645 84.1215 50.7765 84.3076 54.6816 83.721C59.7208 82.9585 64.5137 81.0343 68.6816 78.1008C69.1912 77.7372 70.2618 77.0645 70.4648 76.5217C71.1375 74.7245 70.8906 73.1129 70.8174 71.3284C70.6852 68.0976 72.3644 65.2992 74.2041 62.8128C73.654 64.6202 73.7657 67.0883 74.0107 68.9475C74.2079 70.4406 74.6409 71.6649 74.2236 73.2024C74.6605 72.7509 75.71 71.5358 76.0283 71.0432C76.0635 69.414 75.7479 68.7148 75.4443 67.1878C75.0621 65.2646 75.7166 62.7404 76.498 60.9592C76.7489 60.3873 77.0499 59.8232 77.3135 59.2454ZM33.2519 83.5794C33.2691 83.5773 33.2825 83.5728 33.2939 83.5676C33.2827 83.5731 33.2691 83.5771 33.2519 83.5794ZM33.3398 83.5354C33.3297 83.5421 33.3174 83.5558 33.2959 83.5667C33.3174 83.5564 33.3297 83.5428 33.3398 83.5354ZM43.7861 83.4749C43.7032 83.4855 43.6195 83.4899 43.5361 83.4885C43.6195 83.4899 43.7032 83.4855 43.7861 83.4749ZM42.1045 83.2366C42.232 83.2095 42.4821 83.2925 42.7871 83.3704C42.4822 83.2925 42.2319 83.2095 42.1045 83.2366ZM73.4307 18.4895C74.1345 19.1071 74.8401 19.7332 75.5303 20.3665C75.8856 20.6923 76.2321 21.149 76.5889 21.4495C76.591 21.45 76.5935 21.4509 76.5957 21.4514C77.3776 22.532 78.5618 23.5772 79.3506 24.719C79.5825 25.0549 80.534 26.4995 80.7314 26.6702C80.7206 25.2792 80.6275 24.474 79.9873 23.2571C80.8941 23.9808 81.8544 24.7982 81.9678 26.0364C82.0698 27.1559 81.8372 27.8869 82.3213 29.0022C82.3201 29.0025 82.3185 29.0019 82.3174 29.0022C82.4038 29.2912 82.1895 29.2373 82.4775 29.6731L82.3457 29.7835C82.3392 29.7847 82.3326 29.7846 82.3262 29.7854C82.3339 29.7846 82.3419 29.7849 82.3496 29.7835L82.4814 29.6731L82.5068 29.7268C82.7821 30.3106 83.1929 30.8861 83.4502 31.4583C84.8071 34.4765 85.9001 37.4853 86.5371 40.7385C86.7568 41.8715 86.9458 43.0112 87.1035 44.1545C87.1674 44.6429 87.1897 45.2314 87.2695 45.6946C87.4183 45.587 87.3768 45.6071 87.4492 45.4026C87.4492 45.3997 87.4502 45.3967 87.4502 45.3938C87.5014 44.2839 87.8049 42.3736 88.5889 41.5735C90.0872 40.0448 90.608 38.8997 90.8437 36.6838C91.2679 38.6208 91.5001 41.492 90.3408 43.1917C89.6238 44.2434 88.3641 45.0197 87.8613 46.3792C87.7349 46.7213 87.6186 46.8544 87.585 47.2649L87.5127 47.26C87.3422 47.386 87.3783 47.4798 87.3633 47.6887C87.3639 47.693 87.3646 47.6973 87.3652 47.7014L87.3769 49.7297L87.4668 49.6917L87.501 49.6438L87.4912 49.6897C87.5243 49.7379 87.5572 49.786 87.5898 49.8342C87.5811 50.1454 87.4016 51.1004 87.29 51.4055V51.4133C87.4013 51.117 87.583 50.1481 87.5918 49.8342C87.9901 48.0903 88.4391 46.9592 89.8564 45.8313C90.9728 44.9429 91.7491 43.5724 92.082 42.2063C92.1472 41.9379 92.1297 41.6081 92.25 41.3752L92.3086 41.3772C92.3862 41.6878 92.3545 42.2153 92.3711 42.5627C92.457 44.3594 92.2755 46.3295 91.3652 47.9172C90.9825 48.5854 90.3909 49.0449 89.7734 49.4807C88.685 50.2514 87.6249 51.2942 87.2656 52.6184C87.113 53.181 87.156 53.8171 87.0195 54.3889C86.9492 54.6808 86.9478 54.872 86.959 55.1643C87.8067 53.1033 88.3491 52.2795 90.2822 51.1702C91.9339 50.2218 92.6848 48.4835 93.291 46.7503C93.3583 49.2215 92.7136 52.4253 91.0146 54.3323C90.3737 55.0518 89.4812 55.2772 88.6562 55.6917C88.1323 55.9545 86.7249 56.9166 86.5303 57.4905C86.2487 58.3226 86.1277 59.2282 85.8193 60.095C86.3685 59.197 87.4776 58.1354 88.459 57.8157C90.0994 57.2802 91.1577 56.7257 92.2783 55.3577C92.9485 54.5401 93.1471 53.8779 93.6416 52.9768C93.4683 53.667 93.3486 54.5019 93.167 55.137C92.5812 57.1846 91.3987 60.2018 89.457 61.2942C88.0899 62.0634 86.5551 61.7497 84.9941 62.846C84.6511 63.5863 84.3528 64.6065 83.96 65.2561C84.7652 64.7603 85.6017 64.3051 86.5605 64.2786C89.2891 64.2029 91.1694 62.7924 92.6191 60.4719C92.5147 60.9054 92.3178 61.393 92.1523 61.8137C91.2586 64.0873 89.7013 66.6857 87.5898 67.9934C87.2247 68.2194 86.7879 68.4348 86.3174 68.5061C85.0952 68.6901 83.5435 68.2333 82.3672 68.6838C82.26 68.7256 82.164 68.9203 82.1133 69.0227C82.0874 68.9849 82.0454 68.8839 82.0244 68.8381C81.8837 68.7657 81.8583 68.787 81.709 68.8254C81.8572 68.7872 81.8832 68.766 82.0234 68.8381C82.0444 68.884 82.0864 68.9861 82.1123 69.0237C81.9502 69.3087 81.787 69.6034 81.6201 69.884C81.5638 69.7917 81.5143 69.7353 81.4424 69.6985C81.5137 69.7353 81.5631 69.7912 81.6191 69.8831C81.496 70.1045 80.9747 70.7858 81.0146 70.9553C81.88 70.7509 82.6478 70.7664 83.5146 70.9573C86.1776 71.5428 88.5309 70.3123 90.2617 68.3049C89.1292 70.7694 86.3344 74.2022 83.7393 75.1585C81.6789 75.918 80.9168 75.024 78.9736 74.6467C78.8462 74.6218 78.577 74.5745 78.3857 74.5608H78.2285C77.9899 75.0785 76.8108 76.2472 76.3838 76.7669L76.3857 76.7678C77.8147 76.8894 78.0549 77.1885 79.3711 77.7258C81.283 78.5068 83.7789 78.077 85.4824 76.9309H85.4834C85.7085 76.7769 85.9512 76.6001 86.1885 76.471L85.7588 76.9954C83.7058 79.3666 80.9739 81.887 77.6562 82.2249C75.6087 82.4332 74.4291 80.6802 72.5293 80.0618C72.5197 80.0733 72.5101 80.0844 72.501 80.096C72.4493 80.1632 72.467 80.1423 72.4307 80.2268C72.2183 80.7223 69.5198 82.4491 68.8701 82.8098H68.8662C68.7353 82.9404 67.8853 83.4001 67.7607 83.3919C67.4629 82.9043 68.6462 82.3351 69.0156 82.1047C68.7755 82.4581 68.6752 82.3408 68.5732 82.8645L68.6377 82.8801V82.8792L68.5752 82.8645C68.6772 82.3408 68.7774 82.4581 69.0176 82.1047C69.2222 82.0236 69.9588 81.4425 70.25 81.2776C70.0089 81.6036 69.6244 81.7254 69.4433 81.9407C69.1417 82.2989 69.4661 82.3871 68.8105 82.6194C68.7418 82.7149 68.7424 82.7226 68.6992 82.8333H68.7002C68.7434 82.7226 68.7438 82.7149 68.8125 82.6194C69.4677 82.3871 69.1437 82.2989 69.4453 81.9407C69.6264 81.7256 70.0099 81.6033 70.251 81.2776C70.8133 81.0396 71.6542 80.0972 72.2939 79.9719H72.293C71.2114 79.4785 70.125 79.514 68.9766 79.6057C71.4401 78.3114 72.9353 77.0486 75.8994 76.7424L75.9043 76.6858C76.0062 76.092 77.4865 75.0408 77.625 74.5364C76.5996 74.5501 75.9494 74.7705 75.083 75.2766C76.0275 74.1467 77.6245 72.7944 78.8369 71.9573C79.2577 71.6669 79.8048 71.4386 80.2549 71.1311L80.3027 71.0969L80.3047 71.096C80.5255 70.6388 80.9501 69.9884 81.2314 69.5598L81.291 69.6516C81.3004 69.6531 81.3095 69.6558 81.3184 69.6575C81.3098 69.6559 81.3011 69.653 81.292 69.6516L81.2324 69.5598C81.3623 69.3304 81.583 69.0914 81.6133 68.8479C80.8289 69.1734 80.6116 69.3011 79.957 69.8333C80.3617 69.2007 81.6208 67.4239 82.1387 66.9417C83.6269 65.5559 83.4725 65.0363 84.3437 63.2483C84.11 63.4566 83.81 63.828 83.5967 64.0774C84.1975 62.7464 84.945 61.506 85.331 60.1018C85.6039 59.1077 85.8536 58.1218 86.0771 57.1155C86.1279 56.9135 86.1704 56.6954 86.2148 56.4905C86.2866 56.1821 86.3763 55.8828 86.3135 55.5696C86.3129 55.5709 86.312 55.5721 86.3115 55.5735C86.373 55.8855 86.2834 56.1833 86.2119 56.4905H86.2129C86.1685 56.6955 86.126 56.9134 86.0752 57.1155L85.9492 57.1057L85.626 58.1135C85.7514 56.2279 85.1587 54.9466 83.6211 53.8069L83.5459 53.7415C81.9904 52.1775 81.7568 49.8716 81.751 47.7405C82.5192 49.7723 83.7747 50.4164 85.4043 51.6126C85.9304 51.9986 86.3158 53.0293 86.3457 53.6887V53.6917L86.3984 53.9534C86.3984 53.9563 86.3975 53.9592 86.3975 53.9622L86.4502 54.1555C86.5258 54.1604 86.4976 54.1692 86.54 54.1506C86.5042 54.4638 86.476 54.8191 86.4336 55.1243C86.4342 55.1266 86.4349 55.1288 86.4355 55.1311C86.4487 55.2773 86.4398 55.2497 86.4082 55.4006L86.4101 55.4016C86.4418 55.2499 86.4506 55.2772 86.4375 55.1311C86.4804 54.8247 86.5069 54.4668 86.543 54.1516C86.6313 53.5444 86.7744 52.482 86.7334 51.9192C86.5922 50.6406 85.5678 49.8213 84.5215 49.2883C82.7571 48.3888 82.1958 45.9205 82.001 44.1731C82.7038 45.316 83.5743 46.0064 84.8242 46.4963C86.0221 46.9658 86.3811 47.3515 86.8935 48.5247C86.8272 47.8867 86.8056 47.0884 86.7607 46.4299C85.9139 45.1549 85.1426 45.3178 84.0488 44.7336C82.7007 44.0136 82.0921 41.9065 81.707 40.5237C81.7582 40.5996 81.8101 40.6753 81.8623 40.7502C82.3788 41.5033 83.3764 42.0876 84.2412 42.3294C85.3003 42.6253 85.8416 42.6455 86.5215 43.6321C86.4351 43.0928 86.354 42.5525 86.2764 42.012C85.1606 40.909 84.6079 41.3447 83.4404 40.7952C82.3051 40.2608 81.6083 38.4401 81.2236 37.3225C81.5735 37.7099 81.7535 37.9221 82.1992 38.2014C83.5483 39.0464 84.7152 38.3276 85.7998 39.596C85.6466 39.1513 85.5321 38.5957 85.3838 38.1135C84.5149 37.4497 83.8888 37.6897 82.9697 37.4358C81.7888 37.1096 81.0305 35.5516 80.5127 34.5403H80.5107L80.4775 34.4514L80.5527 34.3987C80.4413 34.3023 79.9709 33.314 79.8828 33.1301C79.2411 31.7907 78.4965 30.4185 77.6348 29.2122C77.1892 28.5912 76.7473 27.9667 76.3096 27.3401C76.1467 27.1097 75.883 26.7964 75.7607 26.5754L75.8369 26.5452C75.9597 26.3371 75.6954 26.2199 75.6777 25.9456C75.6714 25.8468 75.6098 25.7248 75.5664 25.6301C76.0289 25.9652 76.5555 26.971 76.9658 27.3342C77.4065 27.7248 79.59 31.7466 79.7715 31.7922C79.7611 32.0811 80.0964 32.5632 80.2539 32.8206L80.2197 32.9163C80.3992 33.1707 81.025 34.4298 80.9853 34.6887L80.8125 34.5627L80.7754 34.5872L80.7725 34.6243L80.7744 34.6252C80.812 34.7005 81.0381 34.854 81.1152 34.9075C82.335 35.7515 83.562 35.0655 84.7402 35.9397C84.5797 35.5293 84.4237 35.113 84.2393 34.7131C82.3454 33.8626 81.992 35.228 80.2559 32.8196C80.0982 32.5619 79.7622 32.08 79.7734 31.7913C80.9517 32.9701 82.0669 32.1906 83.5088 32.7844C83.3888 32.5526 83.265 32.2028 83.1504 32.0061C82.6564 31.1589 81.7161 31.4052 80.9941 31.1565C79.9333 30.7908 79.3347 29.4128 78.8935 28.467C79.5964 29.1809 80.1039 29.4586 81.123 29.5383C81.3694 29.5576 81.6481 29.5708 81.8857 29.635C81.8726 29.5233 81.6873 29.2088 81.626 29.096C81.6266 29.0945 81.6263 29.0925 81.6269 29.0911C81.3799 28.7671 80.6668 27.5494 80.4101 27.1448L80.4111 27.1438C80.2608 27.0228 79.3851 25.6429 79.208 25.4075C78.3495 24.2471 77.4219 23.1391 76.4307 22.0901C76.2185 21.5164 75.0682 20.7091 74.6728 20.052L74.7226 19.9573L74.7178 19.9592L74.6689 20.052C75.0643 20.7092 76.2147 21.5174 76.4268 22.0911C76.2642 21.9489 76.0351 21.6956 75.8818 21.5315C74.9594 20.5437 73.9683 19.6795 72.9726 18.7717L73.0264 18.6682C73.2449 18.6213 73.254 18.62 73.4307 18.4895ZM10.248 68.0842C11.848 69.9432 13.8018 71.0514 16.3252 70.8128C17.1928 70.7303 17.792 70.4652 18.6865 70.6438L18.75 70.6575C18.8612 70.6941 19.2997 70.74 19.417 70.7405C19.9332 70.9806 20.7452 71.3476 21.2021 71.6497C22.5484 72.539 24.0874 73.95 25.1113 75.1878C24.1826 74.5769 23.3548 74.3851 22.2383 74.3909C22.348 74.8056 23.7677 75.9468 23.9473 76.4788C23.9867 76.5959 24.154 76.6106 24.2598 76.6379C24.1812 76.6344 24.1126 76.6327 24.0498 76.6321C24.1132 76.6326 24.1824 76.6354 24.2617 76.6389C26.8261 76.7308 29.0342 78.5485 31.1318 79.6106C30.0312 79.4617 28.8506 79.5059 27.8057 79.9172C28.1381 80.1383 28.4139 80.3384 28.7353 80.5686C28.7366 80.5689 28.738 80.5693 28.7392 80.5696C29.1336 80.8287 29.5225 81.1273 29.9189 81.3762C29.8611 81.4123 29.8107 81.4376 29.7666 81.4553C29.8108 81.4376 29.8619 81.4124 29.9199 81.3762C30.1466 81.5564 30.6156 81.9095 30.875 82.0188C30.8793 82.2189 30.8787 82.432 30.9014 82.6301L30.8476 82.6672L30.6074 82.4797L30.2998 82.3137L30.373 82.1897H30.3721L30.2998 82.3137C30.1918 82.281 29.524 81.762 29.291 81.6194C29.3836 81.4502 29.425 81.4612 29.501 81.4788C29.463 81.47 29.4337 81.4628 29.4023 81.4788C29.3708 81.4949 29.3374 81.5346 29.291 81.6194C29.1396 81.5389 29.1391 81.549 29.0351 81.4163L29.1016 81.3547L29.0928 81.2337C28.9058 80.9945 28.5242 80.7736 28.2598 80.5774L28.2519 80.5071C28.2956 80.4991 28.3365 80.4956 28.376 80.4963C28.336 80.4954 28.2943 80.498 28.25 80.5061L28.2588 80.5774C28.5232 80.7736 28.9039 80.9946 29.0908 81.2337L29.0996 81.3547L29.0332 81.4163C28.5996 81.1468 27.6535 80.5425 27.4209 80.0862C25.5234 80.7691 24.4294 82.3883 22.2939 82.0588C18.9803 81.5476 16.0221 78.7346 14.085 76.1614C16.0548 77.6706 18.3199 78.3828 20.7891 77.5823C21.712 77.2826 22.3127 76.7898 23.3828 76.676L23.4394 76.6702C23.6078 76.6531 23.7291 76.6415 23.8506 76.636L24.0361 76.6321C23.8364 76.6309 23.6897 76.6446 23.4375 76.6702L23.4619 76.595C23.1129 76.2498 22.1854 75.2289 21.79 74.6712L21.6562 74.4641C21.4288 74.4675 20.633 74.6175 20.4101 74.6956C18.8026 75.2607 17.8713 75.5741 16.21 74.7805C14.0287 73.7389 12.2122 71.4844 10.959 69.4407C10.7464 69.0937 10.3791 68.4465 10.248 68.0842ZM39.0166 82.4475H39.0176H39.0166ZM33.8359 80.0374C33.8504 80.0454 33.8651 80.0534 33.8799 80.0618C33.8101 80.0225 33.7445 79.9864 33.6836 79.9602L33.8359 80.0374ZM23.1289 59.2297C24.1842 61.0299 25.1981 64.2934 24.9746 66.2766C24.7673 68.1152 23.9662 69.9049 24.2871 71.8997C24.3317 72.1768 24.3251 72.375 24.4453 72.6438C24.5809 72.3327 24.3388 71.9928 24.4463 71.8294C24.6089 71.9333 25.4166 72.8148 25.6016 73.0051H25.5996C25.7346 73.1794 25.8456 73.3231 25.999 73.4817L26.043 73.3772L26.2392 74.0442C26.1354 74.1814 26.199 74.1507 26.0635 74.1878C25.7166 74.0056 25.4363 73.6295 25.1728 73.3294V73.3284C24.9601 73.1935 24.9176 72.8462 24.6035 72.7669L24.5068 72.8723L24.5566 73.0549C24.7086 73.5113 25.0847 74.1544 25.2861 74.5325C25.1077 74.3744 24.931 74.2145 24.7558 74.053C21.7643 71.3103 20.5727 68.4995 22.1875 64.8381C22.8507 63.3343 23.1994 60.8713 23.1289 59.2297ZM49.9404 66.0715C50.1054 66.2385 50.5864 67.3094 50.6797 67.5667C51.242 67.6179 51.8615 67.7034 52.4209 67.7815C52.0822 68.2022 51.5711 68.6689 51.1738 69.0471C51.3442 69.6704 51.3741 70.2133 51.5517 70.7971C51.0261 70.5014 50.4324 70.2525 49.9414 69.9094C49.5573 70.1681 48.8185 70.5228 48.3818 70.762C48.4607 70.1866 48.56 69.6132 48.6807 69.0452C48.3069 68.6796 47.7518 68.1718 47.4551 67.7639C48.0686 67.7107 48.5746 67.6404 49.1836 67.5462C49.4056 67.0495 49.6467 66.5287 49.9404 66.0715ZM37.6875 66.0266C37.8437 66.3015 38.3155 67.2697 38.418 67.5471C38.9959 67.6355 39.5759 67.7107 40.1572 67.7727C39.7741 68.2197 39.3574 68.6367 38.9111 69.0208C39.0017 69.5938 39.1389 70.2197 39.2539 70.7942C38.8159 70.5423 38.0255 70.1842 37.6738 69.8948C37.3174 70.1681 36.5904 70.4779 36.1396 70.7483C36.1665 70.2857 36.3126 69.4757 36.4072 69.01C35.9767 68.6098 35.5607 68.1925 35.1611 67.761C35.7111 67.741 36.3605 67.6355 36.9014 67.5393C37.1242 67.0577 37.4335 66.4946 37.6875 66.0266ZM43.7314 66.1077C43.9979 66.1893 44.4369 67.2626 44.5391 67.5471C45.104 67.6423 45.7201 67.7059 46.292 67.7756C45.8998 68.2188 45.4601 68.642 45.04 69.0608C45.1529 69.3668 45.2902 70.3372 45.373 70.7512C44.9336 70.5418 44.241 70.2043 43.8486 69.9465C43.6597 69.9642 42.4529 70.6542 42.2285 70.7854L42.542 69.0305C42.1584 68.6586 41.6304 68.1876 41.3291 67.7678C41.9193 67.7117 42.4517 67.6369 43.0381 67.551C43.2765 67.0737 43.5078 66.5924 43.7314 66.1077ZM56.0508 66.0794C56.2796 66.3389 56.6718 67.2056 56.8086 67.5432C57.3826 67.6374 57.9606 67.7088 58.54 67.7581C58.1901 68.23 57.7249 68.6294 57.3193 69.0696C57.4686 69.664 57.48 70.1763 57.6504 70.7786C57.2062 70.5111 56.5301 70.1881 56.0459 69.9241C55.5744 70.2237 54.989 70.5004 54.4844 70.7551C54.5995 70.2925 54.7095 69.5572 54.8105 69.0559C54.4528 68.6996 53.8739 68.1636 53.6035 67.7649C54.2033 67.7068 54.6999 67.6404 55.2949 67.5452C55.5614 67.0629 55.754 66.585 56.0508 66.0794ZM62.1211 66.1077C62.4017 66.2375 62.815 67.2465 62.9551 67.5647L64.665 67.7629C64.3795 68.1607 63.8265 68.682 63.4678 69.0364C63.5532 69.6084 63.6524 70.1787 63.7646 70.7463C63.2956 70.5301 62.6419 70.1921 62.2051 69.9338C61.9669 70.0259 60.9041 70.6171 60.5937 70.7756C60.7929 70.1465 60.7291 69.7129 60.9941 69.0559C60.528 68.6703 60.1019 68.2378 59.7246 67.7649C60.2893 67.7088 60.8532 67.6418 61.415 67.5647C61.664 67.0737 61.898 66.6119 62.1211 66.1077ZM17.6973 24.5579C17.3991 25.5417 17.3621 26.4557 17.6074 27.4573C17.6983 27.8282 17.8272 28.2951 17.8633 28.6672C17.8628 28.6683 17.8618 28.6691 17.8613 28.6702C17.8865 28.7733 17.8612 28.7315 17.9404 28.7981C18.1214 28.6223 18.338 28.155 18.5185 27.8928L18.5439 27.8567C18.6027 27.8863 18.66 27.9158 18.7197 27.9436C18.8489 28.4883 18.3573 28.5802 18.5596 28.9446C18.3847 29.1118 18.3221 29.1957 18.1777 29.3919L18.1787 29.3928C18.1416 29.4702 17.7755 30.2003 17.7744 30.2044C17.6574 30.4289 17.5196 30.6783 17.4141 30.9045C14.5643 36.5258 13.0971 42.7459 13.1338 49.0481C13.1473 50.1913 13.3639 51.2468 13.2871 52.3948C13.2394 53.1083 13.4256 54.124 13.623 54.8118C13.838 55.4698 14.4202 57.0908 14.4473 57.7288C14.3393 57.6902 13.9886 57.0466 13.9043 56.9026C13.9802 57.5911 14.304 59.1441 14.6641 59.7141C15.4869 61.0168 16.296 62.3695 16.8144 63.8372C16.3633 63.31 16.03 62.8937 15.4092 62.554L15.4473 62.6321C15.8003 63.3773 15.9858 64.2292 16.3916 64.9075C16.5637 65.1945 17.1898 65.6054 17.4512 65.8879C18.4695 66.9891 19.589 68.3601 20.3086 69.677C19.7652 69.127 19.224 68.8057 18.5225 68.5852L18.2109 68.4963C18.1648 68.8239 19.2594 70.2163 19.4199 70.7405C19.3027 70.74 18.864 70.6941 18.7529 70.6575L18.7773 70.5754C18.3876 69.9502 18.0154 69.3144 17.6621 68.6682L17.6631 68.6672C17.6147 68.5662 17.5404 68.3982 17.4346 68.3626C16.4878 68.0449 15.2415 68.4133 14.2529 68.2649C13.6987 68.1819 13.17 67.9167 12.7324 67.6331C10.6935 66.3122 9.2748 63.6937 8.38671 61.4797C8.26027 61.165 8.03733 60.6101 7.96874 60.3118L8.03319 60.2874C8.1792 60.4089 8.33208 60.7996 8.49218 61.0042C8.96682 61.6114 9.54527 62.2455 10.1611 62.7063C10.9837 63.3306 11.9483 63.741 12.9687 63.8997C14.1201 64.0695 14.5745 63.9523 15.6904 64.5667C15.346 63.7746 15.0699 62.9495 14.7266 62.1409C13.396 61.5293 12.1043 61.5909 11.123 61.009C9.2425 59.8937 8.00633 56.9233 7.49511 54.8635C7.42859 54.5956 7.09329 53.1121 7.1748 52.9739C7.33044 53.1331 7.50005 53.6473 7.62499 53.8831C8.25237 55.0993 9.54038 56.5223 10.8359 57.0452C12.2043 57.5972 12.6779 57.6149 13.7617 58.6878C13.5862 58.0902 13.3837 56.999 13.2725 56.3645C12.803 55.9316 12.3572 55.6022 11.7851 55.3137C11.0611 54.9487 10.3288 54.7314 9.75194 54.135C8.14621 52.4739 7.53536 49.6855 7.46093 47.4475C7.45325 47.2177 7.42435 46.9903 7.42187 46.7639C7.42026 46.6137 7.41413 46.6377 7.49022 46.5647C7.50588 46.5808 7.78214 47.4533 7.83593 47.592C8.29908 48.8318 9.34582 50.2631 10.4971 50.9514C11.7318 51.6895 12.0833 51.987 12.8711 53.2258C12.7057 52.4923 12.6354 51.6283 12.6435 50.8792C11.7096 49.473 10.6027 49.1921 9.77343 48.1809C8.22918 46.2973 8.21863 43.2404 8.47265 40.9309C8.56768 41.219 8.62819 41.625 8.71093 41.9426C8.92327 42.7364 9.25295 43.4939 9.68847 44.1907C10.8729 46.0494 11.719 45.4954 12.665 48.1721C12.6477 47.4697 12.6145 46.4522 12.6982 45.7727C11.9929 44.4722 11.0732 43.894 10.3867 42.8694C9.26922 41.2013 9.58416 38.1787 10.0166 36.2776C10.1482 37.2823 10.0178 37.4413 10.3984 38.5715C11.1614 40.8366 12.4924 40.8399 12.9951 43.2336C13.6558 40.428 13.0664 40.7992 11.666 38.6428C10.7151 37.1784 11.1965 34.4309 11.6348 32.7844C11.8011 33.8405 11.7868 34.5388 12.2451 35.5852C12.875 37.0232 13.672 37.2667 13.8525 38.9221C13.997 38.3899 14.1435 37.8003 14.3203 37.2825C13.9109 36.1579 13.6745 35.9263 13.0986 34.9417C12.0968 33.2287 12.9893 31.1171 13.4473 29.4065C13.5001 30.1389 13.3848 30.5691 13.5654 31.4329C13.7913 32.5129 14.1619 32.9691 14.6553 33.9387C14.7917 34.2072 14.9735 34.8414 15.0674 35.1555C15.1296 34.9276 15.463 34.0416 15.4619 33.9133C15.4452 32.7049 14.4829 32.139 14.3183 30.8508C14.1979 29.9068 14.6088 27.8542 15.1299 27.1829C15.2017 27.3836 15.1079 27.8844 15.1572 28.2034C15.2334 28.696 15.2963 29.2696 15.4941 29.7424C15.9412 30.8112 16.2639 30.9941 16.3057 32.1956C16.4229 31.7395 16.6285 31.43 16.7568 31.0188C16.9993 30.2416 16.5142 29.3317 16.3769 28.6194C16.0938 27.1494 16.9301 25.7206 17.6973 24.5579ZM81.0889 51.7454C81.2487 52.8272 82.1803 54.5154 82.9746 55.2044C83.0388 55.1265 83.1464 53.6972 83.2119 53.5676C83.305 53.6826 83.3224 53.6957 83.4365 53.7913L83.54 53.7415L83.6152 53.8069C83.5137 54.2067 83.5448 55.0985 83.3262 55.342L83.1787 55.4075L83.1807 55.4094C83.4792 55.7656 83.8536 56.106 84.1289 56.4485C85.6703 58.3663 84.5234 62.1199 83.1885 63.7903C83.7125 62.198 83.4703 60.645 82.4971 59.2669C82.368 59.5146 82.4284 59.6649 82.2773 59.9612C82.2954 59.8187 82.3091 59.6964 82.3193 59.553L82.2676 59.5003C82.1016 59.5085 82.1679 59.5368 82.0488 59.4534L82.0478 59.4553C82.1632 59.5364 82.099 59.5095 82.2637 59.5012L82.3154 59.553C82.3052 59.6965 82.2915 59.8187 82.2734 59.9612C82.1866 60.3342 82.0947 60.9162 81.7764 61.1165C82.5774 62.7077 82.5545 63.8788 82.0293 65.6077C81.6759 66.7733 80.5763 68.5259 79.6523 69.3294C80.3621 67.949 80.3271 67.0383 80.1338 65.5198C80.0567 65.2813 80.0029 65.0586 79.9424 64.8167C79.6803 64.007 79.2821 63.3261 79.0137 62.5305C78.2562 60.2843 78.9123 57.6884 79.5488 55.4651C79.6308 55.9068 79.6221 56.2099 79.7353 56.7366C79.9716 57.834 80.9204 60.0285 81.6279 60.9221C81.6367 60.766 81.5946 60.7038 81.6348 60.5393C81.637 60.5365 81.6384 60.5324 81.6406 60.5295C81.7623 60.0359 81.9203 59.2962 82.2246 58.8997L82.0791 58.7014C80.6257 56.6386 80.4935 54.1693 81.0889 51.7454ZM20.335 68.4827C20.4688 68.7579 20.5471 68.9331 20.6533 69.221C20.4076 68.9579 20.3066 68.8424 20.1035 68.5471L20.335 68.4827ZM20.9375 55.5403C21.646 57.1861 22.0782 60.7312 21.3975 62.3899C20.4209 64.7695 19.6542 65.7619 20.333 68.4827L20.1025 68.5471C19.9082 68.2987 19.7233 68.0426 19.5488 67.7795C18.3402 65.9473 17.4353 63.5082 18.4433 61.3821C18.7847 60.6621 19.42 59.8662 19.8096 59.0462C20.4708 57.6537 20.6396 57.0031 20.9375 55.5403ZM17.9502 68.4212C18.0773 68.4311 18.1136 68.4162 18.1592 68.4475L18.1133 68.429C18.0796 68.4233 18.0351 68.4278 17.9502 68.4212ZM19.46 51.72C19.5119 51.7508 19.5834 51.8222 19.5898 51.886C19.8 53.8788 19.9302 56.5214 18.6055 58.2053C17.3342 59.8215 16.4948 61.5118 17.249 63.6047C16.9827 63.2821 16.9026 63.1095 16.7139 62.7395C15.5053 60.4025 14.8659 57.4845 16.9853 55.5911C17.9316 54.7462 19.2269 52.9886 19.46 51.72ZM57.708 62.8694C58.6588 62.8714 59.8861 62.9094 60.8193 62.8694C60.3249 63.0314 59.5589 62.9275 59.0332 63.0129C54.5403 63.0779 50.047 63.095 45.5537 63.0637L41.6084 63.0227C40.8947 63.0105 40.0682 62.9622 39.3682 62.9758L39.0615 62.8645C40.1967 62.8977 41.4253 62.8713 42.5683 62.8684L50.5098 62.8333L57.708 62.8694ZM60.8203 62.8694C61.1995 62.8382 61.7088 62.8709 62.0976 62.8909C61.4712 62.9958 59.6784 63.0564 59.0342 63.0129C59.5599 62.9275 60.3258 63.0314 60.8203 62.8694ZM39.0596 62.8645L39.3662 62.9758C38.9625 63.0148 38.0803 62.9587 37.6836 62.8792C38.1064 62.8631 38.6475 62.8309 39.0596 62.8645ZM18.7539 47.8167C18.8657 48.0448 18.7731 48.8748 18.7461 49.1458C18.6118 50.4934 18.306 52.0665 17.3984 53.1243C16.9357 53.6632 16.227 54.0351 15.8154 54.6477C15.2061 55.4564 14.836 56.3547 14.8691 57.3997C14.8716 57.4782 14.8808 57.5395 14.8828 57.6272C14.7665 57.5209 14.7809 57.5021 14.7197 57.345C14.1648 55.6473 13.6278 52.555 15.2002 51.3469C16.7348 50.1677 17.8536 49.8068 18.7539 47.8167ZM39.3232 49.762C40.2821 49.7168 40.9771 50.3273 41.3808 51.1419L40.6943 51.1038C40.3953 50.7735 40.2218 50.5431 39.7812 50.3831C39.4177 50.2523 39.0165 50.2733 38.6689 50.4417C37.4891 51.0132 37.4435 53.0935 38.7617 53.5247C39.1707 53.6579 39.7285 53.6354 40.1162 53.428C40.2702 53.2957 40.5499 52.9958 40.706 52.8391L41.3955 52.8069C41.0033 53.4794 40.533 53.992 39.7285 54.1379C39.1425 54.2471 38.5375 54.1041 38.0615 53.7454C37.598 53.3978 37.2936 52.8783 37.2178 52.304C37.0216 50.8611 37.9201 49.8747 39.3232 49.762ZM66.0762 49.804C66.1216 49.8103 66.2822 49.8338 66.3057 49.8528C66.8733 50.3146 68.4136 52.7938 68.6553 53.3206C68.584 52.397 68.625 50.784 68.623 49.8098L69.2373 49.8333C69.1748 51.0618 69.3183 52.9865 69.207 54.0754C69.1031 54.1716 69.0712 54.1448 68.8994 54.1692C68.4089 53.9988 67.976 53.1485 67.6875 52.7014C67.2634 52.0304 66.8235 51.3681 66.3701 50.7161C66.456 51.4624 66.417 53.2862 66.418 54.1155C66.2312 54.1403 66.0153 54.1507 65.8252 54.1643C65.8413 52.9201 65.8198 51.1946 65.8418 49.9085C65.8429 49.8356 65.8962 49.8322 65.9795 49.7893L66.0762 49.804ZM54.0976 49.8001C54.2992 49.8074 54.355 49.8006 54.541 49.8645C54.5761 50.0254 54.5586 50.9374 54.5586 51.1467C54.5654 52.1228 54.5649 53.0984 54.5557 54.0745L54.4932 54.1321C54.3838 54.1428 54.0786 54.1408 54.0049 54.053C53.1577 53.0379 52.5259 51.8283 51.749 50.7522C51.8266 51.5756 51.7832 53.1212 51.7783 54.01C51.7778 54.1096 51.6669 54.1214 51.5537 54.1672C51.3455 54.1502 51.2997 54.1842 51.1738 54.0764C51.1407 53.8728 51.1543 50.0835 51.1943 49.8674C51.7973 49.5385 52.4672 50.8578 52.7402 51.2786L53.9932 53.2044C53.9449 52.237 53.9888 50.9393 53.9902 49.9573C53.9902 49.8504 54.0079 49.8674 54.0976 49.8001ZM30.8027 49.8128C31.67 49.9092 33.261 49.5821 33.6387 50.5618C33.99 51.474 33.4855 52.0585 32.6963 52.3508C33.0655 52.8156 33.5134 53.6133 33.8213 54.135C33.5425 54.1404 33.2541 54.1831 33.0361 54.012C32.7581 53.581 32.3018 52.8229 32.0957 52.3704C31.886 52.3816 31.6541 52.3792 31.4424 52.3811C31.4787 52.954 31.4704 53.5436 31.4717 54.1184C31.269 54.1448 31.0301 54.1521 30.8232 54.1633C30.8023 52.7093 30.8376 51.2736 30.8027 49.8128ZM55.9258 49.8264C55.9238 51.2042 55.9716 52.7484 55.9248 54.1106L55.3066 54.1614C55.3242 52.7151 55.3281 51.2678 55.3183 49.8215L55.9258 49.8264ZM56.4053 49.8294C56.974 49.8517 58.9572 49.7674 59.3086 49.9124C59.3666 50.0624 59.3584 49.9867 59.331 50.1487C59.0958 50.3439 58.5072 50.2732 58.1758 50.2629C58.2143 51.1004 58.1904 52.0827 58.1904 52.9309L58.2031 54.1243L57.6094 54.1487C57.5767 52.8874 57.6006 51.5369 57.6094 50.2727C57.1662 50.2644 56.8436 50.3703 56.4795 50.2219C56.3737 50.0591 56.4111 50.0604 56.4053 49.8294ZM43.4883 49.8196C44.672 49.5973 45.8119 50.3764 46.0351 51.5598C46.2583 52.744 45.4797 53.8851 44.2959 54.1087C43.1116 54.332 41.9703 53.5529 41.7471 52.3684C41.5238 51.1842 42.3037 50.0427 43.4883 49.8196ZM59.8818 49.8098C60.0554 49.8264 60.2472 49.824 60.4228 49.8274C60.4033 50.7241 60.3999 51.6212 60.4121 52.5178C60.4155 52.9918 60.4404 53.6656 60.4053 54.1243C60.1839 54.1443 60.0335 54.1842 59.8701 54.0549C59.8272 53.691 59.8122 50.0771 59.8818 49.8098ZM62.7197 49.8254C63.8965 49.5965 65.0376 50.3611 65.2724 51.5364C65.5077 52.7121 64.7494 53.8576 63.5752 54.0989C62.392 54.342 61.2367 53.5755 61 52.3909C60.7629 51.2069 61.5344 50.0565 62.7197 49.8254ZM34.3818 49.803C35.111 49.8996 36.007 49.7371 36.6709 49.8762C36.7529 49.984 36.7165 49.9342 36.7158 50.1204L36.6328 50.2034C36.2365 50.336 35.4028 50.2727 34.9521 50.26C34.9559 50.7511 34.956 51.2426 34.9521 51.7337C35.2773 51.7249 36.3039 51.6488 36.5127 51.804C36.6168 51.9767 36.6026 51.8893 36.585 52.0686C36.3002 52.3419 35.3703 52.0568 34.9902 52.2317C34.9393 52.2551 34.9559 52.3265 34.9502 52.4133C34.9568 52.8257 34.9544 53.2446 34.956 53.6575C35.2117 53.6526 36.5969 53.6106 36.7148 53.7083C36.7154 53.8638 36.7275 53.9218 36.6592 54.0637C36.3465 54.1238 34.7886 54.1282 34.373 54.1399C34.3521 53.1315 34.3944 52.1015 34.3701 51.0891C34.3604 50.6856 34.3496 50.2036 34.3818 49.803ZM48.1777 49.7981C49.3566 49.6879 50.0256 50.1028 50.5615 51.1428L49.8896 51.1067C49.6897 50.8531 49.4439 50.5749 49.1494 50.4338C48.424 50.0873 47.4438 50.4805 47.1172 51.2053C46.9109 51.6593 46.9042 52.1787 47.0986 52.6379C47.4434 53.4382 48.3401 53.8839 49.1865 53.51C49.7187 53.2756 49.901 52.7441 50.0849 52.2327L49.4072 52.2356C49.1426 52.2405 48.4563 52.3303 48.3193 52.1174C48.3321 51.9442 48.3025 51.9434 48.3916 51.8274C48.7836 51.7376 50.0602 51.8079 50.6045 51.7629L50.6699 51.7571C50.6567 52.7943 50.2672 53.6869 49.2158 54.0266C48.6215 54.2155 47.9759 54.1505 47.4307 53.8479C45.74 52.9161 46.0895 50.2608 48.1777 49.7981ZM45.208 52.9094C45.9262 51.7594 45.1049 50.1263 43.624 50.3381C43.4226 50.3898 43.2495 50.4292 43.0635 50.5383C42.0466 51.1353 42.0842 52.9243 43.1504 53.4495C43.5241 53.6338 43.8424 53.6247 44.2617 53.5862C44.6532 53.492 44.9926 53.2495 45.208 52.9094ZM62.7969 50.3401C61.7911 50.634 61.3663 51.5368 61.6601 52.5491C61.9253 53.4611 62.6703 53.6648 63.5391 53.5823C64.504 53.3156 64.8493 52.3132 64.5908 51.4114C64.4785 51.0097 64.2049 50.6721 63.8349 50.4797C63.5031 50.3085 63.1614 50.2932 62.7969 50.3401ZM18.9834 40.3879C18.4687 42.0442 18.0791 43.5152 16.6025 44.552L16.6816 44.5842C16.7035 44.5907 16.7265 44.5943 16.7676 44.5969C16.6562 44.9981 16.6131 45.3536 16.6504 45.7678L16.6084 45.7776L16.6943 45.8176H16.6963C17.5367 45.5216 18.2649 44.5944 18.7021 43.8528C18.1854 46.6207 17.8852 48.2951 15.3447 49.4817C14.3207 49.9602 13.9027 51.2806 13.6641 52.3479C13.524 50.6727 13.2033 48.6965 14.3193 47.2053C14.8563 46.4887 15.6977 46.409 16.4131 46.0012L16.2607 45.9045C16.1457 45.5987 16.1318 45.0849 16.2764 44.7903L16.2158 44.7268C14.6512 45.1576 13.8924 45.6359 13.5029 47.2981C13.3836 46.1989 13.5231 44.7845 13.9756 43.7815C14.6959 42.1848 15.5606 42.4667 16.8223 41.9729L16.9121 41.9358L16.8887 41.8821C16.6555 41.3815 17.019 41.0547 16.9853 40.7376L17.3955 40.5461C17.4125 40.9313 17.2142 41.5859 17.2803 41.7737C17.1491 41.8409 17.0764 41.8714 16.9492 41.9211C17.0776 41.871 17.1504 41.8413 17.2822 41.7737C18.115 41.3665 18.3823 41.1012 18.9834 40.3879ZM31.4365 50.2717C31.4741 50.7436 31.4861 51.4209 31.4424 51.8919C31.894 51.885 32.4647 51.9122 32.8691 51.7405C33.1691 51.3842 33.3857 50.8873 32.9258 50.553C32.4776 50.2275 31.958 50.2829 31.4365 50.2717ZM62.9736 42.6692C64.1702 42.554 65.2392 43.4181 65.3769 44.6126C65.5146 45.8073 64.6695 46.8924 63.4775 47.052C62.6869 47.1578 61.9001 46.8285 61.4209 46.1907C60.9418 45.5526 60.8445 44.7059 61.166 43.9758C61.4882 43.2456 62.179 42.7458 62.9736 42.6692ZM50.3769 42.6819C51.4037 42.6715 51.8424 42.9068 52.1797 43.8704C52.1657 43.8718 52.1517 43.8738 52.1377 43.8752L52.0664 43.8811C51.7009 43.9148 51.5994 43.9003 51.2324 43.8645C50.921 43.5197 50.365 43.1572 49.9834 43.6292C49.7125 44.4592 51.1794 44.5486 51.6787 44.8518C52.3678 45.2704 52.262 46.3642 51.6406 46.7737C51.32 46.985 51.0661 47.0125 50.709 47.0696C49.6626 47.0057 49.2392 46.7572 48.9853 45.7317C49.3255 45.7319 49.8661 45.6561 50.0469 45.9944C50.2914 46.4532 50.8385 46.4918 51.1787 46.0911C51.5105 45.6991 50.871 45.3377 50.5371 45.2444C49.5423 44.9668 48.5338 44.3624 49.2588 43.219C49.495 42.8508 49.9582 42.7463 50.3769 42.6819ZM30.2187 42.6829C31.3446 42.632 31.9795 43.0717 32.4746 44.051C32.0457 44.0672 31.8626 44.0665 31.4394 44.0169C31.0738 43.5902 30.93 43.5511 30.4121 43.4055C27.8378 44.0164 29.6989 47.6823 31.4209 45.7161C31.6693 45.6008 32.1803 45.6417 32.4668 45.6487C32.1446 46.3389 31.8127 46.7777 31.0439 46.969C27.9962 47.728 26.9477 43.2207 30.2187 42.6829ZM37.1777 42.7014C37.4603 42.7144 37.7923 42.7063 38.0791 42.7063C38.0553 44.0361 38.1364 45.7223 38.0654 47.0042L37.1933 47.0491C37.165 45.6104 37.2079 44.1515 37.1777 42.7014ZM55.8682 42.6809C57.0864 42.7074 57.4485 43.0681 58.081 44.0344C57.6467 44.0566 57.4656 44.0586 57.0361 44.0129C56.5861 43.6323 56.5401 43.5755 55.9756 43.4338C55.0179 43.6522 54.399 44.3053 54.7422 45.3274C54.8632 45.698 55.1351 46.0008 55.4902 46.1614C56.3269 46.5372 56.9137 46.0454 57.2285 45.2913C56.7512 45.2767 56.1043 45.3988 55.79 45.2141C55.6837 45.0762 55.7134 44.8932 55.7158 44.7102C55.9001 44.5535 57.691 44.6462 58.0771 44.6252C58.0844 45.2129 58.0793 45.6681 57.7344 46.1809C57.0622 47.1786 55.5529 47.3047 54.6201 46.6213C54.1604 46.2817 53.8589 45.7691 53.7851 45.2024C53.5972 43.7713 54.4902 42.8354 55.8682 42.6809ZM33.9219 42.7112C33.8978 43.3096 33.9347 43.9232 33.8867 44.5217C34.4856 44.5097 35.1099 44.5165 35.7109 44.5149C35.6602 43.9491 35.6765 43.2817 35.6758 42.7063L36.5713 42.7102C36.528 43.662 36.5607 44.6225 36.5576 45.5735C36.5563 45.991 36.586 46.5914 36.543 46.9944C36.2499 47.0285 35.9847 47.0344 35.6904 47.0432C35.667 46.4356 35.6825 45.8054 35.6885 45.1956L33.8818 45.2024C33.9276 45.6488 33.9131 46.5214 33.917 47.0003C33.6225 47.0203 33.3271 47.0349 33.0322 47.0452C32.9485 45.7835 33.0196 44.0173 33.0029 42.7034L33.9219 42.7112ZM58.5039 42.7034C58.8119 42.7173 59.1754 42.7123 59.4883 42.7161C59.3961 43.7911 59.477 45.2147 59.4404 46.342C59.8958 46.3225 60.3918 46.3279 60.8506 46.3235L60.8603 46.9973C60.1926 46.9963 59.1642 46.9729 58.5195 47.0452C58.5137 45.5975 58.5351 44.1501 58.5039 42.7034ZM41.2939 42.7102L41.2959 43.4495L39.6191 43.4417C39.6425 43.8572 39.6492 44.1158 39.6279 44.5295L41.0928 44.5159C41.095 44.779 41.1128 44.9375 41.1445 45.1936C40.6539 45.1948 40.1659 45.159 39.6767 45.1858C39.602 45.323 39.6318 45.489 39.6387 45.6536C39.6512 45.8988 39.6336 46.0803 39.6152 46.3235L41.3027 46.2962L41.3037 46.9983C40.4338 47.0144 39.5961 46.972 38.7226 47.0442C38.6981 46.6128 38.727 45.8929 38.7295 45.4436C38.7336 44.5323 38.7285 43.6205 38.7148 42.7092L41.2939 42.7102ZM45.4287 43.5002C45.2505 44.0776 44.9697 44.7572 44.7637 45.3372C44.6081 45.775 44.3484 46.5511 44.1455 46.9309C43.9216 47.1057 43.3662 47.03 43.0654 47.0169C42.5138 45.6684 42.0133 44.1019 41.4892 42.7092C41.8145 42.71 42.1397 42.7161 42.4648 42.7258C42.7597 43.7943 43.2871 45.025 43.6338 46.1262C43.7225 45.6953 44.5786 43.1718 44.7724 42.72L45.7266 42.7083C45.6293 42.9728 45.5294 43.2371 45.4287 43.5002ZM26.4814 42.7141C26.9412 44.091 27.6638 45.6606 28.0166 47.0422C27.7413 47.0476 27.3795 47.0183 27.0967 47.0032C26.9466 46.6518 26.9572 46.2561 26.5654 46.2346L25.1387 46.2288C24.8717 47.1176 24.8424 47.0457 23.9258 47.0081C24.4264 45.5799 24.9258 44.0994 25.5068 42.7053L26.4814 42.7141ZM66.9922 42.7161C67.8464 42.717 69.0727 42.7521 69.0205 43.9124C68.9998 44.3627 68.7185 44.5685 68.4092 44.846C69.1178 45.197 69.2736 45.6886 68.9912 46.4045C68.2918 47.2928 66.8975 46.9598 65.8281 47.0383C65.8038 46.618 65.8325 45.915 65.8349 45.4768C65.8398 44.5565 65.8335 43.6362 65.8164 42.7161H66.9922ZM74.6836 42.7131C74.7007 43.5697 74.7436 45.5496 74.6582 46.3342L76.1299 46.3274C76.1274 46.5514 76.123 46.7757 76.1162 46.9993C75.3308 46.9978 74.593 46.9993 73.8096 47.0325C73.8457 45.579 73.8008 44.1627 73.8184 42.719C74.0912 42.7077 74.4078 42.7136 74.6836 42.7131ZM46.0488 42.7034C46.8876 42.7135 47.7265 42.7162 48.5654 42.7122C48.5632 42.952 48.5716 43.2082 48.5752 43.4495L46.917 43.4417C46.9506 43.8037 46.9516 44.1682 46.9209 44.5305L48.4043 44.5139L48.4307 45.2014C48.0975 45.1917 47.1697 45.0963 46.9375 45.2551L46.9385 45.4338C46.9451 45.7708 46.9458 45.9888 46.918 46.3245C47.4748 46.3201 47.9998 46.3166 48.5566 46.2835L48.5644 46.9993C47.7278 46.9924 46.8911 47.0003 46.0547 47.0237C46.0131 45.6372 46.045 44.0993 46.0488 42.7034ZM71.9277 42.7288C72.4856 44.091 72.926 45.6654 73.4902 47.0149L72.5127 47.0042C72.3493 46.6352 72.4222 46.2463 72.0049 46.2346C71.5222 46.2405 71.0393 46.2371 70.5566 46.2239L70.3262 46.9905C70.1018 47.0033 69.536 47.0865 69.4453 46.8587C69.5555 46.3856 70.714 43.047 70.9404 42.7122C71.2977 42.7013 71.5699 42.71 71.9277 42.7288ZM66.6894 45.1399C66.7207 45.5021 66.7363 45.9657 66.6885 46.3254C67.1262 46.322 67.6086 46.3463 68.0224 46.219C68.7521 45.0933 67.3733 45.1368 66.6894 45.1399ZM62.9463 43.4504C62.0359 43.7444 61.6612 44.5516 61.9922 45.4504C62.1079 45.7718 62.3498 46.0321 62.6611 46.1721C62.9476 46.3034 63.1515 46.2742 63.4599 46.261C64.9292 45.8597 64.8621 43.3551 62.9463 43.4504ZM71.4072 43.8118C71.2593 44.284 71.0155 45.0647 70.7998 45.5003L71.5176 45.4973L72.0078 45.4924C71.9228 45.258 71.482 43.9234 71.4072 43.8118ZM25.9785 43.8176C25.7527 44.3766 25.6048 44.9419 25.4004 45.4944L26.0771 45.4954L26.5742 45.4885C26.4943 45.2724 26.0501 43.9061 25.9785 43.8176ZM66.7041 43.4338C66.7178 43.831 66.7265 44.141 66.706 44.5364C67.1965 44.5262 67.5627 44.572 68 44.3567C68.3705 43.286 67.4485 43.4282 66.7041 43.4338ZM20.331 34.1614C19.8781 35.0726 19.3199 36.2955 18.4619 36.8958C18.4084 36.9261 18.3544 36.9555 18.3008 36.9856C18.3541 36.9558 18.4078 36.9269 18.4609 36.8967C18.5102 37.1403 18.4106 37.3426 18.3291 37.5872C18.33 37.5877 18.3311 37.5885 18.332 37.5891C18.2917 37.722 18.2431 37.9311 18.1601 38.0286L18.1172 38.2004C18.7956 37.8397 19.0635 37.6293 19.5771 37.052C19.0754 38.3709 18.5516 39.6413 17.3926 40.5461L16.9824 40.7366C16.5665 40.8673 16.007 40.889 15.542 41.0598C14.4853 41.4479 14.3077 41.8427 13.8633 42.7307C14.0249 41.4303 14.2031 39.8794 15.291 38.9915C15.9814 38.4282 16.804 38.5893 17.6123 38.3772L17.6914 38.3567C17.6927 38.3564 17.694 38.355 17.6953 38.3547C17.6455 38.0681 17.7476 37.8235 17.8262 37.5354L17.9062 37.3723C17.9198 37.3353 17.9197 37.3003 17.9043 37.2249L17.9766 37.1682V37.1663L17.9023 37.2249C16.4314 37.5721 15.8023 37.101 14.7441 38.6057C14.8499 37.8159 15.1177 37.0564 15.5312 36.3752C16.4626 34.8421 17.2511 35.4723 18.8535 35.0813C19.0657 35.0112 19.2474 34.965 19.4375 34.8479C19.7566 34.6445 19.8547 34.5809 20.1377 34.3313C20.2025 34.2752 20.2671 34.2184 20.331 34.1614ZM89.2861 33.2629C89.6078 34.758 90.0154 36.6277 89.501 38.1008C88.8976 39.8279 87.4072 40.479 87.1865 42.5422C87.1992 42.5942 87.1929 42.5574 87.1797 42.6565L87.1221 42.637C86.9196 42.2751 86.8657 41.5346 86.8291 41.1145C86.7256 39.9322 86.8256 38.6262 87.4766 37.5999C87.7572 37.1579 88.1539 36.7198 88.3935 36.2483C88.9295 35.1931 89.0864 34.316 89.1836 33.1653L89.2861 33.2629ZM87.4219 30.054C87.4637 30.0818 87.4933 30.0977 87.5264 30.1399C87.7352 30.4059 87.8989 31.298 87.9766 31.6419C88.8971 35.7217 86.4316 35.5687 86.3291 38.552C86.2984 38.665 86.3261 38.6162 86.25 38.7014C85.7487 37.3884 85.4729 35.3429 86.21 34.1038C87.1363 32.5461 87.4521 31.8788 87.4219 30.054ZM45.6562 34.927C46.5435 34.9253 48.4972 34.8684 49.2724 34.9583C48.9027 34.9869 48.4591 34.9954 48.0127 34.9973C48.4597 34.9954 48.9042 34.9869 49.2744 34.9583C51.7911 35.0681 54.3881 34.9415 56.9141 35.0032C57.3983 35.015 57.9705 35.0258 58.4531 35.0051L58.7109 34.9934C59.498 34.972 61.4467 34.9881 61.7363 35.0862C61.2644 35.1382 60.3949 35.1757 59.9355 35.1458C59.6178 35.1539 59.2992 35.1527 58.9814 35.1419L49.7949 35.1946L47.1367 35.1799C46.8834 35.178 46.0282 35.1571 45.8057 35.1877C45.6334 35.1659 45.3143 35.1585 44.9912 35.1565C45.3137 35.1586 45.6318 35.166 45.8037 35.1877C45.2467 35.2611 43.8796 35.2224 43.2471 35.221C41.5306 35.2339 39.8136 35.2185 38.0976 35.1751C37.4245 35.1626 31.7569 35.2754 31.5244 35.1292C31.536 35.1132 31.6346 35.0261 31.6523 35.01L31.5264 34.9934L31.5293 34.9749C32.0365 34.9141 32.9382 34.9602 33.4785 34.9485C34.8941 34.9176 36.3531 34.9783 37.7637 34.9719L45.6562 34.927ZM39.2773 35.1213C39.6096 35.1392 40.2117 35.1633 40.6738 35.1585C40.212 35.1632 39.6113 35.1392 39.2793 35.1213L39.2676 35.1096H39.2656L39.2773 35.1213ZM44.1533 35.1565H44.1553L41.0762 35.1428H41.0742L44.1533 35.1565ZM40.4961 35.0686C40.6575 35.0576 40.8216 35.0522 40.9863 35.0491C40.8214 35.0522 40.6577 35.0576 40.4961 35.0686C40.5869 35.0953 40.6833 35.1057 40.7812 35.1135L40.6367 35.0979C40.5889 35.091 40.5416 35.082 40.4961 35.0686ZM39.0664 35.0862L39.1797 35.1096L39.0674 35.0862L39.1016 35.0608L39.0664 35.0862ZM40.918 34.9876C40.2917 34.9951 39.6639 35.0145 39.2978 35.0393L39.2783 35.1096L39.2793 35.1106L39.2998 35.0393C39.6656 35.0145 40.2923 34.9951 40.918 34.9876ZM59.6084 35.0637C59.4879 35.0727 59.3428 35.0832 59.2119 35.0999C59.3431 35.0833 59.4882 35.0727 59.6084 35.0637ZM39.1465 35.096L39.1475 35.0969L39.1738 35.051V35.0501L39.1465 35.096ZM39.2178 35.0618L39.2412 35.0852L39.2392 35.0813L39.2178 35.0598V35.0618ZM35.8437 16.6594C41.9565 13.7203 48.8311 12.7505 55.5185 13.8831C56.8397 14.1035 57.8561 14.4134 59.1172 14.7444H59.1162C60.6266 15.0242 65.8012 17.2716 67.041 18.2151L66.9258 18.4104C66.8112 18.4479 66.738 18.477 66.6592 18.4924C66.7387 18.4772 66.8123 18.4483 66.9277 18.4104L67.043 18.2151C67.5821 18.5388 68.1693 18.9078 68.665 19.2903C68.9925 19.4571 69.4494 19.8061 69.7324 20.0461C69.3461 20.1854 69.567 20.209 69.3437 20.4133C69.2385 20.3388 69.1336 20.2628 69.0303 20.1858L68.7236 19.9514L68.0322 19.4944C67.8029 19.3408 67.5743 19.1855 67.3467 19.0295V19.0286C67.0536 18.8685 66.7324 18.6722 66.4414 18.5022H66.4394C64.6091 17.379 62.9225 16.6069 60.9092 15.843C60.2431 15.5904 59.2332 15.3556 58.6357 15.0803V15.0794C58.403 15.0889 56.6207 14.6365 56.2519 14.5588C45.6762 12.3324 34.3397 16.0586 26.793 23.7141C25.2352 25.2942 23.7152 27.1735 22.4668 29.0305C22.1038 29.5598 21.2155 31.2058 20.9209 31.5149C20.7173 31.565 20.6361 31.7061 20.4902 31.7971C20.637 31.7063 20.7183 31.5651 20.9228 31.5149L21.1133 31.6184L21.1221 31.6819L21.0605 31.7297H21.0625C20.7137 32.3791 20.3721 32.8962 19.9414 33.4973C19.9403 33.4982 19.9386 33.4984 19.9375 33.4993C19.8033 33.817 19.4591 34.5453 19.4365 34.8479C19.2465 34.965 19.0646 35.0113 18.8525 35.0813C18.7631 34.5735 19.2111 34.299 19.1387 33.9934H19.1377C18.0033 34.4497 17.4125 34.0277 16.4209 34.5774C16.2709 34.6606 16.0591 34.8918 15.9033 35.0227L15.8633 34.9934C16.077 33.9634 16.9682 32.3014 18.1631 32.3645C18.8015 32.3983 19.6097 32.4634 20.1699 32.1155C20.5336 32.0142 20.6577 31.8184 20.9834 31.7463C20.6562 31.8179 20.5324 32.014 20.168 32.1155L20.2324 31.8792L20.2314 31.8801C20.7341 30.8103 21.502 29.5808 22.1601 28.593C25.1382 24.1098 29.1223 20.3829 33.7939 17.7102C34.4454 17.33 35.1617 16.9886 35.8437 16.6594ZM59.6943 35.0559H59.6953C59.809 35.0501 59.8929 35.0476 59.9766 35.0481C59.8927 35.0476 59.8086 35.0501 59.6943 35.0559ZM39.2168 35.0588L39.2178 35.0598L39.2236 35.0461V35.0452L39.2168 35.0588ZM85.8555 27.4905C86.3582 28.6773 86.9002 30.7825 86.2715 31.9622C85.6311 33.1644 85.3769 33.5445 85.1367 34.9358C85.1221 34.9815 85.1362 34.9562 85.0762 34.9983C84.9542 34.8626 84.7691 34.2157 84.7168 34.0227C84.4249 33.0311 84.3683 31.8688 84.9043 30.9348C85.6296 29.672 85.7739 28.8463 85.7471 27.4045L85.8555 27.4905ZM21.9258 28.3938C21.4568 29.2964 20.7688 30.7457 19.7119 31.0237C18.4362 31.3592 17.9903 30.9663 17.0644 32.343C17.2032 31.9102 17.341 31.4418 17.5234 31.0286V31.0266L17.415 30.9045C17.5206 30.6784 17.6575 30.4288 17.7744 30.2044L17.8223 30.4192C18.2106 29.8897 18.5467 29.4788 19.2578 29.4094C20.5742 29.2811 20.9187 29.2047 21.9258 28.3938ZM83.3506 25.012C83.5719 25.1473 83.8003 25.7179 83.916 25.9485C85.4521 28.9989 83.4977 29.6597 84.0664 31.8655C84.0303 31.9027 84.0564 31.8806 83.9746 31.9124C83.8111 31.7692 83.5527 31.2658 83.4424 31.054C82.2172 28.6945 84.0266 27.4499 83.2656 24.9749C83.2938 24.987 83.3243 24.9961 83.3506 25.012ZM17.9492 29.5276L17.9512 29.5286L18.1084 29.3743H18.1074L17.9492 29.5276ZM81.8154 28.8606C81.9873 28.9844 82.0289 29.0428 82.1553 29.0335C82.0321 29.0411 81.9891 28.983 81.8193 28.8606H81.8154ZM32.9834 14.1799C32.8468 14.3645 32.8376 14.3712 32.8154 14.593L32.8808 14.6428C33.0788 14.5995 33.1932 14.519 33.3701 14.4182L33.3935 14.3655C33.4653 14.4119 33.4379 14.3822 33.4805 14.4514C32.9104 14.7763 32.2574 15.135 31.709 15.4836L31.751 15.3176C31.6713 15.2741 31.5811 15.2563 31.4863 15.2561C31.5805 15.2565 31.6698 15.2744 31.749 15.3176L31.708 15.4836C31.3512 15.6225 31.0382 15.8629 30.7178 16.0794V16.0803C30.2599 16.3615 29.45 16.9183 28.9941 17.2473L28.9951 17.2493C28.1723 17.712 26.6617 19.1443 25.8633 19.804C25.6414 19.9873 25.3784 20.2933 25.1894 20.4397C25.4774 19.849 26.4639 19.3184 26.5156 18.9446L26.4834 18.8782H26.4814L26.5137 18.9436C26.4623 19.3174 25.4758 19.8481 25.1875 20.4387C24.1136 21.4158 23.2297 22.4307 22.2695 23.5071C21.9555 23.8591 20.6627 25.6621 20.4414 25.8294L20.4424 25.8303C19.83 26.8398 20.1838 28.0945 18.5625 28.9446C18.3602 28.5802 18.8528 28.4883 18.7236 27.9436C18.6637 27.9157 18.6058 27.8864 18.5469 27.8567C19.0754 27.0744 18.7891 26.675 18.9141 25.8235C19.0973 24.5745 20.0005 23.786 20.9297 23.0764L20.8125 23.2805C20.4449 23.9189 20.3096 24.4262 20.1826 25.1516L20.1816 25.1536L20.2305 25.2639C20.3702 25.1823 21.1088 24.1314 21.2773 23.9368C22.209 22.8624 23.2627 21.4408 24.3545 20.5461C24.3564 20.5449 24.3584 20.5425 24.3603 20.5413C24.7441 19.9696 27.455 17.7141 28.0723 17.3167C28.2378 17.2677 28.5079 17.1248 28.7178 17.1047L28.7773 17.1028C28.5615 17.0952 28.2525 17.2629 28.0703 17.3167C28.407 16.982 29.4058 16.3581 29.8769 15.9993L29.9219 15.9915C30.0637 15.9656 30.169 15.9194 30.2568 15.8762C30.1688 15.9195 30.0631 15.9655 29.9209 15.9915L29.876 15.9993C30.1567 15.8026 30.3452 15.6741 30.6435 15.5061C30.6445 15.5057 30.6455 15.5046 30.6465 15.5042C30.9123 15.2281 32.5557 14.447 32.9834 14.1799ZM69.7353 20.0471C69.9927 20.1802 70.4984 20.6477 70.8193 20.8606L70.8183 20.8616C71.0924 21.146 71.2765 21.2246 71.5518 21.4514C71.5528 21.4538 71.5547 21.4569 71.5557 21.4592C72.5557 22.4229 73.621 23.2946 74.5137 24.3811C74.634 24.5281 75.5306 25.6143 75.5615 25.6301C75.6049 25.7248 75.6664 25.8468 75.6728 25.9456C75.6904 26.22 75.9547 26.3371 75.832 26.5452L75.7559 26.5754C75.0633 25.5007 73.7116 24.3527 72.8271 23.3899C72.4735 23.0048 71.9471 22.6901 71.6045 22.261C71.7758 22.3626 71.7727 22.3838 71.8623 22.385C71.7779 22.3828 71.7777 22.3599 71.6094 22.26L71.416 22.0823L71.5332 21.9768L71.415 22.0823C71.2048 21.921 70.7522 21.59 70.6211 21.3821C70.4042 21.2268 69.5032 20.5697 69.3467 20.4133C69.5698 20.209 69.3485 20.1865 69.7353 20.0471ZM72.0351 22.3528C72.1869 22.487 72.2324 22.5487 72.4209 22.6047L72.3711 22.5842C72.2263 22.5322 72.1749 22.4727 72.0381 22.3518L72.0351 22.3528ZM74.6865 19.9358L74.6406 19.9983L74.6445 19.9954L74.6894 19.9348L74.6865 19.9358ZM68.7617 19.7014C68.7854 19.7281 68.8053 19.7575 68.8203 19.7903H68.8213C68.8139 19.7741 68.8056 19.7579 68.7959 19.7434C68.7861 19.7288 68.7745 19.7147 68.7627 19.7014H68.7617ZM71.9619 17.2903H71.9609C72.1567 17.4405 72.3428 17.5861 72.5469 17.7258L72.5449 17.7268L73.0019 18.1135C73.1617 18.2464 73.3166 18.3774 73.4287 18.4895C73.2521 18.62 73.2428 18.6213 73.0244 18.6682L72.9697 18.7717C72.7654 18.708 71.865 17.9407 71.6924 17.7405L71.6934 17.7385L71.5537 17.6741V17.6731C71.4126 17.5948 71.4106 17.5995 71.2988 17.4836C71.3662 17.3948 71.4615 17.095 71.5283 16.9592C71.6712 17.0718 71.8156 17.1825 71.9619 17.2903ZM71.7988 17.6487C72.05 17.7006 72.0823 17.9304 72.249 17.926C72.0839 17.9287 72.0511 17.6995 71.8008 17.6477L71.7988 17.6487ZM65.6416 13.967C66.0807 13.6424 66.0886 14.059 66.5762 13.8977C66.6988 14.046 66.9868 14.1796 67.166 14.2053H67.168C67.3737 14.3748 68.0096 14.6669 68.3486 14.887L68.3506 14.8879C68.5687 15.0202 68.896 15.2421 69.1084 15.3362L69.2949 15.4514C69.4849 15.5798 69.6773 15.7315 69.7959 15.7649H69.7949C70.2293 16.0458 70.8943 16.5761 71.293 16.7835L71.292 16.7844L71.5244 16.9592C71.4577 17.0951 71.3632 17.3948 71.2959 17.4836L70.9219 17.2131C70.7806 17.1616 69.7928 16.4341 69.6592 16.3235L69.6582 16.3225C69.2109 16.1347 69.1945 15.9337 68.7939 15.7669C68.7767 15.7072 68.769 15.6925 68.7685 15.677V15.678C68.7691 15.6934 68.7768 15.7083 68.7939 15.7678C68.2757 15.551 67.9499 15.1093 67.3691 15.0042L67.3887 14.8215C67.493 14.7779 67.6061 14.7675 67.7226 14.7756C67.6057 14.7672 67.4924 14.7768 67.3877 14.8206L67.3682 15.0042C67.1273 14.7119 66.4265 14.5108 66.291 14.2825L66.1152 14.2122C65.9517 14.1408 65.8173 14.0637 65.6416 13.967ZM30.5635 15.7366C30.5154 15.7459 30.47 15.7689 30.4189 15.7961C30.47 15.7689 30.5155 15.746 30.5635 15.7366Z" fill="#F6EFE9"/>
</svg>
