<svg width="105" height="105" viewBox="0 0 105 105" fill="none" xmlns="http://www.w3.org/2000/svg">
<path fill-rule="evenodd" clip-rule="evenodd" d="M28.9845 14.6349C29.484 14.2276 30.2026 13.6076 30.882 13.9621C31.1125 14.0824 31.3887 14.3931 31.4269 14.6554C31.6618 16.2696 31.0006 18.2838 30.09 19.6086C30.5826 19.5541 32.8392 19.2936 32.9103 20.1232C32.9566 20.6658 32.1316 21.6752 31.7501 22.0705C30.4787 23.3941 28.7279 24.1501 26.8927 24.1681C26.2823 24.1794 25.6728 24.1154 25.0783 23.9767C24.5056 24.7819 23.8237 25.5391 23.2423 26.3507C24.3776 25.5651 26.1343 24.4956 27.5861 24.672C28.3724 24.7676 28.8245 25.6531 28.5968 26.3927C28.2349 27.5675 27.1253 28.5027 26.088 29.0939C25.0123 29.6949 23.7372 30.0556 22.505 30.0148C22.0212 29.9988 21.5281 29.9108 21.0538 29.8791C20.6175 30.6281 20.2027 31.6026 19.7951 32.3957C20.5292 31.8004 21.1165 31.5432 21.9816 31.1935C23.3511 30.6399 24.2693 31.255 24.0343 32.7629C23.4183 35.8407 20.6174 36.7971 18.0275 37.5256C17.639 38.8457 17.4016 40.5942 17.1271 41.9601C18.0499 40.5067 18.8074 39.4485 20.2931 38.4699C21.4831 37.6861 22.0818 37.5372 22.2726 39.1886C22.4181 40.4482 21.9549 41.7007 21.2052 42.7013C20.3588 43.8601 18.2166 45.3088 16.8956 45.8898C16.8855 46.6883 16.8957 47.4873 16.9259 48.2853C16.9257 48.4465 16.9092 48.5491 16.9816 48.6925C17.1036 48.5624 17.1425 48.3964 17.2081 48.2209C17.6194 47.0054 18.7571 45.3549 19.8038 44.5675C20.1829 44.2824 20.6546 44.8153 20.7745 45.1877C21.2661 46.7156 21.2733 48.4516 20.6378 49.9406C20.121 51.0651 19.3116 51.8458 18.4288 52.6584C18.1583 52.9075 17.9861 53.1975 17.672 53.4318C17.8189 54.1295 18.0001 54.8194 18.215 55.4992C18.2987 55.772 18.6449 56.8095 18.6642 57.0324C18.7399 57.2205 18.8703 57.465 18.963 57.6515C18.9681 57.3998 18.9618 57.1752 18.9533 56.925C19.0359 55.168 19.3745 53.4317 19.9581 51.7726C20.7083 49.6449 22.173 52.6811 22.4591 53.4748C23.1335 55.346 22.8625 57.459 21.6515 59.0519C21.1127 59.7605 20.6998 59.9996 20.297 60.8322C21.0267 62.2503 21.8327 63.6282 22.7101 64.9601C22.564 64.1603 22.4812 63.3494 22.464 62.5363C22.4414 61.0367 22.6804 58.9628 23.1681 57.5304C23.2699 57.2323 23.8105 57.1977 24.047 57.4298C25.0816 58.446 25.7655 59.9535 25.9581 61.3781C26.2594 63.6062 25.6723 65.3733 24.3322 67.1359C25.0913 67.9747 25.8352 68.8272 26.5646 69.6916C26.2558 68.9471 25.9919 67.7271 25.9992 66.9718C26.0152 65.2855 25.9017 61.024 28.3576 64.1086C29.8423 65.9733 30.2251 67.3621 30.048 69.6662C30.3974 69.6457 30.5523 69.6358 30.9035 69.6681C30.856 68.8402 30.7762 68.3866 31.0919 67.6017C31.3966 67.4188 31.467 67.3973 31.797 67.3C31.8618 67.3143 31.9263 67.3295 31.9904 67.3468C33.0553 67.6375 33.6504 68.765 34.1642 69.6525L56.6368 69.6603L65.6339 69.6613C67.3366 69.6613 69.1616 69.6932 70.8566 69.6388C71.4631 68.5274 71.9302 67.5851 73.2599 67.2902C74.4319 67.7039 74.1604 68.65 74.0763 69.6769C74.4237 69.6421 74.5926 69.6489 74.9396 69.6632C74.772 67.4015 75.2367 65.6784 76.7755 63.9416C78.1156 62.4282 78.6457 62.7929 78.8898 64.6808C79.1159 66.4338 79.0598 67.9576 78.464 69.6506C79.1484 68.8662 79.9585 67.8815 80.6691 67.1525C78.4707 64.1876 78.3355 60.7035 80.6242 57.7453C81.8102 56.2121 82.1315 58.4667 82.2638 59.2257C82.6083 61.2048 82.5761 62.9783 82.3136 64.9543C83.1652 63.6443 83.9575 62.2204 84.6993 60.8459C84.3687 60.0592 84.093 59.9265 83.5353 59.2658C82.895 58.507 82.3339 57.2763 82.2247 56.2853C82.047 54.6377 82.5657 52.7157 83.6535 51.4474C84.5794 50.368 85.0053 51.6364 85.2355 52.3644C85.7861 54.106 86.0822 55.8607 86.0509 57.6838C86.5493 56.7332 87.0145 54.5112 87.3693 53.4181C87.1597 53.2819 87.1055 53.2382 86.9699 53.0295C86.7581 52.7039 86.3342 52.3901 86.0343 52.1183C85.4001 51.5426 84.9673 51.0273 84.5597 50.2765C83.7097 48.7118 83.6995 46.9408 84.2199 45.2687C84.2947 45.0184 84.45 44.6611 84.714 44.5578C85.2267 44.3599 85.7175 44.9742 86.0138 45.3175C86.59 45.9856 87.1106 46.7385 87.4884 47.5373C87.7017 47.988 87.8844 48.4453 88.0802 48.9006C88.052 48.0708 88.0714 46.7203 88.1222 45.9045C85.4439 44.6669 82.1192 42.1501 82.8019 38.7863C82.9029 38.2892 83.1163 37.6934 83.7638 37.966C85.1709 38.5583 86.6998 40.0243 87.4699 41.3283C87.5534 41.4795 87.7672 41.7827 87.8702 41.9396C87.8005 41.5589 87.7464 41.1814 87.671 40.8C87.6715 40.3975 87.1187 38.1772 87.0285 37.5236C84.3887 36.9604 81.3235 35.5358 80.9445 32.549C80.5897 29.7508 84.2295 31.4922 85.1925 32.3898C84.824 31.5934 84.3676 30.6118 83.9279 29.8634C81.9367 30.1581 80.4869 30.0103 78.7033 28.9699C77.6825 28.3744 75.6551 26.505 76.5704 25.2033C77.6404 23.6813 80.7716 25.6316 81.8068 26.3888C81.186 25.5498 80.5213 24.7879 79.9113 23.9777C77.3713 24.6055 74.7343 23.7663 73.0275 21.7931C70.8934 19.3266 72.8747 19.4359 74.9259 19.6047C74.7691 19.3795 74.6263 19.1446 74.4992 18.9015C73.9321 17.8231 73.2351 15.684 73.6232 14.5021C74.0487 13.2055 75.4959 14.1954 76.0753 14.7101C77.3642 15.855 78.0644 16.8935 78.7755 18.4142C78.8729 17.8442 79.0407 17.2884 79.2755 16.7599C79.596 16.0183 80.7522 13.6564 81.9279 14.214C82.2266 14.3744 82.4965 14.7088 82.5519 15.0431C83.0487 18.0295 82.4597 20.8396 80.8868 23.4132C81.3235 23.8538 82.4302 25.3271 82.7531 25.842C82.6317 24.4376 83.3564 21.3801 84.9835 20.7472C85.7482 20.4501 86.1947 21.3469 86.3234 22.0207C86.8288 24.6748 86.3038 26.8784 84.838 29.1144C85.5609 30.5945 86.0491 31.5193 86.713 33.0832C86.755 33.2522 86.7353 33.2634 86.8419 33.3859C86.9537 33.2516 86.9343 33.1755 86.9728 32.9777C87.1599 31.4271 87.8475 29.9838 88.8693 28.8088C89.3244 28.2851 89.7077 28.0721 90.3761 27.9338C90.7158 28.0216 90.9822 28.0857 91.1642 28.4269C91.6277 29.2993 91.0027 31.5874 90.7326 32.5148C90.1906 34.3762 89.3005 36.1353 88.1691 37.7013C88.4356 38.4814 88.6565 39.6932 88.7775 40.5265C89.4337 39.317 90.2768 38.4137 91.6271 38.0168C91.9752 37.9144 92.6039 37.7605 92.9464 37.9025C93.3489 38.0695 93.2096 38.7348 93.1798 39.0705C93.0655 40.3577 92.6492 41.5917 91.9904 42.7013C91.2444 44.0013 90.4179 44.7638 89.2824 45.7131C89.2634 46.5624 89.2603 47.8102 89.1378 48.6222C90.235 47.36 91.2514 46.506 93.0187 46.3527C93.3771 46.3217 94.0013 46.2977 94.3068 46.5109C94.7154 46.8288 94.31 47.7132 94.1505 48.0636C93.6814 49.0961 93.0116 50.0536 92.1954 50.8371C91.4429 51.5726 90.5782 52.1827 89.6329 52.6457C89.3038 52.8051 88.8744 52.9601 88.5822 53.1134C88.3018 54.419 88.0721 55.2517 87.6671 56.5177C89.009 55.4863 91.6613 54.4683 93.0568 55.8781C92.6284 57.3693 90.7008 59.0285 89.3644 59.7365C88.2422 60.3312 87.2464 60.6477 85.9884 60.8302C85.3973 61.9833 84.904 62.8871 84.2355 64.0002C85.7915 63.6823 87.4462 63.8272 88.8136 64.7726C89.9154 65.535 90.5954 65.9983 89.1261 66.8175C86.8386 68.0925 84.1432 68.4118 81.6398 67.6281C81.3398 68.1838 80.4152 69.1955 79.9533 69.6769C80.9303 69.638 81.9623 69.6581 82.9445 69.6632L82.9308 71.714C83.1231 71.9396 83.5358 72.3808 83.6896 72.59L89.5304 72.5881C90.4409 72.5886 91.5456 72.6161 92.4376 72.5812C91.8675 73.9583 91.116 75.3024 90.5089 76.6672C90.1895 77.3849 89.7587 78.1072 89.4552 78.8234C90.3406 80.626 91.6996 83.2059 92.4122 84.9865C91.4089 85.0521 89.9564 85.0085 88.9259 85.007L81.2072 85.006C79.9726 85.006 78.1985 84.9555 77.006 85.0324C77.0111 84.069 76.9988 83.0653 77.0158 82.1076C75.5674 82.0543 73.8118 82.0051 72.3732 82.1779C71.2904 82.3081 70.3695 82.1662 69.2882 82.0939C67.942 82.0744 66.5716 82.0703 65.2218 82.0949C65.6387 83.1493 66.8048 86.2427 64.3302 84.756C63.0306 83.9752 61.9814 83.1325 60.8859 82.0959C60.3385 82.0933 59.8336 82.0909 59.2863 82.0607C60.2254 82.559 61.0933 83.2904 61.588 84.2433C61.7566 84.5682 61.2871 84.9061 61.0031 84.9259C59.2788 85.0469 57.3328 84.7811 55.6681 84.3673C57.6266 85.7598 59.3141 87.2688 60.6163 89.3195C60.9014 89.7686 61.5341 90.4829 61.0558 90.9894C60.7918 91.2693 60.4149 91.1967 60.2355 90.8742C59.7105 90.0646 59.2125 89.2394 58.5988 88.4914C57.2155 86.7416 54.5213 84.7468 52.4874 83.8029C49.5862 85.3928 47.1437 87.1111 45.3771 89.9396C45.1423 90.3153 44.7173 91.239 44.2599 91.1369C43.1156 90.8795 44.3123 89.483 44.6076 88.9621C45.8522 87.0436 47.4847 85.6909 49.3253 84.3722C48.2805 84.6327 44.5011 85.3388 43.6281 84.7892C43.509 84.7144 43.4215 84.6049 43.3976 84.4631C43.3359 84.0949 43.8445 83.5573 44.0734 83.3009C44.5378 82.7878 45.0969 82.3685 45.7199 82.0666C45.2008 82.0891 44.6705 82.1117 44.1515 82.0763C42.479 83.6279 37.3733 88.0621 39.7726 82.0959C38.4275 82.0764 37.0916 82.0851 35.7482 82.0949C35.1338 82.0996 33.8838 82.3295 33.3497 82.2502C31.5095 81.9753 29.7375 82.1119 27.881 82.0832C27.9063 83.0586 27.8735 84.0894 27.9161 85.05C24.6193 84.9884 21.2165 85.0285 17.9142 85.0285H14.4386C13.8484 85.0285 12.9755 85.0025 12.4122 85.0558C13.4092 83.1481 14.5287 80.7537 15.4523 78.7824C14.3915 76.7861 13.4587 74.6122 12.4288 72.5949C15.2333 72.6154 18.5287 72.6596 21.3126 72.5822C21.5328 72.3239 21.7544 72.0669 21.9777 71.8117C21.9849 71.0883 21.9754 70.3647 21.9493 69.6418C22.9259 69.6946 24.1655 69.5993 25.0646 69.6818C24.6322 69.2009 23.6249 68.1524 23.339 67.633C20.704 68.3769 18.264 68.1192 15.8449 66.8088C15.458 66.5991 14.7365 66.1483 15.1603 65.6418C16.4491 64.1002 18.8902 63.5092 20.7843 63.9972C20.1165 62.8729 19.6149 61.9937 19.0216 60.8156C16.7113 60.5777 14.373 59.2921 12.9171 57.4797C12.6366 57.1306 12.2862 56.6694 12.0773 56.2707C11.9161 55.9632 12.0506 55.6571 12.3751 55.5099C13.3172 55.0834 14.5588 55.1591 15.5197 55.5021C16.1717 55.7303 16.7806 56.0675 17.3195 56.4992C17.0288 55.443 16.5808 54.1759 16.4533 53.0998C13.8156 52.0287 11.9082 50.4964 10.7472 47.8078C10.3314 46.8447 10.3868 46.2741 11.5656 46.34C13.4184 46.3541 14.6992 47.2611 15.8624 48.6086C15.7295 47.9253 15.7226 46.3716 15.7658 45.6574C14.1394 44.7022 12.5389 42.3306 12.089 40.5011C11.9755 40.0395 11.4018 37.9589 12.172 37.8673C12.887 37.7825 13.8534 38.1233 14.4581 38.5226C15.2157 39.033 15.8282 39.7309 16.2365 40.548C16.3036 39.8958 16.6014 38.2523 16.8527 37.6701C15.1271 35.5823 13.4825 31.2625 13.7111 28.5568C14.0194 28.1098 14.1113 28.0534 14.6505 27.9279C16.871 28.4644 17.8201 31.5691 18.1359 33.548C18.4761 32.5963 18.8708 31.6646 19.3175 30.758C19.5173 30.3538 20.0188 29.4634 20.1622 29.0929C18.7024 26.9382 18.2104 24.6662 18.6759 22.1007C18.7861 21.4937 19.1626 20.4498 19.9005 20.7345C21.7621 21.454 22.26 24.2494 22.2618 25.8175C22.6714 25.2096 23.6206 23.882 24.1388 23.4006C22.5455 21.0317 21.9968 17.937 22.4308 15.1339C22.4883 14.7632 22.6552 14.4727 22.9708 14.2687C23.9198 13.6557 24.8286 15.1231 25.2277 15.7834C25.7317 16.6173 26.0732 17.4886 26.2306 18.4367C26.9185 16.941 27.6865 15.6864 28.9845 14.6349ZM59.9113 83.842C58.682 82.7798 57.7963 82.5505 56.216 82.6632C55.7299 82.7643 55.5144 82.8587 55.0499 83.0304C55.9677 83.3673 57.7692 83.6938 58.7433 83.7697C59.1324 83.7984 59.5217 83.8225 59.9113 83.842ZM50.0441 83.0392C49.0437 82.6912 48.5249 82.5533 47.4513 82.6574C46.4923 82.8297 45.8319 83.209 45.1056 83.84C45.5871 83.8251 46.9977 83.7337 47.4367 83.6164C48.3156 83.4851 49.1838 83.2607 50.0441 83.0392ZM41.1085 82.0754C40.8375 82.4553 40.588 83.1441 40.4132 83.5968L41.2472 83.0236C41.6807 82.7298 42.0906 82.4027 42.504 82.0812C42.054 82.0874 41.5536 82.1041 41.1085 82.0754ZM62.5216 82.0802C63.2675 82.6785 63.6934 83.0055 64.5079 83.5197C64.4187 82.9994 64.1879 82.5443 63.9259 82.0881L62.5216 82.0802ZM39.5382 72.4699C39.3002 72.9522 38.9992 73.5271 38.7872 74.0109C38.2297 74.1181 37.5283 74.2791 36.9728 74.2863L38.2814 75.6076C38.1506 76.0116 38.0236 76.8899 37.963 77.339C38.3903 77.1452 39.2625 76.6353 39.5997 76.5246L41.1808 77.3664C41.0461 76.7855 40.9603 76.1835 40.8663 75.5939C41.2947 75.1535 41.7291 74.7189 42.1681 74.2892C41.5574 74.2662 40.9473 74.13 40.3478 74.007C40.2203 73.7453 39.6948 72.613 39.5382 72.4699ZM52.4572 72.4748C52.1568 72.9751 51.9122 73.4934 51.6554 74.0168C51.085 74.1239 50.4307 74.269 49.8585 74.2931C50.2659 74.7028 50.7617 75.227 51.1818 75.6115C51.0085 76.266 50.9748 76.7524 50.837 77.3449C51.36 77.1039 52.0023 76.7089 52.4826 76.5177C52.9982 76.8012 53.5517 77.1204 54.0822 77.3664C53.9376 76.7112 53.865 76.2113 53.7492 75.5607C54.1854 75.1393 54.6197 74.7148 55.0519 74.2882C54.4614 74.2667 53.8155 74.1241 53.2296 74.0138C53.1384 73.8144 52.5561 72.5968 52.4572 72.4748ZM58.8683 72.4757C58.6438 72.9269 58.3086 73.5538 58.1271 74.007C57.538 74.1213 56.8692 74.2738 56.2755 74.2902C56.7211 74.7157 57.1709 75.1356 57.5949 75.5832C57.4852 76.1691 57.3852 76.7573 57.296 77.3468C57.5722 77.2113 58.7379 76.5755 58.9337 76.5324C59.4069 76.7836 60.0366 77.1386 60.5109 77.3586C60.3751 76.7788 60.322 76.157 60.1749 75.6183C60.608 75.1447 61.0504 74.7301 61.5148 74.2873C60.9186 74.2754 60.2574 74.1233 59.6603 74.0177C59.5398 73.7399 59.0457 72.6732 58.8683 72.4757ZM64.5382 74.0089C63.9717 74.1217 63.2835 74.2834 62.716 74.2834L64.0245 75.5763C63.9528 76.0607 63.7651 76.9124 63.7296 77.339C64.2936 77.0842 64.8207 76.7427 65.339 76.5089C65.8635 76.7904 66.3983 77.0848 66.9259 77.3586C66.8403 76.7481 66.7382 76.2114 66.6193 75.6076C67.0494 75.1744 67.5029 74.702 67.9474 74.2873C67.3309 74.2698 66.7051 74.1289 66.0988 74.008C65.967 73.7189 65.4824 72.613 65.3029 72.4738L64.5382 74.0089ZM45.9952 72.4259C45.7489 72.9555 45.4935 73.4813 45.2286 74.0021C44.636 74.1267 43.9883 74.2787 43.3859 74.2824L44.674 75.5451C44.6411 76.1424 44.5141 76.7476 44.4298 77.3439C44.959 77.0747 45.483 76.7951 46.0021 76.507L47.5988 77.3527C47.5152 76.8129 47.4258 76.0962 47.3195 75.5744L48.6222 74.2824C48.0243 74.2737 47.3881 74.1264 46.7921 74.0187C46.6763 73.7813 46.1029 72.5721 45.9952 72.4259ZM27.2736 64.5871C27.0916 65.8272 27.096 67.0272 27.3322 68.2658C27.4206 68.7292 27.5924 69.1951 27.6896 69.6662C28.1009 69.6431 28.4332 69.64 28.8458 69.6457C28.9805 69.4857 28.939 68.3972 28.9249 68.1506C28.8595 67.0026 28.1315 65.3597 27.2736 64.5871ZM77.6935 64.6388C76.8948 65.2812 76.1852 66.9911 76.0949 68.0109C76.0487 68.5323 76.073 69.0494 76.132 69.5734C76.172 69.6067 76.1965 69.639 76.2365 69.6466C76.5901 69.6487 76.9767 69.6583 77.3273 69.6486C77.4334 69.1694 77.6018 68.6007 77.6906 68.1496C77.8608 67.2816 77.9344 65.5684 77.7462 64.7004L77.6935 64.6388ZM21.0763 65.2726C20.3431 64.9737 19.6148 64.8747 18.8214 64.9757C17.887 65.0988 17.3193 65.4199 16.5109 65.8869C17.9702 66.603 18.8447 66.8307 20.4659 66.9435C21.2342 66.9363 21.8484 66.8412 22.5968 66.6808C22.1281 66.0626 21.8378 65.5833 21.0763 65.2726ZM88.5031 65.9123C87.44 65.2486 86.3732 64.7883 85.0841 64.9748C83.5086 65.1804 83.3414 65.5377 82.4288 66.6779C83.7466 66.9956 84.4931 66.9796 85.798 66.8263C86.3773 66.69 86.9101 66.559 87.4679 66.3488C87.8215 66.216 88.1612 66.0363 88.5031 65.9123ZM23.9054 59.1339C23.5235 61.2191 23.5539 63.7089 23.9493 65.7863L24.2218 65.2697C25.0047 63.4501 25.1234 61.9076 24.3986 60.0168C24.3102 59.7865 24.1075 59.266 23.9054 59.1339ZM81.0451 59.1457C80.1751 60.5996 79.9096 62.3364 80.3058 63.9836C80.3781 64.2732 80.6575 65.0833 80.797 65.3127L81.0109 65.6535L81.0675 65.6496C81.4771 64.0921 81.458 60.8985 81.0997 59.2101C81.0962 59.1922 81.062 59.1616 81.0451 59.1457ZM91.5451 56.3263C91.37 56.332 90.8003 56.3379 90.6583 56.3625C88.9338 56.6451 87.2561 58.1017 86.4728 59.6213L87.3107 59.3966C88.9302 58.7748 90.5458 57.7762 91.5451 56.3263ZM13.462 56.34C14.754 58.0446 16.4242 59.1552 18.5255 59.6007C17.9958 58.4718 16.4043 56.9683 15.1906 56.5812C14.4887 56.3572 14.1819 56.3215 13.462 56.34ZM20.8341 52.7414C20.3293 54.6803 20.014 56.4493 20.0617 58.4631C20.0668 58.6828 20.0703 58.9358 20.0577 59.1535L20.4611 58.7238C21.3253 57.624 21.7963 56.4505 21.6515 55.0216C21.5971 54.4849 21.2243 53.1014 20.8341 52.7414ZM84.1447 52.7345C82.9193 54.8028 83.0769 56.756 84.4786 58.673C84.6191 58.8191 84.7944 58.991 84.922 59.1437C84.9471 57.2048 84.9154 55.5616 84.4171 53.6642C84.3592 53.4447 84.2513 52.9114 84.1447 52.7345ZM11.8507 47.4591C12.6774 49.3249 14.2911 51.0029 16.1906 51.7746C16.0797 50.8104 14.8703 49.0014 14.0587 48.3986C13.3205 47.8503 12.7675 47.5752 11.8507 47.4591ZM92.9816 47.4845C91.5052 47.7847 90.647 48.4632 89.7755 49.7043C89.4776 50.1291 88.8909 51.2028 88.8263 51.7218L88.8839 51.7609L88.9386 51.7287C90.6094 51.0002 92.4233 49.1883 93.1242 47.5031C93.018 47.4674 93.0651 47.4664 92.9816 47.4845ZM85.1495 46.1076C84.6477 48.4219 85.4412 50.3302 87.3243 51.7287C87.4273 51.5883 87.3361 50.9671 87.3048 50.7609C87.1074 49.3761 86.5953 48.0548 85.8077 46.8986C85.636 46.6413 85.3962 46.2892 85.1495 46.1076ZM19.7999 46.1359C18.591 47.4038 17.5737 49.9218 17.63 51.6818L17.6847 51.716L17.7677 51.6691C18.9819 50.6849 19.7717 49.592 19.9601 48.0041C20.0096 47.5869 19.983 46.533 19.8507 46.173L19.7999 46.1359ZM83.8663 39.2951C83.8187 40.5877 84.2486 41.5274 85.1124 42.4914C85.5872 43.0214 87.0056 44.0897 87.6495 44.3283C86.8544 42.2054 85.872 40.5234 83.8663 39.2951ZM21.0851 39.3244C19.3097 40.4319 18.054 42.2906 17.3898 44.2502C17.4435 44.3102 17.4138 44.2982 17.4689 44.3068C18.8717 43.482 20.5815 42.2273 20.9952 40.5793C21.0596 40.3228 21.1761 39.607 21.13 39.3683L21.0851 39.3244ZM91.9581 39.0754C89.8579 39.9126 89.0668 42.0183 89.174 44.1457C89.2324 44.2399 89.1966 44.2168 89.255 44.2443C90.405 43.2519 91.3083 41.8155 91.7579 40.3634C91.8651 40.0162 91.9303 39.5 92.0343 39.1154C92.0092 39.1021 91.9833 39.0887 91.9581 39.0754ZM12.9454 39.0265C13.3649 41.0756 14.0451 42.7605 15.6671 44.175C15.7257 44.226 15.7642 44.2295 15.8331 44.2238C15.8202 43.8647 15.8661 43.4739 15.8302 43.131C15.6265 41.1826 14.7508 39.7807 12.9454 39.0265ZM82.0265 32.0675C82.2629 34.5539 84.4466 35.6972 86.6359 36.2746C86.5092 35.8958 86.331 35.2623 86.1388 34.9357C85.2534 33.434 83.6113 32.5774 82.0265 32.0675ZM22.7296 32.1457C21.3206 32.5892 20.0713 33.3804 19.132 34.5304C18.7299 35.0228 18.6049 35.5867 18.4064 36.1828L18.4542 36.2365L18.6359 36.2131C20.775 35.499 22.5657 34.6109 22.9572 32.1964L22.9181 32.1339L22.7296 32.1457ZM90.1515 29.1662C88.291 30.7256 87.8202 33.4743 88.0519 35.7648C89.1249 34.0992 89.82 31.9178 90.1163 29.965C90.1415 29.8002 90.2064 29.3085 90.1515 29.1662ZM14.8087 29.1437C14.9636 31.0123 15.4363 32.7266 16.2189 34.425C16.3745 34.7627 16.6435 35.4028 16.9113 35.6623L16.9708 35.6584C17.0935 33.3173 16.9004 31.5369 15.3019 29.6115C15.1882 29.4746 14.9555 29.237 14.8087 29.1437ZM27.1212 25.7502C25.5585 26.0242 23.9371 27.1155 22.8038 28.1945C22.6609 28.3306 22.2524 28.7135 22.2062 28.8849C22.3651 28.9015 22.4349 28.9094 22.5978 28.9064C24.1958 28.8805 25.7187 28.2229 26.8341 27.0783C27.075 26.8276 27.793 26.0805 27.381 25.7795L27.1212 25.7502ZM77.5177 25.7511C77.4639 25.9239 77.4401 26.0294 77.5343 26.2043C78.2131 27.4645 79.4681 28.2607 80.8068 28.6691C81.5146 28.8851 82.096 28.913 82.8156 28.8976C82.8007 28.494 80.7673 26.9989 80.3693 26.7834C79.5604 26.3456 78.4661 25.7092 77.5177 25.7511ZM19.8673 22.0207C19.51 23.607 19.5974 25.1205 20.1456 26.6554C20.2706 27.0051 20.5525 27.7754 20.8449 28.0148C21.1323 27.0054 21.1429 25.543 21.0236 24.5031C20.9484 23.8486 20.4268 22.4074 19.8673 22.0207ZM85.0841 22.0295C84.168 23.2472 83.8531 24.3894 83.9269 25.9103C83.95 26.3886 83.9046 27.6451 84.2179 28.0099C85.2454 26.1677 85.5941 24.3174 85.1788 22.2062C85.1584 22.1033 85.1461 22.0913 85.0841 22.0295ZM30.6447 20.6838C29.1725 20.8059 28.9305 21.1446 27.8136 22.0412C27.3739 22.3941 26.5792 22.8191 26.0724 23.0666C26.3806 23.0688 26.7052 23.0769 27.0118 23.0724C29.0417 22.8873 30.1516 22.1225 31.4865 20.6623L30.6447 20.6838ZM73.5411 20.6603C74.9921 22.4452 76.5426 23.106 78.8195 23.0627C78.6112 22.833 78.002 22.603 77.7052 22.4123C76.2595 21.4834 76.2227 20.7833 74.3702 20.6877C74.0944 20.675 73.8175 20.6661 73.5411 20.6603ZM81.4581 15.3703C79.9801 17.3203 79.5386 19.0555 79.8087 21.5402C79.8349 21.78 79.931 22.1596 80.0206 22.383L80.1066 22.4445C80.247 22.3095 80.4198 21.9044 80.5079 21.716C81.1314 20.3889 81.54 18.8875 81.5431 17.4142C81.5441 16.9929 81.5555 15.724 81.4581 15.3703ZM23.5245 15.4015C23.3529 17.8962 23.5002 20.2252 24.8732 22.4338L24.9425 22.4357L25.0001 22.342C25.5335 20.5292 25.2749 18.205 24.3663 16.5509C24.1867 16.224 23.8063 15.6303 23.5245 15.4015ZM30.3439 15.0802C28.514 16.31 27.3263 18.2155 26.8331 20.3312C26.7772 20.5709 26.6597 20.7481 26.6847 21.0021L26.7452 20.9572C27.1122 20.6907 28.084 20.2289 28.2638 20.0627C29.2633 19.1384 30.0756 17.3595 30.2677 16.0168C30.3053 15.7537 30.3831 15.3196 30.3439 15.0802ZM74.6417 15.0588C74.6362 16.6807 75.4253 18.6649 76.5372 19.8761C76.759 20.1173 78.0504 20.8629 78.3644 20.9923C77.621 18.3667 77.0178 16.7301 74.6417 15.0588Z" fill="#F6EFE9"/>
<path d="M57.9747 47.911C58.3371 47.9062 58.7088 47.9106 59.0724 47.9106C59.0524 48.8446 59.117 50.3689 58.9785 51.2249C59.4471 50.3475 59.8665 48.8529 60.4177 48.0301C60.5397 47.8477 61.3462 47.9158 61.6154 47.9267C61.6471 48.9856 61.7538 50.1862 61.8076 51.2687C62.1721 50.1546 62.5521 49.0458 62.9484 47.9425C63.3698 47.9235 63.7913 47.9154 64.2132 47.9183C64.0856 48.2455 63.9507 48.5553 63.8102 48.8773C63.3221 50.098 62.8176 51.3118 62.2973 52.5193C61.8271 52.5213 61.357 52.529 60.8868 52.5418C60.8494 51.5503 60.7868 50.5596 60.6997 49.5711C60.2823 50.5509 59.9332 51.5308 59.4759 52.5136C59.0939 52.5434 58.4961 52.5336 58.0992 52.5418C58.0326 51.9819 57.7475 48.1964 57.8439 47.9486L57.9747 47.911Z" fill="#F6EFE9"/>
<path d="M66.84 40.0635C69.6983 39.9001 69.5814 43.6826 67.4522 44.5499C67.2102 44.6485 66.9559 44.6786 66.7 44.7165C66.1089 44.7243 65.5993 44.7031 65.0932 44.3252C64.0699 43.564 64.2555 41.8666 64.9799 40.968C65.4624 40.3699 66.1002 40.1211 66.84 40.0635ZM66.6211 43.6953C68.2094 43.301 68.4253 41.113 66.7682 41.0755C66.2858 41.2218 65.9602 41.3851 65.7254 41.8631C65.2891 42.7508 65.5106 43.6975 66.6211 43.6953Z" fill="#F6EFE9"/>
<path d="M71.6592 40.061C74.6431 39.8627 74.5739 44.2552 71.5818 44.7129C69.167 44.8032 68.5938 42.7952 69.8145 40.9804C70.2129 40.3883 70.9655 40.1336 71.6592 40.061ZM71.4649 43.7005C72.3124 43.4519 72.942 42.67 72.6882 41.772C72.6236 41.5388 72.4672 41.3415 72.2555 41.2247C72.0899 41.1323 71.8443 41.0791 71.6536 41.0716C70.7861 41.3076 70.1375 42.0493 70.3698 42.9799C70.4313 43.2335 70.6005 43.4475 70.8332 43.5654C71.0327 43.6686 71.245 43.6908 71.4649 43.7005Z" fill="#F6EFE9"/>
<path d="M52.8491 55.7966C54.0965 55.6961 55.1937 56.6143 55.3147 57.8597C55.4362 59.105 54.5364 60.2176 53.2936 60.3596C52.4707 60.454 51.6606 60.0966 51.1754 59.4255C50.6899 58.7544 50.6041 57.8735 50.951 57.1214C51.2976 56.3693 52.0236 55.8627 52.8491 55.7966ZM53.4428 59.7905C54.0124 59.5854 54.3969 59.2507 54.583 58.66C54.8435 57.8346 54.5061 56.8276 53.6827 56.4733C53.2967 56.3026 52.9921 56.3365 52.584 56.3575C52.0744 56.582 51.7591 56.7892 51.5335 57.3455C51.3335 57.8402 51.3417 58.3944 51.556 58.883C51.9093 59.6818 52.625 59.9202 53.4428 59.7905Z" fill="#F6EFE9"/>
<path d="M60.949 40.1485C61.575 40.0998 62.2681 40.1228 62.889 40.1183C63.5725 40.1133 64.461 40.3353 64.3718 41.1847C64.301 41.8562 63.9924 41.9106 63.513 42.2941L63.512 42.3848C63.5689 42.4487 63.6412 42.5325 63.7114 42.5798C64.3164 42.9891 64.1031 43.4965 63.7975 44.0668C62.8916 44.9532 61.3755 44.6649 60.1445 44.6712C60.4316 43.5875 60.77 41.308 60.949 40.1485ZM61.4565 43.7695C61.7042 43.7619 62.4573 43.7626 62.6686 43.7327C62.8398 43.4886 62.9331 43.3696 62.9034 43.0744C62.6424 42.694 62.0677 42.7744 61.638 42.7677C61.5919 43.18 61.558 43.3672 61.4565 43.7695ZM61.739 41.9922C62.0749 41.9774 62.5568 41.971 62.8721 41.9075C63.11 41.7147 63.2659 41.5449 63.1136 41.2498C62.7485 40.9738 62.4312 41.0185 61.9821 41.0248C61.9067 41.3286 61.8267 41.6976 61.739 41.9922Z" fill="#F6EFE9"/>
<path d="M55.1902 40.1498C55.5901 40.1085 55.9274 40.1219 56.3258 40.1466C56.7308 40.818 57.3179 42.1774 57.6691 42.9283C57.7311 42.2663 57.9916 40.789 58.1305 40.1478C58.5007 40.1175 58.897 40.129 59.2697 40.1322C58.9949 41.6459 58.7463 43.1641 58.5232 44.6862L57.3748 44.7043C56.9149 43.8701 56.4422 42.8505 56.0407 41.9834C55.8418 42.6398 55.7039 43.9319 55.5419 44.6955C55.1574 44.6762 54.7523 44.6769 54.3652 44.6718C54.6954 43.5676 54.9302 41.3657 55.1902 40.1498Z" fill="#F6EFE9"/>
<path d="M41.2743 47.9316C42.4685 47.8916 45.5621 47.5911 44.4186 49.9191C44.2021 50.3598 43.7658 50.5668 43.3137 50.6977C43.4989 51.2307 43.8577 51.967 44.085 52.5346C43.6905 52.5131 43.2244 52.5166 42.8259 52.5105C42.6957 52.1803 42.2789 50.9555 42.0362 50.8565C41.8341 51.0345 41.6758 52.2352 41.6185 52.5402C41.2139 52.5187 40.8531 52.5254 40.4473 52.5325C40.8126 51.0405 40.9555 49.3785 41.2743 47.9316ZM42.0632 50.0681C42.4517 50.0545 42.7623 50.0638 43.1352 49.9548L43.183 49.9412C43.3892 49.7414 43.6325 49.3012 43.3403 49.0753C43.0368 48.8406 42.6145 48.8917 42.252 48.8979C42.205 49.1863 42.1321 49.8333 42.0632 50.0681Z" fill="#F6EFE9"/>
<path d="M36.1769 40.1559C37.3116 40.077 40.4113 39.7637 39.2464 42.111C39.0268 42.5535 38.5877 42.7735 38.1296 42.9234C38.4319 43.4199 38.7244 44.1508 38.9629 44.6974C38.54 44.6648 38.1083 44.6822 37.6835 44.6909C37.5593 44.3717 37.1491 43.1216 36.8637 43.0462C36.6249 43.2573 36.5654 44.3209 36.547 44.6585C36.1977 44.6882 35.7092 44.6841 35.3438 44.697C35.5506 43.7821 35.6697 42.6367 35.858 41.7044C35.9575 41.2121 36.0032 40.6274 36.1769 40.1559ZM36.8728 42.2302C37.231 42.2032 37.6559 42.1825 38.0033 42.1198C38.216 41.9043 38.3302 41.782 38.3485 41.4794C38.2088 40.9994 37.5302 41.042 37.1329 41.0344C37.0722 41.4881 37.003 41.7871 36.8728 42.2302Z" fill="#F6EFE9"/>
<path d="M45.8067 32.3223C46.6563 32.4276 48.0431 32.1166 48.5885 32.8713C49.1189 33.6053 48.6782 34.1555 48.0936 34.5627C48.8955 34.9474 49.0137 35.4699 48.7354 36.2877C47.9129 37.0797 46.8946 36.8928 45.7446 36.918C45.7497 36.3744 45.7025 32.4621 45.8067 32.3223ZM46.3394 36.365C47.0035 36.367 47.6894 36.4986 48.1473 36.0766C48.4233 35.5544 48.3237 35.3149 47.9299 34.9112C47.3388 34.7479 46.9486 34.7798 46.3304 34.7865C46.3352 35.3035 46.3496 35.8505 46.3394 36.365ZM46.3094 34.3408C46.8712 34.3423 47.4412 34.399 47.9433 34.1479C48.0853 33.8932 48.1331 33.8014 48.2277 33.5272C48.1215 33.3464 48.023 33.1742 47.905 33.0004C47.3249 32.8094 46.9454 32.8528 46.3287 32.8599C46.3411 33.3543 46.353 33.847 46.3094 34.3408Z" fill="#F6EFE9"/>
<path d="M44.5859 55.8263C45.6285 55.8483 47.9593 55.4843 47.5931 57.3187C47.5258 57.6561 47.212 57.8396 46.9333 57.9919C47.68 58.4441 47.8206 58.7507 47.6352 59.6413C46.9654 60.6113 45.6633 60.3134 44.5943 60.3949C44.6099 58.8717 44.6071 57.349 44.5859 55.8263ZM45.1748 59.8407C45.8429 59.8443 46.5093 59.975 46.9731 59.5567C47.0497 59.3906 47.1325 59.2198 47.2017 59.0512C46.7426 57.9945 46.1625 58.2713 45.1743 58.2431L45.1748 59.8407ZM45.1776 57.8253C45.7646 57.8135 46.2472 57.8853 46.7518 57.6135C47.2332 57.1444 47.0767 56.7773 46.6396 56.3733C46.1851 56.3267 45.5225 56.3543 45.1835 56.3092C45.1767 56.8142 45.1747 57.3198 45.1776 57.8253Z" fill="#F6EFE9"/>
<path d="M35.1203 40.1162L35.5664 40.1312C35.2558 41.6342 34.9905 43.1462 34.7709 44.6652C34.362 44.6689 33.9957 44.6721 33.5886 44.7035C33.6581 44.2091 33.814 43.2733 33.9413 42.8129C33.3801 42.8177 32.8188 42.8158 32.2576 42.8071C32.1953 43.3192 32.0191 44.1288 31.9233 44.664C31.7177 44.6822 31.5353 44.6733 31.3304 44.668C31.1465 44.6715 30.9396 44.6881 30.7539 44.6986C31.1087 43.3936 31.2444 41.5261 31.5623 40.1655C32.0076 40.1231 32.2941 40.1247 32.7445 40.1331C32.5777 40.7053 32.5693 41.2716 32.3519 41.9137C32.9525 41.9043 33.5109 41.8918 34.1117 41.9223C34.184 41.3311 34.2677 40.7414 34.3629 40.1534L35.1203 40.1162Z" fill="#F6EFE9"/>
<path d="M52.0697 40.1489C52.4962 40.1281 52.9146 40.141 53.3412 40.1495C53.395 40.7088 53.6272 41.7117 53.74 42.2832C53.8944 43.0608 54.04 43.9361 54.2204 44.6944C53.7611 44.6677 53.3812 44.6738 52.9213 44.6869L52.9095 43.8883C52.5142 43.859 52.0866 43.8624 51.6877 43.8581L51.1963 43.8516C51.0614 44.1304 50.8946 44.4169 50.7436 44.6891C50.3309 44.6679 49.9743 44.6657 49.5605 44.6695C50.1049 43.6899 50.6422 42.7062 51.1724 41.7188C51.4119 41.2784 51.7866 40.5375 52.0697 40.1489ZM51.8743 43.0127C52.1614 43.0131 52.4629 43.0092 52.7485 43.0153C52.6013 42.4746 52.5777 41.8327 52.4716 41.461C52.2891 41.7001 51.7051 42.6985 51.7087 42.9733C51.8195 43.0243 51.7636 43.0137 51.8743 43.0127Z" fill="#F6EFE9"/>
<path d="M74.5686 40.1399C75.0044 40.1224 75.3208 40.1236 75.7561 40.1439C75.6786 40.7322 75.5279 41.6712 75.3485 42.2192C75.7094 41.72 76.8379 40.5844 77.3065 40.1428C77.7212 40.117 78.2534 40.1325 78.6774 40.1333C78.1006 40.6174 77.006 41.7738 76.4026 42.3689C76.7071 42.8329 76.9747 43.2382 77.2449 43.7242C77.5105 44.0472 77.5695 44.3234 77.934 44.7094C77.5192 44.6675 76.8943 44.6737 76.4754 44.7001C76.0775 44.0265 75.6863 43.3491 75.3018 42.668C75.2008 43.4448 75.1418 43.9504 74.9111 44.7071C74.5327 44.6778 74.2359 44.6811 73.8555 44.6864C73.9026 44.1213 74.0621 43.3504 74.1656 42.7865C74.3328 41.8794 74.4646 41.0544 74.5686 40.1399Z" fill="#F6EFE9"/>
<path d="M28.5348 40.1022C30.0363 40.0457 30.5449 40.3086 30.9552 41.7654C30.4896 41.7945 30.223 41.7889 29.7548 41.7627C28.4394 39.8405 26.689 42.6444 27.9247 43.5939C28.5588 44.0812 29.3437 43.0641 29.721 43.0105L30.6925 43.0066C30.0947 44.3636 28.6237 45.1593 27.1762 44.4989C25.6412 43.7986 26.3975 40.9455 27.7332 40.4032C28.0307 40.2824 28.2101 40.196 28.5348 40.1022Z" fill="#F6EFE9"/>
<path d="M48.1562 47.9342C48.5421 47.9122 48.9497 47.9242 49.3379 47.9289C49.5787 48.8681 49.7171 50.3497 49.8545 51.3556C50.3799 50.2875 51.0016 48.9547 51.5784 47.9308L52.7914 47.9225C52.6253 48.2191 52.4654 48.5364 52.308 48.8388C51.7404 49.8384 51.0421 51.4566 50.3741 52.4169C50.2579 52.5835 49.2179 52.5251 48.9366 52.5205C48.7968 52.0027 48.6943 51.2178 48.6064 50.6687L48.1562 47.9342Z" fill="#F6EFE9"/>
<path d="M43.0159 40.0627C44.0266 39.9943 44.615 40.4253 44.7635 41.4213C44.4141 41.4011 43.946 41.417 43.5879 41.419C43.4473 41.1345 43.1626 40.7036 42.7575 41.0679C42.2893 41.489 42.9646 41.8389 43.3399 41.9912C44.4041 42.4233 45.0206 43.0909 44.1823 44.1673C43.8346 44.6109 43.2881 44.6821 42.7478 44.7246C41.6197 44.6371 41.294 44.3896 40.9941 43.2913C41.4211 43.2986 41.7656 43.2896 42.2026 43.3144L42.2842 43.4837C42.4409 43.8196 42.8113 43.9443 43.0566 43.7666C43.669 43.2839 42.9436 42.8844 42.5233 42.7125C42.0109 42.5029 41.6961 42.3544 41.4169 41.872L41.3821 41.8107C41.3662 41.55 41.3766 41.2802 41.381 41.0182C41.8814 40.2826 42.1098 40.1361 43.0159 40.0627Z" fill="#F6EFE9"/>
<path d="M45.1714 47.9354C46.0446 47.8988 47.1285 47.9264 48.0188 47.9237C47.9644 48.2978 47.9483 48.4385 47.954 48.8164C47.3633 48.8339 46.7722 48.833 46.1816 48.8135C46.1454 49.1832 46.0858 49.4321 45.9626 49.7788L47.5646 49.7682C47.4698 50.1213 47.4461 50.2348 47.4133 50.6004L45.8213 50.5913L45.739 51.3457C45.694 51.4754 45.6739 51.4836 45.7092 51.6107C46.0354 51.6517 47.0793 51.6184 47.4207 51.5912L47.2542 52.5213C46.4202 52.511 45.1793 52.4685 44.375 52.5392C44.4855 52.1157 44.5906 51.2872 44.668 50.8107C44.8288 49.851 44.9966 48.8925 45.1714 47.9354Z" fill="#F6EFE9"/>
<path d="M54.7071 47.9408C55.5454 47.8963 56.658 47.9208 57.5219 47.9145C57.485 48.2116 57.4542 48.5096 57.4306 48.8079C56.962 48.8504 56.154 48.8292 55.6915 48.8069C55.6141 49.166 55.5541 49.4291 55.4444 49.7787L57.0174 49.7667C57.0092 50.0513 56.9779 50.3035 56.9461 50.5851C56.437 50.6204 55.8699 50.599 55.3572 50.5828C55.3326 50.8653 55.2675 51.1358 55.2075 51.4125C55.1896 51.4489 55.1829 51.5212 55.1752 51.5663C55.3942 51.695 56.6036 51.6135 56.9107 51.5874L56.7277 52.5466C56.0391 52.4774 54.5451 52.4953 53.8438 52.5282C54.115 51.6166 54.2401 50.1972 54.4375 49.2368C54.5164 48.8544 54.5492 48.2808 54.7071 47.9408Z" fill="#F6EFE9"/>
<path d="M57.7292 55.8045C58.8905 55.7352 59.4985 56.2115 60.0471 57.1744L59.3186 57.1477C58.75 56.4453 58.025 56.0464 57.1104 56.5161C55.8732 57.1518 56.044 59.4805 57.497 59.7876C58.1604 59.9276 58.5218 59.7323 59.0694 59.4052C59.2878 59.0047 59.3796 58.8222 59.5175 58.3921C59.1397 58.3505 58.8002 58.3587 58.4208 58.3608C58.1035 58.3546 57.8517 58.4977 57.6533 58.2439C57.6308 58.0547 57.5985 58.067 57.6805 57.946C58.1988 57.8604 59.5601 57.8978 60.1584 57.9019C60.122 58.5166 60.0594 59.016 59.6708 59.5272C58.9018 60.5393 57.3534 60.6356 56.4121 59.8158C55.9578 59.4211 55.6835 58.8586 55.6512 58.2577C55.5748 56.9893 56.428 55.8783 57.7292 55.8045Z" fill="#F6EFE9"/>
<path d="M45.1389 40.147C46.2628 40.1018 47.612 40.1199 48.7389 40.138C48.6968 40.4153 48.6664 40.7334 48.6334 41.0152C48.1761 41.038 47.8074 41.036 47.3485 41.0255C47.2039 41.9077 47.066 42.802 46.886 43.6769C46.8304 43.906 46.7637 44.4071 46.716 44.6718C46.3689 44.6918 45.8917 44.6759 45.5353 44.6745C45.8426 43.5141 45.9224 42.1079 46.2148 41.0349C45.7826 41.0313 45.4199 41.0261 44.9883 41.0639C45.0301 40.7215 45.067 40.4838 45.1389 40.147Z" fill="#F6EFE9"/>
<path d="M53.4057 32.3654C54.1229 32.3009 54.69 32.3258 55.2786 32.7973C55.5129 32.9852 55.5954 33.3063 55.3893 33.5366C55.0914 33.5805 54.65 33.123 54.3757 32.9635C53.925 32.7019 53.42 32.7386 53.1729 33.2537C52.7699 34.111 54.2111 34.3083 54.75 34.5509C55.4718 34.8755 55.7651 35.4689 55.4108 36.2103C55.2273 36.5944 54.8089 36.765 54.4172 36.8738C53.3103 36.9701 52.7202 36.7295 52.4238 35.6224C53.2544 35.5847 53.0662 35.6772 53.4703 36.3347C53.945 36.4139 54.0916 36.4108 54.5449 36.332C56.1019 34.8453 53.0811 35.0225 52.6427 34.132C52.2162 33.2653 52.6766 32.775 53.4057 32.3654Z" fill="#F6EFE9"/>
<path d="M49.4993 32.3184C50.1261 32.4026 51.5552 32.2058 51.8884 32.5054C51.9315 32.6512 51.9269 32.6412 51.8823 32.7882C51.6726 32.8942 50.3714 32.8521 50.062 32.8498C50.0731 33.3531 50.0713 33.8567 50.0566 34.36C50.3517 34.3549 51.5259 34.3155 51.7018 34.3996C51.7233 34.574 51.7202 34.5616 51.6459 34.7225C51.3449 34.9779 50.6877 34.7487 50.1214 34.8402C50.0175 34.959 50.0559 34.9641 50.0571 35.1731L50.0765 36.3666C50.67 36.348 51.2926 36.3531 51.8884 36.3496C51.9007 36.5117 51.9366 36.7217 51.8741 36.8604C51.4603 36.9254 50.0391 36.8988 49.4779 36.9189C49.4851 35.9618 49.4862 35.0047 49.4813 34.0477C49.479 33.6091 49.4499 32.7237 49.4993 32.3184Z" fill="#F6EFE9"/>
<path d="M53.6163 47.9121L54.129 47.9235C54.0438 48.6697 53.8618 49.5787 53.728 50.328C53.6111 50.9865 53.4701 51.9043 53.283 52.5241L52.8651 52.519L52.1289 52.5241C52.4304 51.5602 52.8246 48.9938 52.9815 47.9221L53.6163 47.9121Z" fill="#F6EFE9"/>
<path d="M48.9407 40.1483C49.3982 40.1207 49.6748 40.1214 50.1329 40.1452C49.9947 41.2062 49.5792 43.6601 49.3213 44.642C49.1853 44.7123 48.422 44.6791 48.2227 44.6778C48.4255 43.2453 48.8336 41.5553 48.9407 40.1483Z" fill="#F6EFE9"/>
<path d="M40.0003 40.1389C40.3803 40.126 40.7944 40.1341 41.1772 40.1342C40.8532 41.5435 40.7104 43.3086 40.368 44.6592C40.0013 44.6959 39.6357 44.6673 39.2148 44.7111C39.4704 43.3478 39.834 41.4902 40.0003 40.1389Z" fill="#F6EFE9"/>
<path d="M55.9629 32.3467C56.4802 32.3632 58.7638 32.276 59.0386 32.424C59.0704 32.592 59.074 32.5831 59.0442 32.7497C58.8258 32.9332 58.1434 32.8591 57.825 32.8494C57.8486 33.8107 57.8302 34.8447 57.8312 35.8117C57.8322 36.1772 57.8358 36.5427 57.8414 36.9081L57.1852 36.9217L57.2041 32.8415C56.9924 32.8459 56.7812 32.8552 56.5699 32.8695C56.3085 32.8862 56.3182 32.9004 56.0695 32.8091C55.925 32.6308 55.9747 32.6359 55.9629 32.3467Z" fill="#F6EFE9"/>
<path d="M48.3563 55.8353C48.5879 55.821 48.7363 55.7923 48.9565 55.8681C49.0095 56.0086 48.9667 59.4914 48.9665 59.8657C49.4619 59.8498 50.1048 59.7344 50.5209 59.9195C50.6383 60.0841 50.5979 60.0718 50.6053 60.3174C50.3351 60.3768 48.8074 60.3543 48.3457 60.3835C48.3642 58.8674 48.3677 57.3514 48.3563 55.8353Z" fill="#F6EFE9"/>
<path d="M87.6697 40.7998C87.7451 41.1813 87.7989 41.5589 87.8687 41.9396C87.7656 41.7827 87.5523 41.4797 87.4688 41.3286C87.4734 41.2061 87.4718 41.2143 87.5246 41.1032L87.6056 41.1779L87.6031 41.1806L87.6364 41.1921C87.6636 41.0378 87.6646 40.9534 87.6697 40.7998Z" fill="#B73331" fill-opacity="0.0196078"/>
<path d="M86.7109 33.0834C86.7135 32.8975 86.7048 32.9075 86.8037 32.7524L86.8883 32.7645L86.9709 32.9778C86.9324 33.1757 86.9524 33.2516 86.8407 33.3859C86.734 33.2633 86.753 33.2525 86.7109 33.0834Z" fill="#B73331" fill-opacity="0.0156863"/>
<path d="M18.6621 57.0322C18.7767 56.9445 18.7164 56.9579 18.8394 56.9471L18.8849 57.066C18.8998 56.9763 18.8836 57.0261 18.9518 56.925C18.9603 57.1752 18.9662 57.3993 18.9611 57.651C18.8684 57.4644 18.7378 57.2204 18.6621 57.0322Z" fill="#B73331" fill-opacity="0.0235294"/>
<path d="M16.9235 48.286L17.2063 48.2209C17.1406 48.3966 17.102 48.5628 16.9799 48.693C16.9073 48.5494 16.9233 48.4473 16.9235 48.286Z" fill="#B73331" fill-opacity="0.0117647"/>
</svg>
