<svg width="9" height="16" viewBox="0 0 9 16" fill="none" xmlns="http://www.w3.org/2000/svg">
<path d="M6.10417 0C5.08198 0 4.10166 0.406063 3.37886 1.12886C2.65606 1.85166 2.25 2.83198 2.25 3.85417V6H0.1875C0.0841666 6 0 6.08333 0 6.1875V9.02083C0 9.12417 0.0833333 9.20833 0.1875 9.20833H2.25V15.0208C2.25 15.1242 2.33333 15.2083 2.4375 15.2083H5.27083C5.37417 15.2083 5.45833 15.125 5.45833 15.0208V9.20833H7.53917C7.625 9.20833 7.7 9.15 7.72083 9.06667L8.42917 6.23333C8.43614 6.20569 8.43671 6.17681 8.43084 6.14891C8.42497 6.12101 8.41282 6.09481 8.3953 6.07231C8.37778 6.04981 8.35537 6.03161 8.32976 6.01908C8.30414 6.00655 8.27601 6.00002 8.2475 6H5.45833V3.85417C5.45833 3.76935 5.47504 3.68537 5.50749 3.60702C5.53995 3.52866 5.58752 3.45746 5.64749 3.39749C5.70746 3.33752 5.77866 3.28995 5.85702 3.25749C5.93537 3.22504 6.01935 3.20833 6.10417 3.20833H8.27083C8.37417 3.20833 8.45833 3.125 8.45833 3.02083V0.1875C8.45833 0.0841666 8.375 0 8.27083 0H6.10417Z" fill="#F6EFE9"/>
</svg>
