<svg preserveAspectRatio="none" width="100%" height="100%" overflow="visible" style="display: block;" viewBox="0 0 1606 879" fill="none" xmlns="http://www.w3.org/2000/svg">
<g id="Group 70">
<rect id="Rectangle 3466912" x="0" width="1606" height="826" fill="var(--fill-0, #592C33)"/>
<g id="Vector" filter="url(#filter0_d_0_197)">
<path d="M30.6666 805.963C34.3333 804.966 37.6666 804.302 41.3333 806.961C47.6666 808.955 52.6666 811.281 59.3333 810.284C65.3333 811.946 71.3333 817.263 77.3333 811.613C86.3333 804.302 95.3333 806.961 104.333 805.963C116.333 801.643 128.333 803.969 140.667 805.963C147.333 805.963 151 807.958 157 808.955C159.667 811.613 161 813.94 163.667 809.952C171 811.281 179.667 817.263 187 809.952C190.333 810.616 193 801.975 196.333 806.296C199.333 809.952 202.667 806.296 205.667 805.963C210.667 812.278 211.667 805.963 216.333 802.972C219.667 795.328 223 804.634 226.333 801.975C236.667 804.634 247.333 800.313 257.667 801.975C264.333 804.634 271.333 791.672 277.667 801.643C285 797.322 291 806.628 298.333 808.955C301.667 815.602 304.667 802.308 307.667 812.278C317.667 819.59 327.333 811.281 337.667 815.269C343 815.934 348.333 821.252 353.333 813.608C357 821.584 359.667 804.966 363 807.625C369 795.993 375.333 798.984 381.667 803.969C389 802.64 396 804.966 403 805.963C410 807.293 417 803.637 424.333 807.958C430.333 806.96 435 805.299 440 809.619C447.667 809.287 455.333 813.94 462.667 809.952C469 814.605 476.333 796.99 482.667 809.619C491 814.605 499.333 804.302 507.667 809.619C516 798.319 524.333 824.907 532.667 809.619C541.333 812.61 550 803.969 558.667 809.619C566 798.652 570.667 802.972 577.667 804.302C583.333 801.643 589 801.975 594.667 803.637C598 802.64 600.333 807.293 603.333 799.981C607 789.346 609.667 793.334 613 797.987C617 788.349 619.333 794.664 623.667 794.331C631.333 797.987 641.667 804.634 649 794.331C652.333 792.005 655 792.669 658.667 789.014C663 785.69 666.333 789.678 670.333 790.675C676 792.337 681.667 799.649 688 796.325C691.667 803.969 694.667 793.334 698.333 794.664C702 786.355 707.333 788.017 711 794.664C713 794.331 714.667 797.322 717.333 797.655C721.667 796.99 726.667 802.308 731 797.987C736 792.337 740.333 801.643 745 796.658C750.667 791.34 756.667 787.019 763 789.678C769.333 794.996 776 782.699 782.333 788.681C790 789.678 797.333 792.669 805 793.666C812.667 793.666 820.333 793.666 828.333 795.661C835 799.316 841.667 794.664 848.333 793.999C853.333 791.672 856 790.011 861 788.681C867.667 792.005 874 788.017 879.667 791.34C883.667 795.993 887.333 795.661 891.667 797.655C894.667 797.655 898.333 797.987 901.333 797.987C910 795.661 921.333 800.313 929 799.981C934.667 805.299 940 801.643 946.667 801.975C951.667 800.313 954 807.293 958.333 800.646C959.333 800.978 960.333 795.993 961.333 798.652C963.667 793.666 968 796.99 970.333 798.319C974.333 797.322 973 799.316 976.333 801.311C982.667 806.628 988.333 799.981 994.667 803.969C1001.67 807.293 1008.33 801.643 1015 804.302C1021.67 804.966 1028 810.616 1035 807.293C1043.33 811.946 1051 812.943 1059.67 811.613C1066 812.943 1073.67 810.616 1080 811.281C1081.67 810.616 1083 814.272 1084.67 813.275C1092 816.931 1099.67 817.928 1107.33 815.269C1113.33 813.275 1119 813.94 1125 815.269C1132.33 810.949 1141 811.946 1148.33 815.602C1155 824.575 1159.67 826.902 1167 820.919C1175.67 821.584 1186.33 819.59 1195 820.919C1198.67 821.584 1198.33 821.252 1201.33 817.263C1203 819.922 1206.67 813.275 1208.67 815.602C1213.67 813.275 1218 819.257 1222.33 809.952C1224.67 807.293 1227 810.949 1229.67 805.963C1233.67 807.293 1238.33 812.943 1242.33 805.631C1249.33 800.646 1255 807.293 1261.67 807.625C1272 811.613 1282 806.961 1292 806.296C1297.33 799.316 1298.33 801.311 1303 801.975C1306.33 794.996 1306.33 801.643 1309.33 800.313C1314.33 801.311 1319.33 790.011 1324.33 793.999C1333.67 789.678 1346.33 781.702 1356.33 792.669C1361.33 792.005 1371 792.337 1375.33 792.337C1376.67 790.343 1377.33 788.349 1378.67 788.349C1380 781.037 1382.33 783.696 1384 785.358C1390.33 778.046 1396.67 784.028 1403.33 783.031C1408.33 784.028 1411.67 789.014 1416.33 781.702C1422.67 779.375 1430 781.702 1436.67 781.37C1438.67 779.043 1441 780.04 1443 781.702C1445.33 780.705 1446 783.696 1448.67 785.358C1452 788.349 1456.67 784.693 1460.33 785.358C1467.67 783.031 1474.67 780.705 1482 785.358C1491 787.352 1497.67 788.017 1505.67 791.672C1514 792.669 1521.33 796.325 1530.33 794.996C1535 795.993 1542 792.005 1546.67 794.664C1549.67 801.975 1550.33 800.313 1552.67 799.316C1554.33 798.319 1556 801.975 1557.67 800.978C1566.33 799.316 1573.67 807.625 1582.67 804.302C1582.67 805.299 1592 831.554 1592 830.557C1588.67 835.21 1587 832.884 1584 833.881C1581.33 832.884 1578.33 832.551 1575.33 834.213C1570.67 829.893 1565 837.869 1560.33 834.213C1555.33 834.213 1551.33 841.193 1546.33 839.531C1540 840.86 1534 837.204 1528.33 837.204C1521 834.213 1514.67 826.569 1506.33 820.919C1504.67 822.913 1501 817.928 1499.33 820.919C1494 820.255 1487 812.943 1482.33 821.916C1478 821.916 1474 820.255 1469 824.243C1465.33 816.931 1467.33 819.922 1462.67 819.257C1458.67 821.916 1454.17 814.888 1450.17 821.203C1443.83 820.206 1441.67 812.943 1436.33 824.575C1428.33 825.572 1413.33 823.91 1405 825.24C1397.33 826.569 1388.67 815.269 1381 825.24C1375.33 824.243 1369.33 830.89 1364.33 829.228C1358.67 829.228 1352.67 831.554 1346.67 834.546C1337 833.216 1325.67 828.563 1316 834.878C1309.67 836.207 1303 834.213 1296.67 834.878C1290 829.228 1285.67 841.857 1279 840.86C1272.67 841.857 1265.33 844.184 1259.33 840.528C1257.33 844.184 1256 843.851 1254 842.522C1251.33 842.19 1247.67 841.525 1244.67 842.522C1243 838.866 1240.33 841.525 1238.67 842.19C1236.33 842.19 1235.33 840.86 1233.33 837.204C1230.33 837.537 1224 841.525 1221 836.872C1216 836.207 1211 839.531 1206.33 838.534C1199.67 843.187 1195 846.178 1186.67 846.178C1180.67 839.198 1174.33 844.184 1168.33 846.178C1163 848.172 1157.33 846.51 1152.67 845.181C1151 844.848 1149.67 841.193 1148 842.522C1144.67 844.516 1140.67 842.522 1137 840.528C1131.33 839.198 1125.33 843.851 1119.67 840.528C1115.67 842.522 1108 847.507 1104.33 840.196C1102 830.225 1101 833.549 1098.33 833.549C1092.67 829.56 1082.33 834.878 1076 831.222C1072.67 833.549 1073 830.225 1069.33 832.219C1064 828.896 1060.33 846.843 1055 840.86C1049 839.531 1042.67 846.51 1036.33 842.522C1029 843.187 1021.67 845.845 1014.33 842.522C1012.33 843.519 1010 845.181 1008 842.19C1002.33 845.513 1001 847.84 996 849.834C991.667 856.481 986.667 852.16 982.333 849.834C976.333 841.857 970.667 852.493 964.333 851.828C958 847.175 951.667 851.495 945.333 851.828C941.333 850.166 936.333 850.831 932.333 851.828C929 848.504 925.667 859.14 922.333 853.822C913.333 855.816 903.333 852.825 895.333 849.501C890.333 849.169 886.333 843.851 881.333 842.522C878.667 844.516 877 834.878 874.333 839.531C870.667 836.54 867 840.86 863 838.534C857.333 846.178 851 835.875 845.333 838.534C837 841.525 831 835.543 823.333 827.899C818.667 827.566 812 830.89 807 826.902C800.667 830.89 795.333 826.902 789.333 830.557C787.333 828.896 785.333 840.196 783.333 831.222C781.333 831.554 779.667 836.872 777.667 834.213C767 830.557 756 847.507 744.667 840.196C737.667 838.201 730.333 842.522 723.333 839.863C716.333 835.543 709 837.537 702 841.525C696 846.51 690 850.498 684.333 839.531C678.667 830.225 675.667 834.878 669.333 836.207C658 835.543 646.667 834.546 635.333 836.207C628.667 838.534 622.333 837.204 615.667 836.207C609.667 834.878 605 833.549 599 838.201C587 841.193 575.667 834.546 565 841.857C560.333 845.181 555.667 854.154 551 847.507C543.333 847.507 536.333 852.825 528 854.819C518.333 858.142 511.333 848.837 502.333 851.495C490.333 854.487 478.333 843.187 466 849.169C458.333 845.845 447.667 852.493 440.667 848.837C435 848.172 432.333 845.513 425.667 841.525C420 836.54 413.667 849.501 408 841.525C402 842.854 396.333 842.854 390.333 845.845C386 853.822 381.667 841.857 377.333 845.513C370.333 846.178 363.333 839.863 356 845.513C349 845.513 342 844.848 334.667 845.513C327 835.543 319.333 849.501 312 847.84C305.333 855.484 301 854.819 293.667 855.151C285.333 860.469 279.667 852.825 272 850.831C265 851.163 258.333 850.166 251.333 849.169C243.667 848.837 237 847.84 230 843.851C222.333 842.854 216.667 833.549 208 840.196C196.667 844.184 185.333 845.845 174.333 840.196C167.667 844.184 163.333 839.198 156.667 838.201C148 833.549 139.667 841.857 131 839.531C122.333 840.86 113 845.513 104 841.857C97.3333 842.522 92.6666 843.187 86.6666 848.504C79.6666 853.822 70.3332 844.516 62.6665 849.501C55.9998 852.825 51.6666 846.178 45.6666 845.845C40 846.178 26.3333 846.843 23.3333 838.201C23.3333 831.222 14 796.99 14 802.308C17 810.949 26.3333 805.299 30.6666 805.963Z" fill="var(--fill-0, #592C33)"/>
</g>
</g>
<defs>
<filter id="filter0_d_0_197" x="0" y="774" width="1606" height="105" filterUnits="userSpaceOnUse" color-interpolation-filters="sRGB">
<feFlood flood-opacity="0" result="BackgroundImageFix"/>
<feColorMatrix in="SourceAlpha" type="matrix" values="0 0 0 0 0 0 0 0 0 0 0 0 0 0 0 0 0 0 127 0" result="hardAlpha"/>
<feOffset dy="8"/>
<feGaussianBlur stdDeviation="7"/>
<feComposite in2="hardAlpha" operator="out"/>
<feColorMatrix type="matrix" values="0 0 0 0 0 0 0 0 0 0 0 0 0 0 0 0 0 0 0.2 0"/>
<feBlend mode="normal" in2="BackgroundImageFix" result="effect1_dropShadow_0_197"/>
<feBlend mode="normal" in="SourceGraphic" in2="effect1_dropShadow_0_197" result="shape"/>
</filter>
</defs>
</svg>
