<svg preserveAspectRatio="none" width="100%" height="100%" overflow="visible" style="display: block;" viewBox="0 0 42.6907 42.6907" fill="none" xmlns="http://www.w3.org/2000/svg">
<g id="carbon:play-outline">
<path id="Vector" d="M14.6749 30.6839C14.3211 30.6839 13.9818 30.5434 13.7316 30.2932C13.4814 30.043 13.3408 29.7037 13.3408 29.3498V13.3408C13.341 13.1135 13.3992 12.89 13.5099 12.6915C13.6207 12.493 13.7803 12.3261 13.9737 12.2066C14.1671 12.0871 14.3878 12.019 14.6149 12.0088C14.842 11.9986 15.0679 12.0466 15.2713 12.1482L31.2803 20.1527C31.5016 20.2636 31.6876 20.4339 31.8177 20.6445C31.9477 20.8551 32.0166 21.0978 32.0166 21.3453C32.0166 21.5929 31.9477 21.8355 31.8177 22.0462C31.6876 22.2568 31.5016 22.4271 31.2803 22.538L15.2713 30.5425C15.0861 30.6353 14.882 30.6837 14.6749 30.6839ZM16.009 15.4994V27.1913L27.7009 21.3453L16.009 15.4994Z" fill="var(--fill-0, #595959)"/>
<path id="Vector_2" d="M21.3453 5.33633C24.5116 5.33633 27.6068 6.27524 30.2395 8.03434C32.8721 9.79343 34.924 12.2937 36.1357 15.219C37.3474 18.1442 37.6644 21.3631 37.0467 24.4685C36.429 27.574 34.9043 30.4265 32.6654 32.6654C30.4265 34.9043 27.574 36.429 24.4685 37.0467C21.3631 37.6644 18.1442 37.3474 15.219 36.1357C12.2937 34.924 9.79343 32.8721 8.03434 30.2395C6.27524 27.6068 5.33633 24.5116 5.33633 21.3453C5.33633 17.0995 7.02299 13.0275 10.0253 10.0253C13.0275 7.02299 17.0995 5.33633 21.3453 5.33633ZM21.3453 2.66817C17.6513 2.66817 14.0403 3.76356 10.9689 5.81584C7.89741 7.86811 5.50351 10.7851 4.08988 14.1979C2.67625 17.6107 2.30638 21.366 3.02704 24.9891C3.74771 28.6121 5.52653 31.94 8.13858 34.5521C10.7506 37.1641 14.0786 38.943 17.7016 39.6636C21.3246 40.3843 25.08 40.0144 28.4928 38.6008C31.9056 37.1872 34.8226 34.7933 36.8748 31.7218C38.9271 28.6504 40.0225 25.0393 40.0225 21.3453C40.0225 16.3918 38.0547 11.6412 34.5521 8.13858C31.0494 4.63593 26.2988 2.66817 21.3453 2.66817Z" fill="var(--fill-0, #595959)"/>
</g>
</svg>
