<svg preserveAspectRatio="none" width="100%" height="100%" overflow="visible" style="display: block;" viewBox="0 0 61 39" fill="none" xmlns="http://www.w3.org/2000/svg">
<path id="Vector" d="M46.2121 25.0714C39.4208 22.1223 36.9697 19.5 36.9697 12.0714C36.9697 4.64286 41.5909 0 48.9848 0C56.3788 0 61 4.64286 61 12.0714C61 25.0714 57.303 29.7143 42.5152 39C46.2121 32.5 46.2121 30.6429 46.2121 25.0714ZM9.24242 25.0714C2.45109 22.1223 0 19.5 0 12.0714C0 4.64286 4.62121 0 12.0152 0C19.4091 0 24.0303 4.64286 24.0303 12.0714C24.0303 25.0714 20.3333 29.7143 5.54545 39C9.24242 32.5 9.24242 30.6429 9.24242 25.0714Z" fill="var(--fill-0, #592C33)"/>
</svg>
