<svg width="15" height="15" viewBox="0 0 15 15" fill="none" xmlns="http://www.w3.org/2000/svg">
<path d="M14.7523 3.20106C14.4879 3.32381 14.2117 3.42532 13.9237 3.50559C13.6357 3.58585 13.3406 3.64015 13.0384 3.66848C13.35 3.48906 13.6192 3.25771 13.8458 2.97443C14.0724 2.69114 14.2424 2.37481 14.3557 2.02542C14.063 2.19539 13.7584 2.34175 13.4421 2.46451C13.1258 2.58727 12.7976 2.6817 12.4577 2.7478C12.1838 2.46451 11.8604 2.23788 11.4874 2.06791C11.1144 1.89794 10.7155 1.81295 10.2905 1.81295C9.87505 1.81295 9.4879 1.8885 9.12907 2.03958C8.77024 2.20011 8.45626 2.41494 8.18714 2.68406C7.91802 2.95318 7.70319 3.26716 7.54266 3.62599C7.39158 3.98481 7.31604 4.37197 7.31604 4.78746C7.31604 4.90077 7.32312 5.01409 7.33728 5.1274C7.35145 5.24072 7.36797 5.35403 7.38686 5.46735C6.77307 5.42957 6.17817 5.33514 5.60215 5.18406C5.0167 5.02353 4.46429 4.8087 3.94493 4.53958C3.42557 4.27046 2.93927 3.95176 2.48601 3.58349C2.03275 3.21522 1.62198 2.80446 1.25371 2.3512C1.13096 2.57783 1.03417 2.81626 0.963344 3.06649C0.892523 3.31673 0.857112 3.57877 0.857112 3.85261C0.857112 4.37197 0.977509 4.84648 1.2183 5.27613C1.4591 5.70578 1.77779 6.05752 2.17439 6.33137C1.93832 6.32192 1.70461 6.28415 1.47326 6.21805C1.24191 6.15195 1.02708 6.06225 0.828783 5.94893V5.99142C0.828783 6.70908 1.05777 7.33939 1.51575 7.88236C1.97373 8.42532 2.54266 8.76763 3.22255 8.90927C3.09035 8.9376 2.96051 8.96121 2.83303 8.98009C2.70555 8.99898 2.57099 9.00842 2.42935 9.00842C2.33492 9.00842 2.24049 9.0037 2.14606 8.99426C2.05164 8.98481 1.96193 8.97065 1.87694 8.95176C2.0658 9.54666 2.41283 10.0377 2.91802 10.4249C3.42321 10.812 4.00159 11.0103 4.65315 11.0198C4.14323 11.4258 3.5743 11.7398 2.94635 11.9617C2.3184 12.1836 1.65503 12.2945 0.956262 12.2945C0.833505 12.2945 0.713108 12.2922 0.595072 12.2875C0.477036 12.2827 0.361361 12.2709 0.248047 12.252C0.578547 12.4692 0.923212 12.6581 1.28204 12.8186C1.64087 12.9886 2.0115 13.1302 2.39394 13.2435C2.77638 13.3569 3.17062 13.4418 3.57666 13.4985C3.9827 13.5646 4.39347 13.5977 4.80895 13.5977C6.17817 13.5977 7.38686 13.338 8.43502 12.8186C9.49262 12.3087 10.3802 11.6477 11.0979 10.8356C11.8156 10.0235 12.3585 9.11701 12.7268 8.11607C13.0951 7.10568 13.2792 6.10946 13.2792 5.1274L13.265 4.74497C13.5578 4.53722 13.8293 4.30351 14.0795 4.04383C14.3297 3.78415 14.554 3.50323 14.7523 3.20106Z" fill="#592C33"/>
</svg>
