<svg width="10" height="16" viewBox="0 0 10 16" fill="none" xmlns="http://www.w3.org/2000/svg">
<path d="M0.410156 11.8359H0.498047C0.878906 11.8359 1.23047 11.8359 1.61133 11.8359C1.66992 11.8359 1.69922 11.8066 1.72852 11.8945C1.93359 12.9199 2.60742 13.5059 3.57422 13.7695C4.36523 13.9746 5.15625 14.0039 5.94727 13.8281C6.94336 13.5938 7.58789 12.9785 7.93945 12.041C8.17383 11.4258 8.26172 10.752 8.26172 10.1074C8.26172 9.93164 8.26172 8.73047 8.26172 8.55469H8.23242C8.20312 8.58398 8.17383 8.64258 8.14453 8.67188C7.5 9.93164 6.35742 10.6348 5.06836 10.6934C2.05078 10.8105 0.117188 9.02344 0.0292969 5.53711C0 4.83398 0.0878906 4.16016 0.263672 3.48633C0.878906 1.40625 2.46094 0.0292969 4.77539 0C6.5625 0 7.76367 1.14258 8.17383 2.08008C8.20312 2.10938 8.23242 2.13867 8.26172 2.13867V0.322266H9.55078C9.55078 8.52539 9.55078 10.0488 9.55078 10.0488C9.55078 12.3633 8.75977 14.2676 6.5332 14.7949C4.51172 15.293 1.875 14.9414 0.791016 13.125C0.556641 12.7441 0.439453 12.3047 0.410156 11.8359ZM4.6875 1.08398C3.16406 1.05469 1.52344 2.28516 1.31836 5.00977C1.20117 6.73828 1.75781 8.58398 3.42773 9.3457C4.24805 9.72656 5.5957 9.78516 6.5918 9.11133C7.99805 8.11523 8.4375 6.26953 8.20312 4.59961C7.91016 2.51953 6.79688 1.08398 4.6875 1.08398Z" fill="#592C33"/>
</svg>
