<svg width="13" height="14" viewBox="0 0 13 14" fill="none" xmlns="http://www.w3.org/2000/svg">
<path d="M7.4707 3.83789C7.4707 2.69531 7.61719 1.81641 6.41602 1.81641C6.41602 1.81641 5.30273 1.81641 4.83398 3.28125L2.69531 3.07617C2.69531 1.61133 4.04297 0 6.62109 0C9.19922 0 9.93164 1.66992 9.93164 2.43164V6.73828C9.93164 7.5293 10.8691 8.29102 10.8691 8.29102L9.19922 9.93164C8.90625 9.63867 8.05664 8.84766 7.88086 8.55469C6.5625 10.6348 2.49023 10.4883 2.49023 7.29492C2.49023 4.30664 6.03516 3.89648 7.4707 3.83789ZM7.4707 6.38672V5.18555C6.47461 5.21484 5.00977 5.50781 5.00977 6.88477C5.00977 8.37891 7.4707 8.73047 7.4707 6.38672ZM11.4551 11.1621C11.2207 11.4551 9.4043 13.125 6.32812 13.125C3.28125 13.125 0.9375 11.0449 0.205078 10.166C0 9.96094 0.234375 9.84375 0.380859 9.93164C2.51953 11.25 5.88867 13.3887 11.2793 10.8105C11.5137 10.7227 11.6895 10.8691 11.4551 11.1621ZM12.627 11.25C12.4219 11.6895 12.1582 12.0117 11.9824 12.1582C11.8359 12.2754 11.7188 12.2168 11.8066 12.041C11.8945 11.8359 12.3633 10.6641 12.1875 10.4297C11.9824 10.1953 11.1035 10.3125 10.7812 10.3418C10.459 10.3711 10.4004 10.4004 10.3711 10.3125C10.2832 10.166 10.9863 9.87305 11.4551 9.81445C11.9238 9.75586 12.6562 9.78516 12.8027 9.99023C12.9199 10.1367 12.8027 10.7812 12.627 11.25Z" fill="#592C33"/>
</svg>
