<svg preserveAspectRatio="none" width="100%" height="100%" overflow="visible" style="display: block;" viewBox="0 0 32 32" fill="none" xmlns="http://www.w3.org/2000/svg">
<g id="prime:search">
<path id="Vector" d="M14.36 24.4C12.3743 24.4 10.4331 23.8112 8.78207 22.708C7.13101 21.6047 5.84415 20.0367 5.08425 18.2021C4.32435 16.3676 4.12552 14.3489 4.51292 12.4013C4.90031 10.4537 5.85653 8.66477 7.26065 7.26065C8.66477 5.85653 10.4537 4.90031 12.4013 4.51292C14.3489 4.12552 16.3676 4.32435 18.2021 5.08425C20.0367 5.84415 21.6047 7.13101 22.708 8.78207C23.8112 10.4331 24.4 12.3743 24.4 14.36C24.4 15.6785 24.1403 16.984 23.6357 18.2021C23.1312 19.4202 22.3916 20.527 21.4593 21.4593C20.527 22.3916 19.4202 23.1312 18.2021 23.6357C16.984 24.1403 15.6785 24.4 14.36 24.4ZM14.36 6.33333C12.7777 6.33333 11.231 6.80253 9.91544 7.68158C8.59984 8.56063 7.57446 9.81006 6.96896 11.2719C6.36346 12.7337 6.20504 14.3422 6.51372 15.8941C6.8224 17.4459 7.58433 18.8714 8.70315 19.9902C9.82197 21.109 11.2474 21.8709 12.7993 22.1796C14.3511 22.4883 15.9597 22.3299 17.4215 21.7244C18.8833 21.1189 20.1327 20.0935 21.0118 18.7779C21.8908 17.4623 22.36 15.9156 22.36 14.3333C22.36 12.2116 21.5171 10.1768 20.0169 8.67648C18.5166 7.17619 16.4817 6.33333 14.36 6.33333Z" fill="var(--fill-0, #595959)"/>
<path id="Vector_2" d="M26.6667 27.6667C26.5353 27.6673 26.4051 27.6417 26.2837 27.5913C26.1624 27.5409 26.0523 27.4668 25.96 27.3733L20.4533 21.8667C20.2767 21.6771 20.1805 21.4264 20.1851 21.1673C20.1897 20.9082 20.2946 20.6611 20.4778 20.4778C20.6611 20.2946 20.9082 20.1897 21.1673 20.1851C21.4264 20.1805 21.6771 20.2767 21.8667 20.4533L27.3733 25.96C27.5606 26.1475 27.6658 26.4017 27.6658 26.6667C27.6658 26.9317 27.5606 27.1858 27.3733 27.3733C27.281 27.4668 27.1709 27.5409 27.0496 27.5913C26.9282 27.6417 26.7981 27.6673 26.6667 27.6667Z" fill="var(--fill-0, #595959)"/>
</g>
</svg>
