<svg preserveAspectRatio="none" width="100%" height="100%" overflow="visible" style="display: block;" viewBox="0 0 15 15" fill="none" xmlns="http://www.w3.org/2000/svg">
<g id="Icon">
<path id="Vector" d="M14.7521 11.7989C14.4877 11.6761 14.2115 11.5746 13.9235 11.4943C13.6355 11.4141 13.3404 11.3598 13.0382 11.3314C13.3499 11.5109 13.619 11.7422 13.8456 12.0255C14.0722 12.3088 14.2422 12.6251 14.3555 12.9745C14.0628 12.8045 13.7583 12.6582 13.4419 12.5354C13.1256 12.4127 12.7975 12.3182 12.4575 12.2521C12.1837 12.5354 11.8602 12.762 11.4873 12.932C11.1143 13.102 10.7153 13.187 10.2904 13.187C9.87488 13.187 9.48772 13.1114 9.1289 12.9603C8.77007 12.7998 8.45609 12.585 8.18697 12.3159C7.91785 12.0467 7.70302 11.7328 7.54249 11.3739C7.39141 11.0151 7.31586 10.628 7.31586 10.2125C7.31586 10.0991 7.32295 9.98584 7.33711 9.87252C7.35127 9.75921 7.3678 9.64589 7.38669 9.53258C6.7729 9.57035 6.178 9.66478 5.60198 9.81586C5.01652 9.97639 4.46412 10.1912 3.94476 10.4603C3.4254 10.7295 2.93909 11.0482 2.48584 11.4164C2.03258 11.7847 1.62181 12.1955 1.25354 12.6487C1.13078 12.4221 1.03399 12.1837 0.963173 11.9334C0.892351 11.6832 0.85694 11.4212 0.85694 11.1473C0.85694 10.628 0.977337 10.1534 1.21813 9.7238C1.45892 9.29414 1.77762 8.9424 2.17422 8.66855C1.93815 8.678 1.70444 8.71577 1.47309 8.78187C1.24174 8.84797 1.02691 8.93768 0.828612 9.05099V9.0085C0.828612 8.29084 1.0576 7.66053 1.51558 7.11756C1.97356 6.5746 2.54249 6.23229 3.22238 6.09065C3.09018 6.06232 2.96034 6.03872 2.83286 6.01983C2.70538 6.00094 2.57082 5.9915 2.42918 5.9915C2.33475 5.9915 2.24032 5.99622 2.14589 6.00567C2.05146 6.01511 1.96176 6.02927 1.87677 6.04816C2.06563 5.45326 2.41265 4.96223 2.91785 4.57507C3.42304 4.18791 4.00142 3.98961 4.65297 3.98017C4.14306 3.57413 3.57413 3.26015 2.94618 3.03824C2.31822 2.81634 1.65486 2.70538 0.956091 2.70538C0.833333 2.70538 0.712937 2.70774 0.594901 2.71246C0.476865 2.71719 0.36119 2.72899 0.247875 2.74788C0.578376 2.53069 0.92304 2.34183 1.28187 2.1813C1.6407 2.01133 2.01133 1.86969 2.39377 1.75637C2.7762 1.64306 3.17044 1.55807 3.57649 1.50142C3.98253 1.43532 4.3933 1.40227 4.80878 1.40227C6.178 1.40227 7.38669 1.66195 8.43484 2.1813C9.49245 2.69122 10.3801 3.35222 11.0977 4.16431C11.8154 4.97639 12.3584 5.88291 12.7266 6.88385C13.0949 7.89424 13.279 8.89046 13.279 9.87252L13.2649 10.255C13.5576 10.4627 13.8291 10.6964 14.0793 10.9561C14.3296 11.2158 14.5538 11.4967 14.7521 11.7989Z" fill="var(--fill-0, #592C33)"/>
</g>
</svg>
