<svg preserveAspectRatio="none" width="100%" height="100%" overflow="visible" style="display: block;" viewBox="0 0 1510.2 682.1" fill="none" xmlns="http://www.w3.org/2000/svg">
<g id="Group 74">
<rect id="Rectangle 3466924" x="33.1" y="86.1" width="1440" height="596" fill="var(--fill-0, #F6EFE9)"/>
<g id="Vector" filter="url(#filter0_d_0_64)">
<path d="M20.9006 49.5047C24.3767 48.1451 27.5368 47.2387 31.0129 50.8643C37.0171 53.5835 41.7573 56.756 48.0775 55.3964C53.7657 57.6624 59.454 64.9137 65.1422 57.2092C73.6745 47.2387 82.2068 50.8643 90.7391 49.5047C102.116 43.613 113.492 46.7855 125.184 49.5047C131.505 49.5047 134.981 52.2239 140.669 53.5835C143.197 57.2092 144.461 60.3816 146.989 54.9432C153.942 56.756 162.158 64.9137 169.11 54.9432C172.27 55.8496 174.798 44.0662 177.958 49.9579C180.802 54.9432 183.963 49.9579 186.807 49.5047C191.547 58.1156 192.495 49.5047 196.919 45.4259C200.079 35.0021 203.239 47.6919 206.399 44.0662C216.196 47.6919 226.308 41.8002 236.104 44.0662C242.425 47.6919 249.061 30.0169 255.065 43.613C262.017 37.7214 267.706 50.4111 274.658 53.5835C277.818 62.6476 280.662 44.5194 283.506 58.1156C292.987 68.0861 302.151 56.756 311.947 62.1944C317.004 63.1008 322.06 70.3521 326.8 59.9284C330.276 70.8053 332.804 48.1451 335.964 51.7707C341.652 35.9086 347.657 39.9874 353.661 46.7855C360.613 44.9726 367.249 48.1451 373.886 49.5047C380.522 51.3175 387.158 46.3323 394.11 52.2239C399.799 50.8643 404.223 48.5983 408.963 54.49C416.231 54.0367 423.5 60.3816 430.452 54.9432C436.456 61.288 443.408 37.2682 449.412 54.49C457.313 61.288 465.213 47.2387 473.113 54.49C481.014 39.081 488.914 75.3374 496.814 54.49C505.031 58.5688 513.247 46.7855 521.463 54.49C528.416 39.5342 532.84 45.4259 539.476 47.2387C544.848 43.613 550.22 44.0662 555.593 46.3323C558.753 44.9726 560.965 51.3175 563.809 41.347C567.285 26.8445 569.813 32.2829 572.973 38.6278C576.765 25.4848 578.977 34.0957 583.086 33.6425C590.354 38.6278 600.15 47.6919 607.103 33.6425C610.263 30.4701 612.791 31.3765 616.267 26.3912C620.375 21.8592 623.535 27.2977 627.327 28.6573C632.699 30.9233 638.072 40.8938 644.076 36.3618C647.552 46.7855 650.396 32.2829 653.872 34.0957C657.348 22.7656 662.404 25.0316 665.881 34.0957C667.777 33.6425 669.357 37.7214 671.885 38.1746C675.993 37.2682 680.733 44.5194 684.841 38.6278C689.581 30.9233 693.69 43.613 698.114 36.815C703.486 29.5637 709.174 23.672 715.179 27.2977C721.183 34.5489 727.503 17.7804 733.507 25.938C740.775 27.2977 747.728 31.3765 754.996 32.7361C762.264 32.7361 769.533 32.7361 777.117 35.4553C783.437 40.4406 789.757 34.0957 796.078 33.1893C800.818 30.0169 803.346 27.7509 808.086 25.938C814.406 30.4701 820.41 25.0316 825.783 29.5637C829.575 35.9086 833.051 35.4553 837.159 38.1746C840.003 38.1746 843.479 38.6278 846.323 38.6278C854.54 35.4553 865.284 41.8002 872.552 41.347C877.925 48.5983 882.981 43.613 889.301 44.0662C894.041 41.8002 896.253 51.3175 900.361 42.2534C901.31 42.7066 902.257 35.9085 903.206 39.5342C905.418 32.7361 909.526 37.2682 911.738 39.081C915.53 37.7214 914.266 40.4406 917.426 43.1598C923.43 50.4111 928.803 41.347 934.807 46.7855C941.443 51.3175 947.763 43.613 954.083 47.2387C960.404 48.1451 966.408 55.8496 973.044 51.3175C980.944 57.6624 988.213 59.022 996.429 57.2092C1002.43 59.022 1009.7 55.8496 1015.71 56.756C1017.29 55.8496 1018.55 60.8348 1020.13 59.4752C1027.08 64.4605 1034.35 65.8201 1041.62 62.1944C1047.31 59.4752 1052.68 60.3816 1058.37 62.1944C1065.32 56.3028 1073.54 57.6624 1080.49 62.6476C1086.81 74.8842 1091.23 78.0566 1098.18 69.8989C1106.4 70.8053 1116.51 68.0861 1124.73 69.8989C1128.21 70.8053 1127.89 70.3521 1130.73 64.9137C1132.31 68.5393 1135.79 59.4752 1137.69 62.6476C1142.43 59.4752 1146.53 67.6329 1150.64 54.9432C1152.85 51.3175 1155.07 56.3028 1157.6 49.5047C1161.39 51.3175 1165.81 59.022 1169.6 49.0515C1176.24 42.2534 1181.61 51.3175 1187.93 51.7707C1197.73 57.2092 1207.21 50.8643 1216.69 49.9579C1221.75 40.4406 1222.69 43.1598 1227.12 44.0662C1230.28 34.5489 1230.28 43.613 1233.12 41.8002C1237.86 43.1598 1242.6 27.7509 1247.34 33.1893C1256.19 27.2977 1268.2 16.4207 1277.68 31.3765C1282.42 30.4701 1291.58 30.9233 1295.69 30.9233C1296.96 28.2041 1297.59 25.4848 1298.85 25.4848C1300.12 15.5143 1302.33 19.14 1303.91 21.406C1309.91 11.4355 1315.92 19.5932 1322.24 18.2336C1326.98 19.5932 1330.14 26.3912 1334.56 16.4207C1340.57 13.2483 1347.52 16.4207 1353.84 15.9675C1355.73 12.7951 1357.95 14.1547 1359.84 16.4207C1362.05 15.0611 1362.69 19.14 1365.21 21.406C1368.38 25.4848 1372.8 20.4996 1376.28 21.406C1383.23 18.2336 1389.86 15.0611 1396.82 21.406C1405.35 24.1252 1411.67 25.0316 1419.25 30.0169C1427.15 31.3765 1434.11 36.3618 1442.64 34.5489C1447.06 35.9086 1453.7 30.4701 1458.12 34.0957C1460.97 44.0662 1461.6 41.8002 1463.81 40.4406C1465.39 39.081 1466.97 44.0662 1468.55 42.7066C1476.77 40.4406 1483.72 51.7707 1492.25 47.2387C1492.25 48.5983 1501.1 84.4015 1501.1 83.0419C1497.94 89.3867 1496.36 86.2143 1493.52 87.5739C1490.99 86.2143 1488.14 85.7611 1485.3 88.0271C1480.88 82.1355 1475.5 93.0124 1471.08 88.0271C1466.34 88.0271 1462.55 97.5444 1457.81 95.2784C1451.8 97.0912 1446.11 92.106 1440.74 92.106C1433.79 88.0271 1427.79 77.6034 1419.88 69.8989C1418.3 72.6182 1414.83 65.8201 1413.25 69.8989C1408.19 68.9925 1423.68 63.5541 1419.25 75.7906C1415.14 75.7906 1408.67 75.7906 1403.93 81.2291C1400.45 71.2585 1384.33 89.3867 1378.8 81.2291C1375.01 84.8547 1372.64 72.6182 1368.85 81.2291C1362.84 79.8694 1358.58 59.022 1353.52 74.8842C1345.94 76.2438 1331.72 73.9778 1323.82 75.7906C1316.55 77.6034 1308.33 62.1944 1301.06 75.7906C1295.69 74.431 1290 83.4951 1285.26 81.2291C1279.89 81.2291 1274.2 84.4015 1268.52 88.4803C1259.35 86.6675 1248.61 80.3226 1239.44 88.9335C1233.44 90.7464 1227.12 88.0271 1221.11 88.9335C1214.79 81.229 1210.69 98.4508 1204.36 97.0912C1198.36 98.4508 1191.41 101.623 1185.72 96.638C1183.82 101.623 1182.56 101.17 1180.66 99.3572C1178.14 98.904 1174.66 97.9976 1171.82 99.3572C1170.24 94.372 1167.71 97.9976 1166.13 98.9041C1163.92 98.9041 1162.97 97.0912 1161.07 92.106C1158.23 92.5592 1152.22 97.9976 1149.38 91.6528C1144.64 90.7464 1139.9 95.2784 1135.47 93.9188C1129.15 100.264 1124.73 104.343 1116.83 104.343C1111.14 94.8252 1105.14 101.623 1099.45 104.343C1094.39 107.062 1089.02 104.796 1084.6 102.983C1083.02 102.53 1081.75 97.5444 1080.17 99.3572C1077.01 102.076 1073.22 99.3573 1069.74 96.638C1064.37 94.8252 1058.68 101.17 1053.31 96.638C1049.52 99.3573 1042.25 106.155 1038.77 96.1848C1036.56 82.5887 1035.61 87.1207 1033.09 87.1207C1027.71 81.6823 1017.92 88.9335 1011.91 83.9483C1008.75 87.1207 1009.07 82.5887 1005.59 85.3079C1000.54 80.7758 997.061 105.249 992.005 97.0912C986.317 95.2784 980.312 104.796 974.308 99.3572C967.356 100.264 960.404 103.889 953.451 99.3572C951.555 100.717 949.343 102.983 947.447 98.9041C942.075 103.436 940.811 106.609 936.071 109.328C931.963 118.392 927.222 112.5 923.114 109.328C917.426 98.4508 912.054 112.953 906.05 112.047C900.045 105.702 894.041 111.594 888.037 112.047C884.245 109.781 879.505 110.687 875.713 112.047C872.552 107.515 869.392 122.017 866.232 114.766C857.7 117.485 848.22 113.407 840.635 108.875C835.895 108.421 832.103 101.17 827.363 99.3572C824.835 102.076 823.255 88.9335 820.727 95.2784C817.25 91.1996 813.774 97.0912 809.982 93.9188C804.61 104.343 798.606 90.2931 793.233 93.9188C785.333 97.9976 779.645 89.8399 772.377 79.4162C767.952 78.963 761.632 83.4951 756.892 78.0566C750.888 83.4951 745.832 78.0566 740.143 83.0419C738.247 80.7758 736.351 96.1848 734.455 83.9483C732.559 84.4015 730.979 91.6528 729.083 88.0271C718.971 83.0419 708.542 106.155 697.798 96.1848C691.162 93.4656 684.209 99.3572 677.573 95.7316C670.937 89.8399 663.985 92.5592 657.348 97.9976C651.66 104.796 645.972 110.234 640.6 95.2784C635.228 82.5887 632.383 88.9335 626.379 90.7464C615.635 89.8399 604.89 88.4803 594.146 90.7464C587.826 93.9188 581.822 92.106 575.501 90.7464C569.813 88.9335 565.389 87.1207 559.701 93.4656C548.324 97.5444 537.58 88.4803 527.467 98.4508C523.043 102.983 518.619 115.219 514.195 106.155C506.927 106.155 500.29 113.407 492.39 116.126C483.226 120.658 476.59 107.968 468.057 111.594C456.681 115.673 445.304 100.264 433.612 108.421C426.344 103.889 416.231 112.953 409.595 107.968C404.223 107.062 401.695 103.436 395.375 97.9976C390.002 91.1996 383.998 108.875 378.626 97.9976C372.938 99.8105 367.565 99.8105 361.877 103.889C357.769 114.766 353.661 98.4508 349.553 103.436C342.917 104.343 336.28 95.7316 329.328 103.436C322.692 103.436 316.056 102.53 309.103 103.436C301.835 89.8399 294.567 108.875 287.615 106.609C281.294 117.032 277.186 116.126 270.234 116.579C262.334 123.83 256.961 113.407 249.693 110.687C243.057 111.141 236.737 109.781 230.1 108.421C222.832 107.968 216.512 106.609 209.876 101.17C202.607 99.8105 197.235 87.1207 189.019 96.1848C178.274 101.623 167.53 103.889 157.102 96.1848C150.781 101.623 146.673 94.8252 140.353 93.4656C132.137 87.1207 124.236 98.4508 116.02 95.2784C107.804 97.0912 98.9555 103.436 90.4232 98.4508C84.103 99.3572 79.6788 100.264 73.9905 107.515C67.3543 114.766 58.5058 102.076 51.2376 108.875C44.9173 113.407 40.8093 104.343 35.1211 103.889C29.7489 104.343 16.7924 105.249 13.9483 93.4656C13.9483 83.9483 5.1 37.2682 5.1 44.5194C7.94411 56.3028 16.7924 48.5983 20.9006 49.5047Z" fill="var(--fill-0, #F6EFE9)"/>
</g>
</g>
<defs>
<filter id="filter0_d_0_64" x="0" y="4.35103e-07" width="1510.2" height="119.2" filterUnits="userSpaceOnUse" color-interpolation-filters="sRGB">
<feFlood flood-opacity="0" result="BackgroundImageFix"/>
<feColorMatrix in="SourceAlpha" type="matrix" values="0 0 0 0 0 0 0 0 0 0 0 0 0 0 0 0 0 0 127 0" result="hardAlpha"/>
<feOffset dx="2" dy="-7"/>
<feGaussianBlur stdDeviation="3.55"/>
<feComposite in2="hardAlpha" operator="out"/>
<feColorMatrix type="matrix" values="0 0 0 0 0 0 0 0 0 0 0 0 0 0 0 0 0 0 0.25 0"/>
<feBlend mode="normal" in2="BackgroundImageFix" result="effect1_dropShadow_0_64"/>
<feBlend mode="normal" in="SourceGraphic" in2="effect1_dropShadow_0_64" result="shape"/>
</filter>
</defs>
</svg>
