<svg width="1440" height="138" viewBox="0 0 1440 138" fill="none" xmlns="http://www.w3.org/2000/svg">
<g filter="url(#filter0_d_219_1772)">
<path d="M1547.33 55.6698C1543.67 54.0735 1540.33 53.0092 1536.67 57.2662C1530.33 60.4589 1525.33 64.1838 1518.67 62.5874C1512.67 65.248 1506.67 73.7619 1500.67 64.7159C1491.67 53.0092 1482.67 57.2662 1473.67 55.6698C1461.67 48.7522 1449.67 52.4771 1437.33 55.6698C1430.67 55.6698 1427 58.8625 1421 60.4589C1418.33 64.7159 1417 68.4407 1414.33 62.0553C1407 64.1838 1398.33 73.762 1391 62.0553C1387.67 63.1195 1385 49.2844 1381.67 56.2019C1378.67 62.0553 1375.33 56.2019 1372.33 55.6698C1367.33 65.7801 1366.33 55.6698 1361.67 50.8807C1358.33 38.6419 1355 53.5413 1351.67 49.2844C1341.33 53.5413 1330.67 46.6237 1320.33 49.2844C1313.67 53.5413 1306.67 32.7886 1300.33 48.7522C1293 41.8347 1287 56.7341 1279.67 60.4589C1276.33 71.1013 1273.33 49.8165 1270.33 65.7801C1260.33 77.4868 1250.67 64.1838 1240.33 70.5692C1235 71.6335 1229.67 80.1474 1224.67 67.9086C1221 80.6795 1218.33 54.0735 1215 58.3304C1209 39.7062 1202.67 44.4953 1196.33 52.4771C1189 50.3486 1182 54.0735 1175 55.6698C1168 57.7983 1161 51.945 1153.67 58.8625C1147.67 57.2662 1143 54.6056 1138 61.5232C1130.33 60.991 1122.67 68.4407 1115.33 62.0553C1109 69.505 1101.67 41.3025 1095.33 61.5232C1087 69.505 1078.67 53.0092 1070.33 61.5232C1062 43.431 1053.67 86.0007 1045.33 61.5232C1036.67 66.3122 1028 52.4771 1019.33 61.5232C1012 43.9631 1007.33 50.8807 1000.33 53.0092C994.667 48.7522 989 49.2844 983.333 51.945C980 50.3486 977.667 57.7983 974.667 46.0916C971 29.0637 968.333 35.4492 965 42.8989C961 27.4674 958.667 37.5777 954.333 37.0456C946.667 42.8989 936.333 53.5413 929 37.0456C925.667 33.3207 923 34.385 919.333 28.5316C915 23.2104 911.667 29.5959 907.667 31.1922C902 33.8528 896.333 45.5595 890 40.2383C886.333 52.4771 883.333 35.4492 879.667 37.5777C876 24.2746 870.667 26.9353 867 37.5777C865 37.0456 863.333 41.8347 860.667 42.3668C856.333 41.3025 851.333 49.8165 847 42.8989C842 33.8528 837.667 48.7522 833 40.7704C827.333 32.2565 821.333 25.3389 815 29.5959C808.667 38.1098 802 18.4213 795.667 27.9995C788 29.5959 780.667 34.385 773 35.9813C765.333 35.9813 757.667 35.9813 749.667 39.174C743 45.0274 736.333 37.5777 729.667 36.5134C724.667 32.7886 722 30.128 717 27.9995C710.333 33.3207 704 26.9353 698.333 32.2565C694.333 39.7062 690.667 39.174 686.333 42.3668C683.333 42.3668 679.667 42.8989 676.667 42.8989C668 39.174 656.667 46.6238 649 46.0916C643.333 54.6056 638 48.7522 631.333 49.2844C626.333 46.6237 624 57.7983 619.667 47.1559C618.667 47.688 617.667 39.7062 616.667 43.9631C614.333 35.9813 610 41.3025 607.667 43.431C603.667 41.8347 605 45.0274 601.667 48.2201C595.333 56.7341 589.667 46.0916 583.333 52.4771C576.333 57.7983 569.667 48.7522 563 53.0092C556.333 54.0735 550 63.1195 543 57.7983C534.667 65.248 527 66.8444 518.333 64.7159C512 66.8444 504.333 63.1195 498 64.1838C496.333 63.1195 495 68.9729 493.333 67.3765C486 73.2298 478.333 74.8262 470.667 70.5692C464.667 67.3765 459 68.4407 453 70.5692C445.667 63.6516 437 65.248 429.667 71.1013C423 85.4686 418.333 89.1935 411 79.6153C402.333 80.6795 391.667 77.4868 383 79.6153C379.333 80.6795 379.667 80.1474 376.667 73.7619C375 78.0189 371.333 67.3765 369.333 71.1013C364.333 67.3765 360 76.9547 355.667 62.0553C353.333 57.7983 351 63.6516 348.333 55.6698C344.333 57.7983 339.667 66.8444 335.667 55.1377C328.667 47.1559 323 57.7983 316.333 58.3304C306 64.7159 296 57.2662 286 56.2019C280.667 45.0274 279.667 48.2201 275 49.2844C271.667 38.1098 271.667 48.7522 268.667 46.6237C263.667 48.2201 258.667 30.128 253.667 36.5134C244.333 29.5959 231.667 16.8249 221.667 34.385C216.667 33.3207 207 33.8528 202.667 33.8528C201.333 30.6601 200.667 27.4674 199.333 27.4674C198 15.7607 195.667 20.0177 194 22.6783C187.667 10.9716 181.333 20.5498 174.667 18.9534C169.667 20.5498 166.333 28.5316 161.667 16.8249C155.333 13.1001 148 16.8249 141.333 16.2928C139.333 12.568 137 14.1643 135 16.8249C132.667 15.2286 132 20.0177 129.333 22.6783C126 27.4674 121.333 21.614 117.667 22.6783C110.333 18.9534 103.333 15.2286 96 22.6783C87 25.871 80.3333 26.9353 72.3333 32.7886C64 34.385 56.6667 40.2383 47.6667 38.1098C43 39.7062 36 33.3207 31.3333 37.5777C28.3333 49.2844 27.6667 46.6237 25.3333 45.0274C23.6667 43.431 22 49.2844 20.3333 47.688C11.6667 45.0274 4.33334 58.3304 -4.66667 53.0092C-4.66667 54.6056 -14 96.6432 -14 95.0468C-10.6667 102.497 -9 98.7717 -6 100.368C-3.33333 98.7717 -0.333332 98.2395 2.66667 100.9C7.33334 93.9826 13 106.753 17.6667 100.9C22.6667 100.9 26.6667 112.075 31.6667 109.414C38 111.543 44 105.689 49.6667 105.689C57 100.9 63.3333 88.6614 71.6667 79.6153C73.3333 82.808 77 74.8262 78.6667 79.6153C84 78.551 67.6667 72.1656 72.3333 86.5329C76.6667 86.5329 83.5 86.5329 88.5 92.9183C92.1667 81.2117 109.167 102.497 115 92.9183C119 97.1753 121.5 82.808 125.5 92.9183C131.833 91.322 136.333 66.8444 141.667 85.4686C149.667 87.065 164.667 84.4044 173 86.5329C180.667 88.6614 189.333 70.5692 197 86.5329C202.667 84.9365 208.667 95.5789 213.667 92.9183C219.333 92.9183 225.333 96.6432 231.333 101.432C241 99.3038 252.333 91.8541 262 101.964C268.333 104.093 275 100.9 281.333 101.964C288 92.9183 292.333 113.139 299 111.543C305.333 113.139 312.667 116.864 318.667 111.01C320.667 116.864 322 116.332 324 114.203C326.667 113.671 330.333 112.607 333.333 114.203C335 108.35 337.667 112.607 339.333 113.671C341.667 113.671 342.667 111.543 344.667 105.689C347.667 106.221 354 112.607 357 105.157C362 104.093 367 109.414 371.667 107.818C378.333 115.267 383 120.057 391.333 120.057C397.333 108.882 403.667 116.864 409.667 120.057C415 123.249 420.667 120.589 425.333 118.46C427 117.928 428.333 112.075 430 114.203C433.333 117.396 437.333 114.203 441 111.01C446.667 108.882 452.667 116.332 458.333 111.01C462.333 114.203 470 122.185 473.667 110.478C476 94.5147 477 99.8359 479.667 99.8359C485.333 93.4504 495.667 101.964 502 96.1111C505.333 99.8359 505 94.5147 508.667 97.7074C514 92.3862 517.667 121.121 523 111.543C529 109.414 535.333 120.589 541.667 114.203C549 115.267 556.333 119.524 563.667 114.203C565.667 115.8 568 118.46 570 113.671C575.667 118.992 577 122.717 582 125.91C586.333 136.552 591.333 129.635 595.667 125.91C601.667 113.139 607.333 130.167 613.667 129.103C620 121.653 626.333 128.57 632.667 129.103C636.667 126.442 641.667 127.506 645.667 129.103C649 123.781 652.333 140.809 655.667 132.295C664.667 135.488 674.667 130.699 682.667 125.378C687.667 124.846 691.667 116.332 696.667 114.203C699.333 117.396 701 101.964 703.667 109.414C707.333 104.625 711 111.543 715 107.818C720.667 120.057 727 103.561 732.667 107.818C741 112.607 747 103.029 754.667 90.7898C759.333 90.2577 766 95.5789 771 89.1935C777.333 95.5789 782.667 89.1935 788.667 95.0468C790.667 92.3862 792.667 110.478 794.667 96.1111C796.667 96.6432 798.333 105.157 800.333 100.9C811 95.0468 822 122.185 833.333 110.478C840.333 107.286 847.667 114.203 854.667 109.946C861.667 103.029 869 106.221 876 112.607C882 120.589 888 126.974 893.667 109.414C899.333 94.5147 902.333 101.964 908.667 104.093C920 103.029 931.333 101.432 942.667 104.093C949.333 107.818 955.667 105.689 962.333 104.093C968.333 101.964 973 99.8359 979 107.286C991 112.075 1002.33 101.432 1013 113.139C1017.67 118.46 1022.33 132.827 1027 122.185C1034.67 122.185 1041.67 130.699 1050 133.892C1059.67 139.213 1066.67 124.314 1075.67 128.57C1087.67 133.36 1099.67 115.267 1112 124.846C1119.67 119.524 1130.33 130.167 1137.33 124.313C1143 123.249 1145.67 118.992 1152.33 112.607C1158 104.625 1164.33 125.378 1170 112.607C1176 114.735 1181.67 114.735 1187.67 119.524C1192 132.295 1196.33 113.139 1200.67 118.992C1207.67 120.057 1214.67 109.946 1222 118.992C1229 118.992 1236 117.928 1243.33 118.992C1251 103.029 1258.67 125.378 1266 122.717C1272.67 134.956 1277 133.892 1284.33 134.424C1292.67 142.938 1298.33 130.699 1306 127.506C1313 128.038 1319.67 126.442 1326.67 124.846C1334.33 124.313 1341 122.717 1348 116.332C1355.67 114.735 1361.33 99.8359 1370 110.478C1381.33 116.864 1392.67 119.524 1403.67 110.478C1410.33 116.864 1414.67 108.882 1421.33 107.286C1430 99.8359 1438.33 113.139 1447 109.414C1455.67 111.543 1465 118.992 1474 113.139C1480.67 114.203 1485.33 115.267 1491.33 123.781C1498.33 132.295 1507.67 117.396 1515.33 125.378C1522 130.699 1526.33 120.057 1532.33 119.524C1538 120.057 1551.67 121.121 1554.67 107.286C1554.67 96.1111 1564 41.3025 1564 49.8165C1561 63.6516 1551.67 54.6056 1547.33 55.6698Z" fill="#F6EFE9"/>
</g>
<defs>
<filter id="filter0_d_219_1772" x="-21.1" y="9.77516e-05" width="1592.2" height="137.484" filterUnits="userSpaceOnUse" color-interpolation-filters="sRGB">
<feFlood flood-opacity="0" result="BackgroundImageFix"/>
<feColorMatrix in="SourceAlpha" type="matrix" values="0 0 0 0 0 0 0 0 0 0 0 0 0 0 0 0 0 0 127 0" result="hardAlpha"/>
<feOffset dy="-7"/>
<feGaussianBlur stdDeviation="3.55"/>
<feComposite in2="hardAlpha" operator="out"/>
<feColorMatrix type="matrix" values="0 0 0 0 0 0 0 0 0 0 0 0 0 0 0 0 0 0 0.25 0"/>
<feBlend mode="normal" in2="BackgroundImageFix" result="effect1_dropShadow_219_1772"/>
<feBlend mode="normal" in="SourceGraphic" in2="effect1_dropShadow_219_1772" result="shape"/>
</filter>
</defs>
</svg>
