<svg preserveAspectRatio="none" width="100%" height="100%" overflow="visible" style="display: block;" viewBox="0 0 1592.2 137.484" fill="none" xmlns="http://www.w3.org/2000/svg">
<g id="Group 58">
<g id="Vector" filter="url(#filter0_d_0_72)">
<path d="M1568.43 55.6697C1564.77 54.0734 1561.43 53.0091 1557.77 57.2661C1551.43 60.4588 1546.43 64.1837 1539.77 62.5873C1533.77 65.2479 1527.77 73.7619 1521.77 64.7158C1512.77 53.0091 1503.77 57.2661 1494.77 55.6697C1482.77 48.7521 1470.77 52.477 1458.43 55.6697C1451.77 55.6697 1448.1 58.8624 1442.1 60.4588C1439.43 64.7158 1438.1 68.4406 1435.43 62.0552C1428.1 64.1837 1419.43 73.7619 1412.1 62.0552C1408.77 63.1194 1406.1 49.2843 1402.77 56.2018C1399.77 62.0552 1396.43 56.2018 1393.43 55.6697C1388.43 65.78 1387.43 55.6697 1382.77 50.8806C1379.43 38.6418 1376.1 53.5412 1372.77 49.2843C1362.43 53.5412 1351.77 46.6237 1341.43 49.2843C1334.77 53.5412 1327.77 32.7885 1321.43 48.7521C1314.1 41.8346 1308.1 56.734 1300.77 60.4588C1297.43 71.1012 1294.43 49.8164 1291.43 65.78C1281.43 77.4867 1271.77 64.1837 1261.43 70.5691C1256.1 71.6334 1250.77 80.1473 1245.77 67.9085C1242.1 80.6794 1239.43 54.0734 1236.1 58.3303C1230.1 39.7061 1223.77 44.4952 1217.43 52.477C1210.1 50.3485 1203.1 54.0734 1196.1 55.6697C1189.1 57.7982 1182.1 51.9449 1174.77 58.8624C1168.77 57.2661 1164.1 54.6055 1159.1 61.5231C1151.43 60.9909 1143.77 68.4406 1136.43 62.0552C1130.1 69.5049 1122.77 41.3024 1116.43 61.5231C1108.1 69.5049 1099.77 53.0091 1091.43 61.5231C1083.1 43.4309 1074.77 86.0006 1066.43 61.5231C1057.77 66.3121 1049.1 52.477 1040.43 61.5231C1033.1 43.963 1028.43 50.8806 1021.43 53.0091C1015.77 48.7521 1010.1 49.2843 1004.43 51.9449C1001.1 50.3485 998.767 57.7982 995.767 46.0915C992.1 29.0636 989.433 35.4491 986.1 42.8988C982.1 27.4673 979.767 37.5776 975.433 37.0455C967.767 42.8988 957.433 53.5412 950.1 37.0455C946.767 33.3206 944.1 34.3849 940.433 28.5315C936.1 23.2103 932.767 29.5958 928.767 31.1921C923.1 33.8527 917.433 45.5594 911.1 40.2382C907.433 52.477 904.433 35.4491 900.767 37.5776C897.1 24.2745 891.767 26.9352 888.1 37.5776C886.1 37.0455 884.433 41.8346 881.767 42.3667C877.433 41.3024 872.433 49.8164 868.1 42.8988C863.1 33.8527 858.767 48.7521 854.1 40.7703C848.433 32.2564 842.433 25.3388 836.1 29.5958C829.767 38.1097 823.1 18.4212 816.767 27.9994C809.1 29.5958 801.767 34.3849 794.1 35.9812C786.433 35.9812 778.767 35.9812 770.767 39.1739C764.1 45.0273 757.433 37.5776 750.767 36.5133C745.767 32.7885 743.1 30.1279 738.1 27.9994C731.433 33.3206 725.1 26.9352 719.433 32.2564C715.433 39.7061 711.767 39.174 707.433 42.3667C704.433 42.3667 700.767 42.8988 697.767 42.8988C689.1 39.174 677.767 46.6237 670.1 46.0915C664.433 54.6055 659.1 48.7521 652.433 49.2843C647.433 46.6237 645.1 57.7982 640.767 47.1558C639.767 47.6879 638.767 39.7061 637.767 43.963C635.433 35.9812 631.1 41.3024 628.767 43.4309C624.767 41.8346 626.1 45.0273 622.767 48.22C616.433 56.734 610.767 46.0915 604.433 52.477C597.433 57.7982 590.767 48.7521 584.1 53.0091C577.433 54.0734 571.1 63.1194 564.1 57.7982C555.767 65.2479 548.1 66.8443 539.433 64.7158C533.1 66.8443 525.433 63.1194 519.1 64.1837C517.433 63.1194 516.1 68.9728 514.433 67.3764C507.1 73.2297 499.433 74.8261 491.767 70.5691C485.767 67.3764 480.1 68.4406 474.1 70.5691C466.767 63.6515 458.1 65.2479 450.767 71.1012C444.1 85.4685 439.433 89.1934 432.1 79.6152C423.433 80.6794 412.767 77.4867 404.1 79.6152C400.433 80.6794 400.767 80.1473 397.767 73.7618C396.1 78.0188 392.433 67.3764 390.433 71.1012C385.433 67.3764 381.1 76.9546 376.767 62.0552C374.433 57.7982 372.1 63.6515 369.433 55.6697C365.433 57.7982 360.767 66.8443 356.767 55.1376C349.767 47.1558 344.1 57.7982 337.433 58.3303C327.1 64.7158 317.1 57.2661 307.1 56.2018C301.767 45.0273 300.767 48.22 296.1 49.2843C292.767 38.1097 292.767 48.7521 289.767 46.6236C284.767 48.22 279.767 30.1279 274.767 36.5133C265.433 29.5958 252.767 16.8248 242.767 34.3849C237.767 33.3206 228.1 33.8527 223.767 33.8527C222.433 30.66 221.767 27.4673 220.433 27.4673C219.1 15.7606 216.767 20.0176 215.1 22.6782C208.767 10.9715 202.433 20.5497 195.767 18.9533C190.767 20.5497 187.433 28.5315 182.767 16.8248C176.433 13.1 169.1 16.8248 162.433 16.2927C160.433 12.5679 158.1 14.1642 156.1 16.8248C153.767 15.2285 153.1 20.0176 150.433 22.6782C147.1 27.4673 142.433 21.6139 138.767 22.6782C131.433 18.9533 124.433 15.2285 117.1 22.6782C108.1 25.8709 101.433 26.9352 93.4333 32.7885C85.1 34.3849 77.7667 40.2382 68.7667 38.1097C64.1 39.7061 57.1 33.3206 52.4333 37.5776C49.4333 49.2843 48.7667 46.6237 46.4333 45.0273C44.7667 43.4309 43.1 49.2843 41.4333 47.6879C32.7667 45.0273 25.4333 58.3303 16.4333 53.0091C16.4333 54.6055 7.1 96.6431 7.1 95.0467C10.4333 102.496 12.1 98.7716 15.1 100.368C17.7667 98.7716 20.7667 98.2394 23.7667 100.9C28.4333 93.9825 34.1 106.753 38.7667 100.9C43.7667 100.9 47.7667 112.075 52.7667 109.414C59.1 111.542 65.1 105.689 70.7667 105.689C78.1 100.9 84.4333 88.6613 92.7667 79.6152C94.4333 82.8079 98.1 74.8261 99.7667 79.6152C105.1 78.551 88.7667 72.1655 93.4333 86.5328C97.7667 86.5328 104.6 86.5328 109.6 92.9182C113.267 81.2116 130.267 102.496 136.1 92.9182C140.1 97.1752 142.6 82.8079 146.6 92.9182C152.933 91.3219 157.433 66.8443 162.767 85.4685C170.767 87.0649 185.767 84.4043 194.1 86.5328C201.767 88.6613 210.433 70.5691 218.1 86.5328C223.767 84.9364 229.767 95.5788 234.767 92.9182C240.433 92.9182 246.433 96.6431 252.433 101.432C262.1 99.3037 273.433 91.854 283.1 101.964C289.433 104.093 296.1 100.9 302.433 101.964C309.1 92.9182 313.433 113.139 320.1 111.542C326.433 113.139 333.767 116.864 339.767 111.01C341.767 116.864 343.1 116.332 345.1 114.203C347.767 113.671 351.433 112.607 354.433 114.203C356.1 108.35 358.767 112.607 360.433 113.671C362.767 113.671 363.767 111.542 365.767 105.689C368.767 106.221 375.1 112.607 378.1 105.157C383.1 104.093 388.1 109.414 392.767 107.818C399.433 115.267 404.1 120.056 412.433 120.056C418.433 108.882 424.767 116.864 430.767 120.056C436.1 123.249 441.767 120.589 446.433 118.46C448.1 117.928 449.433 112.075 451.1 114.203C454.433 117.396 458.433 114.203 462.1 111.01C467.767 108.882 473.767 116.332 479.433 111.01C483.433 114.203 491.1 122.185 494.767 110.478C497.1 94.5146 498.1 99.8358 500.767 99.8358C506.433 93.4503 516.767 101.964 523.1 96.111C526.433 99.8358 526.1 94.5146 529.767 97.7073C535.1 92.3861 538.767 121.121 544.1 111.542C550.1 109.414 556.433 120.589 562.767 114.203C570.1 115.267 577.433 119.524 584.767 114.203C586.767 115.799 589.1 118.46 591.1 113.671C596.767 118.992 598.1 122.717 603.1 125.91C607.433 136.552 612.433 129.635 616.767 125.91C622.767 113.139 628.433 130.167 634.767 129.103C641.1 121.653 647.433 128.57 653.767 129.103C657.767 126.442 662.767 127.506 666.767 129.103C670.1 123.781 673.433 140.809 676.767 132.295C685.767 135.488 695.767 130.699 703.767 125.378C708.767 124.846 712.767 116.332 717.767 114.203C720.433 117.396 722.1 101.964 724.767 109.414C728.433 104.625 732.1 111.542 736.1 107.818C741.767 120.056 748.1 103.561 753.767 107.818C762.1 112.607 768.1 103.029 775.767 90.7897C780.433 90.2576 787.1 95.5788 792.1 89.1934C798.433 95.5788 803.767 89.1934 809.767 95.0467C811.767 92.3861 813.767 110.478 815.767 96.111C817.767 96.6431 819.433 105.157 821.433 100.9C832.1 95.0467 843.1 122.185 854.433 110.478C861.433 107.286 868.767 114.203 875.767 109.946C882.767 103.029 890.1 106.221 897.1 112.607C903.1 120.589 909.1 126.974 914.767 109.414C920.433 94.5146 923.433 101.964 929.767 104.093C941.1 103.029 952.433 101.432 963.767 104.093C970.433 107.818 976.767 105.689 983.433 104.093C989.433 101.964 994.1 99.8358 1000.1 107.286C1012.1 112.075 1023.43 101.432 1034.1 113.139C1038.77 118.46 1043.43 132.827 1048.1 122.185C1055.77 122.185 1062.77 130.699 1071.1 133.892C1080.77 139.213 1087.77 124.313 1096.77 128.57C1108.77 133.359 1120.77 115.267 1133.1 124.846C1140.77 119.524 1151.43 130.167 1158.43 124.313C1164.1 123.249 1166.77 118.992 1173.43 112.607C1179.1 104.625 1185.43 125.378 1191.1 112.607C1197.1 114.735 1202.77 114.735 1208.77 119.524C1213.1 132.295 1217.43 113.139 1221.77 118.992C1228.77 120.056 1235.77 109.946 1243.1 118.992C1250.1 118.992 1257.1 117.928 1264.43 118.992C1272.1 103.029 1279.77 125.378 1287.1 122.717C1293.77 134.956 1298.1 133.892 1305.43 134.424C1313.77 142.938 1319.43 130.699 1327.1 127.506C1334.1 128.038 1340.77 126.442 1347.77 124.846C1355.43 124.313 1362.1 122.717 1369.1 116.332C1376.77 114.735 1382.43 99.8358 1391.1 110.478C1402.43 116.864 1413.77 119.524 1424.77 110.478C1431.43 116.864 1435.77 108.882 1442.43 107.286C1451.1 99.8358 1459.43 113.139 1468.1 109.414C1476.77 111.542 1486.1 118.992 1495.1 113.139C1501.77 114.203 1506.43 115.267 1512.43 123.781C1519.43 132.295 1528.77 117.396 1536.43 125.378C1543.1 130.699 1547.43 120.056 1553.43 119.524C1559.1 120.056 1572.77 121.121 1575.77 107.286C1575.77 96.111 1585.1 41.3024 1585.1 49.8164C1582.1 63.6515 1572.77 54.6055 1568.43 55.6697Z" fill="var(--fill-0, #F6EFE9)"/>
</g>
</g>
<defs>
<filter id="filter0_d_0_72" x="0" y="4.27834e-07" width="1592.2" height="137.484" filterUnits="userSpaceOnUse" color-interpolation-filters="sRGB">
<feFlood flood-opacity="0" result="BackgroundImageFix"/>
<feColorMatrix in="SourceAlpha" type="matrix" values="0 0 0 0 0 0 0 0 0 0 0 0 0 0 0 0 0 0 127 0" result="hardAlpha"/>
<feOffset dy="-7"/>
<feGaussianBlur stdDeviation="3.55"/>
<feComposite in2="hardAlpha" operator="out"/>
<feColorMatrix type="matrix" values="0 0 0 0 0 0 0 0 0 0 0 0 0 0 0 0 0 0 0.25 0"/>
<feBlend mode="normal" in2="BackgroundImageFix" result="effect1_dropShadow_0_72"/>
<feBlend mode="normal" in="SourceGraphic" in2="effect1_dropShadow_0_72" result="shape"/>
</filter>
</defs>
</svg>
