<svg preserveAspectRatio="none" width="100%" height="100%" overflow="visible" style="display: block;" viewBox="0 0 121.749 17.2533" fill="none" xmlns="http://www.w3.org/2000/svg">
<g id="Frame 135">
<path id="Star 1" d="M8.4 0.226807L10.2859 6.03106H16.3889L11.4515 9.61829L13.3374 15.4225L8.4 11.8353L3.4626 15.4225L5.34852 9.61829L0.411125 6.03106H6.51408L8.4 0.226807Z" fill="var(--fill-0, #B83431)"/>
<path id="Star 2" d="M34.824 0.226807L36.8447 6.03106H43.3835L38.0935 9.61829L40.1141 15.4225L34.824 11.8353L29.534 15.4225L31.5546 9.61829L26.2645 6.03106H32.8034L34.824 0.226807Z" fill="var(--fill-0, #B83431)"/>
<path id="Star 3" d="M61.248 0.226807L63.134 6.03106H69.2369L64.2995 9.61829L66.1854 15.4225L61.248 11.8353L56.3107 15.4225L58.1966 9.61829L53.2592 6.03106H59.3621L61.248 0.226807Z" fill="var(--fill-0, #B83431)"/>
<g id="Group 51">
<path id="Star 4" d="M87.2987 2.8953e-06L89.2355 5.96085L95.5031 5.96085L90.4325 9.64486L92.3693 15.6057L87.2987 11.9217L82.2281 15.6057L84.1649 9.64486L79.0943 5.96085L85.3619 5.96085L87.2987 2.8953e-06Z" fill="var(--fill-0, #B1B1B1)"/>
<path id="Star 6" d="M89.2359 5.96085L87.2991 0L85.3623 5.96085H79.0947L84.1653 9.64486L82.2285 15.6057L87.2991 11.9217L89.7641 13.7103V5.96085H89.2359Z" fill="var(--fill-0, #B83431)"/>
</g>
<path id="Star 5" d="M113.349 0.226807L115.235 6.03106H121.338L116.401 9.61829L118.286 15.4225L113.349 11.8353L108.412 15.4225L110.298 9.61829L105.36 6.03106H111.463L113.349 0.226807Z" fill="var(--fill-0, #B1B1B1)"/>
</g>
</svg>
