<svg width="1440" height="126" viewBox="0 0 1440 126" fill="none" xmlns="http://www.w3.org/2000/svg">
<g filter="url(#filter0_d_276_1766)">
<path d="M-52.3334 39.0444C-48.6667 37.7754 -45.3334 36.9294 -41.6667 40.3134C-35.3334 42.8513 -30.3334 45.8123 -23.6667 44.5433C-17.6667 46.6582 -11.6667 53.4261 -5.66675 46.2352C3.33325 36.9294 12.3333 40.3134 21.3333 39.0444C33.3333 33.5455 45.3333 36.5064 57.6666 39.0444C64.3333 39.0444 67.9999 41.5823 73.9999 42.8513C76.6665 46.2352 78 49.1962 80.6666 44.1203C88 45.8123 96.6665 53.4261 104 44.1203C107.333 44.9663 110 33.9685 113.333 39.4674C116.333 44.1203 119.667 39.4674 122.667 39.0444C127.667 47.0812 128.667 39.0444 133.333 35.2375C136.667 25.5087 140 37.3524 143.333 33.9685C153.667 37.3524 164.333 31.8535 174.667 33.9685C181.333 37.3524 188.333 20.8558 194.667 33.5455C202 28.0466 208 39.8904 215.333 42.8513C218.667 51.3111 221.667 34.3915 224.667 47.0812C234.667 56.387 244.333 45.8122 254.667 50.8881C260 51.7341 265.333 58.502 270.333 48.7732C274 58.925 276.667 37.7754 280 41.1593C286 26.3546 292.333 30.1616 298.667 36.5064C306 34.8145 313 37.7754 320 39.0444C327 40.7364 334 36.0834 341.333 41.5823C347.333 40.3134 352 38.1984 357 43.6973C364.667 43.2743 372.333 49.1962 379.667 44.1203C386 50.0422 393.333 27.6236 399.667 43.6973C408 50.0422 416.333 36.9294 424.667 43.6973C433 29.3156 441.333 63.1549 449.667 43.6973C458.333 47.5042 467 36.5064 475.667 43.6973C483 29.7386 487.667 35.2375 494.667 36.9294C500.333 33.5455 506 33.9685 511.667 36.0834C515 34.8145 517.333 40.7364 520.333 31.4305C524 17.8948 526.667 22.9707 530 28.8926C534 16.6258 536.333 24.6627 540.667 24.2397C548.333 28.8926 558.667 37.3524 566 24.2397C569.333 21.2788 572 22.1247 575.667 17.4718C580 13.2419 583.333 18.3178 587.333 19.5868C593 21.7017 598.667 31.0076 605 26.7776C608.667 36.5064 611.667 22.9707 615.333 24.6627C619 14.0879 624.333 16.2029 628 24.6627C630 24.2397 631.667 28.0466 634.333 28.4696C638.667 27.6236 643.667 34.3915 648 28.8926C653 21.7017 657.333 33.5455 662 27.2006C667.667 20.4328 673.667 14.9339 680 18.3178C686.333 25.0857 693 9.43499 699.333 17.0488C707 18.3178 714.333 22.1247 722 23.3937C729.667 23.3937 737.333 23.3937 745.333 25.9317C752 30.5846 758.667 24.6627 765.333 23.8167C770.333 20.8558 773 18.7408 778 17.0488C784.667 21.2788 791 16.2029 796.667 20.4328C800.667 26.3546 804.333 25.9317 808.667 28.4696C811.667 28.4696 815.333 28.8926 818.333 28.8926C827 25.9317 838.333 31.8535 846 31.4305C851.667 38.1984 857 33.5455 863.667 33.9685C868.667 31.8535 871 40.7364 875.333 32.2765C876.333 32.6995 877.333 26.3546 878.333 29.7386C880.667 23.3937 885 27.6236 887.333 29.3156C891.333 28.0466 890 30.5846 893.333 33.1225C899.667 39.8904 905.333 31.4305 911.667 36.5064C918.667 40.7364 925.333 33.5455 932 36.9294C938.667 37.7754 945 44.9663 952 40.7364C960.333 46.6582 968 47.9272 976.667 46.2352C983 47.9272 990.667 44.9663 997 45.8122C998.667 44.9663 1000 49.6192 1001.67 48.3502C1009 53.0031 1016.67 54.2721 1024.33 50.8881C1030.33 48.3502 1036 29.1962 1042 30.8881C1049.33 25.3893 1058 26.6582 1065.33 31.3111C1072 42.7319 1076.67 45.6928 1084 38.079C1092.67 38.925 1103.33 36.387 1112 38.079C1115.67 38.925 1115.33 38.502 1118.33 33.4261C1120 36.81 1123.67 28.3502 1125.67 31.3111C1130.67 28.3502 1135 35.964 1139.33 24.1203C1141.67 20.7364 1144 25.3893 1146.67 19.0444C1150.67 20.7364 1155.33 47.9272 1159.33 38.6214C1166.33 32.2765 1172 40.7364 1178.67 41.1593C1189 46.2352 1199 40.3134 1209 39.4674C1214.33 30.5846 1215.33 33.1225 1220 33.9685C1223.33 25.0857 1223.33 33.5455 1226.33 31.8535C1231.33 33.1225 1236.33 18.7408 1241.33 23.8167C1250.67 18.3178 1263.33 8.16602 1273.33 22.1247C1278.33 21.2788 1288 21.7017 1292.33 21.7017C1293.67 19.1638 1294.33 16.6258 1295.67 16.6258C1297 7.32004 1299.33 10.704 1301 12.8189C1307.33 3.51311 1313.67 11.127 1320.33 9.85798C1325.33 11.127 1328.67 17.4718 1333.33 8.16602C1339.67 5.20508 1347 8.16602 1353.67 7.74303C1355.67 4.78209 1358 6.05106 1360 8.16602C1362.33 6.89705 1363 10.704 1365.67 12.8189C1369 16.6258 1373.67 11.9729 1377.33 12.8189C1384.67 9.85799 1391.67 6.89705 1399 12.8189C1408 15.3569 1414.67 16.2029 1422.67 20.8558C1431 22.1247 1438.33 26.7776 1447.33 25.0857C1452 26.3546 1459 21.2788 1463.67 24.6627C1466.67 33.9685 1467.33 31.8535 1469.67 30.5846C1471.33 29.3156 1473 33.9685 1474.67 32.6995C1483.33 30.5846 1490.67 41.1593 1499.67 36.9294C1499.67 38.1984 1509 71.6147 1509 70.3457C1505.67 76.2676 1504 73.3067 1501 74.5757C1498.33 73.3067 1495.33 72.8837 1492.33 74.9986C1487.67 69.4998 1482 79.6516 1477.33 74.9986C1472.33 74.9986 1468.33 83.8815 1463.33 81.7665C1457 83.4585 1451 78.8056 1445.33 78.8056C1438 74.9987 1431.67 65.2699 1423.33 58.079C1421.67 60.617 1418 54.2721 1416.33 58.079C1411 57.233 1404 47.9272 1399.33 59.348C1395 59.348 1391 57.233 1386 62.3089C1382.33 53.0031 1384.33 56.81 1379.67 55.964C1375.67 59.348 1371.17 50.4029 1367.17 58.4397C1360.83 57.1708 1358.67 47.9272 1353.33 62.7319C1345.33 64.0009 1330.33 61.8859 1322 63.5779C1314.33 65.2699 1305.67 50.8881 1298 63.5779C1292.33 62.3089 1286.33 70.7687 1281.33 68.6538C1275.67 68.6538 1269.67 71.6147 1263.67 75.4216C1254 73.7297 1242.67 67.8078 1233 75.8446C1226.67 77.5366 1220 74.9986 1213.67 75.8446C1207 68.6538 1202.67 84.7275 1196 83.4585C1189.67 84.7275 1182.33 87.6884 1176.33 83.0355C1174.33 87.6884 1173 87.2654 1171 85.5734C1168.33 85.1504 1164.67 84.3045 1161.67 85.5734C1160 80.9205 1157.33 84.3045 1155.67 85.1505C1153.33 85.1505 1152.33 83.4585 1150.33 78.8056C1147.33 79.2286 1141 84.3045 1138 78.3826C1133 77.5366 1128 81.7665 1123.33 80.4975C1116.67 86.4194 1112 90.2263 1103.67 90.2263C1097.67 81.3435 1091.33 87.6884 1085.33 90.2263C1080 92.7643 1074.33 90.6493 1069.67 88.9574C1068 88.5344 1066.67 83.8815 1065 85.5734C1061.67 88.1114 1057.67 85.5734 1054 83.0355C1048.33 81.3435 1042.33 87.2654 1036.67 83.0355C1032.67 85.5734 1025 91.9183 1021.33 82.6125C1019 69.9228 1018 74.1527 1015.33 74.1527C1009.67 69.0768 999.333 75.8446 993 71.1917C989.667 74.1527 990 69.9228 986.333 72.4607C981 68.2308 977.333 91.0723 972 83.4585C966 81.7665 959.667 90.6493 953.333 85.5734C946 86.4194 938.667 89.8033 931.333 85.5734C929.333 86.8424 927 88.9574 925 85.1505C919.333 89.3804 918 92.3413 913 94.8792C908.667 103.339 903.667 97.8402 899.333 94.8792C893.333 84.7275 887.667 98.2632 881.333 97.4172C875 91.4953 868.667 96.9942 862.333 97.4172C858.333 95.3022 853.333 96.1482 849.333 97.4172C846 93.1873 842.667 106.723 839.333 99.9551C830.333 102.493 820.333 98.6862 812.333 94.4563C807.333 94.0333 803.333 87.2654 798.333 85.5734C795.667 88.1114 794 75.8446 791.333 81.7665C787.667 77.9596 784 83.4585 780 80.4975C774.333 90.2263 768 77.1136 762.333 80.4975C754 84.3045 748 76.6906 740.333 66.9618C735.667 66.5388 729 70.7687 724 65.6928C717.667 70.7687 712.333 65.6928 706.333 70.3457C704.333 68.2308 702.333 82.6125 700.333 71.1917C698.333 71.6147 696.667 78.3826 694.667 74.9986C684 70.3457 673 91.9183 661.667 82.6125C654.667 80.0746 647.333 85.5734 640.333 82.1895C633.333 76.6906 626 79.2286 619 84.3045C613 90.6493 607 95.7252 601.333 81.7665C595.667 69.9228 592.667 75.8446 586.333 77.5366C575 76.6906 563.667 75.4216 552.333 77.5366C545.667 80.4975 539.333 78.8056 532.667 77.5366C526.667 75.8446 522 74.1527 516 80.0746C504 83.8815 492.667 75.4216 482 84.7275C477.333 88.9574 472.667 100.378 468 91.9183C460.333 91.9183 453.333 98.6862 445 101.224C435.333 105.454 428.333 93.6103 419.333 96.9942C407.333 100.801 395.333 86.4194 383 94.0333C375.333 89.8034 364.667 98.2632 357.667 93.6103C352 92.7643 349.333 89.3804 342.667 84.3045C337 77.9596 330.667 94.4563 325 84.3045C319 85.9964 313.333 85.9964 307.333 89.8033C303 99.9551 298.667 84.7275 294.333 89.3804C287.333 90.2263 280.333 82.1895 273 89.3804C266 89.3804 259 88.5344 251.667 89.3804C244 76.6906 236.333 94.4563 229 92.3413C222.333 102.07 218 101.224 210.667 101.647C202.333 108.415 196.667 98.6862 189 96.1482C182 96.5712 175.333 95.3022 168.333 94.0333C160.667 93.6103 154 92.3413 147 87.2654C139.333 85.9964 133.667 74.1527 125 82.6125C113.667 87.6884 102.333 89.8034 91.3333 82.6125C84.6666 87.6884 80.3333 81.3435 73.6666 80.0746C65 74.1527 56.6665 84.7274 47.9999 81.7665C39.3333 83.4585 30 89.3804 21 84.7275C14.3334 85.5734 9.66663 86.4194 3.66663 93.1873C-3.33337 99.9551 -12.6669 88.1114 -20.3335 94.4563C-27.0001 98.6862 -31.3334 90.2263 -37.3334 89.8033C-43 90.2263 -56.6667 91.0723 -59.6667 80.0746C-59.6667 71.1917 -69 27.6236 -69 34.3915C-66 45.3893 -56.6667 38.1984 -52.3334 39.0444Z" fill="#592C33"/>
</g>
<defs>
<filter id="filter0_d_276_1766" x="-83" y="0" width="1606" height="126" filterUnits="userSpaceOnUse" color-interpolation-filters="sRGB">
<feFlood flood-opacity="0" result="BackgroundImageFix"/>
<feColorMatrix in="SourceAlpha" type="matrix" values="0 0 0 0 0 0 0 0 0 0 0 0 0 0 0 0 0 0 127 0" result="hardAlpha"/>
<feOffset dy="8"/>
<feGaussianBlur stdDeviation="7"/>
<feComposite in2="hardAlpha" operator="out"/>
<feColorMatrix type="matrix" values="0 0 0 0 0 0 0 0 0 0 0 0 0 0 0 0 0 0 0.2 0"/>
<feBlend mode="normal" in2="BackgroundImageFix" result="effect1_dropShadow_276_1766"/>
<feBlend mode="normal" in="SourceGraphic" in2="effect1_dropShadow_276_1766" result="shape"/>
</filter>
</defs>
</svg>
