<svg preserveAspectRatio="none" width="100%" height="100%" overflow="visible" style="display: block;" viewBox="0 0 1606 126" fill="none" xmlns="http://www.w3.org/2000/svg">
<g id="Vector" filter="url(#filter0_d_0_4)">
<path d="M1575.33 39.0444C1571.67 37.7754 1568.33 36.9294 1564.67 40.3134C1558.33 42.8513 1553.33 45.8123 1546.67 44.5433C1540.67 46.6582 1534.67 53.4261 1528.67 46.2352C1519.67 36.9294 1510.67 40.3134 1501.67 39.0444C1489.67 33.5455 1477.67 36.5064 1465.33 39.0444C1458.67 39.0444 1455 41.5823 1449 42.8513C1446.33 46.2352 1445 49.1962 1442.33 44.1203C1435 45.8123 1426.33 53.4261 1419 44.1203C1415.67 44.9663 1413 33.9685 1409.67 39.4674C1406.67 44.1203 1403.33 39.4674 1400.33 39.0444C1395.33 47.0812 1394.33 39.0444 1389.67 35.2375C1386.33 25.5087 1383 37.3524 1379.67 33.9685C1369.33 37.3524 1358.67 31.8535 1348.33 33.9685C1341.67 37.3524 1334.67 20.8558 1328.33 33.5455C1321 28.0466 1315 39.8904 1307.67 42.8513C1304.33 51.3111 1301.33 34.3915 1298.33 47.0812C1288.33 56.387 1278.67 45.8122 1268.33 50.8881C1263 51.7341 1257.67 58.502 1252.67 48.7732C1249 58.925 1246.33 37.7754 1243 41.1593C1237 26.3546 1230.67 30.1616 1224.33 36.5064C1217 34.8145 1210 37.7754 1203 39.0444C1196 40.7364 1189 36.0834 1181.67 41.5823C1175.67 40.3134 1171 38.1984 1166 43.6973C1158.33 43.2743 1150.67 49.1962 1143.33 44.1203C1137 50.0422 1129.67 27.6236 1123.33 43.6973C1115 50.0422 1106.67 36.9294 1098.33 43.6973C1090 29.3156 1081.67 63.1549 1073.33 43.6973C1064.67 47.5042 1056 36.5064 1047.33 43.6973C1040 29.7386 1035.33 35.2375 1028.33 36.9294C1022.67 33.5455 1017 33.9685 1011.33 36.0834C1008 34.8145 1005.67 40.7364 1002.67 31.4305C999 17.8948 996.333 22.9707 993 28.8926C989 16.6258 986.667 24.6627 982.333 24.2397C974.667 28.8926 964.333 37.3524 957 24.2397C953.667 21.2788 951 22.1247 947.333 17.4718C943 13.2419 939.667 18.3178 935.667 19.5868C930 21.7017 924.333 31.0076 918 26.7776C914.333 36.5064 911.333 22.9707 907.667 24.6627C904 14.0879 898.667 16.2029 895 24.6627C893 24.2397 891.333 28.0466 888.667 28.4696C884.333 27.6236 879.333 34.3915 875 28.8926C870 21.7017 865.667 33.5455 861 27.2006C855.333 20.4328 849.333 14.9339 843 18.3178C836.667 25.0857 830 9.43499 823.667 17.0488C816 18.3178 808.667 22.1247 801 23.3937C793.333 23.3937 785.667 23.3937 777.667 25.9317C771 30.5846 764.333 24.6627 757.667 23.8167C752.667 20.8558 750 18.7408 745 17.0488C738.333 21.2788 732 16.2029 726.333 20.4328C722.333 26.3546 718.667 25.9317 714.333 28.4696C711.333 28.4696 707.667 28.8926 704.667 28.8926C696 25.9317 684.667 31.8535 677 31.4305C671.333 38.1984 666 33.5455 659.333 33.9685C654.333 31.8535 652 40.7364 647.667 32.2765C646.667 32.6995 645.667 26.3546 644.667 29.7386C642.333 23.3937 638 27.6236 635.667 29.3156C631.667 28.0466 633 30.5846 629.667 33.1225C623.333 39.8904 617.667 31.4305 611.333 36.5064C604.333 40.7364 597.667 33.5455 591 36.9294C584.333 37.7754 578 44.9663 571 40.7364C562.667 46.6582 555 47.9272 546.333 46.2352C540 47.9272 532.333 44.9663 526 45.8122C524.333 44.9663 523 49.6192 521.333 48.3502C514 53.0031 506.333 54.2721 498.667 50.8881C492.667 48.3502 487 29.1962 481 30.8881C473.667 25.3893 465 26.6582 457.667 31.3111C451 42.7319 446.333 45.6928 439 38.079C430.333 38.925 419.667 36.387 411 38.079C407.333 38.925 407.667 38.502 404.667 33.4261C403 36.81 399.333 28.3502 397.333 31.3111C392.333 28.3502 388 35.964 383.667 24.1203C381.333 20.7364 379 25.3893 376.333 19.0444C372.333 20.7364 367.667 47.9272 363.667 38.6214C356.667 32.2765 351 40.7364 344.333 41.1593C334 46.2352 324 40.3134 314 39.4674C308.667 30.5846 307.667 33.1225 303 33.9685C299.667 25.0857 299.667 33.5455 296.667 31.8535C291.667 33.1225 286.667 18.7408 281.667 23.8167C272.333 18.3178 259.667 8.16602 249.667 22.1247C244.667 21.2788 235 21.7017 230.667 21.7017C229.333 19.1638 228.667 16.6258 227.333 16.6258C226 7.32004 223.667 10.704 222 12.8189C215.667 3.51311 209.333 11.127 202.667 9.85798C197.667 11.127 194.333 17.4718 189.667 8.16602C183.333 5.20508 176 8.16602 169.333 7.74303C167.333 4.78209 165 6.05106 163 8.16602C160.667 6.89705 160 10.704 157.333 12.8189C154 16.6258 149.333 11.9729 145.667 12.8189C138.333 9.85799 131.333 6.89705 124 12.8189C115 15.3569 108.333 16.2029 100.333 20.8558C92 22.1247 84.6667 26.7776 75.6667 25.0857C71 26.3546 64 21.2788 59.3333 24.6627C56.3333 33.9685 55.6667 31.8535 53.3333 30.5846C51.6667 29.3156 50 33.9685 48.3333 32.6995C39.6667 30.5846 32.3333 41.1593 23.3333 36.9294C23.3333 38.1984 14 71.6147 14 70.3457C17.3333 76.2676 19 73.3067 22 74.5757C24.6667 73.3067 27.6667 72.8837 30.6667 74.9986C35.3333 69.4998 41 79.6516 45.6667 74.9986C50.6667 74.9986 54.6667 83.8815 59.6667 81.7665C66 83.4585 72 78.8056 77.6667 78.8056C85 74.9987 91.3333 65.2699 99.6667 58.079C101.333 60.617 105 54.2721 106.667 58.079C112 57.233 119 47.9272 123.667 59.348C128 59.348 132 57.233 137 62.3089C140.667 53.0031 138.667 56.81 143.333 55.964C147.333 59.348 151.833 50.4029 155.833 58.4397C162.166 57.1708 164.333 47.9272 169.667 62.7319C177.667 64.0009 192.667 61.8859 201 63.5779C208.667 65.2699 217.333 50.8881 225 63.5779C230.667 62.3089 236.667 70.7687 241.667 68.6538C247.333 68.6538 253.333 71.6147 259.333 75.4216C269 73.7297 280.333 67.8078 290 75.8446C296.333 77.5366 303 74.9987 309.333 75.8446C316 68.6538 320.333 84.7275 327 83.4585C333.333 84.7275 340.667 87.6884 346.667 83.0355C348.667 87.6884 350 87.2654 352 85.5734C354.667 85.1504 358.333 84.3045 361.333 85.5734C363 80.9205 365.667 84.3045 367.333 85.1505C369.667 85.1505 370.667 83.4585 372.667 78.8056C375.667 79.2286 382 84.3045 385 78.3826C390 77.5366 395 81.7665 399.667 80.4975C406.333 86.4194 411 90.2263 419.333 90.2263C425.333 81.3435 431.667 87.6884 437.667 90.2263C443 92.7643 448.667 90.6493 453.333 88.9574C455 88.5344 456.333 83.8815 458 85.5734C461.333 88.1114 465.333 85.5734 469 83.0355C474.667 81.3435 480.667 87.2654 486.333 83.0355C490.333 85.5734 498 91.9183 501.667 82.6125C504 69.9228 505 74.1527 507.667 74.1527C513.333 69.0768 523.667 75.8446 530 71.1917C533.333 74.1527 533 69.9228 536.667 72.4607C542 68.2308 545.667 91.0723 551 83.4585C557 81.7665 563.333 90.6493 569.667 85.5734C577 86.4194 584.333 89.8033 591.667 85.5734C593.667 86.8424 596 88.9574 598 85.1505C603.667 89.3804 605 92.3413 610 94.8792C614.333 103.339 619.333 97.8402 623.667 94.8792C629.667 84.7275 635.333 98.2632 641.667 97.4172C648 91.4953 654.333 96.9942 660.667 97.4172C664.667 95.3022 669.667 96.1482 673.667 97.4172C677 93.1873 680.333 106.723 683.667 99.9551C692.667 102.493 702.667 98.6862 710.667 94.4563C715.667 94.0333 719.667 87.2654 724.667 85.5734C727.333 88.1114 729 75.8446 731.667 81.7665C735.333 77.9596 739 83.4585 743 80.4975C748.667 90.2263 755 77.1136 760.667 80.4975C769 84.3045 775 76.6906 782.667 66.9618C787.333 66.5388 794 70.7687 799 65.6928C805.333 70.7687 810.667 65.6928 816.667 70.3457C818.667 68.2308 820.667 82.6125 822.667 71.1917C824.667 71.6147 826.333 78.3826 828.333 74.9986C839 70.3457 850 91.9183 861.333 82.6125C868.333 80.0746 875.667 85.5734 882.667 82.1895C889.667 76.6906 897 79.2286 904 84.3045C910 90.6493 916 95.7252 921.667 81.7665C927.333 69.9228 930.333 75.8446 936.667 77.5366C948 76.6906 959.333 75.4216 970.667 77.5366C977.333 80.4975 983.667 78.8056 990.333 77.5366C996.333 75.8446 1001 74.1527 1007 80.0746C1019 83.8815 1030.33 75.4216 1041 84.7275C1045.67 88.9574 1050.33 100.378 1055 91.9183C1062.67 91.9183 1069.67 98.6862 1078 101.224C1087.67 105.454 1094.67 93.6103 1103.67 96.9942C1115.67 100.801 1127.67 86.4194 1140 94.0333C1147.67 89.8034 1158.33 98.2632 1165.33 93.6103C1171 92.7643 1173.67 89.3804 1180.33 84.3045C1186 77.9596 1192.33 94.4563 1198 84.3045C1204 85.9964 1209.67 85.9964 1215.67 89.8033C1220 99.9551 1224.33 84.7275 1228.67 89.3804C1235.67 90.2263 1242.67 82.1895 1250 89.3804C1257 89.3804 1264 88.5344 1271.33 89.3804C1279 76.6906 1286.67 94.4563 1294 92.3413C1300.67 102.07 1305 101.224 1312.33 101.647C1320.67 108.415 1326.33 98.6862 1334 96.1482C1341 96.5712 1347.67 95.3022 1354.67 94.0333C1362.33 93.6103 1369 92.3413 1376 87.2654C1383.67 85.9964 1389.33 74.1527 1398 82.6125C1409.33 87.6884 1420.67 89.8034 1431.67 82.6125C1438.33 87.6884 1442.67 81.3435 1449.33 80.0746C1458 74.1527 1466.33 84.7274 1475 81.7665C1483.67 83.4585 1493 89.3804 1502 84.7275C1508.67 85.5734 1513.33 86.4194 1519.33 93.1873C1526.33 99.9551 1535.67 88.1114 1543.33 94.4563C1550 98.6862 1554.33 90.2263 1560.33 89.8033C1566 90.2263 1579.67 91.0723 1582.67 80.0746C1582.67 71.1917 1592 27.6236 1592 34.3915C1589 45.3893 1579.67 38.1984 1575.33 39.0444Z" fill="var(--fill-0, #592C33)"/>
</g>
<defs>
<filter id="filter0_d_0_4" x="0" y="-2.21141e-08" width="1606" height="126" filterUnits="userSpaceOnUse" color-interpolation-filters="sRGB">
<feFlood flood-opacity="0" result="BackgroundImageFix"/>
<feColorMatrix in="SourceAlpha" type="matrix" values="0 0 0 0 0 0 0 0 0 0 0 0 0 0 0 0 0 0 127 0" result="hardAlpha"/>
<feOffset dy="8"/>
<feGaussianBlur stdDeviation="7"/>
<feComposite in2="hardAlpha" operator="out"/>
<feColorMatrix type="matrix" values="0 0 0 0 0 0 0 0 0 0 0 0 0 0 0 0 0 0 0.2 0"/>
<feBlend mode="normal" in2="BackgroundImageFix" result="effect1_dropShadow_0_4"/>
<feBlend mode="normal" in="SourceGraphic" in2="effect1_dropShadow_0_4" result="shape"/>
</filter>
</defs>
</svg>
