<svg width="122" height="18" viewBox="0 0 122 18" fill="none" xmlns="http://www.w3.org/2000/svg">
<path d="M8.4 0.226807L10.2859 6.03106H16.3889L11.4515 9.61829L13.3374 15.4225L8.4 11.8353L3.4626 15.4225L5.34852 9.61829L0.411125 6.03106H6.51408L8.4 0.226807Z" fill="#B83431"/>
<path d="M34.8242 0.226807L36.8448 6.03106H43.3837L38.0937 9.61829L40.1143 15.4225L34.8242 11.8353L29.5342 15.4225L31.5548 9.61829L26.2647 6.03106H32.8036L34.8242 0.226807Z" fill="#B83431"/>
<path d="M61.2477 0.226807L63.1336 6.03106H69.2365L64.2991 9.61829L66.1851 15.4225L61.2477 11.8353L56.3103 15.4225L58.1962 9.61829L53.2588 6.03106H59.3617L61.2477 0.226807Z" fill="#B83431"/>
<path d="M87.2985 0L89.2353 5.96085L95.5029 5.96085L90.4323 9.64486L92.3691 15.6057L87.2985 11.9217L82.2279 15.6057L84.1647 9.64486L79.0941 5.96085L85.3617 5.96085L87.2985 0Z" fill="#B1B1B1"/>
<path d="M89.235 5.96085L87.2982 0L85.3614 5.96085H79.0938L84.1644 9.64486L82.2276 15.6057L87.2982 11.9217L89.7631 13.7103V5.96085H89.235Z" fill="#B83431"/>
<path d="M113.349 0.226807L115.235 6.03106H121.338L116.401 9.61829L118.287 15.4225L113.349 11.8353L108.412 15.4225L110.298 9.61829L105.36 6.03106H111.463L113.349 0.226807Z" fill="#B1B1B1"/>
</svg>
