<svg preserveAspectRatio="none" width="100%" height="100%" overflow="visible" style="display: block;" viewBox="0 0 170.308 170.308" fill="none" xmlns="http://www.w3.org/2000/svg">
<g id="image 19 [Vectorized]">
<path id="Union" d="M42.9546 41.0373C43.2428 40.9814 43.4743 41.0265 43.6928 41.2043C43.9955 42.3845 41.3955 45.5541 40.6089 46.3781C39.5811 47.4545 38.2542 48.4947 37.0893 49.4289C37.0882 49.4297 37.0865 49.4301 37.0854 49.4309L37.0864 49.8195C36.9153 49.9423 34.8252 51.8817 34.6225 52.1203C34.6186 52.1261 34.6148 52.1321 34.6108 52.1379C34.6767 52.0205 36.9134 49.9464 37.0903 49.8195C38.5152 48.7685 40.3545 48.2177 42.1157 48.4748C42.2732 48.4974 42.431 48.5237 42.5874 48.5529C40.7779 51.1069 38.705 52.6072 35.7173 53.6311C34.7462 53.9639 33.7721 54.1556 32.8266 54.4524C32.1881 55.2193 31.5803 56.1175 30.9614 56.9201L30.9594 56.9211L31.1128 56.9895C30.9326 57.2273 30.8714 57.3375 30.6196 57.5022L30.6216 57.5051C30.8764 57.3391 30.9365 57.2276 31.1176 56.9885C33.1094 54.9527 35.2285 54.0876 38.063 55.0227C36.322 57.9266 32.2674 59.636 29.0122 59.8899C28.3498 60.9051 27.5155 62.1914 27.0073 63.2824C28.3704 61.4911 29.8068 60.6965 32.063 60.3723C32.5996 60.2951 33.4919 60.2175 34.0102 60.3488C34.5537 60.9575 32.0848 62.8672 31.6421 63.175C29.9066 64.3811 28.0965 65.0064 25.9936 65.1232C25.4137 66.5155 24.7223 67.9407 24.1684 69.3078C25.3854 67.5073 26.6458 66.0338 28.893 65.5471C29.4605 65.4242 30.5052 65.3371 30.9878 65.6467C31.0026 66.1421 29.978 67.3881 29.6118 67.7727C27.9008 69.5695 25.8264 70.4804 23.5229 71.2932C23.2385 72.1208 22.8082 73.3981 22.644 74.2512C23.6887 72.0804 25.5076 71.0051 27.7378 70.2268C27.9258 70.1612 28.1143 70.0966 28.3032 70.0334C27.4007 73.3335 26.3613 75.3436 23.7026 77.6682C23.1674 78.1361 22.298 78.8389 21.6831 79.1828C21.6267 79.2144 21.5692 79.2448 21.5112 79.2736C21.4088 80.0308 21.2035 81.133 21.1694 81.8488L21.1684 81.8498C21.2137 81.9512 21.2499 82.0528 21.312 82.1399C21.2504 82.4424 21.2288 82.6932 21.0581 82.9455L21.0591 82.9475C21.2307 82.6947 21.2513 82.442 21.313 82.1389C22.0675 79.8798 24.4262 77.8296 26.5971 76.9563C25.7147 82.3288 24.3772 83.9381 20.73 87.76L20.688 88.8322C20.6863 88.8354 20.6857 88.8394 20.6841 88.843C20.7068 89.5709 20.64 91.5353 20.7719 92.0666C20.814 92.4414 20.8121 92.4324 20.7407 92.8039L20.685 92.8059L20.686 92.8068L20.7446 92.8039C20.816 92.4324 20.8179 92.4413 20.7759 92.0666C21.1285 89.522 22.2022 87.085 24.3091 85.5158C24.5699 85.3212 24.9714 85.0112 25.2837 84.9621C25.3284 85.027 25.3934 85.093 25.4018 85.177C25.7625 88.7909 24.4797 92.2284 22.1567 94.9768C21.7888 95.4116 21.4371 95.8951 21.1147 96.3508C21.2299 96.9088 21.3 97.751 21.3852 98.343C21.5416 99.449 21.7831 100.541 22.1089 101.61C22.1182 101.211 22.0353 100.546 21.9975 100.114C21.7803 97.6306 22.8456 95.7409 24.3823 93.8732C24.5568 93.6613 24.7561 93.4907 25.0337 93.4807C25.4523 93.7701 25.5105 95.3063 25.561 95.7902C25.9157 99.1904 24.719 102.02 23.1909 104.981C23.4012 105.521 24.3168 107.98 24.5649 108.322C24.5901 108.174 24.2861 107.079 24.2544 106.492C24.1542 104.64 25.2444 102.023 26.477 100.7C27.278 101.928 27.5731 103.277 27.7856 104.705C28.1593 107.217 27.3937 109.627 26.4126 111.904C27.0023 112.897 27.7401 114.132 28.3696 115.072C28.1173 114.324 27.8835 113.933 27.7544 113.098C27.3882 110.727 28.0287 108.696 29.354 106.779C31.6279 110.586 31.4259 114.046 30.726 118.193C31.5347 119.068 32.2577 119.998 33.0796 120.863C32.4975 119.904 31.8803 118.902 31.8003 117.747C31.7365 116.827 32.0143 113.15 33.2124 113.141C33.2929 113.204 33.378 113.265 33.436 113.351C35.5956 116.526 35.7869 119.468 35.2788 123.071C35.9883 123.752 36.7018 124.429 37.4184 125.102L37.2671 124.813C36.3577 123.066 36.4161 120.737 37.3452 119.011C37.5059 119.152 37.6639 119.296 37.8188 119.444C40.2006 121.726 40.6844 124.498 40.7534 127.642C41.2704 128.258 43.3831 129.632 44.1645 130.175C42.5286 128.539 42.2701 126.863 42.4682 124.59C42.4846 124.404 42.5562 124.394 42.6938 124.325C43.1561 124.404 43.6052 124.694 43.9731 124.985C46.5046 126.98 47.0021 129.161 47.4272 132.122L49.2788 133.13C49.1391 133.368 49.0854 133.508 48.8559 133.662C48.2184 133.776 47.2138 133.031 46.601 132.671C43.8634 133.632 40.2713 134.489 37.5776 133.302C36.9408 133.022 34.8211 132.12 34.5405 131.479C34.9808 130.562 40.0324 129.844 41.1626 129.889C41.5723 129.906 42.4103 130.158 42.8286 130.283C42.0931 129.756 41.0562 129.173 40.4096 128.571C38.8254 128.935 37.3667 129.025 35.7368 129.075C32.9426 129.162 30.5028 127.694 28.5639 125.748C28.7271 125.507 28.9344 125.153 29.2114 125.082C31.5388 124.487 34.6356 124.677 36.7876 125.585C36.1106 125.026 35.4642 124.535 34.8657 123.89C30.1439 124.47 25.9375 123.723 23.062 119.611C25.9603 118.925 29.1514 119.106 31.7788 120.59C31.0359 119.901 30.63 119.43 30.0092 118.629C28.7261 118.593 26.8695 118.169 25.5932 117.902C22.7268 117.301 20.5762 115.542 19.0561 113.035C19.2632 113.025 19.471 113.018 19.6782 113.013C22.5239 112.951 25.6029 113.621 27.7104 115.644C27.3137 114.857 26.2406 113.334 25.7075 112.561C22.5046 111.242 18.8954 109.909 17.1079 106.848C16.8142 106.345 15.91 104.844 16.0317 104.304C16.5651 103.964 17.307 104.333 17.8696 104.526C19.7247 105.163 21.8402 106.152 23.2339 107.55C22.9078 106.68 22.5713 105.813 22.2251 104.951C19.3421 103.245 16.9629 101.976 15.9135 98.5803C15.7253 97.9716 15.2014 96.1148 15.4663 95.5842C15.8289 95.4397 16.2466 95.6589 16.5542 95.8518C18.3024 96.9503 19.8465 98.3225 20.9096 100.093C20.5606 98.9963 20.535 98.606 20.3589 97.507C18.7409 95.8174 16.785 94.0134 15.7729 91.8889C15.3291 90.9567 14.543 86.9833 15.271 86.3488C15.3318 86.3505 15.4219 86.3483 15.4692 86.384C17.1658 87.6921 19.0514 89.7808 19.811 91.76C19.7726 91.084 19.7827 90.4341 19.7876 89.759C17.4766 87.2402 15.2005 84.8542 15.2475 81.2678C15.2543 80.7578 15.2207 79.9586 15.5825 79.5871C15.7229 79.576 15.8594 79.5543 15.9809 79.6623C17.6091 81.1099 19.2162 83.2573 19.893 85.3371C19.9374 84.6428 19.9802 84.057 20.0717 83.3693C17.7625 79.5604 15.964 77.1897 17.4145 72.5607C19.0443 73.8025 20.1119 76.158 20.7817 78.0402C20.9234 77.5492 21.064 77.074 21.1782 76.5754C20.2415 74.8855 19.427 72.7948 18.9829 70.9328C18.5436 69.0905 19.1059 67.0305 19.8452 65.3342C21.551 67.4528 21.9572 68.9807 22.6108 71.5568C22.7385 70.8155 22.9303 70.208 23.143 69.4904C22.5343 67.5295 21.5332 65.6428 21.6509 63.5471C21.6966 62.733 22.2723 59.1355 23.3501 59.4631C24.2865 60.4034 24.9531 64.0318 24.9995 65.4289L25.4223 64.3234C24.8822 61.4467 23.9075 58.7089 25.0259 55.8283C25.469 54.6868 25.8344 53.9517 26.644 53.0373C27.7036 54.8876 27.6458 58.5054 27.5385 60.5754L28.105 59.5285C27.9872 58.8371 27.9191 58.3793 27.8784 57.6809C27.6575 53.8999 27.8467 51.7476 30.4907 48.8088C30.5032 48.8402 30.5162 48.8721 30.5288 48.9035L30.5884 49.0617C31.4566 51.3326 31.2165 53.6211 30.685 55.9084C30.9101 55.5823 31.1477 55.1983 31.3657 54.8625C31.3435 50.591 31.3379 47.3279 34.8755 44.3576C35.9103 47.1345 34.8783 49.7234 33.4878 52.1525C33.882 51.7111 35.2438 49.9679 35.5464 49.3889C36.3618 47.827 36.8943 46.5715 38.0512 45.0949C39.188 43.6441 40.9984 41.4169 42.9546 41.0373ZM126.646 41.2434C128.131 40.026 131.481 44.0569 132.296 45.1086C133.759 46.9939 134.408 48.9934 135.848 50.8928C136.08 51.2185 136.215 51.4271 136.484 51.6848V51.6838C136.215 51.4264 136.081 51.2182 135.849 50.8928L136.085 50.7678L135.898 50.3957C135.007 48.5203 134.836 46.3774 135.427 44.3772C138.047 46.4144 138.763 48.7069 138.9 51.8918L139.204 51.6106C139.179 53.5653 139.194 53.954 139.64 55.8859L139.642 55.8889C139.196 53.9542 139.18 53.5663 139.205 51.6106C139.367 50.6671 139.496 49.7078 139.819 48.8068C141.81 50.8399 142.557 52.9159 142.528 55.7072C142.516 57.0225 142.425 58.3358 142.253 59.6399L142.814 60.509C142.666 58.912 142.737 54.5742 143.539 53.342C144.183 52.9562 144.66 54.3979 144.895 54.8332C146.69 58.1593 145.484 60.9426 144.932 64.3303C145.103 64.7669 145.224 65.0545 145.434 65.4787C145.339 64.2833 146.15 59.8148 147.126 59.3586C147.52 59.5261 148.022 60.5255 148.185 60.9387C149.398 64.0132 148.242 66.5895 147.203 69.4885C147.385 70.1099 147.66 70.9562 147.791 71.5725C148.079 70.03 149.091 66.6478 150.272 65.6223C150.405 65.5871 150.499 65.5261 150.567 65.6047C151.129 66.2565 151.425 68.3904 151.484 69.1711C151.687 71.8224 150.12 74.3265 149.174 76.6545C149.316 77.1398 149.479 77.66 149.607 78.1457C150.139 76.0659 151.28 73.9802 152.899 72.552C154.53 76.9786 152.401 79.7419 150.281 83.3772L150.491 85.3C150.951 83.7434 151.719 82.6678 152.727 81.4065C153.067 80.9818 154.143 79.6006 154.66 79.5275C154.874 79.6692 154.929 79.8292 154.975 80.0891C155.752 84.4633 153.001 86.7677 150.569 89.7863C150.551 90.4465 150.524 91.1067 150.487 91.7668C151.436 89.7694 153.092 87.5949 154.956 86.3791L155.131 86.3693C155.507 86.9599 155.195 89.6591 155.054 90.3801C154.46 93.4335 151.867 95.3178 150.057 97.5754C149.993 97.656 149.555 99.7525 149.416 100.185C150.484 98.2399 152.334 96.6147 154.356 95.5744C154.554 95.473 154.685 95.5222 154.869 95.6037C155.176 96.1716 154.659 97.6876 154.512 98.2981C153.953 100.624 151.977 102.882 149.83 103.923C147.32 105.14 148.121 105.77 146.939 107.764C148.475 106.099 150.609 105.099 152.75 104.456C153.113 104.347 153.941 104.098 154.297 104.142C154.45 104.54 154.143 105.041 153.981 105.44C152.336 109.479 148.457 111.082 144.579 112.588C143.922 113.627 143.254 114.659 142.577 115.684C145.093 113.381 147.926 112.991 151.244 113.014C150.078 115.228 148.089 116.895 145.706 117.655C144.587 118.001 141.517 118.622 140.339 118.649C139.662 119.483 139.281 119.924 138.504 120.655C141.108 119.023 144.305 119.017 147.234 119.58C146.278 121.258 143.793 123.097 141.935 123.6C140.092 124.1 137.359 124.138 135.475 123.89C134.758 124.585 134.329 125.043 133.473 125.582C135.765 124.764 137.709 124.63 140.131 124.862C140.823 124.928 141.574 124.987 141.715 125.793C140.885 126.843 138.749 128.174 137.487 128.633C135.384 129.396 132.067 129.022 129.914 128.589C129.269 129.14 128.225 129.809 127.501 130.265C130.156 129.503 133.534 130.223 135.955 131.398C132.511 134.669 127.893 134.245 123.776 132.658C123.062 133.042 122.277 133.448 121.584 133.857C121.423 133.608 121.253 133.356 121.1 133.104C121.735 132.735 122.335 132.459 122.957 132.114C123.195 129.462 123.966 127.016 126.057 125.227C126.39 124.942 127.274 124.258 127.701 124.288C127.889 124.466 127.895 124.733 127.899 124.986C127.93 127.016 127.834 128.445 126.39 129.956C126.324 130.025 126.258 130.094 126.192 130.162C127.175 129.492 128.746 128.467 129.63 127.682C129.542 124.68 130.277 121.672 132.416 119.523C132.677 119.262 132.675 119.24 132.992 119.225C133.258 119.361 133.436 119.547 133.491 119.845C133.846 121.762 133.854 123.483 132.885 125.173C133.453 124.613 134.545 123.613 135.031 123.064C134.686 119.58 134.667 116.127 137.047 113.208C137.109 113.133 137.173 113.058 137.236 112.984C138.363 114.208 138.572 115.749 138.544 117.379C138.52 118.875 137.923 119.774 137.164 120.968C137.994 120.168 138.831 119.02 139.653 118.134C138.712 114.212 138.928 110.362 140.951 106.808C141.899 108.005 142.284 108.953 142.568 110.456C142.915 112.301 142.589 113.393 141.957 115.105C142.682 114.031 143.267 112.939 143.965 111.863C143.732 111.478 143.598 111.127 143.432 110.711C142.058 107.272 142.154 103.989 143.824 100.666C145.158 102.114 146.237 104.65 146.08 106.636C146.051 106.993 145.835 108.148 145.857 108.223C146.32 107.145 146.737 106.051 147.172 104.963C145.957 102.965 144.913 100.171 144.756 97.8381C144.694 96.9115 144.742 94.3314 145.24 93.5637C146.132 93.1895 147.57 96.4383 147.916 97.0246C148.781 98.4856 148.094 99.9763 148.329 101.199C148.714 100.381 149.08 97.2966 149.242 96.343C148.589 95.4324 147.835 94.5754 147.213 93.6623C145.337 90.9074 144.67 88.1589 144.954 84.8576C147.597 86.3375 148.862 88.4732 149.462 91.4035C149.826 90.9258 149.475 88.5897 149.644 87.7121C149.703 88.2198 149.724 89.2286 149.717 90.2356V89.4875C149.712 88.755 149.69 88.0919 149.645 87.7111C149.258 87.4026 148.397 86.4546 148.027 86.0637C145.415 83.3078 144.306 80.7059 143.751 76.9797C146.093 77.9267 147.479 79.2517 148.771 81.4934C148.949 81.8022 149.114 82.5291 149.308 82.9602C149.364 82.8376 148.89 79.906 148.862 79.4182L148.858 79.3361C145.139 76.9217 143.152 74.2778 142.034 70.0393C142.409 70.1678 142.782 70.3024 143.153 70.4416C145.208 71.2137 146.802 72.3176 147.717 74.3342C147.438 73.2561 147.2 72.3532 146.842 71.3C145.251 70.7089 143.471 70.0188 142.122 68.9836C141.388 68.4212 139.56 66.8057 139.434 65.8899C139.666 65.2079 140.682 65.4214 141.254 65.5236C143.096 65.853 144.597 67.0154 145.634 68.5402C145.768 68.7365 145.721 68.7251 145.925 68.8469C145.926 68.6459 144.533 65.6182 144.343 65.1203C141.494 65.1054 137.332 63.0262 136.095 60.3664C139.17 60.0238 141.322 60.9201 143.332 63.2053C142.822 62.2832 141.976 60.6982 141.315 59.9084C137.641 59.5278 134.43 58.0138 132.206 55.0129C134.622 54.355 136.86 54.6267 138.697 56.4543C139.024 56.8638 139.67 57.5165 140.046 57.9221C140.046 57.9211 140.045 57.9201 140.044 57.9191C139.856 57.7168 139.602 57.4534 139.354 57.1897C139.229 57.0573 139.106 56.925 138.994 56.8C138.881 56.6748 138.78 56.5568 138.698 56.4543L138.966 56.3498C138.993 56.384 139.02 56.4191 139.047 56.4543C139.02 56.419 138.993 56.3832 138.966 56.3488C138.484 55.7168 138.022 55.1028 137.527 54.4768C136.687 54.1661 135.489 53.9104 134.597 53.6057C131.461 52.534 129.691 51.1283 127.743 48.5598C127.877 48.5348 128.013 48.5126 128.148 48.4924C130.188 48.1907 131.89 48.8181 133.499 50.0051C133.818 50.2918 134.456 50.8371 134.712 51.1369H134.713C134.457 50.8372 133.818 50.2919 133.499 50.0051L133.713 49.7316L133.285 49.425C131.153 47.8708 129.166 46.0194 127.706 43.8215C127.336 43.2644 126.502 41.9131 126.646 41.2434ZM108.839 111.859C110.236 111.791 110.895 112.423 111.587 113.514C111.193 113.527 110.792 113.514 110.397 113.506C106.882 110.241 106.685 118.5 110.297 115.489C110.721 115.328 111.137 115.358 111.591 115.353C110.78 116.786 109.382 117.66 107.791 116.728C107.174 116.365 106.729 115.766 106.563 115.07C106.147 113.307 107.21 112.229 108.839 111.859ZM119.919 111.886C121.346 111.638 122.703 112.599 122.944 114.027C123.185 115.454 122.219 116.806 120.79 117.04C119.369 117.275 118.028 116.316 117.789 114.897C117.549 113.477 118.502 112.131 119.919 111.886ZM88.31 111.862C89.189 111.812 90.9415 112.47 90.9731 113.414C90.263 113.789 89.0355 112.739 88.5581 112.777C86.342 112.955 86.6559 116.677 89.0971 116.046C89.6693 115.898 89.788 115.52 90.1098 115.011C89.4538 115.011 88.9305 115.153 88.3618 114.934C88.163 114.686 88.2308 114.684 88.2134 114.285C88.482 114.107 90.5136 114.187 91.144 114.117C91.1745 116.859 88.6116 118.024 86.5669 116.149C85.7419 115.393 85.805 113.92 86.3755 113.042C86.8495 112.312 87.4535 112.049 88.31 111.862ZM43.7778 111.862C45.3331 111.885 45.1322 112.176 45.7358 113.568C46.0359 114.26 46.326 114.979 46.6313 115.671C46.9593 114.833 47.7851 112.602 48.2768 111.927C48.6342 111.889 49.0338 111.879 49.396 111.863C49.3735 113.266 49.443 114.682 49.396 116.085C49.3809 116.532 49.2716 116.85 48.8676 117.06C48.6146 117.051 48.5931 117.009 48.3803 116.872C48.2183 116.581 48.2633 116.334 48.27 115.988L48.3198 113.841C47.9033 114.722 47.4328 116.376 46.7934 116.959C46.1668 117.128 45.8901 116.309 45.6919 115.82C45.4294 115.172 45.208 114.551 44.9038 113.916C44.8709 114.775 45.1974 116.454 44.5083 116.935C44.243 116.965 44.2181 116.986 43.9585 116.904C43.6871 116.588 43.7533 112.485 43.7778 111.862ZM55.9663 111.86C56.8485 111.828 57.202 111.985 57.8764 112.55L58.1655 113.372C56.4569 113.43 57.0683 112.842 55.9536 112.636C55.5617 112.767 55.4974 113.129 55.5952 113.503C55.9789 113.986 56.9602 114.174 57.6421 114.458C58.5717 115.724 58.1277 116.794 56.5757 117.045C55.1713 117.032 54.8478 116.83 54.31 115.563L55.4467 115.58C55.8322 116.117 56.318 116.452 56.9526 116.021C57.6121 114.621 54.5395 114.973 54.436 113.692C54.3409 112.512 54.8974 112.094 55.9663 111.86ZM93.2085 111.887C94.7334 111.865 94.5375 112.618 95.0678 113.929C95.2508 114.381 96.0446 116.564 96.0122 116.848C95.7442 117.006 95.7562 117.016 95.4292 117.027C94.6534 116.768 94.9946 116.022 94.3237 116.012L92.7495 116C92.594 116.465 92.5784 116.691 92.1801 116.926C91.8961 116.941 91.6701 116.99 91.4292 116.858C91.4267 116.456 92.944 112.131 93.2085 111.887ZM111.792 111.933C112.609 111.93 115.209 111.65 115.651 112.24C115.671 112.543 115.705 112.409 115.554 112.658C115.204 112.79 114.65 112.733 114.254 112.723C114.283 113.669 114.274 114.681 114.28 115.632C114.301 116.206 114.43 116.77 113.782 117.022C113.508 117 113.525 117.011 113.316 116.834C113.064 116.361 113.207 113.475 113.226 112.743C112.835 112.748 112.168 112.818 111.878 112.648C111.717 112.334 111.779 112.342 111.792 111.933ZM62.7993 111.886C63.4526 111.905 65.2714 111.82 65.728 111.997C65.8625 112.23 65.8302 112.272 65.8061 112.541C65.4476 112.825 64.3596 112.72 63.8481 112.706L63.8647 114.092C64.3755 114.071 65.0994 113.978 65.5356 114.174C65.7278 114.418 65.6741 114.279 65.6753 114.613C65.317 114.985 64.5866 114.749 63.9165 114.852L63.855 114.994L63.8608 116.184C64.4209 116.17 65.4555 116.009 65.8266 116.425C65.8243 116.726 65.86 116.587 65.6997 116.856C65.1493 117.097 63.4246 116.985 62.7524 116.97C62.7936 115.7 62.6657 112.924 62.7993 111.886ZM71.6645 111.925C71.9875 112.665 72.4083 113.47 72.7534 114.235C73.0546 113.432 73.4207 112.656 73.8481 111.912L74.8491 111.905L74.9184 112.01C74.504 113.054 73.7638 114.074 73.3559 115.109C73.2223 115.447 73.4218 116.358 73.1889 116.837C72.891 117.007 72.5642 116.98 72.2094 116.995C72.191 115.442 72.234 115.259 71.5083 113.916L70.4614 111.897L71.6645 111.925ZM96.5815 111.872C96.9225 111.884 97.3038 111.876 97.6489 111.877C97.6248 113.312 97.6432 114.787 97.644 116.225C98.1745 116.187 98.8387 116.065 99.2827 116.314C99.4381 116.587 99.3797 116.536 99.3315 116.926C98.5814 117.012 97.3 117.019 96.5542 116.951C96.6132 115.398 96.4593 113.285 96.5815 111.872ZM82.5073 111.908C83.3839 111.92 84.7049 111.842 85.5132 111.952C85.6386 112.135 85.6041 112.295 85.5991 112.524C85.2848 112.818 84.1412 112.724 83.6421 112.72C83.6562 113.189 83.6494 113.626 83.6411 114.094C84.189 114.08 84.6547 114.07 85.2026 114.096C85.4262 114.299 85.3444 114.174 85.4067 114.512C85.1212 115.167 84.1731 114.5 83.6518 114.964L83.6596 115.236C83.6563 115.527 83.6312 115.884 83.7085 116.154C84.3596 116.341 85.2072 115.893 85.6421 116.369C85.6221 117.108 84.8744 116.978 84.3257 116.988C83.7221 116.998 83.102 116.976 82.4975 116.965C82.52 115.28 82.523 113.594 82.5073 111.908ZM117.229 111.9C117.152 113.522 117.282 115.242 117.197 116.898C116.815 116.968 116.458 117.098 116.15 116.828C116.031 116.235 116.008 112.438 116.171 111.862L117.229 111.9ZM49.7104 111.915C49.9167 111.909 50.4583 111.879 50.6303 111.957C51.3088 112.264 51.6502 113.511 51.9233 114.229C52.3112 113.46 52.6303 112.641 53.102 111.926L54.2163 111.92C53.8599 112.565 53.5233 113.244 53.188 113.901C52.9867 114.304 52.6805 114.799 52.5815 115.225C52.485 115.641 52.5756 116.598 52.2837 116.893C51.9848 117.014 51.9901 116.999 51.6841 116.968C51.1988 116.649 51.5644 115.894 51.4731 115.58C51.1823 114.584 50.1873 112.86 49.7104 111.915ZM124.432 111.939C125.042 112.562 126.389 114.768 126.822 115.578L126.8 115.348C126.704 114.314 126.724 112.925 126.772 111.885L127.848 111.875C127.826 113.524 127.824 115.174 127.84 116.822C127.506 117.061 127.142 116.975 126.726 116.946C126.077 116.107 125.069 114.483 124.491 113.544C124.487 114.519 124.51 115.53 124.491 116.504C124.485 116.8 124.468 116.77 124.318 116.885C124.011 116.917 123.863 116.952 123.557 116.889C123.289 116.493 123.355 112.55 123.403 111.863C123.741 111.882 124.092 111.913 124.432 111.939ZM58.5268 111.918C59.4249 111.945 61.7936 111.629 62.3393 112.241C62.353 112.542 62.3865 112.408 62.2505 112.66C61.9001 112.796 61.3466 112.74 60.9487 112.731L60.9614 115.716L60.9536 116.938C60.5525 116.973 60.209 117.055 59.8999 116.821C59.7511 116.204 59.8128 113.452 59.8725 112.761C59.4914 112.74 58.9415 112.822 58.6606 112.663C58.4671 112.332 58.5343 112.362 58.5268 111.918ZM79.4331 111.863C79.7897 111.88 80.1663 111.878 80.5249 111.883C80.4953 113.313 80.5157 114.798 80.5171 116.233C81.0472 116.194 81.6045 116.077 82.0512 116.32C82.2322 116.586 82.1711 116.597 82.1928 116.978C81.6487 116.93 80.0717 116.976 79.4155 116.971C79.4288 115.372 79.3482 113.414 79.4331 111.863ZM101.24 111.912C101.841 111.918 103.968 111.825 104.377 111.993C104.505 112.222 104.469 112.292 104.448 112.557C104.06 112.806 102.894 112.724 102.367 112.72C102.392 113.241 102.412 113.576 102.372 114.098C102.916 114.085 103.702 113.912 104.09 114.292C104.13 114.586 104.099 114.61 104.008 114.888C103.45 114.92 102.923 114.896 102.365 114.878C102.415 115.66 102.423 116.143 102.389 116.925C102.019 116.962 101.741 117.031 101.405 116.895C101.175 116.599 101.249 112.55 101.24 111.912ZM66.5005 111.886C67.951 111.902 70.6746 111.621 70.1528 113.976C70.0348 114.508 69.5362 114.768 69.1069 115.031C69.566 115.72 69.8609 116.237 70.2553 116.959C69.8821 116.968 69.4495 116.943 69.0717 116.931C68.6629 116.43 68.2385 115.221 67.7485 114.975C67.2581 115.269 67.8902 116.323 67.3794 116.933C65.9478 117.201 66.5255 115.352 66.5073 114.507C66.4902 113.719 66.3566 112.636 66.5005 111.886ZM105.998 111.863C105.99 112.702 106.108 116.423 105.926 116.935C105.588 116.954 105.176 117.033 104.954 116.755C104.873 116.192 104.866 112.389 104.936 111.868L105.998 111.863ZM120.04 112.761C118.11 113.632 118.486 116.23 120.667 116.109C122.063 115.665 122.119 114.344 121.48 113.21C120.984 112.878 120.661 112.694 120.04 112.761ZM93.6645 113.318C93.5257 113.722 93.1031 114.692 93.1118 115.004C93.3163 115.405 93.541 115.281 93.9907 115.255L94.2573 115.244C94.4235 114.93 93.8967 113.559 93.6645 113.318ZM75.3764 114.136C75.9676 113.881 77.5936 113.99 78.3452 113.974L78.395 113.999C78.5245 114.205 78.4703 114.585 78.4604 114.852C77.4295 114.848 76.4478 114.846 75.4175 114.884L75.3051 114.837C75.1879 114.563 75.2092 114.367 75.3764 114.136ZM67.5649 114.359C68.0763 114.305 68.5538 114.289 69.021 114.077C69.6956 112.815 68.4221 112.739 67.5415 112.732L67.5649 114.359ZM88.6919 103.512C89.5367 103.469 91.2952 103.35 91.4311 104.476C91.5401 105.383 90.6008 105.921 89.8491 106.038C90.1201 106.491 90.7913 107.521 90.6987 107.999L90.5327 108.019C90.2833 107.911 90.1997 107.661 90.06 107.406C89.7025 106.76 89.7785 106.033 88.9028 106.023C88.3307 106.468 88.7636 107.264 88.2114 108.094L88.0971 108.043C87.9591 107.13 88.513 104.543 88.6919 103.512ZM81.103 103.515C81.6303 103.5 83.0722 103.436 83.5219 103.641C83.2798 103.884 82.7164 103.884 82.3852 103.887C82.0838 103.888 81.7823 103.886 81.4809 103.88C81.4258 104.533 81.3912 104.92 81.2524 105.555C81.6293 105.547 82.6696 105.474 82.9477 105.668C82.6407 106.076 81.7293 105.895 81.2378 105.891C81.1082 106.118 81.1165 106.271 81.0737 106.542C81.0603 106.918 80.9044 107.794 80.5639 107.981C80.3784 107.512 80.6527 106.235 80.7485 105.684C80.8658 105.024 81.0315 104.176 81.103 103.515ZM85.7348 103.468C86.4057 103.421 86.7283 103.561 87.3003 103.876C88.4578 105.533 87.5325 107.447 85.6509 107.95C84.1033 107.965 83.7459 107.543 83.3784 106.113C83.7077 104.609 84.1284 103.775 85.7348 103.468ZM85.8579 103.876C83.5452 104.289 83.088 107.421 85.5268 107.588C86.305 107.295 86.7858 107.044 87.1391 106.233C87.6712 105.012 87.2978 103.895 85.8579 103.876ZM89.3608 103.871C88.9118 104.12 88.8681 105.223 88.8032 105.741C89.2605 105.724 89.7654 105.724 90.2094 105.636C90.9726 105.339 91.2977 104.378 90.3432 103.963C90.2027 103.902 89.5313 103.88 89.3608 103.871ZM82.9155 94.8195C84.2874 94.8802 85.3789 95.9904 85.4155 97.3625C85.4519 98.7344 84.4216 99.9022 83.0551 100.035C81.6888 100.168 80.4521 99.2212 80.2231 97.8674L79.9214 97.8908H79.9204C79.6839 99.2203 78.4733 100.149 77.1284 100.034C75.7831 99.9188 74.7476 98.797 74.7407 97.4465C74.7338 96.097 75.7573 94.9642 77.101 94.8352C78.4451 94.7063 79.6664 95.6232 79.9165 96.9504V96.9494L80.2036 97.133C80.3606 95.7692 81.5445 94.7598 82.9155 94.8195ZM93.8325 94.8996C95.2361 94.5439 96.6611 95.3967 97.0112 96.802C97.3611 98.2064 96.5013 99.6285 95.0952 99.9719C93.6974 100.314 92.2875 99.4598 91.9399 98.0637C91.5916 96.6675 92.438 95.253 93.8325 94.8996ZM70.396 94.8928C71.4585 94.9019 74.3021 94.6323 74.3003 96.1447C74.2996 96.6827 73.9628 96.9773 73.6089 97.3107C73.743 97.8978 74.7288 97.78 74.3384 99.0373C73.5207 100.339 71.83 99.9799 70.4243 100.031C70.3984 98.3111 70.4518 96.6331 70.396 94.8928ZM52.5561 94.8947C53.2715 94.9006 54.0096 94.8838 54.7212 94.9387C56.3738 95.0643 57.0032 96.0854 55.7651 97.341C55.9385 98.1404 56.8762 97.6823 56.2827 99.341C55.4812 100.222 53.7236 99.9886 52.5805 100.034C52.5049 98.6165 52.5703 96.4099 52.5561 94.8947ZM56.9624 94.9016C57.613 94.9207 59.5751 94.8063 60.0034 95.0441C60.2834 96.0429 58.7023 95.7284 58.0581 95.6984L58.0669 96.965C58.5954 96.9551 59.2307 96.9263 59.7466 96.9787C59.9719 97.2488 59.9444 97.4701 59.854 97.7893C59.4877 97.9963 58.6723 97.715 58.1001 97.883L58.0561 98.0324C58.0812 98.4372 58.0737 98.7473 58.0639 99.1496C58.6895 99.1346 59.4074 98.9689 59.9057 99.2766C60.0739 99.505 60.0451 99.5559 60.0532 99.841C59.7088 100.085 57.6382 99.9825 56.9721 100.032C56.9685 98.3103 56.9892 96.6287 56.9624 94.9016ZM64.6303 94.9133C65.3073 94.959 68.1473 94.7264 68.4604 95.0774C68.4794 95.3465 68.4931 95.4082 68.4546 95.6809C68.2012 95.7823 67.3611 95.72 67.0346 95.7092C67.1207 96.4284 67.0829 97.7053 67.0825 98.467C67.0795 98.9643 67.1036 99.5085 67.1176 100.01C66.7584 100.006 66.3558 100.023 65.9926 100.029L66.0073 95.7033C65.6066 95.7108 65.0056 95.8084 64.7134 95.6438C64.5484 95.3266 64.6133 95.3312 64.6303 94.9133ZM61.8559 94.8899C62.5144 94.8283 62.8773 94.8553 63.4878 95.133C63.9117 95.3251 64.4827 95.7599 64.0971 96.2795C63.0665 96.4383 62.4801 95.2952 61.7778 95.8156C61.6653 96.1064 61.6837 96.1147 61.7075 96.4152C62.2823 97.3782 65.1136 97.0731 64.1079 99.1154C63.8338 99.6723 63.5792 99.7752 63.0161 99.9738C61.5286 100.139 61.0505 99.8718 60.4682 98.5598C61.266 98.5581 61.2637 98.5452 61.9272 98.9758C62.2973 99.2161 62.7635 99.1782 63.0854 98.8557C63.3485 97.8885 61.6866 97.6851 60.9087 97.2727C60.2449 96.136 60.5288 95.2259 61.8559 94.8899ZM90.0962 94.8703C89.4767 95.7168 88.6896 96.6158 87.9995 97.4074C88.3953 97.9371 89.0525 98.6579 89.4966 99.176C89.7657 99.5522 89.9179 99.682 90.2485 99.9885C89.7124 100.019 89.3856 99.9925 88.852 99.9543C88.3647 99.4969 87.4004 98.2397 86.9721 97.6867C86.9854 98.4734 86.9977 99.2272 87.0434 100.014L85.9292 100.018L85.9175 94.8889H87.0034L86.9956 97.217C87.5062 96.4994 88.2639 95.5652 88.8559 94.9299L90.0962 94.8703ZM97.562 94.9074C98.2035 94.9215 100.433 94.8011 100.828 95.0236C100.888 95.2889 100.89 95.2701 100.836 95.5354C100.48 95.8521 99.221 95.7232 98.6772 95.7082C98.7088 96.2279 98.704 96.5225 98.6782 97.0422C99.2287 96.9856 99.823 97.002 100.379 97.0012C100.379 97.3222 100.417 97.5811 100.456 97.8996L98.6792 97.8947C98.7274 98.5509 98.7055 99.3123 98.7446 100.01L97.5571 99.9895C97.5213 98.392 97.5611 96.5307 97.562 94.9074ZM118.578 94.6848C118.978 94.7135 118.406 97.4815 118.835 97.9738C119.066 98.027 119.199 98.0299 119.358 98.2033C119.385 98.4877 119.39 98.4672 119.268 98.7258C118.702 99.159 118.782 99.1518 118.651 99.8811C118.479 99.9991 117.9 99.9738 117.638 99.9846C117.634 99.6004 117.69 99.2106 117.459 98.9387L117.19 98.9367C116.593 98.9459 115.726 98.9881 115.158 98.9074L115.054 98.7688C115.072 97.8582 116.923 95.4739 117.538 94.716C117.855 94.6877 118.252 94.6914 118.578 94.6848ZM109.409 94.6311L110.118 95.093C110.229 95.2883 110.331 95.4904 110.421 95.6965C110.966 96.9672 110.859 99.2744 109.358 99.8781C108.427 100.031 107.415 99.909 107.027 98.9553C106.456 97.5499 106.497 95.376 108.021 94.6467C108.498 94.596 108.93 94.6194 109.409 94.6311ZM113.524 94.5891C115.907 95.9046 113.974 97.9839 112.529 99.0549L114.81 99.0559L114.762 99.8772L112.368 99.8879C111.844 99.9145 111.46 100.017 111.071 99.6848C110.78 98.6162 114.574 97.1941 113.295 95.5617C112.373 95.0449 112.299 96.2758 111.491 96.4582C111.231 96.4058 111.249 96.4064 111.06 96.218C110.917 95.5752 111.671 94.9116 112.189 94.6389C112.58 94.6006 113.121 94.6007 113.524 94.5891ZM104.358 94.5793C105.165 94.5593 105.403 94.7135 105.971 95.2649C106.492 97.1462 105.522 97.9229 104.155 99.0461C104.861 99.0718 105.657 98.8927 106.222 99.1594C106.447 99.4429 106.382 99.3218 106.425 99.7131L106.312 99.8274C105.633 99.9587 103.965 99.8918 103.178 99.8859C102.89 99.8918 102.821 99.9227 102.637 99.7248C102.504 98.6281 105.688 97.2704 105.089 95.7356C104.101 94.8251 103.882 96.0287 103.363 96.344C102.96 96.4321 102.624 96.3123 102.588 95.8684C102.873 95.1532 103.584 94.6226 104.358 94.5793ZM94.4604 95.7365C92.337 96.1135 92.3705 98.7322 94.5649 99.1887C96.0607 98.6241 96.0657 98.0298 95.8628 96.5422C95.373 95.9892 95.2163 95.8222 94.4604 95.7365ZM82.6655 95.7199C81.1127 96.1889 81.1244 97.1665 81.5307 98.5344C82.088 98.926 82.2722 99.0883 82.9614 99.1848C83.743 98.8523 83.8809 98.7572 84.3208 97.9973C84.3266 97.6241 84.3421 97.2119 84.3247 96.842C83.8706 96.151 83.5733 95.7466 82.6655 95.7199ZM77.3335 95.7365C75.7293 96.0277 75.6102 97.1658 76.101 98.5461C76.6507 98.981 76.8101 99.0729 77.5014 99.1818C79.5208 98.3643 79.3708 95.9877 77.3335 95.7365ZM71.5141 97.7922L71.5249 99.1594C72.1688 99.1561 72.6856 99.2452 73.1909 98.8918C73.3456 98.5899 73.353 98.606 73.3149 98.2775C72.9209 97.6726 72.1774 97.7896 71.5141 97.7922ZM53.6548 97.7902C53.666 98.1811 53.7026 98.7886 53.6684 99.1604C54.1701 99.1546 54.8035 99.2029 55.229 99.0002C55.8662 97.649 54.5435 97.7869 53.6548 97.7902ZM108.408 95.5422C108.031 95.7975 107.876 96.0908 107.824 96.5432C107.695 97.6658 107.566 98.9539 108.975 98.9963C109.311 98.8018 109.456 98.6519 109.525 98.2629C109.721 97.1561 109.898 95.5747 108.408 95.5422ZM117.709 95.9436C117.464 96.2648 116.385 97.7544 116.361 98.0588L117.702 98.0315C117.69 97.6784 117.726 96.0594 117.709 95.9436ZM71.5161 96.966C72.0156 96.9652 72.5903 97.008 73.0512 96.8508C73.38 95.734 72.7217 95.7265 71.8471 95.7024L71.521 95.6945L71.5161 96.966ZM53.6684 95.6936C53.6674 96.096 53.6792 96.574 53.6577 96.969C54.1872 96.964 54.6629 96.9867 55.1743 96.8479C55.2928 96.5253 55.3217 96.4925 55.2817 96.1643C54.9307 95.6088 54.2728 95.7035 53.6684 95.6936ZM149.707 91.0022C149.692 91.7254 149.665 92.3763 149.629 92.7482C149.665 92.3764 149.692 91.7255 149.707 91.0022ZM88.4878 86.3352C88.9223 86.3152 89.0572 86.2875 89.4702 86.3889C89.8411 86.6458 91.4519 91.1219 91.3305 91.4221C90.5058 91.8901 90.263 91.0829 89.9155 90.5158L89.6645 90.4816L88.0415 90.5031L88.0219 90.5725L87.9858 90.6857C87.8819 91.0332 87.9054 91.0745 87.6596 91.3303C87.3329 91.5032 86.9849 91.4467 86.5991 91.4367C86.9086 90.5663 88.1452 86.9297 88.4878 86.3352ZM98.7231 86.341C100.142 86.0568 101.524 86.9754 101.809 88.3947C102.094 89.8142 101.174 91.1954 99.7544 91.4807C98.335 91.7657 96.9536 90.8464 96.6684 89.427C96.3841 88.0083 97.3036 86.6263 98.7231 86.341ZM105.441 86.3547C105.777 86.3297 106.18 86.256 106.469 86.3947C106.65 86.7099 106.582 86.7675 106.587 87.1916C106.593 88.1837 106.703 90.4271 106.073 90.8654C103.608 92.5785 101.898 90.6907 102.361 88.0695C102.411 87.7825 102.352 86.5394 102.349 86.3254L103.459 86.3234C103.448 87.0022 103.292 89.9098 103.698 90.215C106.022 91.9597 105.43 87.4 105.441 86.3547ZM62.0366 86.3381C62.3745 87.2237 62.6967 88.1686 63.021 89.0617C63.2022 89.5606 63.7015 90.7024 63.7719 91.1623C63.6632 91.4565 63.7568 91.35 63.4907 91.5012C62.2494 91.591 62.8629 90.6095 62.1411 90.4797L60.5122 90.4885L60.1089 91.4104L59.0415 91.4475C59.344 90.4869 60.4879 87.0282 60.9673 86.3254L62.0366 86.3381ZM51.1567 86.3283C52.5342 86.3458 55.6321 86.0839 54.9048 88.5246C54.7731 88.9669 54.292 89.2348 53.8794 89.382C54.1607 89.9615 54.9213 90.9562 54.8735 91.3606C54.6174 91.5218 54.4263 91.462 54.0805 91.4611C53.3739 91.2707 53.1757 89.7766 52.477 89.5412C52.1839 89.8414 52.3009 90.9932 52.3159 91.4465L51.2104 91.4602C51.2182 89.7496 51.2003 88.0389 51.1567 86.3283ZM78.8012 86.3332C80.209 86.231 80.6538 86.5996 81.227 87.8176C80.8429 87.8226 80.4235 87.8031 80.0366 87.7932C79.6514 87.3309 78.9927 86.939 78.5102 87.4816C78.4359 88.1719 79.3672 88.5071 79.9077 88.6418C81.8537 89.1283 81.4958 91.101 79.6889 91.4719C78.3398 91.4844 77.7627 91.3762 77.3325 90.0236C77.6813 90.0153 78.0484 90.023 78.3989 90.0246C78.8255 90.5402 79.5085 90.9485 80.0395 90.3225C80.311 89.0502 77.7333 89.4195 77.48 88.2902C77.2178 87.1227 77.7277 86.6683 78.8012 86.3332ZM64.2993 86.3186C65.5766 86.3585 67.5116 86.2088 68.3403 87.3693C69.1601 88.5177 68.9552 89.6956 68.1274 90.7658C67.0375 91.6431 65.7129 91.4153 64.2983 91.4709C64.3605 89.901 64.3197 87.9002 64.2993 86.3186ZM114.106 86.3566C114.628 86.3542 116.852 86.2189 117.069 86.5432C117.052 86.902 117.115 86.9383 116.938 87.1652C116.568 87.3174 116.074 87.257 115.656 87.2453C115.696 88.4169 115.672 89.7299 115.676 90.9123C115.695 91.1168 115.687 91.1339 115.657 91.3391C115.366 91.5253 115.016 91.4613 114.627 91.4621C114.584 90.2689 114.588 88.4255 114.642 87.2473C114.05 87.2598 113.495 87.3682 113.129 86.8078L113.168 86.6399C113.479 86.3226 113.646 86.3658 114.106 86.3566ZM72.936 86.3547C74.4374 86.3264 75.4089 86.1551 76.5913 87.0715C76.9469 88.1983 76.8729 88.9154 75.6704 89.4035C76.0786 90.0671 76.4273 90.7428 76.8608 91.4338C76.5038 91.4479 76.1349 91.4312 75.7768 91.4221C75.2563 91.2233 74.9094 89.692 74.2212 89.5246C73.9914 89.8631 74.0785 90.9833 74.0864 91.469L72.9497 91.4104C72.9548 89.6675 72.9748 88.1108 72.936 86.3547ZM55.602 86.3371C56.1726 86.3637 58.4093 86.2123 58.6762 86.5539C58.6773 86.9604 58.7495 86.9462 58.5483 87.1682C58.0547 87.341 57.2097 87.2595 56.6587 87.2453C56.6882 87.6444 56.6906 88.1011 56.7026 88.5051C57.1724 88.4934 58.1842 88.3424 58.4692 88.6906C58.5224 88.9625 58.5442 88.9547 58.4341 89.2024C58.0427 89.4285 57.1215 89.1489 56.6792 89.3176L56.7026 90.6281C57.2474 90.6023 58.0718 90.5147 58.5571 90.719C58.7052 90.9267 58.6712 91.1871 58.5317 91.385C58.0415 91.4789 56.2811 91.4362 55.6157 91.467C55.638 89.7573 55.6332 88.0469 55.602 86.3371ZM117.522 86.3293C118.484 86.3817 119.611 86.3723 120.569 86.3391C120.586 86.9692 120.634 87.3653 119.804 87.2863C119.409 87.2489 118.987 87.248 118.588 87.2463C118.645 87.7974 118.653 87.9416 118.61 88.5012C119.023 88.4995 120.075 88.4137 120.311 88.6174C120.647 89.9309 119.241 88.8978 118.614 89.3586L118.629 89.5998C118.665 90.0106 118.632 90.2243 118.592 90.6301C119.099 90.6226 121.03 90.2712 120.52 91.382C119.977 91.4759 118.23 91.4354 117.534 91.467C117.541 89.7548 117.538 88.0415 117.522 86.3293ZM112.723 86.3147C112.691 88.0301 112.695 89.7468 112.737 91.4631L111.676 91.4152C111.688 90.0557 111.613 87.6109 111.713 86.341L112.723 86.3147ZM96.1352 87.4426C95.8375 88.2916 95.1463 90.5401 94.5991 91.3459C94.4626 91.5457 93.6395 91.4343 93.352 91.4035C93.1317 90.9187 92.8473 90.0094 92.6577 89.4797L91.4995 86.3254C91.9293 86.3204 92.3025 86.3448 92.729 86.3723C92.8953 87.1854 93.7399 89.5228 94.0835 90.3049C94.4061 89.0859 94.9888 87.5279 95.4204 86.3371C95.8029 86.3371 96.1824 86.32 96.5649 86.3059L96.1352 87.4426ZM107.192 86.3537C108.695 86.3071 111.779 86.1264 110.876 88.6652C110.743 89.0393 110.207 89.2746 109.861 89.3869C110.157 89.8601 110.814 90.908 110.993 91.3928C110.796 91.4951 110.382 91.4413 110.121 91.4338L109.934 91.3977C109.445 91.0326 109.09 89.6851 108.474 89.5246C108.176 89.8668 108.292 90.9664 108.31 91.4494L107.217 91.4533C107.218 89.7529 107.209 88.0533 107.192 86.3537ZM69.351 86.3527C69.9799 86.3669 72.0121 86.2408 72.3891 86.4611C72.4794 86.7771 72.4644 86.9519 72.2378 87.1789C71.7888 87.3343 70.957 87.2555 70.4321 87.2463C70.4894 87.7974 70.498 87.9465 70.4585 88.5061C70.8943 88.4953 72.9043 88.232 72.0034 89.259C71.4591 89.4449 70.8808 89.0368 70.4555 89.3918L70.4741 89.6652C70.5085 89.9846 70.4692 90.3072 70.4448 90.6281C70.8964 90.6107 72.1161 90.4917 72.4106 90.76C72.4315 91.0142 72.4799 91.1792 72.3462 91.3869C71.8366 91.4767 69.9826 91.4294 69.312 91.4318C69.3347 89.9541 69.2632 87.7455 69.351 86.3527ZM83.2426 86.3537C83.9096 86.367 85.9575 86.2458 86.4116 86.4611C86.523 86.6906 86.4861 86.8496 86.4712 87.1047C86.1444 87.3525 84.8062 87.2545 84.3139 87.2453C84.3697 87.7983 84.3867 87.9584 84.3335 88.5197L85.1626 88.4709C85.53 88.446 85.5281 88.4179 85.853 88.5666C86.0942 88.8718 86.0265 88.8975 86.0971 89.3449L84.3081 89.3391C84.4036 90.0391 84.3264 90.6934 84.4145 91.4416L83.2124 91.425C83.2223 90.6182 83.1475 86.8302 83.2426 86.3537ZM65.3745 87.2424C65.4432 87.9984 65.4635 89.8602 65.3745 90.6086C66.1192 90.5728 66.581 90.6066 67.2426 90.2531C67.8003 89.5797 67.7713 89.246 67.6889 88.3879L67.6733 88.2326C66.9915 87.2081 66.5379 87.2183 65.3745 87.2424ZM100.777 88.3811C100.173 87.4314 99.9767 87.1712 98.7817 87.2502C98.3684 87.4938 98.2938 87.5601 97.9487 87.8977C97.404 89.4677 97.8721 90.7468 99.7182 90.5481C100.338 90.2753 100.437 89.9784 100.772 89.3947L100.777 88.3811ZM88.98 87.6936C88.7704 88.3288 88.5381 89.1045 88.3003 89.719L89.2075 89.6818L89.6948 89.6848C89.659 89.3288 89.1879 87.9645 88.98 87.6936ZM61.4048 87.7873C61.1454 88.317 60.9368 89.1142 60.7632 89.6994L61.6001 89.6818C61.8692 89.6611 61.9825 89.708 62.1196 89.5617C61.992 89.2 61.6232 88.0293 61.4048 87.7873ZM74.061 87.2414L74.0884 88.7541C74.6832 88.7283 75.075 88.7571 75.6128 88.4943C76.0142 87.1391 75.043 87.2314 74.061 87.2414ZM52.2846 87.2434L52.3081 88.7531C52.8724 88.7382 53.2633 88.7888 53.7446 88.4914C54.4358 87.22 53.1366 87.2276 52.2846 87.2434ZM108.274 87.2453L108.296 88.7502C108.867 88.7361 109.221 88.7843 109.731 88.5373C110.451 87.1685 109.186 87.2428 108.274 87.2453ZM85.9067 59.5871C86.7117 62.1639 87.9521 65.5296 88.5932 68.0881C89.4754 67.9931 90.9109 68.0376 91.8423 68.0139C93.7915 67.9641 95.7672 67.944 97.7173 67.9602C95.4238 69.3522 92.6079 71.6178 90.2446 73.1955C90.5888 73.8978 90.8783 75.0264 91.1577 75.7883C91.8645 77.7159 92.4438 79.9012 93.2055 81.7883C90.7341 80.0135 88.2857 78.2059 85.8608 76.3664C83.5066 78.2583 80.9417 79.958 78.5981 81.8176C79.5687 79.0332 80.4767 75.8846 81.5132 73.1672C79.2119 71.8359 76.3845 69.2962 74.1626 68.0471C76.4247 67.7737 78.8346 68.0057 81.1128 68.0451C81.6445 68.0543 82.4752 68.1818 82.9692 68.0588C83.4734 67.9332 85.256 60.7468 85.8208 59.7336C85.8482 59.6843 85.8776 59.6359 85.9067 59.5871ZM102.854 58.4348C103.043 58.6178 104.62 63.6514 104.759 64.2863C106.851 64.2201 108.978 64.3059 111.075 64.1965L105.927 67.8752C106.53 69.6113 107.407 72.0398 107.866 73.7893C107.289 73.3622 103.159 70.1965 102.825 70.0852C101.253 71.3622 99.3674 72.6689 97.7202 73.8879C98.4735 72.1628 99.1272 69.3021 99.8989 67.8957C99.4117 67.6207 98.5463 66.9656 98.0581 66.6164L94.6909 64.2102C96.7979 64.2689 98.9156 64.2215 101.015 64.2981C101.227 63.21 102.454 59.5372 102.854 58.4348ZM68.81 58.4934C69.1942 58.7553 70.581 63.5052 70.7583 64.2795L77.063 64.2248C75.3652 65.4418 73.6589 66.6466 71.9438 67.8391C72.6285 69.83 73.2987 71.8258 73.9546 73.8264C72.3004 72.6675 70.4664 71.2659 68.8559 70.0344C68.0497 70.8279 64.7614 73.1353 63.7573 73.8381C64.2958 72.53 64.6735 71.2955 65.1216 69.9533C65.3367 69.3089 65.5802 68.4645 65.8803 67.8703C64.4528 66.9496 62.0575 65.2223 60.7202 64.1809C62.6208 64.3336 65.0563 64.2355 67.0366 64.2941C67.4683 62.5561 68.2658 60.2538 68.81 58.4934ZM57.4321 58.4289C57.659 58.6278 58.3086 61.0522 58.3755 61.466C59.557 61.4037 60.6499 61.4759 61.8569 61.3518C61.0026 62.0532 59.8254 62.7194 59.0444 63.4484C59.5351 64.4816 59.7162 65.6463 60.2925 66.6965C59.4916 66.0558 58.2644 65.2694 57.5962 64.6281C57.5898 64.6261 57.5833 64.6229 57.5766 64.6223C57.1517 64.5784 55.1718 66.2221 54.7612 66.5861C54.979 65.7036 55.506 64.2627 55.8169 63.3654C54.8792 62.7269 53.9231 62.0175 52.9975 61.3537C54.051 61.4467 55.4141 61.4291 56.5034 61.4602C56.6362 60.6352 57.1412 59.2525 57.4321 58.4289ZM114.293 58.5881C114.631 58.8819 115.16 60.9365 115.313 61.467C116.469 61.4087 117.572 61.4932 118.735 61.343C118.03 61.9399 116.709 62.8285 115.918 63.3938C116.341 64.4467 116.623 65.4712 117.015 66.5344C116.112 65.8842 115.212 65.2278 114.317 64.5656C113.41 65.2062 112.519 65.8689 111.644 66.5529C111.912 65.6808 112.384 64.186 112.726 63.3879C111.79 62.7157 110.807 61.988 109.847 61.3586C110.856 61.4547 112.294 61.4341 113.347 61.4631C113.559 60.6335 113.928 59.3424 114.293 58.5881ZM135.613 52.1145L135.615 52.1154C135.61 52.1113 135.605 52.1064 135.6 52.1018H135.599C135.604 52.1061 135.608 52.1106 135.613 52.1145ZM134.905 51.0598C135.133 51.3409 135.453 51.7093 135.654 51.9982L135.636 52.0305L135.656 51.9982C135.555 51.8537 135.425 51.6891 135.291 51.5256L134.907 51.0598H134.905ZM136.572 51.7707V51.7697C136.555 51.7545 136.54 51.7377 136.524 51.7229L136.521 51.7209C136.538 51.7367 136.554 51.7545 136.572 51.7707Z" fill="var(--fill-0, white)"/>
</g>
</svg>
