<svg preserveAspectRatio="none" width="100%" height="100%" overflow="visible" style="display: block;" viewBox="0 0 156.193 156.193" fill="none" xmlns="http://www.w3.org/2000/svg">
<g id="image 20 [Vectorized]">
<path id="Union" d="M51.3853 130.026C51.5849 130.129 53.0347 130.867 53.1441 130.983C53.145 130.984 53.1461 130.985 53.147 130.985C54.4045 131.424 55.8554 132.378 57.2251 132.922C64.1724 135.681 71.5508 137.234 79.0445 136.967C79.2397 136.96 79.3923 137.103 79.4937 137.273L79.4673 137.536C78.9962 137.598 78.7178 137.593 78.2437 137.591C78.1065 137.438 78.1466 137.487 78.0552 137.297C78.0209 137.397 78.0179 137.512 77.9126 137.557C77.5386 137.714 76.2278 137.599 75.7681 137.598C70.1889 137.575 63.8386 136.047 58.5787 134.213C57.0222 133.671 55.514 133.145 54.0357 132.401L53.9712 132.27V132.269C53.3038 132.017 52.5817 131.704 51.9927 131.301C52.2155 131.376 52.335 131.43 52.4712 131.422C52.3357 131.429 52.2166 131.375 51.9947 131.3C51.7472 131.207 51.6003 131.173 51.4009 130.996L51.4947 130.921C51.5726 130.649 51.4905 130.529 51.3872 130.261H51.3863L51.3853 130.026ZM124.295 86.6622C124.424 87.3524 124.409 87.8256 124.585 88.6485C124.955 90.3645 126.441 93.7973 127.546 95.1915C127.627 95.315 127.667 95.4063 127.775 95.4932C129.026 97.9795 128.99 99.8085 128.169 102.51C127.617 104.331 125.9 107.07 124.457 108.325C125.427 106.438 125.507 105.113 125.309 103.222L125.209 102.373C125.012 102.463 124.934 102.675 124.837 102.906L124.71 102.676L124.648 102.66L124.709 102.676L124.835 102.906C124.533 103.516 123.815 104.982 123.409 105.45C123.409 105.451 123.41 105.452 123.411 105.453L123.38 105.606C123.232 106.362 123.239 107.229 123.071 108.026C122.353 111.409 119.632 114.818 116.793 116.782C118.08 115.117 118.35 114.271 118.734 112.211C117.781 113.718 116.81 114.525 115.702 115.859C115.275 116.373 114.806 117.465 114.376 118.072C112.436 120.804 110.523 122.169 107.46 123.264L107.947 122.899C108.295 122.633 108.488 122.371 108.76 122.034C108.366 122.198 106.506 123.562 106.043 123.862C104.382 124.943 102.658 125.922 100.879 126.794C90.2182 132.02 77.9922 133.649 66.441 130.788L65.3247 130.497C65.1139 130.462 64.8742 130.381 64.6665 130.319C64.7117 130.281 65.9654 129.855 66.0552 129.845C66.9184 130.184 67.6884 130.172 68.4331 130.425L69.5474 130.606C75.0608 131.468 79.7192 131.671 85.44 130.812C93.3137 129.62 100.803 126.613 107.315 122.029C108.111 121.461 109.783 120.41 110.1 119.562C111.151 116.754 110.765 114.236 110.651 111.448C110.444 106.4 113.068 102.028 115.943 98.1426C115.083 100.967 115.257 104.823 115.64 107.728C115.948 110.061 116.625 111.974 115.973 114.376C116.656 113.671 118.295 111.772 118.793 111.002C118.847 108.456 118.355 107.364 117.88 104.978C117.283 101.973 118.305 98.03 119.526 95.2471C119.918 94.3534 120.39 93.4723 120.801 92.5694C120.668 95.8189 121.016 98.0093 122.012 101.112C122.379 102.255 122.828 103.353 123.191 104.504C123.318 104.299 123.631 103.639 123.791 103.355C123.792 103.353 123.792 103.352 123.793 103.351C124.102 102.492 124.528 102.023 124.91 101.274L124.747 100.809C124.347 99.7404 123.826 98.7898 123.459 97.7022C122.275 94.1924 123.301 90.1361 124.295 86.6622ZM43.4468 124.867C43.9675 125.213 44.3993 125.526 44.9029 125.887C44.6945 125.835 44.5268 125.778 44.3384 125.773C44.5266 125.778 44.6946 125.836 44.9029 125.888C45.5187 126.292 46.1266 126.758 46.7456 127.147H46.7476C47.0573 127.393 47.6579 127.846 48.0747 128.069L48.2408 128.15C48.7718 128.537 49.0737 128.722 49.6509 129.041L49.6499 129.042C50.042 129.253 50.4136 129.497 50.7984 129.709L51.19 129.909L51.3824 130.025L51.3833 130.261C51.4866 130.529 51.5687 130.649 51.4908 130.921L51.397 130.996C51.0307 130.81 50.8102 130.668 50.4732 130.448C50.4719 130.448 50.4705 130.448 50.4693 130.447C50.1974 130.375 49.277 129.838 49.0455 129.616V129.615C48.7965 129.503 48.3777 129.341 48.1958 129.164L48.1968 129.163L47.8218 128.871L48.0669 128.789L48.1001 128.643L47.9771 128.472C47.8142 128.407 47.7743 128.38 47.73 128.376C47.7733 128.381 47.8155 128.407 47.9751 128.471L48.0972 128.642L48.064 128.788L47.8189 128.871L47.3394 128.61V128.609C47.1617 128.55 46.127 127.748 45.7652 127.526C45.8557 127.361 45.9154 127.306 45.9761 127.295L46.0122 127.293C45.9369 127.289 45.8731 127.329 45.7642 127.527C45.5277 127.402 45.5272 127.418 45.3648 127.211L45.3658 127.21L44.7369 126.808C44.0183 126.331 43.1185 125.666 42.8462 125.131L43.4468 124.867ZM52.1255 130.518C52.0916 130.499 52.0731 130.575 51.9615 130.59C52.0732 130.575 52.0922 130.502 52.1255 130.518ZM51.021 129.997C51.0362 130.16 51.0479 130.299 51.0542 130.463C51.0479 130.299 51.0372 130.159 51.022 129.996L51.021 129.997ZM66.2163 130.097C66.4815 130.158 66.8205 130.263 67.1919 130.342C66.8204 130.263 66.4815 130.158 66.2163 130.097ZM47.3941 121.119C47.7697 120.976 48.8558 121.98 49.1939 122.208C49.7329 122.572 50.2603 122.934 50.8218 123.265C51.4726 123.739 53.9195 124.986 54.3833 125.43H54.3814C55.7086 126.051 56.9808 126.733 58.356 127.265C58.6879 127.394 59.5129 127.7 59.772 127.874C60.0526 128.379 60.8169 128.361 61.0249 128.745C60.9806 128.809 60.9378 128.853 60.896 128.882C60.9384 128.853 60.9819 128.809 61.0269 128.744C60.8187 128.36 60.0547 128.378 59.774 127.874C60.6901 128.278 62.1496 128.757 63.1236 129.07H63.1226C64.0567 129.338 65.1151 129.68 66.0523 129.844C65.9585 129.856 64.7038 130.283 64.6636 130.319C64.3455 130.278 63.2096 129.91 62.8775 129.802C62.4063 129.739 60.3964 128.982 59.9283 128.779C59.9413 128.776 59.9547 128.773 59.9673 128.771C59.954 128.773 59.94 128.776 59.9263 128.779C58.632 128.436 53.7436 126.024 52.5474 125.282C52.5464 125.281 52.5455 125.28 52.5445 125.279C51.5968 124.917 49.9233 123.523 48.8785 123.107C48.7811 123.118 48.683 123.129 48.5855 123.141C48.2192 122.592 47.6437 122.326 47.3121 121.516L47.3941 121.119ZM109.763 126.992C109.387 127.502 108.786 127.693 108.503 128.029C108.032 128.589 108.538 128.727 107.514 129.09C107.407 129.239 107.408 129.251 107.34 129.425L107.247 129.497L107.149 129.472V129.473L107.25 129.498L107.342 129.426L107.608 129.388C107.406 129.591 106.072 130.312 105.878 130.298C105.415 129.538 107.252 128.651 107.835 128.289C107.835 128.288 107.837 128.287 107.837 128.286C108.156 128.16 109.308 127.25 109.763 126.992ZM107.291 30.1397C107.802 30.4001 108.514 30.9452 108.957 31.3204C108.881 31.3474 108.822 31.3729 108.773 31.3956C108.822 31.3731 108.882 31.3485 108.958 31.3213C109.359 31.5287 110.15 32.2589 110.652 32.5918C110.613 32.6517 110.583 32.7049 110.559 32.752L110.652 32.5928C111.081 33.0386 111.368 33.1622 111.798 33.5166C111.799 33.5183 111.8 33.5208 111.801 33.5225C113.366 35.0308 115.033 36.3939 116.43 38.0938C116.615 38.3199 118.006 40.007 118.066 40.0459C118.134 40.1938 118.23 40.3835 118.24 40.5381C118.266 40.9678 118.681 41.1495 118.49 41.4747H118.491C118.683 41.1492 118.268 40.9678 118.241 40.5381C118.231 40.3834 118.135 40.193 118.067 40.045C118.79 40.5678 119.613 42.14 120.254 42.7081C120.941 43.3154 124.351 49.5943 124.638 49.6729C124.621 50.1237 125.146 50.8765 125.392 51.2793L125.338 51.4307C125.618 51.8271 126.597 53.7947 126.535 54.1993L126.264 54.002L126.207 54.0401L126.203 54.0997C126.204 54.1003 126.206 54.101 126.208 54.1016C126.266 54.2192 126.619 54.4585 126.74 54.542C128.646 55.8611 130.563 54.7884 132.404 56.1543C132.153 55.513 131.909 54.8632 131.621 54.2383C128.662 52.9096 128.11 55.0432 125.397 51.2803C125.151 50.8777 124.626 50.124 124.643 49.6729C126.484 51.5149 128.226 50.2979 130.479 51.2256C130.291 50.8633 130.1 50.3152 129.92 50.0079C129.149 48.6845 127.679 49.0693 126.551 48.6807C124.894 48.1093 123.958 45.9563 123.269 44.4786C124.367 45.5942 125.16 46.0287 126.752 46.1534C127.14 46.1837 127.578 46.2038 127.951 46.3057C127.941 46.2192 127.863 46.0522 127.776 45.8848L127.543 45.461C127.162 44.9645 126.041 43.0493 125.638 42.4141C126.12 42.0655 126.08 42.4765 126.141 41.6768C126.124 39.5003 125.978 38.2418 124.977 36.3389C126.394 37.4698 127.895 38.7469 128.072 40.6817C128.231 42.4308 127.867 43.5729 128.624 45.3155C128.57 45.3298 128.523 45.3403 128.481 45.3487C128.523 45.3404 128.57 45.3298 128.624 45.3155C128.759 45.767 128.425 45.6824 128.875 46.3633L128.915 46.4483C129.345 47.3605 129.986 48.2594 130.388 49.1534C132.508 53.8694 134.216 58.5701 135.211 63.6534C135.555 65.4237 135.85 67.2038 136.096 68.9903C136.196 69.7537 136.231 70.6737 136.356 71.3975C136.594 71.2252 136.525 71.2612 136.645 70.9258C136.725 69.1916 137.198 66.2071 138.422 64.9571C140.764 62.5684 141.577 60.7796 141.946 57.3174C142.609 60.3439 142.972 64.8298 141.161 67.4854C140.04 69.1288 138.072 70.3418 137.287 72.4659C137.089 73.0004 136.908 73.2075 136.855 73.8487L136.741 73.8418C136.731 73.8002 136.723 73.7548 136.714 73.7071H136.713C136.722 73.7549 136.731 73.8002 136.741 73.8418C136.467 74.043 136.533 74.1908 136.505 74.5313V74.5323L136.526 77.7032L136.387 80.3321C136.388 80.331 136.388 80.3292 136.388 80.3282L136.526 77.7032L136.668 77.6416L136.72 77.5665L136.706 77.6377C136.757 77.7132 136.809 77.7888 136.86 77.8643C137.482 75.1395 138.184 73.3728 140.399 71.6104C142.143 70.2224 143.354 68.0816 143.875 65.9473C143.977 65.5276 143.95 65.0115 144.138 64.6475L144.229 64.6514C144.35 65.1367 144.301 65.9603 144.327 66.503C144.461 69.3102 144.178 72.3884 142.755 74.8692C142.158 75.9132 141.233 76.6305 140.268 77.3116C138.567 78.5158 136.911 80.1449 136.349 82.2139C136.11 83.0931 136.179 84.0877 135.965 84.9815C135.856 85.4376 135.853 85.7366 135.871 86.1934C137.195 82.9727 138.043 81.6847 141.064 79.9512C143.645 78.4693 144.817 75.753 145.764 73.045C145.869 76.9063 144.863 81.9139 142.209 84.8936C141.207 86.0177 139.812 86.3682 138.523 87.0157C137.705 87.426 135.504 88.9313 135.201 89.8282C134.761 91.1284 134.571 92.5432 134.089 93.8975C134.947 92.4942 136.682 90.8355 138.215 90.336C140.779 89.4994 142.431 88.6319 144.182 86.4942C145.229 85.2168 145.54 84.1833 146.312 82.7754C146.041 83.8538 145.854 85.1572 145.57 86.1495C144.655 89.3488 142.808 94.0627 139.774 95.7696C137.638 96.9715 135.24 96.4816 132.801 98.1944C132.265 99.3513 131.799 100.946 131.185 101.961C132.443 101.186 133.75 100.475 135.249 100.434C139.512 100.315 142.45 98.112 144.715 94.4864C144.552 95.1636 144.243 95.9247 143.985 96.5821C142.588 100.135 140.155 104.194 136.856 106.237C136.286 106.59 135.604 106.927 134.869 107.038C132.959 107.326 130.535 106.613 128.697 107.316C128.529 107.381 128.379 107.687 128.299 107.847C128.259 107.788 128.194 107.629 128.161 107.558L128.16 107.557C128.193 107.628 128.258 107.787 128.298 107.846C128.045 108.291 127.791 108.751 127.53 109.189L127.531 109.19C127.338 109.537 126.52 110.606 126.587 110.867C127.939 110.548 129.138 110.571 130.493 110.869C134.654 111.784 138.331 109.861 141.036 106.725C139.266 110.575 134.899 115.94 130.844 117.434C127.625 118.62 126.434 117.222 123.398 116.633C123.132 116.581 122.473 116.469 122.234 116.499H122.232C121.905 117.208 120.456 118.695 119.652 119.6L119.352 119.947C121.585 120.137 121.961 120.604 124.017 121.443C127.004 122.664 130.903 121.993 133.565 120.202H133.567C133.919 119.961 134.3 119.686 134.671 119.483L133.999 120.302L133.996 120.301C130.788 124.006 126.521 127.945 121.337 128.473C118.138 128.798 116.294 126.059 113.325 125.094C113.31 125.112 113.294 125.129 113.28 125.148C113.199 125.253 113.227 125.219 113.169 125.352C112.838 126.126 108.624 128.823 107.608 129.387L107.342 129.425C107.41 129.251 107.41 129.24 107.517 129.091C108.541 128.728 108.034 128.589 108.505 128.029C108.788 127.693 109.388 127.503 109.765 126.993C110.644 126.621 111.959 125.148 112.959 124.953L112.641 124.817C111.056 124.189 109.458 124.247 107.776 124.382C111.626 122.359 113.962 120.385 118.594 119.907C118.61 118.999 121.065 117.275 121.29 116.461C119.688 116.483 118.672 116.827 117.319 117.617C118.795 115.852 121.291 113.74 123.185 112.432C123.843 111.978 124.697 111.621 125.4 111.141L125.475 111.088L125.476 111.087C125.821 110.372 126.484 109.355 126.924 108.685L127.017 108.827L126.924 108.684C127.127 108.325 127.472 107.953 127.519 107.572C126.293 108.081 125.954 108.28 124.931 109.111C125.564 108.123 127.53 105.348 128.339 104.595C130.665 102.43 130.423 101.618 131.785 98.8243C131.419 99.1499 130.95 99.7295 130.617 100.119C131.556 98.0394 132.724 96.1014 133.328 93.9073C133.647 92.7422 133.946 91.5845 134.223 90.4151L134.493 89.2403L134.295 89.2266C134.408 88.9048 134.449 88.7243 134.523 88.3887L134.708 88.2647L134.793 87.9053C134.875 87.5474 134.936 87.1926 134.862 86.8252L134.861 86.8272C134.958 87.3161 134.818 87.7833 134.706 88.2647L134.522 88.3877V88.3887C134.448 88.7241 134.407 88.904 134.294 89.2256L133.788 90.7999C133.984 87.854 133.058 85.853 130.656 84.0723L130.538 83.9698C128.107 81.5263 127.742 77.9234 127.733 74.5938C128.933 77.7685 130.896 78.7745 133.442 80.6436C134.264 81.2469 134.866 82.8574 134.913 83.8877C134.913 83.892 134.912 83.8962 134.912 83.9004L134.994 84.2989C134.986 84.7862 134.934 85.7073 135.052 86.1397C135.073 86.3681 135.059 86.3248 135.009 86.5616L135.012 86.5625C135.062 86.3257 135.076 86.369 135.055 86.1407C134.937 85.7082 134.989 84.7872 134.997 84.2999L135.082 84.6172C135.2 84.6249 135.155 84.6383 135.221 84.6094C135.359 83.6608 135.582 82.0025 135.518 81.1231C135.298 79.1249 133.697 77.8436 132.062 77.0108C129.305 75.6052 128.428 71.7489 128.124 69.0186C129.222 70.8048 130.582 71.8828 132.535 72.6485C134.407 73.3822 134.968 73.985 135.769 75.8184C135.665 74.8216 135.632 73.5747 135.562 72.5459C134.239 70.5532 133.033 70.8083 131.324 69.8956C129.217 68.7706 128.266 65.478 127.665 63.3174C127.745 63.4361 127.825 63.5539 127.907 63.6709C128.714 64.8478 130.273 65.761 131.625 66.1387C133.279 66.601 134.126 66.6324 135.188 68.1739C135.053 67.3313 134.925 66.4873 134.803 65.6426C133.06 63.9194 132.198 64.5997 130.374 63.7413C128.6 62.9064 127.511 60.0617 126.91 58.3155C127.457 58.921 127.738 59.2529 128.435 59.6895C130.543 61.0094 132.366 59.8863 134.06 61.8682C133.821 61.1733 133.642 60.3043 133.41 59.5508C132.052 58.5137 131.074 58.8889 129.638 58.4922C127.793 57.9828 126.609 55.549 125.799 53.9688C125.798 53.9682 125.795 53.9684 125.793 53.9678L125.742 53.8272L125.859 53.7461C125.684 53.5933 124.947 52.0494 124.811 51.7647C123.808 49.6716 122.646 47.5267 121.299 45.6416C120.603 44.6715 119.914 43.6959 119.23 42.7168C118.975 42.3565 118.561 41.8667 118.371 41.5215L118.37 41.5225C117.287 39.8432 115.176 38.0492 113.794 36.545C113.242 35.9431 112.418 35.4512 111.883 34.7803C112.235 34.989 112.117 34.9855 112.472 34.9727L112.473 34.9717C112.121 34.9844 112.239 34.9886 111.887 34.7803L111.585 34.502C111.257 34.2497 110.549 33.7348 110.344 33.4102C110.401 33.3667 110.442 33.3311 110.47 33.3018C110.442 33.331 110.402 33.3662 110.345 33.4092C110.011 33.1698 108.594 32.1388 108.35 31.8946V31.8936C108.022 31.6609 107.698 31.42 107.381 31.1719C107.501 31.0773 107.465 31.0889 107.535 30.9209C107.441 30.7143 107.213 30.6089 107.035 30.4112L107.048 30.2754L107.291 30.1397ZM60.7925 128.927H60.7945C60.8064 128.925 60.8177 128.919 60.8296 128.915C60.817 128.92 60.8051 128.925 60.7925 128.927ZM51.5347 22.1543C51.321 22.443 51.3057 22.4532 51.271 22.7999L51.3746 22.878C51.684 22.8102 51.8626 22.6839 52.1392 22.5264L52.1744 22.4444C52.2874 22.5175 52.2439 22.4712 52.3101 22.5791C51.4203 23.0863 50.4018 23.6452 49.5455 24.1895V24.1915C49.2665 24.3 49.0051 24.4489 48.7505 24.6124L47.9976 25.1241C47.2815 25.5638 46.0143 26.4372 45.3023 26.9512C45.2778 26.8863 45.2434 26.8373 45.2007 26.8018C45.243 26.8373 45.277 26.8866 45.3013 26.9512C44.0157 27.6744 41.6551 29.9109 40.4078 30.9415C40.0615 31.2276 39.6512 31.7046 39.356 31.9336L39.355 31.9356C37.6772 33.4623 36.2967 35.0477 34.7964 36.7295C34.3047 37.281 32.2794 40.1067 31.939 40.3594C31.9249 40.3531 31.9044 40.3485 31.8814 40.3418C31.9039 40.3484 31.9242 40.3533 31.938 40.3594C30.9816 41.9364 31.5327 43.8946 29.0005 45.2227L29.0015 45.2247C28.7279 45.4862 28.6307 45.6179 28.4048 45.9249L28.4058 45.9258C28.3478 46.0468 27.7756 47.1872 27.774 47.1934L27.773 47.1944L27.8492 47.5303C28.4564 46.7021 28.9813 46.0587 30.0933 45.9502C32.1497 45.7498 32.6879 45.6303 34.2613 44.3633C33.5285 45.7735 32.4537 48.0382 30.8023 48.4727C28.8091 48.997 28.1123 48.383 26.6656 50.5342C26.8824 49.858 27.0973 49.1262 27.3824 48.4805L27.2105 48.2881C22.758 57.0711 20.4656 66.7898 20.523 76.6368C20.5441 78.4228 20.8831 80.0716 20.7632 81.8653C20.6887 82.9803 20.98 84.568 21.2886 85.6426C21.6246 86.671 22.5325 89.2026 22.5747 90.1993C22.406 90.139 21.8585 89.1327 21.7271 88.9082C21.8456 89.9837 22.3519 92.4101 22.9146 93.3008C24.2004 95.3364 25.4639 97.4509 26.274 99.7442C25.5691 98.9205 25.0486 98.2701 24.0787 97.7393L24.1372 97.8604C24.6891 99.0249 24.9787 100.356 25.6128 101.416C25.8816 101.864 26.8607 102.507 27.2691 102.948C28.86 104.669 30.6087 106.811 31.733 108.868C30.7627 107.886 29.7972 107.37 28.4566 107.023C28.3261 106.879 28.3127 106.927 28.0484 106.906H28.0474C28.3103 106.927 28.3235 106.879 28.4537 107.023C28.3816 107.535 30.0888 109.708 30.3413 110.528L30.3433 110.529C31.1498 110.905 32.4183 111.478 33.1324 111.95C35.236 113.34 37.6418 115.544 39.2417 117.479C37.7902 116.524 36.4958 116.224 34.7505 116.233C34.9233 116.882 37.1415 118.664 37.4214 119.495C37.4831 119.678 37.7445 119.701 37.9097 119.744C37.7771 119.738 37.6628 119.735 37.5581 119.734C37.6621 119.735 37.7753 119.738 37.9068 119.744C41.9138 119.888 45.3635 122.728 48.6412 124.388C46.9214 124.155 45.0767 124.224 43.4439 124.867L42.8443 125.131C39.8792 126.198 38.1701 128.728 34.8335 128.214C29.656 127.415 25.0332 123.02 22.0064 118.999C25.0841 121.357 28.623 122.47 32.481 121.219C33.9234 120.751 34.8621 119.98 36.5347 119.802L36.6226 119.794C36.7165 119.784 36.8009 119.776 36.8794 119.769C36.8016 119.776 36.7175 119.784 36.6246 119.793L36.6636 119.676C36.0405 119.059 34.2367 117.065 33.8423 116.347L33.8413 116.348C33.4856 116.353 32.2444 116.588 31.896 116.71C29.3841 117.593 27.9285 118.083 25.3326 116.843C21.9245 115.215 19.0876 111.692 17.1294 108.499C16.7971 107.957 16.2217 106.945 16.0171 106.379C18.5171 109.284 21.5701 111.017 25.5132 110.644C26.8687 110.515 27.8042 110.101 29.2017 110.38L29.3003 110.399L29.3384 110.273C28.7295 109.296 28.1483 108.302 27.5962 107.292C27.5968 107.291 27.5976 107.29 27.5982 107.289C27.5226 107.131 27.4084 106.869 27.2437 106.814C25.7645 106.317 23.8167 106.893 22.272 106.661C21.4061 106.532 20.5797 106.118 19.896 105.675C16.7103 103.611 14.4936 99.5198 13.106 96.0606C12.9084 95.5688 12.5598 94.7014 12.4527 94.2354L12.5533 94.1983C12.7814 94.3884 13.0209 94.998 13.271 95.3174C14.0126 96.2661 14.9153 97.2576 15.8775 97.9776C17.1628 98.953 18.6708 99.594 20.2652 99.8418C22.0641 100.107 22.7745 99.9229 24.5181 100.883C23.9799 99.6452 23.5477 98.3564 23.0113 97.0928C20.9324 96.1372 18.9156 96.2332 17.3824 95.3243C14.4439 93.5816 12.5112 88.9411 11.7124 85.7227C11.6085 85.3042 11.0855 82.9876 11.2124 82.7706C11.4556 83.0195 11.7204 83.8222 11.9156 84.1905C12.8958 86.091 14.9086 88.3151 16.9331 89.1319C19.0711 89.9944 19.8102 90.0222 21.5035 91.6983C21.2292 90.7648 20.9136 89.0598 20.7398 88.0684C20.0062 87.3919 19.3104 86.8766 18.4165 86.4258C17.2851 85.8554 16.1412 85.516 15.2398 84.584C12.7308 81.9887 11.775 77.6325 11.6587 74.1358C11.6467 73.7766 11.6021 73.4212 11.5982 73.0674C11.5957 72.8326 11.5864 72.8703 11.7056 72.7559C11.7301 72.7811 12.1617 74.1449 12.2456 74.3614C12.9693 76.2985 14.605 78.535 16.4038 79.6104C18.3329 80.7635 18.8819 81.2285 20.1128 83.1641C19.8545 82.0179 19.7436 80.6677 19.7564 79.4971C18.297 77.2999 16.5688 76.8606 15.273 75.2803C12.8604 72.3373 12.8439 67.5625 13.2408 63.9541C13.3892 64.4043 13.4836 65.038 13.6128 65.5342C13.9447 66.7747 14.4595 67.9591 15.1402 69.0479C16.9908 71.9517 18.3125 71.0855 19.7906 75.2676C19.7635 74.1703 19.7116 72.5812 19.8423 71.5196C18.7403 69.4875 17.3046 68.5832 16.232 66.9825C14.4857 64.3762 14.9772 59.6532 15.6529 56.6827C15.8586 58.2527 15.6548 58.5005 16.2496 60.2666C17.4416 63.8062 19.5208 63.8114 20.3062 67.5518C21.3385 63.168 20.4172 63.7482 18.229 60.379C16.7433 58.0907 17.4955 53.7972 18.1802 51.2247C18.4402 52.8752 18.4189 53.9662 19.1353 55.6016C20.1195 57.8481 21.3639 58.2283 21.646 60.8145C21.8718 59.9828 22.1002 59.0611 22.3765 58.252C21.7369 56.4952 21.3671 56.1342 20.4673 54.5957C18.9021 51.9194 20.2967 48.6199 21.0122 45.9473C21.0948 47.0914 20.9147 47.7631 21.1968 49.1124C21.5498 50.8002 22.129 51.5124 22.8999 53.0274C23.1131 53.4464 23.3967 54.4375 23.5435 54.9288C23.641 54.5719 24.1634 53.1867 24.1607 52.9883C24.1345 51.1001 22.6304 50.2163 22.3736 48.2032C22.1854 46.7282 22.8271 43.5219 23.6412 42.4727C23.7535 42.7862 23.6081 43.5679 23.6851 44.0665C23.8042 44.8362 23.9024 45.7328 24.2115 46.4717C24.9101 48.142 25.4129 48.4278 25.4781 50.3057C25.6612 49.5928 25.9825 49.1094 26.1831 48.4668C26.5623 47.2525 25.8049 45.8308 25.5904 44.7178C25.1476 42.421 26.4541 40.1889 27.6529 38.3721C27.1872 39.9093 27.1288 41.3374 27.5122 42.9024C27.6542 43.4818 27.8563 44.2106 27.9126 44.792C27.9122 44.793 27.9121 44.794 27.9117 44.795C27.9514 44.9574 27.91 44.8922 28.0337 44.9961C28.3166 44.7215 28.6548 43.9908 28.9371 43.5811L28.9771 43.5245L28.9751 43.5235C29.801 42.3012 29.3532 41.6782 29.5484 40.3477C29.8347 38.3962 31.2459 37.1635 32.6978 36.0547L32.5152 36.375C31.9411 37.3722 31.7301 38.1646 31.5318 39.2979C31.4176 39.62 31.4996 39.9923 31.6626 40.2832C31.5001 39.9926 31.4189 39.6205 31.5328 39.2989L31.6109 39.4747C31.8288 39.3479 32.9841 37.7021 33.2466 37.3995C34.7025 35.7205 36.3491 33.4995 38.0552 32.1016C38.2063 32.0048 38.3869 31.8654 38.5816 31.71L39.1929 31.2227C38.7774 31.5439 38.3573 31.9079 38.0552 32.1016C38.6357 31.221 42.8907 27.6804 43.8589 27.0567L43.8599 27.0557C44.3863 26.5328 45.947 25.5586 46.6831 24.9981L46.7535 24.9854C46.9056 24.9577 47.0323 24.9182 47.1412 24.8741L47.2925 24.8047C47.1529 24.8743 46.9819 24.9428 46.7535 24.9844L46.6831 24.9971C47.1219 24.6897 47.4172 24.49 47.8833 24.2276C48.2134 24.0923 48.6711 23.875 49.0865 23.8409L49.1968 23.837C48.7537 23.8355 48.2415 24.08 47.8814 24.2276C48.2888 23.7985 50.8655 22.5724 51.5347 22.1543ZM46.6929 127.178C46.6308 127.214 46.575 127.242 46.524 127.264C46.575 127.242 46.6307 127.214 46.6929 127.178ZM52.4585 124.88C52.849 124.956 53.4037 125.498 54.0435 125.488C53.4034 125.497 52.8486 124.954 52.4585 124.88ZM113.009 124.971C113.067 124.991 113.127 125.013 113.185 125.035C113.127 125.013 113.067 124.991 113.009 124.971ZM40.8804 98.0049C41.5285 98.9865 42.2541 99.9583 42.8648 100.962C44.1544 103.082 45.2079 105.561 45.7056 107.994C46.1359 110.099 45.8572 112.23 45.7173 114.344C45.6131 117.124 46.0197 119.105 47.3091 121.516C47.6408 122.326 48.2162 122.592 48.5826 123.141C48.3017 123.035 48.0231 122.925 47.7466 122.809C44.7889 121.554 42.1902 118.652 41.0005 115.693C40.8408 115.905 40.94 115.857 40.729 115.915C40.1872 115.631 39.749 115.044 39.3374 114.575C39.5543 114.4 39.4982 114.455 39.8326 114.428L39.774 114.175L39.8423 114.076L40.0044 114.068C40.2153 114.341 40.3878 114.565 40.6275 114.813L40.6939 114.653L40.6929 114.649C39.8621 111.098 41.2065 108.281 41.355 104.741C41.4219 103.146 41.445 101.538 41.232 99.9512C41.1495 99.2305 40.9755 98.6372 40.8804 98.0049ZM36.1392 92.544C37.788 95.3566 39.3711 100.455 39.022 103.554C38.6983 106.427 37.4462 109.224 37.9478 112.341C38.0175 112.774 38.0068 113.084 38.1949 113.504L38.2915 113.86C38.4346 114.564 39.1498 115.779 39.5093 116.454C39.2304 116.207 38.9539 115.958 38.6802 115.705C34.0061 111.42 32.1455 107.028 34.6685 101.308C35.7047 98.9579 36.2493 95.1088 36.1392 92.544ZM38.1978 112.231C38.4518 112.393 39.712 113.769 40.0015 114.067L39.8404 114.075L39.771 114.174L39.8296 114.427C39.4953 114.454 39.5514 114.399 39.3345 114.574C39.0001 114.365 38.9347 113.82 38.4429 113.695L38.2925 113.86L38.1958 113.504C38.4086 113.018 38.0297 112.486 38.1978 112.231ZM78.0328 103.234C78.2908 103.496 79.0414 105.169 79.1871 105.57C80.0656 105.65 81.0338 105.784 81.9078 105.906C81.3785 106.564 80.5793 107.293 79.9585 107.884C80.2247 108.858 80.2718 109.705 80.5494 110.617C79.728 110.155 78.8 109.767 78.0328 109.231C77.4324 109.635 76.2783 110.19 75.5962 110.564C75.7196 109.664 75.8754 108.769 76.064 107.881C75.48 107.31 74.6128 106.516 74.149 105.879C75.1076 105.796 75.8976 105.686 76.8492 105.539C77.1962 104.763 77.5736 103.949 78.0328 103.234ZM58.8931 103.163C59.1373 103.593 59.8736 105.106 60.0337 105.539C60.9369 105.677 61.843 105.794 62.7515 105.891C62.1527 106.589 61.5018 107.242 60.8042 107.842C60.9458 108.737 61.1597 109.715 61.3394 110.612C60.6551 110.219 59.4213 109.66 58.8716 109.208C58.3149 109.635 57.1786 110.119 56.4742 110.541C56.5161 109.818 56.7434 108.552 56.8912 107.824C56.2185 107.199 55.5692 106.547 54.9449 105.873C55.8042 105.842 56.8186 105.678 57.6636 105.527C58.0118 104.775 58.4961 103.895 58.8931 103.163ZM68.3326 103.291C68.7489 103.419 69.4347 105.095 69.5943 105.54C70.4771 105.689 71.4399 105.787 72.3335 105.897C71.7208 106.589 71.0338 107.251 70.3775 107.905C70.5538 108.384 70.7686 109.9 70.898 110.547C70.2114 110.22 69.1293 109.692 68.5162 109.289C68.2223 109.316 66.336 110.394 65.9849 110.6L66.4732 107.858C65.8738 107.277 65.0495 106.541 64.5787 105.885C65.5009 105.797 66.3333 105.68 67.2496 105.546C67.6221 104.8 67.9832 104.048 68.3326 103.291ZM87.5816 103.247C87.9393 103.653 88.5526 105.008 88.7662 105.535C89.6629 105.682 90.5651 105.793 91.4703 105.87C90.9234 106.608 90.1968 107.231 89.563 107.919C89.7964 108.848 89.8145 109.648 90.0806 110.589C89.3866 110.171 88.3303 109.667 87.5738 109.254C86.8371 109.722 85.9228 110.155 85.1343 110.553C85.3143 109.83 85.4862 108.681 85.6441 107.898C85.085 107.341 84.1799 106.503 83.7574 105.88C84.6946 105.789 85.4703 105.686 86.3999 105.537C86.8164 104.784 87.1179 104.037 87.5816 103.247ZM97.066 103.29C97.5044 103.493 98.1498 105.069 98.3687 105.566L101.041 105.876C100.594 106.498 99.731 107.313 99.1705 107.866C99.3039 108.76 99.4579 109.651 99.6333 110.538C98.9004 110.2 97.8803 109.672 97.1978 109.269C96.8264 109.412 95.1643 110.335 94.6792 110.583C94.9904 109.6 94.8911 108.923 95.3052 107.897C94.5769 107.294 93.9113 106.618 93.3218 105.879C94.2042 105.791 95.0846 105.686 95.9624 105.565C96.3513 104.798 96.7175 104.078 97.066 103.29ZM127.19 108.869C127.265 108.896 127.323 108.935 127.377 108.986C127.323 108.934 127.265 108.896 127.19 108.869ZM31.7759 107.001C31.9851 107.431 32.107 107.705 32.273 108.155C31.889 107.744 31.732 107.563 31.4146 107.102L31.7759 107.001ZM127.992 107.49C128.003 107.493 128.015 107.496 128.027 107.5C128.015 107.496 128.003 107.493 127.992 107.49ZM32.7193 86.7793C33.8263 89.351 34.5018 94.8899 33.438 97.4815C31.9122 101.199 30.7154 102.749 31.7759 107L31.4146 107.102C31.111 106.713 30.8219 106.313 30.5494 105.902C28.6609 103.039 27.2474 99.2283 28.8228 95.9063C29.3561 94.7814 30.3489 93.539 30.9576 92.2579C31.9909 90.082 32.2538 89.0649 32.7193 86.7793ZM126.701 80.8497C126.951 82.5418 128.408 85.1846 129.65 86.2588C129.75 86.184 129.919 83.9005 130.023 83.6973C130.168 83.877 130.195 83.8976 130.374 84.0469L130.536 83.9698L130.653 84.0713C130.494 84.696 130.542 86.0892 130.201 86.4698L129.969 86.5743L130.336 86.9883C130.718 87.398 131.128 87.7977 131.451 88.1993C133.859 91.1958 132.067 97.0601 129.981 99.67C130.8 97.1816 130.421 94.7542 128.9 92.6006C128.859 92.5175 128.549 92.125 128.474 92.0274C125.992 88.7434 125.741 84.7591 126.701 80.8497ZM30.4087 80.8116C30.4898 80.8596 30.6026 80.9705 30.6128 81.0704C30.9412 84.1842 31.1438 88.3132 29.0738 90.9444C27.0876 93.4695 25.7763 96.1108 26.9546 99.3809C26.5388 98.877 26.4136 98.6073 26.1187 98.0293C24.2303 94.3778 23.231 89.8178 26.5425 86.8594C28.021 85.5393 30.0445 82.7937 30.4087 80.8116ZM90.1685 98.2305C91.6542 98.2336 93.5716 98.2931 95.0298 98.2305L95.2603 98.2168C95.8181 98.1943 96.4949 98.2373 97.0269 98.2647C96.0484 98.4287 93.2465 98.524 92.2398 98.4561V98.4551C85.2195 98.5566 78.1982 98.583 71.1773 98.5342L65.0142 98.4707C63.899 98.4517 62.607 98.3762 61.5132 98.3975C60.8828 98.4585 59.5034 98.3704 58.8833 98.2461C59.544 98.221 60.3899 98.1711 61.0337 98.2237L62.3872 98.2471C63.7594 98.257 65.1744 98.232 66.5142 98.2286L78.9224 98.1749L90.1685 98.2305ZM128.473 92.0274C128.548 92.125 128.858 92.5175 128.899 92.6006C128.697 92.988 128.789 93.2216 128.554 93.6836V93.6856C128.418 94.269 128.275 95.1803 127.776 95.4922C127.668 95.4053 127.628 95.314 127.547 95.1905C127.56 94.975 127.51 94.8739 127.54 94.6788L127.557 94.5889C127.748 93.8171 127.994 92.6504 128.473 92.0274ZM127.752 94.2422C127.724 94.3086 127.695 94.3717 127.663 94.4297L127.753 94.2422C127.782 94.1756 127.807 94.1051 127.833 94.0323L127.752 94.2422ZM128.043 93.3399L128.043 93.3409L128.043 93.3399ZM29.3072 74.711C29.482 75.0675 29.3367 76.3649 29.2945 76.7881C29.0846 78.8938 28.6062 81.3513 27.188 83.004C26.4652 83.8457 25.3585 84.427 24.7154 85.3838C23.7632 86.6475 23.185 88.0518 23.2369 89.6846C23.2407 89.8074 23.2553 89.9029 23.2583 90.0401C23.0765 89.874 23.1 89.8441 23.0044 89.5987C22.1374 86.9461 21.2977 82.1142 23.7544 80.2266C26.152 78.3843 27.9006 77.8207 29.3072 74.711ZM61.441 77.75C62.9393 77.6793 64.025 78.6336 64.6558 79.9063L63.5845 79.8467C63.1172 79.3305 62.8454 78.9709 62.1568 78.7207C61.5889 78.5164 60.9625 78.5496 60.4195 78.8125C58.5759 79.7056 58.5042 82.9563 60.564 83.6299C61.203 83.8381 62.0745 83.8027 62.6802 83.4786C62.9208 83.2719 63.3571 82.8035 63.6011 82.5586L64.6792 82.5079C64.0664 83.5588 63.3318 84.3599 62.0747 84.5879C61.1592 84.7586 60.2139 84.536 59.4703 83.9756C58.7458 83.4327 58.2704 82.6202 58.1519 81.7227C57.8454 79.4683 59.2486 77.9262 61.441 77.75ZM103.24 77.8165C103.311 77.8263 103.561 77.8629 103.598 77.8926C104.485 78.6141 106.892 82.4887 107.269 83.3116C107.158 81.8686 107.222 79.3475 107.219 77.8252L108.18 77.8624C108.083 79.7819 108.305 82.7888 108.131 84.4903C107.969 84.6404 107.919 84.5986 107.651 84.6368C106.885 84.3703 106.208 83.0433 105.757 82.3448C105.095 81.2962 104.408 80.2611 103.7 79.2422C103.834 80.4085 103.773 83.257 103.775 84.5528C103.483 84.5917 103.145 84.6076 102.847 84.629C102.872 82.685 102.839 79.99 102.874 77.9805C102.875 77.8661 102.959 77.8611 103.089 77.794L103.24 77.8165ZM84.5298 77.8116C84.8448 77.823 84.9316 77.8113 85.2222 77.9112C85.277 78.1627 85.2496 79.5862 85.2496 79.9141C85.2602 81.4393 85.2601 82.9641 85.2456 84.4893L85.147 84.5801C84.9762 84.5969 84.4995 84.5934 84.3843 84.4561C83.0604 82.8698 82.0731 80.9795 80.8589 79.2979C80.9801 80.5845 80.9134 83 80.9058 84.3887C80.905 84.5442 80.7321 84.5622 80.5552 84.6338C80.2296 84.6071 80.1582 84.6617 79.9615 84.4932C79.9096 84.1843 79.9302 78.2539 79.9927 77.9161C80.9353 77.4013 81.9823 79.4643 82.4087 80.1211L84.3667 83.1299C84.2912 81.6183 84.3596 79.5902 84.3619 78.0557C84.3619 77.8891 84.3898 77.9165 84.5298 77.8116ZM48.1275 77.8301C49.4825 77.9811 51.9691 77.4696 52.5591 79.001C53.1079 80.4262 52.3203 81.3381 51.0874 81.795C51.6643 82.5209 52.3631 83.7678 52.8443 84.5831C52.4088 84.5915 51.9583 84.6591 51.6177 84.3916C51.1834 83.7182 50.4701 82.5332 50.148 81.8262C49.8203 81.8437 49.4583 81.8398 49.1275 81.8428C49.1842 82.7381 49.1713 83.6593 49.1734 84.5577C48.8564 84.5988 48.483 84.6104 48.1597 84.628C48.1271 82.356 48.1819 80.1128 48.1275 77.8301ZM87.3833 77.8516C87.3803 80.0045 87.4536 82.4174 87.3804 84.5459L86.4146 84.625C86.442 82.3653 86.4484 80.1045 86.4331 77.8448L87.3833 77.8516ZM88.1343 77.8565C89.0224 77.8915 92.1224 77.7589 92.6714 77.9854C92.7621 78.2202 92.7483 78.1019 92.7056 78.3545C92.338 78.6596 91.4188 78.5493 90.9009 78.5332C90.9612 79.842 90.9244 81.3777 90.9244 82.7032L90.9449 84.5665L90.0152 84.6045C89.9641 82.6341 90.0024 80.5249 90.0162 78.5499C89.3238 78.5369 88.8194 78.7016 88.2505 78.4698C88.0854 78.2155 88.1434 78.2175 88.1343 77.8565ZM67.9497 77.8409C69.7997 77.4931 71.5815 78.7111 71.9302 80.5606C72.2786 82.4107 71.062 84.1928 69.2124 84.542C67.362 84.8911 65.5789 83.6741 65.23 81.8233C64.8812 79.9731 66.0989 78.1894 67.9497 77.8409ZM93.565 77.8243C93.8364 77.8502 94.1362 77.8473 94.4107 77.8526C94.3802 79.2536 94.374 80.6547 94.3931 82.0557C94.3984 82.7962 94.4382 83.8486 94.3833 84.5655C94.0372 84.5968 93.8019 84.6601 93.5464 84.4581C93.4793 83.8888 93.4559 78.2361 93.565 77.8243ZM97.9996 77.8497C99.8383 77.492 101.622 78.687 101.989 80.5235C102.356 82.3606 101.17 84.1495 99.3355 84.5264C97.4869 84.9062 95.6821 83.7102 95.3121 81.8594C94.9414 80.0093 96.1472 78.2105 97.9996 77.8497ZM53.7212 77.8145C54.8604 77.9654 56.2601 77.7114 57.2974 77.9288C57.4261 78.0979 57.3698 78.0197 57.3687 78.3116L57.2388 78.4405C56.6198 78.6479 55.3162 78.5501 54.6119 78.5303C54.6177 79.2972 54.618 80.0642 54.6119 80.8311C55.12 80.8174 56.7242 80.699 57.0503 80.9415C57.2131 81.2114 57.1912 81.0749 57.1636 81.3555C56.7187 81.7825 55.2651 81.3369 54.6714 81.6104C54.5919 81.647 54.6179 81.758 54.6089 81.8936C54.6193 82.538 54.6151 83.1927 54.6177 83.8379C55.017 83.8303 57.1815 83.7635 57.3658 83.9161C57.3666 84.1593 57.3856 84.2499 57.2788 84.4717C56.7905 84.5655 54.3575 84.5735 53.7076 84.5918C53.6748 83.0163 53.7406 81.4069 53.7027 79.8252C53.6876 79.1945 53.6707 78.4406 53.7212 77.8145ZM75.2779 77.8077C77.1203 77.6353 78.1661 78.284 79.0035 79.9092L77.9546 79.8526C77.6419 79.456 77.2571 79.0203 76.7964 78.7999C75.6631 78.2586 74.132 78.8734 73.6216 80.0059C73.2992 80.7152 73.2886 81.5265 73.5923 82.2442C74.1308 83.495 75.5323 84.1917 76.855 83.6075C77.6866 83.2413 77.9709 82.4104 78.2583 81.6114L77.1997 81.6163C76.7861 81.624 75.7136 81.7641 75.4996 81.4317C75.5195 81.1605 75.4744 81.1599 75.6138 80.9786C76.2265 80.8383 78.2194 80.9471 79.0699 80.877L79.1724 80.8682C79.1518 82.4889 78.5437 83.8833 76.9009 84.4141C75.9722 84.7092 74.9628 84.6086 74.1109 84.1358C71.4697 82.6798 72.0156 78.5309 75.2779 77.8077ZM70.6372 82.668C71.7594 80.8712 70.4764 78.3194 68.1626 78.6504C67.8477 78.7313 67.5766 78.7931 67.2857 78.9639C65.6971 79.8968 65.7567 82.6912 67.4224 83.5118C68.0066 83.8 68.5034 83.7859 69.1587 83.7256C69.7705 83.5784 70.3007 83.1995 70.6372 82.668ZM99.7417 78.8731C99.2232 78.6055 98.6902 78.5812 98.1206 78.6543C96.5488 79.1135 95.8842 80.5238 96.3433 82.1055C96.7575 83.5308 97.9213 83.8496 99.2788 83.7207C100.787 83.3043 101.328 81.7366 100.923 80.3272C100.748 79.6997 100.32 79.1735 99.7417 78.8731ZM29.2173 68.5196C28.4099 72.8442 27.9415 75.4595 23.9722 77.3135C22.372 78.0611 21.7182 80.1243 21.3453 81.792C21.1264 79.1746 20.6259 76.0878 22.3697 73.7579C23.2091 72.6368 24.5256 72.5134 25.6441 71.875V71.8741L25.4068 71.7237C25.2271 71.2456 25.2042 70.4437 25.4302 69.9834L25.3365 69.8838C25.4014 69.8424 25.8441 69.6541 25.941 69.6114C26.0548 69.6632 26.0706 69.6726 26.1988 69.6807C26.0247 70.3078 25.9569 70.8633 26.0152 71.5108L25.9497 71.5254L26.0845 71.5879C27.3971 71.1251 28.5344 69.678 29.2173 68.5196ZM49.1187 78.5469C49.1775 79.2844 49.1968 80.3432 49.1285 81.0791C49.8342 81.0685 50.7261 81.1103 51.358 80.8418C51.8267 80.2851 52.1645 79.5087 51.4458 78.9864C50.7455 78.4777 49.9335 78.5644 49.1187 78.5469ZM136.533 79.8194C136.507 79.9267 136.482 80.0257 136.458 80.1124V80.1133C136.506 79.9401 136.559 79.7174 136.61 79.4776V79.4766C136.585 79.5965 136.558 79.7121 136.533 79.8194ZM29.6607 63.1045C28.8565 65.6924 28.2481 67.9904 25.941 69.6104C25.8447 69.6529 25.4015 69.8414 25.3365 69.8829C22.8917 70.5559 21.7057 71.3038 21.0972 73.9014C20.9107 72.1841 21.1296 69.9745 21.8365 68.4073C22.962 65.9124 24.3124 66.3516 26.2837 65.5801L26.4292 65.5225C26.6651 65.4313 26.7787 65.3843 27.0025 65.2696C28.3039 64.6332 28.7214 64.219 29.6607 63.1045ZM98.3951 66.669C100.265 66.4886 101.936 67.8394 102.151 69.7061C102.366 71.5726 101.046 73.2672 99.1841 73.5166C97.9487 73.6821 96.7192 73.1686 95.9703 72.1719C95.2213 71.1748 95.0692 69.851 95.5718 68.71C96.0751 67.5693 97.1537 66.7888 98.3951 66.669ZM78.7154 66.6885C80.3197 66.6724 81.0048 67.0404 81.5318 68.5459C81.5097 68.5482 81.4875 68.5505 81.4654 68.5528L81.355 68.5625C80.784 68.6151 80.6257 68.5921 80.0523 68.5362C79.5657 67.9975 78.6974 67.4316 78.1011 68.169C77.6779 69.4656 79.968 69.6057 80.7486 70.0791C81.8255 70.7331 81.6599 72.4412 80.689 73.0811C80.1882 73.4111 79.7919 73.4548 79.2339 73.544C77.5988 73.4441 76.9372 73.0561 76.5406 71.4532C77.0721 71.4535 77.9176 71.3359 78.1997 71.8653C78.5819 72.582 79.4368 72.6418 79.9683 72.0157C80.487 71.4032 79.487 70.8381 78.9654 70.6924C77.4111 70.2586 75.8359 69.3148 76.9683 67.5284C77.3374 66.953 78.061 66.7892 78.7154 66.6885ZM47.2193 66.6905C48.9786 66.611 49.971 67.2978 50.7447 68.8282C50.0743 68.8534 49.788 68.853 49.1265 68.7754C48.555 68.1086 48.3309 68.047 47.521 67.8194C43.4991 68.7739 46.4077 74.5018 49.0982 71.4297C49.4865 71.2496 50.2855 71.3144 50.733 71.3252C50.2297 72.4035 49.7103 73.0888 48.5093 73.3877C43.7475 74.5737 42.1089 67.5311 47.2193 66.6905ZM58.0904 66.7188C58.5318 66.7391 59.0495 66.7265 59.4976 66.7266C59.4604 68.8045 59.5871 71.4394 59.4761 73.4424L58.1138 73.5118C58.0695 71.2637 58.1376 68.9846 58.0904 66.7188ZM87.2955 66.6875C89.1989 66.729 89.7652 67.2913 90.7535 68.8008C90.0749 68.8355 89.7927 68.839 89.1216 68.7676C88.4184 68.1728 88.3458 68.0847 87.4634 67.8633C85.9672 68.2046 85.0015 69.2244 85.5376 70.8213C85.7268 71.4007 86.1515 71.8742 86.7066 72.125C88.0136 72.7121 88.9305 71.9438 89.4224 70.7657C88.6768 70.7428 87.6657 70.9338 87.1744 70.6456C87.0081 70.43 87.0543 70.1435 87.0581 69.8575C87.3458 69.6126 90.1442 69.7564 90.7476 69.7237C90.759 70.6423 90.7507 71.3538 90.2115 72.1553C89.1613 73.7142 86.8037 73.9105 85.3462 72.8428C84.6281 72.312 84.1567 71.5116 84.0415 70.626C83.7479 68.3902 85.1427 66.929 87.2955 66.6875ZM91.4107 66.7217C91.8919 66.7435 92.4599 66.7364 92.9488 66.7422C92.8047 68.422 92.9308 70.6466 92.8736 72.4082C93.585 72.3777 94.3599 72.3868 95.0767 72.3799L95.0933 73.4317C94.05 73.4302 92.4426 73.394 91.4351 73.5069C91.4259 71.2447 91.4595 68.9825 91.4107 66.7217ZM53.0054 66.7354C52.9678 67.6701 53.0256 68.6276 52.9507 69.5625C53.8864 69.5438 54.8614 69.5552 55.8003 69.5528C55.7211 68.6685 55.7468 67.6257 55.7456 66.7266L57.146 66.7334C57.0785 68.2205 57.1285 69.7203 57.1236 71.2061C57.1215 71.8586 57.1685 72.7978 57.1011 73.4278C56.6433 73.4811 56.2289 73.4893 55.7691 73.503C55.7325 72.5535 55.7569 71.5691 55.7662 70.6163L52.9429 70.627C53.0144 71.3245 52.9916 72.6884 52.9976 73.4366C52.5377 73.4678 52.0773 73.4899 51.6167 73.5059C51.4859 71.5344 51.5959 68.7747 51.5699 66.7217L53.0054 66.7354ZM64.524 66.7344L64.5279 67.8887L61.9068 67.876C61.9433 68.5254 61.9538 68.9298 61.9205 69.5762L64.2095 69.5538C64.2129 69.9652 64.24 70.2131 64.2896 70.6133C63.523 70.6152 62.7609 70.5597 61.9966 70.6016C61.8799 70.816 61.9273 71.075 61.938 71.3321C61.9576 71.7157 61.9286 71.9994 61.8999 72.3799L64.5367 72.337L64.5386 73.4336C63.1796 73.4588 61.871 73.3921 60.5064 73.5049C60.468 72.8308 60.5123 71.7058 60.5162 71.004C60.5226 69.5802 60.515 68.1562 60.4937 66.7325L64.524 66.7344ZM70.98 67.9668C70.7016 68.8691 70.262 69.9316 69.94 70.8379C69.6969 71.5221 69.291 72.7339 68.9742 73.3272C68.6244 73.6002 67.7577 73.4826 67.2876 73.462C66.4258 71.3551 65.6426 68.9074 64.8238 66.7315C65.3319 66.7326 65.8403 66.7416 66.3482 66.7569C66.8088 68.4265 67.6336 70.3495 68.1753 72.0704C68.3137 71.3974 69.6507 67.4541 69.9537 66.7481L71.4439 66.7295C71.292 67.1428 71.1374 67.5556 70.98 67.9668ZM41.3755 66.7393C42.094 68.8906 43.2237 71.3432 43.7749 73.502C43.3447 73.5104 42.7786 73.4651 42.3365 73.4415C42.102 72.8925 42.1192 72.2731 41.5074 72.2393L39.2779 72.2315C38.8609 73.6199 38.8144 73.508 37.3824 73.4493C38.1647 71.2177 38.9442 68.9039 39.8521 66.7256L41.3755 66.7393ZM104.673 66.7403C106.008 66.7417 107.924 66.7968 107.842 68.6094C107.81 69.3136 107.371 69.6358 106.887 70.0694C107.995 70.618 108.237 71.386 107.795 72.5049C106.703 73.8925 104.525 73.3725 102.854 73.4952C102.816 72.8385 102.861 71.7395 102.865 71.0547C102.872 69.6169 102.863 68.179 102.836 66.7413L104.673 66.7403ZM116.693 66.7374C116.72 68.0757 116.786 71.1685 116.653 72.3946L118.954 72.3848C118.95 72.7349 118.942 73.0843 118.931 73.4336C117.704 73.4314 116.552 73.4335 115.328 73.4854C115.384 71.2144 115.314 69.0028 115.341 66.7471C115.768 66.7294 116.262 66.7381 116.693 66.7374ZM71.9527 66.7237C73.2633 66.7395 74.5745 66.7436 75.8853 66.7374C75.8818 67.112 75.8943 67.5109 75.8999 67.8877L73.3081 67.877C73.3608 68.4429 73.363 69.0128 73.315 69.5791L75.6333 69.5518L75.6734 70.627C75.1527 70.6118 73.7028 70.4626 73.3404 70.711L73.3423 70.9883C73.3527 71.5152 73.3536 71.8562 73.3101 72.3809C74.1801 72.374 75.0007 72.3683 75.8706 72.3165L75.8833 73.4346C74.5757 73.4239 73.2677 73.4371 71.9605 73.4737C71.8955 71.3074 71.9467 68.9046 71.9527 66.7237ZM110.844 66.7364C111.402 66.7194 111.827 66.7325 112.386 66.7618C113.258 68.8902 113.946 71.3505 114.828 73.459L113.3 73.4424C113.045 72.8659 113.159 72.2586 112.507 72.2403C111.753 72.2494 110.999 72.2433 110.245 72.2227L109.885 73.42C109.535 73.4398 108.65 73.5711 108.508 73.2149C108.68 72.4762 110.49 67.2602 110.844 66.7364ZM136.64 72.8204H136.639H136.64ZM104.2 70.5293C104.249 71.095 104.273 71.818 104.199 72.3799C104.883 72.3746 105.637 72.4139 106.284 72.2149C107.424 70.4561 105.268 70.5245 104.2 70.5293ZM98.354 67.8897C96.9317 68.349 96.3467 69.6094 96.8638 71.0137C97.0446 71.5159 97.4212 71.9238 97.9078 72.1426C98.3553 72.3476 98.6739 72.3009 99.1558 72.2803C101.451 71.6533 101.347 67.7411 98.354 67.8897ZM111.573 68.4541C111.342 69.192 110.961 70.4113 110.624 71.0918L111.745 71.0879L112.512 71.0801C112.38 70.7142 111.689 68.6269 111.573 68.4541ZM40.5894 68.4629C40.2365 69.3364 40.0056 70.2196 39.6861 71.0831L40.7447 71.085L41.5201 71.0733C41.3946 70.7338 40.6995 68.5945 40.5894 68.4629ZM106.248 69.3038C106.826 67.6311 105.386 67.8546 104.223 67.8633C104.245 68.4838 104.258 68.9675 104.226 69.585C104.992 69.5691 105.564 69.6403 106.248 69.3038ZM31.7701 53.375C31.0623 54.7987 30.1907 56.7095 28.8501 57.6475C28.8487 57.6483 28.8467 57.6487 28.8453 57.6495C28.9222 58.0307 28.7666 58.3465 28.6392 58.7295C28.64 58.7301 28.6413 58.7309 28.6421 58.7315C28.5791 58.9389 28.5041 59.2646 28.3746 59.417C28.3717 59.402 28.3667 59.3887 28.3638 59.376C28.3667 59.3886 28.3707 59.402 28.3736 59.417L28.3062 59.6905C28.2748 59.7034 28.2426 59.7159 28.2105 59.7295C28.2428 59.7158 28.2756 59.7035 28.3072 59.6905C29.3717 59.1248 29.7893 58.7963 30.5933 57.8926C29.8094 59.9532 28.9921 61.9379 27.1812 63.3516H27.1783C27.2051 63.9533 26.8952 64.9762 26.9986 65.2696C26.775 65.3842 26.6612 65.4323 26.4253 65.5235L26.3872 65.4385C26.0227 64.6559 26.5922 64.1453 26.5386 63.6495C25.889 63.8534 25.0157 63.8877 24.2896 64.1543C22.6385 64.7607 22.3609 65.3773 21.6665 66.7647C21.9191 64.7326 22.1978 62.3092 23.898 60.9219C24.9767 60.0419 26.2619 60.2944 27.5249 59.9629L27.648 59.9297C27.5693 59.4806 27.7281 59.0978 27.8511 58.6465C27.9553 58.7546 28.0054 58.8078 28.0435 58.8692C28.0054 58.808 27.956 58.7544 27.8521 58.6465C27.9753 58.3766 28.0216 58.3982 27.9732 58.1622L27.9742 58.1612C25.6764 58.7034 24.6928 57.9685 23.0396 60.3194C23.2049 59.0853 23.6239 57.8983 24.2701 56.834C25.7253 54.4384 26.9576 55.4236 29.4615 54.8125C29.793 54.703 30.0765 54.6304 30.3736 54.4473C30.8723 54.1294 31.0257 54.031 31.4683 53.6407C31.5696 53.5529 31.67 53.4642 31.7701 53.375ZM139.509 51.9707C140.012 54.3067 140.647 57.2276 139.843 59.5293C138.901 62.2281 136.574 63.2459 136.229 66.4698C136.249 66.551 136.239 66.493 136.218 66.6475L136.128 66.6172C135.812 66.0517 135.727 64.8946 135.669 64.2383C135.508 62.3909 135.665 60.3508 136.682 58.7471C137.121 58.0565 137.738 57.3715 138.113 56.6348C138.95 54.9861 139.197 53.6163 139.349 51.8184L139.509 51.9707ZM136.597 46.9581C136.663 47.0018 136.709 47.0265 136.761 47.0928C137.088 47.5085 137.343 48.9025 137.464 49.4395C138.903 55.8141 135.051 55.5751 134.891 60.2364C134.843 60.4128 134.885 60.3356 134.766 60.4688C133.983 58.4172 133.553 55.2222 134.705 53.2862C136.152 50.8523 136.644 49.8094 136.597 46.9581ZM28.3501 59.3252C28.349 59.3218 28.3494 59.3177 28.3482 59.3145C28.3463 59.3094 28.3424 59.3054 28.3404 59.3008C28.3437 59.3084 28.3472 59.3163 28.3501 59.3252ZM71.3384 54.5723C72.6385 54.5699 75.4026 54.4926 76.7408 54.5987L76.9878 54.6221C80.9201 54.7938 84.9776 54.5951 88.9244 54.6915C89.6824 54.71 90.5785 54.7269 91.3335 54.6944C91.9474 54.7631 92.6482 54.7619 93.272 54.7754C92.9579 54.8016 92.4457 54.8256 92.1597 54.9082L77.8013 54.9913L73.648 54.9678C73.2523 54.9647 71.9154 54.9316 71.5679 54.9795C70.6975 55.0941 68.563 55.0335 67.5747 55.0313C64.8927 55.0515 62.2101 55.0279 59.5288 54.96C58.4798 54.9404 49.6152 55.1166 49.2574 54.8877C49.2764 54.8621 49.4281 54.7281 49.4566 54.7022L49.2603 54.6758L49.2652 54.6465C50.0578 54.5516 51.4669 54.6239 52.3111 54.6055C54.5228 54.5573 56.8015 54.6536 59.0054 54.6436L71.3384 54.5723ZM61.3716 54.876C62.058 54.9129 63.4806 54.9684 64.1617 54.9112C63.4802 54.9682 62.0587 54.9129 61.3726 54.876L61.354 54.8575H61.3521L61.3716 54.876ZM91.3345 54.6944C92.0445 54.6388 95.9467 54.6462 96.4644 54.8213C95.7269 54.9025 94.3685 54.9609 93.6509 54.9141C93.1548 54.9268 92.6578 54.9252 92.1617 54.9082C92.4476 54.8256 92.9597 54.8016 93.274 54.7754C93.4526 54.7663 93.5844 54.7601 93.7154 54.7608C93.5842 54.7601 93.4527 54.7654 93.274 54.7745C92.6501 54.7609 91.9485 54.7631 91.3345 54.6944ZM65.3433 54.6651C64.0327 54.6534 62.2603 54.69 61.4038 54.7481L61.3726 54.8584L61.3736 54.8594L61.4048 54.7481C62.261 54.6901 64.0328 54.6535 65.3433 54.6651ZM61.0415 54.8223L61.2193 54.8584V54.8575L61.0425 54.8213L61.0415 54.8223ZM61.2769 54.7823L61.316 54.8213L61.314 54.8174L61.2779 54.7813L61.2769 54.7823ZM32.9898 49.4034L33.0044 49.501L32.9078 49.5782H32.9068C32.362 50.5922 31.8295 51.4 31.1568 52.3389L31.1548 52.3399C30.9455 52.8358 30.405 53.9742 30.3697 54.4473C30.0727 54.6302 29.789 54.703 29.4576 54.8125C29.3175 54.0186 30.0199 53.5902 29.9058 53.1124C28.1298 53.8286 27.206 53.1661 25.6548 54.0264C25.4206 54.1564 25.0905 54.5162 24.8472 54.7207L24.7847 54.6758C25.1187 53.0665 26.5106 50.4698 28.3775 50.5684C29.3751 50.6212 30.6388 50.7236 31.5142 50.1797C31.6137 50.152 31.7006 50.1172 31.7808 50.0821C31.7005 50.1172 31.6129 50.152 31.5132 50.1797L31.6158 49.8106C32.172 49.7766 32.2281 49.3543 32.6919 49.2403L32.9898 49.4034ZM61.2759 54.7793L61.2779 54.7813L61.2867 54.7579V54.7569L61.2759 54.7793ZM134.151 42.9532C134.936 44.8076 135.783 48.0954 134.801 49.9385C133.801 51.8169 133.404 52.4114 133.029 54.585C133.006 54.6564 133.027 54.6168 132.933 54.6827C132.743 54.4702 132.454 53.4595 132.373 53.1582C131.917 51.6089 131.828 49.7934 132.666 48.334C133.799 46.361 134.024 45.0702 133.982 42.8174L134.151 42.9532ZM130.228 39.0791C130.574 39.2898 130.932 40.1838 131.113 40.544C133.513 45.31 130.459 46.3421 131.347 49.7881C131.291 49.8463 131.332 49.8125 131.204 49.8624C130.948 49.6387 130.545 48.8515 130.373 48.5206C128.458 44.834 131.284 42.8897 130.095 39.0225C130.139 39.0415 130.187 39.0543 130.228 39.0791ZM56.0083 26.0284C65.5593 21.4362 76.3006 19.9199 86.7496 21.6895C88.8136 22.0339 90.4014 22.518 92.3716 23.0352L92.3706 23.0362L92.608 23.086C95.2287 23.6904 102.874 27.0304 104.752 28.459L104.573 28.7647C104.293 28.8562 104.171 28.9155 103.927 28.9122C104.172 28.9159 104.295 28.8565 104.575 28.7647C104.617 28.7925 104.663 28.8211 104.71 28.8506C104.663 28.821 104.617 28.7916 104.575 28.7637L104.754 28.4581C105.597 28.9639 106.515 29.542 107.29 30.1397L107.047 30.2754L107.034 30.4112C107.212 30.6089 107.44 30.7143 107.534 30.9209C107.464 31.0888 107.5 31.0772 107.38 31.1719C106.658 30.6996 105.941 30.2188 105.23 29.7315V29.7325C104.772 29.4822 104.27 29.1731 103.815 28.9073H103.813C100.953 27.1524 98.3171 25.9474 95.1714 24.754C94.1304 24.3593 92.5528 23.9907 91.6197 23.5606V23.5596C91.2568 23.5747 88.4712 22.8665 87.8951 22.7452C71.3709 19.2665 53.6572 25.0894 41.8658 37.0508C39.4317 39.5197 37.0578 42.4557 35.107 45.3575C34.54 46.1837 33.1498 48.7579 32.69 49.2393C32.2267 49.3535 32.1698 49.7756 31.6138 49.8096C32.3994 48.1377 33.599 46.2173 34.6275 44.6739C39.2807 37.6688 45.5056 31.846 52.8052 27.67C53.8233 27.0757 54.9425 26.5429 56.0083 26.0284ZM28.0484 46.1377L28.0494 46.1387L28.2964 45.8965H28.2955L28.0484 46.1377ZM127.669 45.1358L127.643 45.211L127.669 45.1368L127.839 45.0948L127.669 45.1358ZM112.188 27.5762C112.671 27.676 112.636 28.1991 113.111 27.9405C113.218 27.7221 113.139 27.7984 113.354 27.6983C113.768 28.0732 114.384 28.5407 114.734 28.8907C114.697 28.9178 114.664 28.9404 114.635 28.961C114.664 28.9401 114.699 28.9173 114.736 28.8897C115.835 29.8546 116.938 30.8329 118.016 31.8223C118.573 32.3328 119.116 33.0483 119.675 33.5176C119.642 33.5089 119.609 33.4992 119.577 33.4903C119.608 33.4991 119.641 33.509 119.673 33.5176C120.895 35.2059 122.746 36.8382 123.978 38.6221C124.342 39.1495 125.843 41.4304 126.14 41.6768C126.079 42.4758 126.12 42.0649 125.638 42.4131C125.409 42.2353 124.035 40.0692 123.756 39.6993C122.415 37.886 120.964 36.1549 119.416 34.5157C119.415 34.5144 119.414 34.513 119.414 34.5118C119.16 34.289 118.803 33.8977 118.565 33.6426C117.124 32.0992 115.575 30.7495 114.019 29.3311L114.103 29.168L114.102 29.169L114.018 29.3311C113.699 29.2323 112.29 28.0323 112.021 27.7198L112.188 27.5762ZM112.555 34.9239C112.793 35.1343 112.864 35.2306 113.159 35.3184L113.139 35.3106C112.864 35.2246 112.791 35.1283 112.558 34.9229L112.555 34.9239ZM116.847 31.1475C117.214 31.3973 117.033 31.5342 117.201 31.7393C117.748 32.4075 118.123 32.834 118.682 33.1397C118.589 33.0888 118.501 33.0348 118.417 32.9766C118.332 32.9183 118.251 32.8559 118.171 32.7891C117.854 32.5225 117.566 32.1845 117.202 31.7393C117.034 31.5343 117.215 31.3971 116.849 31.1475H116.847ZM110.507 33.1182C110.527 33.1637 110.544 33.1954 110.512 33.2481C110.544 33.1959 110.527 33.1645 110.507 33.1192V33.1182ZM116.627 31.2452L116.627 31.2471L116.716 31.1993L116.627 31.2452ZM40.5552 30.045C40.4604 30.2115 40.3883 30.4027 40.3033 30.6006C40.1613 30.6119 39.9876 30.6873 39.7974 30.7999L39.9371 30.7227C40.0726 30.6536 40.1969 30.6091 40.3033 30.6006C40.3882 30.4029 40.4605 30.2123 40.5552 30.0459V30.045ZM41.3775 29.4952C41.0663 29.5391 40.8652 29.6555 40.7183 29.8165L40.7847 29.751C40.9249 29.6245 41.1107 29.5338 41.3775 29.4961L41.4234 29.5899L41.3775 29.4952ZM112.436 27.0157H112.437C112.743 27.2508 113.035 27.4786 113.354 27.6973C113.139 27.7973 113.218 27.7209 113.111 27.9395C112.636 28.198 112.671 27.675 112.188 27.5752L112.021 27.7188L111.802 27.6163V27.6172C111.579 27.4933 111.577 27.501 111.402 27.3194C111.507 27.1811 111.655 26.7127 111.759 26.5C111.982 26.6756 112.208 26.8475 112.436 27.0157ZM107.981 23.962C108.356 24.1646 108.808 24.5623 109.055 24.6319L109.053 24.6329C109.731 25.0712 110.769 25.8989 111.392 26.2237H111.393L111.758 26.4981C111.654 26.7107 111.505 27.1804 111.4 27.3184L110.817 26.8965V26.8956C110.604 26.8214 109.052 25.6799 108.841 25.5059C108.841 25.505 108.84 25.5039 108.839 25.503C108.141 25.2096 108.115 24.8964 107.49 24.6358C107.436 24.4483 107.441 24.5444 107.478 24.3448C107.711 24.2053 107.802 24.1625 107.981 23.962ZM45.0425 26.7305C45.0533 26.7326 45.0634 26.7365 45.0738 26.7393C45.0634 26.7365 45.0533 26.7325 45.0425 26.7305ZM47.9478 24.7071C47.9601 24.7277 47.9712 24.7479 47.98 24.7686L47.9488 24.7061L47.8531 24.5791L47.9478 24.7071ZM102.564 21.8223C103.25 21.315 103.262 21.9668 104.024 21.7149C104.216 21.9466 104.666 22.1562 104.946 22.1963H104.948C105.27 22.4614 106.266 22.9179 106.795 23.2618C106.514 23.2219 106.216 23.1342 105.928 23.0987C106.215 23.1346 106.513 23.223 106.793 23.2627C107.134 23.4695 107.645 23.816 107.977 23.9629C107.798 24.1632 107.707 24.2063 107.475 24.3457C107.438 24.5453 107.432 24.4491 107.486 24.6368C106.676 24.298 106.168 23.6078 105.26 23.4434V23.4424C104.883 22.986 103.788 22.6723 103.578 22.3155L103.577 22.3145C103.18 22.1718 102.929 22.0232 102.564 21.8223Z" fill="var(--fill-0, white)"/>
</g>
</svg>
