<svg preserveAspectRatio="none" width="100%" height="100%" overflow="visible" style="display: block;" viewBox="0 0 164.061 164.061" fill="none" xmlns="http://www.w3.org/2000/svg">
<g id="image 21 [Vectorized]">
<path id="Vector" d="M40.9832 28.8079C42.058 26.4707 43.2577 24.5105 45.2859 22.8675C46.0665 22.231 47.1893 21.2616 48.2509 21.8157C48.6111 22.0037 49.0426 22.4898 49.1023 22.8997C49.4694 25.4219 48.4354 28.5693 47.0125 30.6392C47.7814 30.5542 51.3082 30.1463 51.4192 31.4427C51.4918 32.2904 50.2031 33.8683 49.607 34.4858C47.6205 36.5539 44.8851 37.7351 42.0177 37.7633C41.0636 37.7809 40.1109 37.6802 39.1815 37.4634C38.2866 38.7217 37.2216 39.9053 36.3131 41.1738C38.0869 39.9462 40.8322 38.274 43.1008 38.5498C44.3294 38.6992 45.0354 40.0833 44.6795 41.2389C44.1141 43.0744 42.381 44.5354 40.7603 45.4592C39.0794 46.3983 37.0872 46.9612 35.1619 46.8975C34.4058 46.8726 33.6353 46.7354 32.8942 46.6858C32.2123 47.8561 31.564 49.3786 30.9271 50.6178C32.0742 49.6877 32.992 49.2856 34.3437 48.7391C36.4838 47.874 37.9184 48.8361 37.5509 51.1925C36.5884 56.0016 32.2125 57.4957 28.1657 58.634C27.5588 60.6968 27.1876 63.4286 26.7586 65.5629C28.2007 63.2917 29.3835 61.6375 31.705 60.1083C33.5645 58.8836 34.5009 58.651 34.7991 61.2314C35.0266 63.1997 34.3021 65.157 33.1306 66.7206C31.808 68.5312 28.461 70.7949 26.3971 71.7027C26.3813 72.9505 26.3969 74.1986 26.4441 75.4457C26.4438 75.6978 26.4187 75.8574 26.5321 76.0818C26.7229 75.8783 26.7832 75.6186 26.8859 75.3441C27.5285 73.4449 29.3055 70.8657 30.9411 69.6356C31.5334 69.19 32.2711 70.0235 32.4583 70.6053C33.2264 72.9927 33.2373 75.7053 32.2444 78.0317C31.4368 79.7889 30.1716 81.0081 28.7921 82.2779C28.3694 82.6672 28.1011 83.1198 27.6103 83.4859C27.8398 84.5762 28.123 85.6536 28.4588 86.7158C28.5893 87.1412 29.1297 88.7634 29.1599 89.1119C29.2782 89.4058 29.4822 89.7872 29.6271 90.0787C29.6351 89.6854 29.6259 89.3354 29.6126 88.9444C29.7416 86.1991 30.2705 83.4867 31.1824 80.8944C32.3546 77.5692 34.6433 82.3131 35.0903 83.5532C36.1442 86.4771 35.7201 89.7792 33.8277 92.2681C32.9859 93.3752 32.3415 93.7477 31.7121 95.0486C32.8522 97.2644 34.1105 99.4177 35.4815 101.499C35.2532 100.249 35.125 98.9827 35.0982 97.7122C35.0629 95.3691 35.435 92.1287 36.197 89.8905C36.3558 89.4243 37.2008 89.3698 37.5705 89.7327C39.1874 91.3204 40.2557 93.6764 40.5567 95.9026C41.0274 99.3841 40.1103 102.145 38.0162 104.899C39.2023 106.209 40.3654 107.541 41.5051 108.891C41.0226 107.728 40.6102 105.822 40.6215 104.642C40.6467 102.008 40.4691 95.3482 44.3066 100.168C46.6264 103.082 47.2247 105.251 46.9479 108.851C47.4939 108.819 47.7353 108.805 48.284 108.855C48.2098 107.561 48.0848 106.853 48.5781 105.627C49.0546 105.341 49.1641 105.306 49.6799 105.154C49.7813 105.177 49.8822 105.201 49.9825 105.229C51.6464 105.683 52.5752 107.445 53.378 108.831L88.4907 108.843L102.55 108.845C105.21 108.845 108.06 108.894 110.709 108.809C111.656 107.072 112.387 105.6 114.465 105.14C116.296 105.786 115.871 107.264 115.739 108.869C116.282 108.814 116.546 108.826 117.088 108.848C116.826 105.314 117.553 102.621 119.958 99.9072C122.052 97.5424 122.879 98.1128 123.261 101.063C123.614 103.802 123.526 106.182 122.595 108.827C123.664 107.602 124.931 106.063 126.041 104.924C122.606 100.292 122.394 94.8484 125.97 90.2262C127.824 87.8293 128.326 91.3541 128.533 92.5397C129.071 95.6318 129.02 98.4019 128.61 101.489C129.941 99.4425 131.179 97.2188 132.338 95.0711C131.822 93.8414 131.391 93.6347 130.519 92.6021C129.519 91.4165 128.642 89.494 128.472 87.9455C128.194 85.3708 129.004 82.3676 130.704 80.3857C132.151 78.6991 132.816 80.6805 133.176 81.818C134.036 84.5393 134.498 87.2806 134.449 90.1292C135.228 88.644 135.954 85.173 136.509 83.4651C136.181 83.252 136.097 83.1839 135.885 82.857C135.554 82.3484 134.892 81.8589 134.424 81.4343C133.433 80.5347 132.757 79.7296 132.12 78.5565C130.792 76.1116 130.776 73.3442 131.589 70.7314C131.706 70.3403 131.948 69.7823 132.361 69.621C133.162 69.3119 133.929 70.2715 134.392 70.8079C135.292 71.8518 136.105 73.028 136.696 74.2761C137.029 74.9804 137.315 75.6944 137.621 76.4059C137.577 75.1094 137.607 72.9997 137.686 71.7249C133.502 69.7913 128.307 65.859 129.374 60.6029C129.531 59.8262 129.864 58.895 130.876 59.3209C133.075 60.2463 135.464 62.5376 136.667 64.5753C136.798 64.8116 137.131 65.2849 137.292 65.53C137.183 64.9352 137.099 64.3453 136.981 63.7492C136.982 63.1203 136.119 59.6518 135.978 58.6305C131.853 57.7506 127.063 55.5246 126.471 50.8573C125.916 46.4846 131.605 49.2074 133.109 50.6097C132.533 49.3652 131.82 47.8307 131.133 46.6611C128.021 47.1215 125.756 46.8919 122.969 45.2662C121.374 44.3358 118.207 41.4142 119.637 39.3803C121.309 37.0023 126.201 40.0499 127.818 41.233C126.848 39.9219 125.81 38.7309 124.856 37.4648C120.888 38.4456 116.768 37.1356 114.101 34.0527C110.766 30.1984 113.862 30.3687 117.067 30.6323C116.822 30.2805 116.6 29.9134 116.401 29.5335C115.515 27.8485 114.425 24.5064 115.031 22.6598C115.696 20.6338 117.958 22.181 118.864 22.9852C120.877 24.7741 121.972 26.3964 123.083 28.7726C123.235 27.882 123.497 27.0138 123.864 26.1879C124.365 25.0291 126.17 21.3388 128.007 22.2101C128.474 22.4606 128.896 22.983 128.983 23.5056C129.759 28.1718 128.839 32.5626 126.381 36.5838C127.063 37.2724 128.794 39.5751 129.298 40.3789C129.108 38.1849 130.239 33.4076 132.781 32.4185C133.977 31.9535 134.674 33.3546 134.875 34.4075C135.665 38.5546 134.845 41.9978 132.555 45.4915C133.684 47.8041 134.446 49.2489 135.483 51.6924C135.549 51.9566 135.52 51.9735 135.686 52.165C135.861 51.9551 135.83 51.8366 135.89 51.5275C136.182 49.1047 137.256 46.8504 138.853 45.0145C139.564 44.1958 140.163 43.8631 141.207 43.6469C141.738 43.7843 142.155 43.8839 142.439 44.4176C143.163 45.7806 142.187 49.3549 141.765 50.8039C140.918 53.7124 139.527 56.4606 137.759 58.9076C138.175 60.1265 138.521 62.0204 138.71 63.3227C139.736 61.4326 141.053 60.0211 143.163 59.401C143.707 59.241 144.689 59.0005 145.224 59.2224C145.853 59.4834 145.636 60.5228 145.589 61.0473C145.41 63.0586 144.76 64.986 143.731 66.7199C142.565 68.7514 141.274 69.9429 139.499 71.4263C139.47 72.7534 139.465 74.7029 139.273 75.9718C140.988 73.9995 142.575 72.6656 145.336 72.426C145.896 72.3775 146.872 72.3389 147.35 72.6723C147.988 73.169 147.355 74.5511 147.106 75.0986C146.373 76.712 145.326 78.2084 144.051 79.4326C142.875 80.582 141.524 81.5353 140.046 82.2586C139.532 82.5078 138.862 82.7489 138.405 82.9884C137.967 85.0288 137.607 86.3297 136.974 88.3084C139.071 86.6966 143.216 85.1049 145.397 87.3078C144.728 89.6382 141.715 92.2312 139.627 93.3375C137.873 94.2668 136.317 94.761 134.352 95.0462C133.428 96.8479 132.658 98.2602 131.613 99.9993C134.045 99.5026 136.63 99.7285 138.766 101.206C140.488 102.397 141.55 103.12 139.254 104.4C135.68 106.393 131.468 106.892 127.557 105.667C127.088 106.535 125.644 108.117 124.922 108.869C126.449 108.808 128.061 108.84 129.596 108.848L129.575 112.052C129.875 112.405 130.52 113.093 130.76 113.42L139.886 113.417C141.309 113.417 143.035 113.461 144.429 113.407C143.538 115.559 142.363 117.658 141.415 119.791C140.916 120.912 140.243 122.04 139.769 123.159C141.153 125.976 143.276 130.008 144.389 132.79C142.821 132.892 140.552 132.824 138.942 132.822L126.882 132.819C124.953 132.819 122.181 132.741 120.317 132.861C120.325 131.356 120.305 129.788 120.332 128.292C118.069 128.208 115.327 128.132 113.079 128.401C111.387 128.605 109.948 128.382 108.259 128.269C106.155 128.239 104.014 128.232 101.905 128.271C102.556 129.918 104.379 134.752 100.512 132.429C98.4817 131.209 96.8427 129.893 95.1308 128.273C94.2752 128.269 93.4862 128.265 92.6306 128.217C94.0982 128.996 95.4544 130.139 96.2275 131.628C96.491 132.136 95.7564 132.665 95.3126 132.695C92.6186 132.884 89.5793 132.469 86.9782 131.822C90.0383 133.998 92.6747 136.355 94.7094 139.56C95.1548 140.261 96.1425 141.377 95.3951 142.168C94.9826 142.605 94.3946 142.492 94.1142 141.989C93.2939 140.724 92.5161 139.434 91.5572 138.265C89.3959 135.531 85.1854 132.415 82.0075 130.94C77.4744 133.424 73.6593 136.109 70.8989 140.529C70.532 141.116 69.8672 142.559 69.1524 142.399C67.3646 141.997 69.2345 139.815 69.6958 139.001C71.6405 136.004 74.1914 133.89 77.0674 131.83C75.4349 132.237 69.5299 133.34 68.1658 132.481C67.9795 132.364 67.8424 132.193 67.8051 131.971C67.7087 131.396 68.5036 130.556 68.8612 130.156C69.5869 129.354 70.4603 128.7 71.4337 128.228C70.6228 128.263 69.7948 128.297 68.9839 128.242C66.371 130.666 58.3924 137.595 62.1417 128.273C60.04 128.242 57.9533 128.256 55.8541 128.271C54.8941 128.278 52.9399 128.638 52.1056 128.514C49.2302 128.084 46.4622 128.297 43.5615 128.252C43.6012 129.777 43.5499 131.388 43.6165 132.889C38.4652 132.793 33.1485 132.855 27.9887 132.855H22.5587C21.6364 132.855 20.2718 132.814 19.3915 132.897C20.9493 129.916 22.6993 126.176 24.1423 123.096C22.4847 119.977 21.0267 116.58 19.4174 113.428C23.7994 113.46 28.9482 113.529 33.2982 113.408C33.6423 113.004 33.9889 112.603 34.338 112.204C34.3493 111.073 34.3344 109.944 34.2937 108.814C35.8196 108.897 37.7563 108.747 39.1612 108.876C38.4855 108.125 36.9114 106.486 36.4648 105.675C32.3475 106.837 28.5354 106.434 24.7555 104.387C24.1511 104.059 23.0237 103.356 23.6858 102.564C25.6995 100.156 29.514 99.2311 32.4735 99.9937C31.4301 98.2369 30.646 96.8639 29.7189 95.023C26.1091 94.6513 22.4564 92.6422 20.1816 89.8104C19.7431 89.2649 19.1944 88.5447 18.868 87.9215C18.616 87.4408 18.8273 86.9634 19.3347 86.7334C20.8067 86.067 22.7458 86.1847 24.2472 86.7206C25.266 87.0771 26.2168 87.6042 27.0587 88.2787C26.6046 86.6285 25.9053 84.649 25.706 82.9676C21.5847 81.2941 18.605 78.9004 16.7909 74.6995C16.141 73.1944 16.2271 72.3023 18.0694 72.4054C20.9644 72.4274 22.9648 73.8451 24.7822 75.9505C24.5745 74.883 24.5639 72.4554 24.6314 71.3395C22.0902 69.8471 19.59 66.1415 18.8869 63.283C18.7097 62.5625 17.8128 59.3108 19.0163 59.1677C20.1336 59.035 21.6435 59.5672 22.5884 60.1912C23.7722 60.9887 24.7296 62.0787 25.3675 63.3555C25.4724 62.3365 25.9376 59.7694 26.3302 58.8598C23.6338 55.5977 21.0635 48.8472 21.4208 44.6195C21.9025 43.9211 22.0468 43.8337 22.8893 43.6377C26.3588 44.476 27.8422 49.3267 28.3356 52.4186C28.8673 50.9315 29.4837 49.4759 30.1817 48.0593C30.4939 47.4276 31.2777 46.0363 31.5017 45.4576C29.2207 42.0909 28.4519 38.5417 29.1792 34.5332C29.3513 33.5845 29.9393 31.9526 31.0928 32.3984C34.0015 33.5225 34.7783 37.8896 34.7813 40.3398C35.4213 39.3897 36.9053 37.3151 37.7148 36.5632C35.2253 32.862 34.367 28.0275 35.0452 23.6479C35.1349 23.0683 35.3965 22.6146 35.8899 22.2959C37.3728 21.338 38.792 23.631 39.4155 24.6624C40.2031 25.9655 40.7374 27.3265 40.9832 28.8079ZM121.116 40.237C121.032 40.507 120.995 40.6714 121.143 40.9447C122.203 42.9138 124.164 44.1569 126.256 44.795C127.362 45.1327 128.271 45.1764 129.395 45.1523C129.372 44.5215 126.193 42.1851 125.572 41.8492C124.308 41.1651 122.598 40.1711 121.116 40.237ZM35.3063 45.1659C37.8032 45.1254 40.1827 44.0989 41.9255 42.3105C42.3017 41.9191 43.4249 40.7501 42.7797 40.2798L42.3746 40.2347C39.9325 40.6628 37.3986 42.3683 35.6278 44.0544C35.4045 44.267 34.7661 44.8644 34.694 45.1323C34.9428 45.1582 35.0516 45.1705 35.3063 45.1659ZM24.7369 69.099C24.7167 68.5379 24.789 67.9272 24.7329 67.3914C24.4145 64.347 23.0464 62.1574 20.2255 60.979C20.881 64.1806 21.943 66.8133 24.4773 69.0234C24.5688 69.1031 24.6292 69.108 24.7369 69.099ZM131.992 91.6761C132.212 91.9044 132.486 92.1728 132.685 92.4115C132.725 89.3818 132.676 86.8144 131.897 83.8496C131.807 83.5067 131.638 82.6736 131.472 82.3972C129.557 85.6288 129.802 88.6809 131.992 91.6761ZM139.456 69.1314C141.253 67.5808 142.664 65.3363 143.366 63.0674C143.534 62.5247 143.636 61.7182 143.799 61.1172C143.759 61.0964 143.719 61.0755 143.68 61.0547C140.398 62.3627 139.162 65.653 139.329 68.9771C139.421 69.1244 139.365 69.0883 139.456 69.1314ZM136.947 69.263C135.705 65.946 134.171 63.3178 131.037 61.3985C130.962 63.4182 131.634 64.8858 132.984 66.392C133.726 67.2201 135.941 68.8902 136.947 69.263ZM31.9687 91.7554C33.319 90.0371 34.0537 88.2034 33.8274 85.9708C33.7424 85.1321 33.1602 82.9684 32.5502 82.4068C31.7614 85.4365 31.2697 88.2002 31.3441 91.3469C31.3522 91.6905 31.3568 92.0863 31.3372 92.4267L31.9687 91.7554ZM127.274 24.0167C124.965 27.0637 124.275 29.7748 124.697 33.6573C124.738 34.0322 124.888 34.6254 125.028 34.9742L125.162 35.0697C125.382 34.8588 125.652 34.2262 125.79 33.9318C126.764 31.8582 127.401 29.5127 127.406 27.2108C127.408 26.5531 127.426 24.5695 127.274 24.0167ZM37.8448 101.982C39.068 99.1389 39.253 96.7301 38.1204 93.7757C37.9824 93.416 37.6652 92.6013 37.3491 92.3955C36.7523 95.6535 36.7998 99.5435 37.4178 102.789L37.8448 101.982ZM132.938 101.522C130.477 101.843 130.216 102.401 128.79 104.183C130.849 104.679 132.016 104.654 134.055 104.414C134.96 104.201 135.792 103.997 136.663 103.669C137.216 103.462 137.747 103.181 138.282 102.987C136.62 101.95 134.953 101.231 132.938 101.522ZM32.5675 43.7735C33.0167 42.1963 33.0341 39.9117 32.8476 38.2868C32.7304 37.2644 31.9151 35.012 31.0408 34.4076C30.4825 36.8865 30.6182 39.2514 31.4751 41.65C31.6703 42.1964 32.1107 43.3995 32.5675 43.7735ZM131.585 43.765C133.191 40.8866 133.736 37.9965 133.087 34.6978C133.055 34.5368 133.036 34.5179 132.939 34.4213C131.508 36.3242 131.015 38.1088 131.13 40.4856C131.166 41.2328 131.096 43.195 131.585 43.765ZM41.6919 32.8154L41.7874 32.7453C42.3608 32.3289 43.8786 31.608 44.1594 31.3482C45.7211 29.904 46.9906 27.1247 47.2907 25.0267C47.3495 24.6157 47.4713 23.938 47.4101 23.564C44.5509 25.4855 42.6948 28.462 41.9243 31.7678C41.8369 32.1423 41.6528 32.4184 41.6919 32.8154ZM40.7359 36.0419C41.2175 36.0454 41.7244 36.0575 42.2037 36.0505C45.3755 35.7612 47.1091 34.5665 49.1951 32.2846L47.8791 32.3191C45.5788 32.51 45.2015 33.0391 43.4562 34.4401C42.7692 34.9916 41.5277 35.6553 40.7359 36.0419ZM116.623 23.5292C116.614 26.0635 117.848 29.1635 119.585 31.0562C119.931 31.4327 121.95 32.5983 122.44 32.8003C121.279 28.6976 120.336 26.1407 116.623 23.5292ZM70.4741 130.999C71.2264 130.975 73.4312 130.833 74.1168 130.649C75.4904 130.444 76.8465 130.093 78.1909 129.747C76.6276 129.203 75.8172 128.987 74.1397 129.15C72.6408 129.419 71.6092 130.012 70.4741 130.999ZM91.7823 130.888C92.3903 130.933 92.9983 130.971 93.6071 131.002C91.6862 129.342 90.3027 128.984 87.833 129.16C87.0735 129.318 86.7379 129.465 86.0121 129.733C87.446 130.259 90.2602 130.769 91.7823 130.888ZM31.9752 104.598C33.176 104.587 34.1359 104.438 35.3058 104.187C34.5732 103.221 34.119 102.473 32.929 101.988C31.7835 101.521 30.6458 101.365 29.4061 101.523C27.9461 101.715 27.0587 102.217 25.7954 102.946C28.0759 104.066 29.4418 104.422 31.9752 104.598ZM66.4088 128.249C65.7056 128.259 64.9248 128.286 64.2294 128.241C63.8058 128.835 63.4159 129.911 63.1427 130.618L64.446 129.722C65.1234 129.263 65.7629 128.752 66.4088 128.249ZM138.961 80.8247C141.572 79.6866 144.406 76.8556 145.501 74.2224C145.335 74.1665 145.41 74.1653 145.279 74.1936C142.972 74.6626 141.632 75.7229 140.27 77.6622C139.804 78.3258 138.887 80.0031 138.786 80.8143L138.876 80.8752L138.961 80.8247ZM126.628 92.4147C125.269 94.6865 124.854 97.3998 125.473 99.9737C125.586 100.426 126.023 101.692 126.241 102.05L126.575 102.583L126.664 102.576C127.304 100.143 127.274 95.152 126.714 92.514C126.708 92.486 126.655 92.4395 126.628 92.4147ZM141.649 88.0656C138.955 88.507 136.333 90.7829 135.109 93.1573L136.418 92.8064C138.949 91.8347 141.473 90.2742 143.034 88.0088C142.761 88.0176 141.871 88.0272 141.649 88.0656ZM35.5125 50.2271C33.3109 50.9202 31.3594 52.1573 29.8917 53.9543C29.2635 54.7236 29.0679 55.6036 28.7577 56.535L28.8324 56.6186L29.1161 56.582C32.4585 55.4663 35.2559 54.0794 35.8676 50.3069L35.8065 50.21L35.5125 50.2271ZM97.6862 128.248C98.8518 129.183 99.5167 129.694 100.79 130.498C100.65 129.685 100.29 128.974 99.8804 128.261L97.6862 128.248ZM119.114 108.821C119.667 108.824 120.271 108.839 120.819 108.824C120.985 108.075 121.248 107.187 121.387 106.482C121.653 105.125 121.768 102.45 121.474 101.094L121.392 100.997C120.144 102.001 119.035 104.673 118.894 106.266C118.822 107.081 118.86 107.888 118.952 108.707C119.015 108.759 119.052 108.809 119.114 108.821ZM114.904 32.2822C117.171 35.071 119.593 36.104 123.151 36.0362C122.826 35.6773 121.873 35.3181 121.409 35.02C119.15 33.5687 119.093 32.4746 116.198 32.3254C115.767 32.3057 115.336 32.2913 114.904 32.2822ZM32.9435 61.4441C30.1694 63.1746 28.2076 66.0777 27.1697 69.1396C27.2538 69.2337 27.2065 69.2155 27.2927 69.2289C29.4846 67.9401 32.1558 65.9797 32.8023 63.4046C32.9028 63.0039 33.0853 61.8862 33.0134 61.5133L32.9435 61.4441ZM23.1368 45.5377C23.3789 48.4576 24.1172 51.1356 25.34 53.7895C25.5832 54.3174 26.0033 55.3176 26.4219 55.7227L26.5143 55.7164C26.7061 52.0584 26.4047 49.2768 23.907 46.2683C23.7295 46.0544 23.3662 45.6835 23.1368 45.5377ZM21.0326 88.0296C23.0513 90.6932 25.66 92.4291 28.9434 93.1252C28.1158 91.3613 25.6294 89.0125 23.733 88.4077C22.6363 88.0576 22.1573 88.0008 21.0326 88.0296ZM140.857 45.5725C137.95 48.0091 137.214 52.3037 137.576 55.8826C139.253 53.2801 140.339 49.8717 140.802 46.8204C140.841 46.563 140.943 45.7949 140.857 45.5725ZM36.755 24.0661C36.4868 27.9639 36.716 31.6015 38.8613 35.0523L38.9704 35.0567L39.0605 34.9099C39.8938 32.0774 39.4889 28.4464 38.0692 25.862C37.7886 25.3512 37.1953 24.4236 36.755 24.0661ZM30.9348 72.0871C29.0457 74.0683 27.4563 78.0027 27.5445 80.7526L27.6301 80.8055L27.7602 80.7326C29.6574 79.1948 30.8908 77.4868 31.1851 75.0058C31.2624 74.354 31.2211 72.7076 31.0145 72.1452L30.9348 72.0871ZM18.5142 74.1536C19.8058 77.0693 22.3277 79.6911 25.296 80.8968C25.1229 79.3903 23.2323 76.5642 21.9642 75.6224C20.8107 74.7657 19.947 74.335 18.5142 74.1536ZM135.363 56.6793C135.165 56.0875 134.887 55.0977 134.586 54.5872C133.203 52.2408 130.638 50.9025 128.162 50.1059C128.531 53.9908 131.943 55.7772 135.363 56.6793ZM42.613 100.916C42.3287 102.854 42.3355 104.728 42.7045 106.663C42.8426 107.388 43.1108 108.115 43.2626 108.851C43.9056 108.815 44.4246 108.81 45.0696 108.819C45.28 108.569 45.2149 106.869 45.193 106.484C45.0908 104.69 43.9535 102.123 42.613 100.916ZM133.042 72.0424C132.258 75.6586 133.497 78.6395 136.439 80.8247C136.6 80.6052 136.458 79.6344 136.409 79.3127C136.1 77.1489 135.301 75.0845 134.07 73.278C133.802 72.8759 133.427 72.3262 133.042 72.0424Z" fill="var(--fill-0, white)"/>
<path id="Vector_2" d="M71.868 113.164C72.0361 113.392 72.9319 115.28 73.1129 115.651C74.044 115.819 75.0373 116.051 75.9715 116.064L73.9356 118.082C74.1018 118.898 74.2427 120.018 74.3734 120.861L71.8782 119.54C71.0671 119.99 70.2481 120.426 69.4213 120.847C69.553 119.915 69.7512 118.97 69.8026 118.037L67.7896 116.064C68.7311 116.059 69.7434 115.821 70.6696 115.626C71.0835 114.812 71.483 113.991 71.868 113.164Z" fill="var(--fill-0, #B83431)"/>
<path id="Vector_3" d="M102.036 113.238C102.316 113.455 103.073 115.183 103.279 115.634C104.227 115.823 105.205 116.045 106.169 116.072C105.474 116.72 104.765 117.457 104.093 118.134C104.279 119.077 104.437 119.916 104.571 120.87C103.747 120.442 102.912 119.983 102.093 119.543C101.283 119.908 100.459 120.442 99.5781 120.84C99.6334 120.173 99.9258 118.842 100.038 118.085L97.9944 116.065C98.8812 116.065 99.9562 115.813 100.841 115.637L102.036 113.238Z" fill="var(--fill-0, #B83431)"/>
<path id="Vector_4" d="M81.9625 113.24C82.1171 113.43 83.0255 115.333 83.1681 115.645C84.0838 115.817 85.0931 116.04 86.016 116.073C85.3407 116.74 84.6621 117.403 83.9804 118.061C84.1615 119.078 84.2752 119.859 84.5011 120.883C83.672 120.498 82.8068 119.999 82.001 119.556C81.2503 119.855 80.2474 120.474 79.4301 120.85C79.6455 119.924 79.6978 119.164 79.9685 118.141C79.3121 117.54 78.5384 116.721 77.9019 116.081C78.7961 116.044 79.8183 115.817 80.7096 115.649C81.111 114.832 81.4931 114.022 81.9625 113.24Z" fill="var(--fill-0, #B83431)"/>
<path id="Vector_5" d="M91.9771 113.241C92.2543 113.549 93.0265 115.216 93.2148 115.65C94.148 115.815 95.1814 116.053 96.1131 116.071C95.3873 116.763 94.6952 117.411 94.0183 118.151C94.2482 118.993 94.3315 119.964 94.5438 120.87C93.8028 120.527 92.819 119.972 92.0796 119.579C91.7736 119.646 89.9512 120.64 89.5202 120.851C89.6596 119.93 89.8158 119.011 89.9872 118.095C89.3247 117.396 88.623 116.74 87.9269 116.075C88.8545 116.049 89.8991 115.812 90.8196 115.634C91.1031 114.926 91.6262 113.946 91.9771 113.241Z" fill="var(--fill-0, #B83431)"/>
<path id="Vector_6" d="M61.78 113.232C62.0241 113.454 62.8467 115.226 63.0457 115.634C63.9825 115.827 64.9347 116.039 65.8889 116.075C65.2031 116.746 64.5253 117.426 63.856 118.115C64.0029 119.036 64.1367 119.975 64.3472 120.883L61.8764 119.568C61.3495 119.742 59.9859 120.537 59.3184 120.84C59.413 120.138 59.6123 118.767 59.8166 118.135L57.7725 116.07C58.6406 116.059 59.7352 115.808 60.6063 115.641C60.9376 114.885 61.408 113.986 61.78 113.232Z" fill="var(--fill-0, #B83431)"/>
<path id="Vector_7" d="M90.5847 74.8593C91.1511 74.8519 91.7319 74.8587 92.2998 74.8588C92.2686 76.318 92.3695 78.6997 92.1532 80.0372C92.8854 78.6663 93.5407 76.331 94.4018 75.0455C94.5925 74.7605 95.8526 74.8668 96.2732 74.8839C96.3228 76.5383 96.4895 78.4142 96.5736 80.1056C97.1431 78.3649 97.7367 76.6324 98.356 74.9085C99.0145 74.8789 99.6729 74.8663 100.332 74.8708C100.133 75.382 99.9221 75.8661 99.7026 76.3692C98.94 78.2764 98.1517 80.173 97.3386 82.0596C96.604 82.0628 95.8694 82.0748 95.1348 82.0948C95.0764 80.5456 94.9786 78.9977 94.8424 77.4532C94.1904 78.9841 93.6448 80.5151 92.9303 82.0508C92.3335 82.0972 91.3994 82.082 90.7794 82.0948C90.6752 81.2201 90.2298 75.3053 90.3804 74.9181L90.5847 74.8593Z" fill="var(--fill-0, white)"/>
<path id="Vector_8" d="M104.439 62.5978C108.905 62.3425 108.722 68.2525 105.395 69.6076C105.017 69.7616 104.62 69.8087 104.22 69.8679C103.296 69.8801 102.5 69.847 101.709 69.2565C100.11 68.0672 100.4 65.415 101.532 64.0111C102.286 63.0766 103.283 62.6878 104.439 62.5978ZM104.097 68.2723C106.578 67.6562 106.916 64.2377 104.327 64.179C103.573 64.4076 103.064 64.6627 102.697 65.4096C102.015 66.7966 102.361 68.2757 104.097 68.2723Z" fill="var(--fill-0, white)"/>
<path id="Vector_9" d="M111.967 62.5932C116.63 62.2835 116.521 69.1465 111.846 69.8617C108.073 70.0028 107.178 66.8653 109.085 64.0298C109.707 63.1047 110.883 62.7067 111.967 62.5932ZM111.664 68.2799C112.988 67.8914 113.972 66.6698 113.575 65.2667C113.474 64.9023 113.23 64.594 112.899 64.4115C112.64 64.2671 112.257 64.184 111.959 64.1723C110.603 64.541 109.59 65.6998 109.953 67.1539C110.049 67.5502 110.313 67.8845 110.677 68.0687C110.988 68.23 111.32 68.2647 111.664 68.2799Z" fill="var(--fill-0, white)"/>
<path id="Vector_10" d="M82.5814 87.1794C84.5304 87.0224 86.2447 88.4571 86.4337 90.4029C86.6236 92.3488 85.2177 94.0871 83.2759 94.309C81.9902 94.4564 80.7245 93.898 79.9662 92.8494C79.2077 91.8008 79.0737 90.4246 79.6157 89.2494C80.1573 88.0742 81.2916 87.2827 82.5814 87.1794ZM83.509 93.4198C84.399 93.0994 84.9998 92.5763 85.2906 91.6534C85.6975 90.3637 85.1704 88.7904 83.8839 88.2368C83.2807 87.9701 82.8049 88.0229 82.1672 88.0558C81.3709 88.4067 80.8783 88.7303 80.5258 89.5995C80.2134 90.3725 80.2262 91.2385 80.561 92.0019C81.113 93.25 82.2313 93.6225 83.509 93.4198Z" fill="var(--fill-0, white)"/>
<path id="Vector_11" d="M95.2346 62.7313C96.2127 62.6552 97.2957 62.6911 98.2658 62.684C99.3337 62.6763 100.722 63.0232 100.583 64.3503C100.472 65.3994 99.9898 65.4845 99.2408 66.0836L99.2392 66.2254C99.3281 66.3252 99.441 66.4561 99.5508 66.5301C100.496 67.1696 100.163 67.9623 99.6854 68.8535C98.2698 70.2384 95.9011 69.788 93.9777 69.7978C94.4263 68.1045 94.955 64.543 95.2346 62.7313ZM96.0276 68.389C96.4146 68.3771 97.5913 68.3781 97.9214 68.3315C98.1889 67.9501 98.3347 67.7641 98.2883 67.3029C97.8805 66.7085 96.9825 66.8342 96.3112 66.8236C96.2391 67.4678 96.1862 67.7603 96.0276 68.389ZM96.469 65.6121C96.9937 65.5888 97.7467 65.5788 98.2394 65.4797C98.6111 65.1783 98.8546 64.9131 98.6167 64.452C98.0464 64.0208 97.5505 64.0906 96.8487 64.1004C96.731 64.5751 96.606 65.1517 96.469 65.6121Z" fill="var(--fill-0, white)"/>
<path id="Vector_12" d="M86.233 62.7331C86.8578 62.6685 87.3849 62.6895 88.0073 62.728C88.6402 63.7771 89.5574 65.9012 90.1062 67.0744C90.2031 66.04 90.61 63.7318 90.8271 62.7299C91.4055 62.6827 92.0248 62.7006 92.6071 62.7056C92.1778 65.0707 91.7892 67.4428 91.4408 69.821L89.6463 69.8493C88.9278 68.5459 88.1892 66.9529 87.5619 65.598C87.2511 66.6237 87.0356 68.6425 86.7825 69.8356C86.1817 69.8055 85.5488 69.8066 84.944 69.7985C85.4599 68.0733 85.8268 64.6328 86.233 62.7331Z" fill="var(--fill-0, white)"/>
<path id="Vector_13" d="M64.4904 74.891C66.3565 74.8285 71.1901 74.3591 69.4034 77.9965C69.0651 78.685 68.3833 79.0085 67.677 79.2129C67.9663 80.0457 68.527 81.1963 68.8822 82.083C68.2657 82.0494 67.5375 82.055 66.9148 82.0454C66.7114 81.5295 66.0601 79.6158 65.681 79.4611C65.3651 79.7393 65.1178 81.6152 65.0284 82.0919C64.3961 82.0582 63.8323 82.0686 63.1983 82.0798C63.7691 79.7485 63.9923 77.1518 64.4904 74.891ZM65.7231 78.2292C66.3302 78.2081 66.8154 78.2225 67.398 78.0522L67.4728 78.031C67.795 77.7188 68.1751 77.0311 67.7186 76.6781C67.2444 76.3114 66.5844 76.3912 66.0181 76.4008C65.9446 76.8515 65.8308 77.8623 65.7231 78.2292Z" fill="var(--fill-0, white)"/>
<path id="Vector_14" d="M56.5272 62.7424C58.3 62.619 63.1432 62.1295 61.3232 65.7971C60.9801 66.4885 60.294 66.8323 59.5782 67.0664C60.0505 67.8423 60.5075 68.9843 60.8801 69.8383C60.2194 69.7873 59.5449 69.8145 58.8812 69.8281C58.6872 69.3293 58.0462 67.3762 57.6002 67.2584C57.2272 67.5882 57.1342 69.25 57.1054 69.7774C56.5597 69.8239 55.7963 69.8176 55.2254 69.8376C55.5485 68.4082 55.7347 66.6185 56.0289 65.1619C56.1843 64.3926 56.2557 63.4791 56.5272 62.7424ZM57.6144 65.9833C58.1741 65.9412 58.8381 65.9088 59.3808 65.8109C59.7131 65.4742 59.8917 65.2831 59.9203 64.8103C59.7019 64.0603 58.6416 64.1269 58.0209 64.1149C57.9261 64.8239 57.8178 65.291 57.6144 65.9833Z" fill="var(--fill-0, white)"/>
<path id="Vector_15" d="M71.5783 50.5021C72.9057 50.6667 75.0726 50.1807 75.9248 51.36C76.7535 52.5067 76.0649 53.3665 75.1515 54.0027C76.4044 54.6038 76.5892 55.4203 76.1543 56.698C74.8692 57.9354 73.2781 57.6434 71.4812 57.6828C71.4893 56.8333 71.4156 50.7206 71.5783 50.5021ZM72.4106 56.8188C73.4482 56.8219 74.5199 57.0275 75.2353 56.3682C75.6666 55.5523 75.511 55.1779 74.8958 54.5472C73.9722 54.292 73.3624 54.3419 72.3966 54.3523C72.4041 55.1602 72.4266 56.0148 72.4106 56.8188ZM72.3637 53.656C73.2415 53.6583 74.1321 53.7469 74.9167 53.3547C75.1386 52.9566 75.2131 52.8131 75.361 52.3848C75.1951 52.1023 75.0412 51.8333 74.8567 51.5617C73.9504 51.2633 73.3574 51.3311 72.3939 51.3421C72.4132 52.1146 72.4318 52.8845 72.3637 53.656Z" fill="var(--fill-0, white)"/>
<path id="Vector_16" d="M69.6624 87.2258C71.2914 87.2603 74.9332 86.6915 74.3611 89.5577C74.2559 90.0849 73.7655 90.3716 73.3301 90.6096C74.4968 91.3161 74.7164 91.7952 74.4268 93.1866C73.3803 94.7023 71.3457 94.2368 69.6756 94.3642C69.6998 91.9842 69.6955 89.605 69.6624 87.2258ZM70.5825 93.4982C71.6264 93.5039 72.6677 93.7081 73.3922 93.0544C73.512 92.7949 73.6413 92.5281 73.7495 92.2646C73.0322 90.6136 72.1258 91.0461 70.5817 91.0021L70.5825 93.4982ZM70.5869 90.3492C71.5041 90.3308 72.2582 90.4429 73.0465 90.0184C73.7986 89.2854 73.5542 88.7118 72.8712 88.0806C72.161 88.0077 71.1258 88.0509 70.5962 87.9804C70.5854 88.7695 70.5824 89.5593 70.5869 90.3492Z" fill="var(--fill-0, white)"/>
<path id="Vector_17" d="M54.878 62.6805L55.575 62.7039C55.0896 65.0522 54.6751 67.4147 54.332 69.788C53.6932 69.7939 53.1207 69.7989 52.4847 69.8479C52.5933 69.0754 52.8369 67.6133 53.0357 66.894C52.1589 66.9014 51.2818 66.8985 50.405 66.8849C50.3077 67.685 50.0323 68.95 49.8827 69.7862C49.5615 69.8147 49.2765 69.8007 48.9563 69.7925C48.669 69.7979 48.3457 69.8239 48.0556 69.8403C48.61 67.8012 48.8219 64.8834 49.3187 62.7575C50.0144 62.6913 50.4621 62.6938 51.1659 62.7069C50.9053 63.6009 50.8921 64.4858 50.5525 65.489C51.4908 65.4742 52.3633 65.4548 53.302 65.5024C53.415 64.5787 53.5458 63.6572 53.6945 62.7385L54.878 62.6805Z" fill="var(--fill-0, white)"/>
<path id="Vector_18" d="M81.3552 62.7316C82.0217 62.6991 82.6754 62.7192 83.3419 62.7324C83.426 63.6064 83.7889 65.1733 83.9651 66.0663C84.2063 67.2813 84.4338 68.649 84.7158 69.8337C83.998 69.7921 83.4044 69.8016 82.6858 69.822L82.6674 68.5742C82.0498 68.5285 81.3817 68.5339 80.7584 68.5271L79.9907 68.5169C79.7798 68.9526 79.5192 69.4001 79.2832 69.8254C78.6385 69.7924 78.0814 69.789 77.4348 69.7949C78.2854 68.2642 79.125 66.7273 79.9533 65.1845C80.3275 64.4964 80.913 63.3388 81.3552 62.7316ZM81.05 67.2061C81.4986 67.2068 81.9697 67.2007 82.4159 67.2101C82.186 66.3653 82.1491 65.3624 81.9833 64.7817C81.6981 65.1553 80.7857 66.7152 80.7913 67.1446C80.9643 67.2243 80.877 67.2077 81.05 67.2061Z" fill="var(--fill-0, white)"/>
<path id="Vector_19" d="M116.512 62.7175C117.193 62.6902 117.687 62.692 118.367 62.7238C118.246 63.643 118.011 65.1101 117.73 65.9664C118.294 65.1864 120.057 63.412 120.79 62.7221C121.438 62.6816 122.269 62.7059 122.932 62.7072C122.03 63.4636 120.32 65.2703 119.377 66.2002C119.853 66.9252 120.271 67.5585 120.693 68.3178C121.108 68.8224 121.2 69.2541 121.77 69.8571C121.122 69.7917 120.145 69.8014 119.491 69.8426C118.869 68.7902 118.258 67.7317 117.657 66.6675C117.499 67.8813 117.407 68.6713 117.047 69.8535C116.456 69.8078 115.992 69.813 115.397 69.8212C115.471 68.9382 115.72 67.7338 115.882 66.8527C116.143 65.4353 116.349 64.1463 116.512 62.7175Z" fill="var(--fill-0, white)"/>
<path id="Vector_20" d="M44.5896 62.6589C46.9355 62.5706 47.7303 62.9814 48.3714 65.2577C47.6437 65.3031 47.2273 65.2944 46.4957 65.2534C44.4405 62.25 41.7055 66.631 43.6363 68.1146C44.6271 68.876 45.8533 67.2867 46.4429 67.203L47.9608 67.1969C47.0268 69.3171 44.7285 70.5605 42.4668 69.5285C40.0684 68.4343 41.2501 63.9766 43.3371 63.1291C43.8019 62.9404 44.0822 62.8054 44.5896 62.6589Z" fill="var(--fill-0, white)"/>
<path id="Vector_21" d="M75.2406 74.895C75.8434 74.8607 76.4802 74.8795 77.0868 74.8868C77.4631 76.3543 77.6794 78.6692 77.894 80.2409C78.7149 78.5719 79.6864 76.4895 80.5875 74.8898L82.4829 74.8768C82.2233 75.3402 81.9734 75.836 81.7274 76.3084C80.8406 77.8704 79.7496 80.3987 78.7059 81.8991C78.5243 82.1595 76.8993 82.0682 76.4599 82.061C76.2414 81.2519 76.0812 80.0255 75.9438 79.1676L75.2406 74.895Z" fill="var(--fill-0, white)"/>
<path id="Vector_22" d="M67.2107 62.5973C68.79 62.4905 69.7093 63.1639 69.9413 64.7202C69.3953 64.6886 68.6639 64.7134 68.1044 64.7166C67.8847 64.272 67.44 63.5988 66.807 64.168C66.0754 64.8258 67.1305 65.3726 67.7169 65.6107C69.3797 66.2857 70.343 67.3289 69.0332 69.0107C68.4899 69.7038 67.6361 69.815 66.7919 69.8814C65.0293 69.7447 64.5204 69.358 64.0518 67.6419C64.7189 67.6533 65.2572 67.6392 65.94 67.6781L66.0675 67.9426C66.3124 68.4675 66.8911 68.6623 67.2744 68.3846C68.2311 67.6303 67.0978 67.0062 66.4411 66.7376C65.6405 66.4101 65.1486 66.1781 64.7124 65.4243L64.658 65.3285C64.6332 64.9212 64.6494 64.4996 64.6562 64.0904C65.4382 62.9409 65.795 62.712 67.2107 62.5973Z" fill="var(--fill-0, white)"/>
<path id="Vector_23" d="M70.5809 74.8971C71.9452 74.84 73.6387 74.8831 75.0297 74.8789C74.9447 75.4634 74.9197 75.6832 74.9286 76.2736C74.0056 76.301 73.0821 76.2996 72.1592 76.2692C72.1026 76.8467 72.0096 77.2357 71.817 77.7774L74.3201 77.7608C74.1719 78.3125 74.1349 78.4898 74.0837 79.0612L71.5963 79.0468L71.4677 80.2255C71.3973 80.4282 71.3659 80.441 71.421 80.6397C71.9308 80.7038 73.5619 80.6517 74.0953 80.6092L73.8351 82.0624C72.532 82.0464 70.5931 81.9799 69.3365 82.0904C69.5092 81.4287 69.6734 80.1342 69.7943 79.3896C70.0455 77.8902 70.3077 76.3926 70.5809 74.8971Z" fill="var(--fill-0, white)"/>
<path id="Vector_24" d="M85.4821 74.9057C86.7918 74.8361 88.5302 74.8744 89.88 74.8646C89.8223 75.3288 89.7743 75.7943 89.7374 76.2605C89.0052 76.3269 87.7427 76.2938 87.0202 76.2589C86.8992 76.8199 86.8055 77.231 86.634 77.7774L89.0917 77.7585C89.0789 78.2033 89.0301 78.5973 88.9804 79.0373C88.1849 79.0925 87.2989 79.0589 86.4979 79.0337C86.4594 79.475 86.3577 79.8977 86.2639 80.3301C86.2359 80.387 86.2255 80.4999 86.2135 80.5704C86.5555 80.7715 88.4453 80.6441 88.9251 80.6033L88.6391 82.1021C87.5633 81.9939 85.2289 82.022 84.1331 82.0732C84.5568 80.6489 84.7523 78.4311 85.0607 76.9306C85.1841 76.3332 85.2354 75.4369 85.4821 74.9057Z" fill="var(--fill-0, white)"/>
<path id="Vector_25" d="M90.2032 87.1925C92.0176 87.0844 92.9677 87.8286 93.8249 89.333L92.6865 89.2914C91.7981 88.1939 90.6654 87.5706 89.2363 88.3044C87.3033 89.2978 87.57 92.9363 89.8403 93.4161C90.8769 93.6348 91.4417 93.3296 92.2972 92.8185C92.6385 92.1929 92.7819 91.9077 92.9974 91.2356C92.407 91.1707 91.8766 91.1835 91.2838 91.1867C90.788 91.1771 90.3947 91.4006 90.0846 91.0041C90.0494 90.7085 89.9989 90.7277 90.1271 90.5386C90.937 90.4049 93.0638 90.4633 93.9987 90.4697C93.9418 91.4302 93.8441 92.2105 93.2369 93.0092C92.0353 94.5905 89.616 94.7411 88.1452 93.4602C87.4355 92.8433 87.0069 91.9646 86.9564 91.0257C86.8371 89.0438 88.1701 87.3079 90.2032 87.1925Z" fill="var(--fill-0, white)"/>
<path id="Vector_26" d="M70.5272 62.7281C72.2833 62.6575 74.3914 62.6858 76.152 62.7141C76.0863 63.1473 76.0388 63.6444 75.9873 64.0846C75.2727 64.1203 74.6967 64.1172 73.9796 64.1007C73.7537 65.4792 73.5382 66.8765 73.2571 68.2435C73.1701 68.6014 73.0659 69.3844 72.9914 69.798C72.4491 69.8292 71.7035 69.8044 71.1466 69.8021C71.6268 67.9891 71.7514 65.7919 72.2083 64.1154C71.533 64.1098 70.9664 64.1017 70.2919 64.1608C70.3573 63.6258 70.4149 63.2543 70.5272 62.7281Z" fill="var(--fill-0, white)"/>
<path id="Vector_27" d="M83.4504 50.5698C84.5712 50.4689 85.4571 50.5078 86.3768 51.2446C86.7429 51.5382 86.8719 52.0399 86.5498 52.3996C86.0844 52.4683 85.3947 51.7533 84.9661 51.5041C84.2619 51.0955 83.4729 51.1528 83.0868 51.9577C82.4571 53.2971 84.7089 53.6054 85.5509 53.9844C86.6788 54.4917 87.137 55.4188 86.5835 56.5773C86.2967 57.1774 85.643 57.4439 85.031 57.6139C83.3014 57.7643 82.3794 57.3884 81.9164 55.6586C83.2141 55.5998 82.9201 55.7443 83.5514 56.7716C84.2932 56.8953 84.5223 56.8905 85.2304 56.7674C87.6633 54.4445 82.9434 54.7213 82.2584 53.3299C81.5919 51.9757 82.3113 51.2097 83.4504 50.5698Z" fill="var(--fill-0, white)"/>
<path id="Vector_28" d="M77.3428 50.4971C78.3222 50.6288 80.5551 50.3212 81.0758 50.7894C81.1431 51.0171 81.1358 51.0015 81.0661 51.2313C80.7385 51.3968 78.7055 51.3311 78.222 51.3274C78.2394 52.1139 78.2366 52.9007 78.2136 53.6871C78.6748 53.6791 80.5094 53.6176 80.7842 53.749C80.8178 54.0215 80.813 54.0021 80.6969 54.2534C80.2266 54.6526 79.1996 54.2944 78.3148 54.4374C78.1525 54.6229 78.2125 54.631 78.2144 54.9576L78.2448 56.8223C79.172 56.7933 80.1449 56.8012 81.0758 56.7958C81.095 57.0491 81.1511 57.3771 81.0533 57.5939C80.4069 57.6955 78.1864 57.6538 77.3094 57.6852C77.3207 56.1899 77.3225 54.6944 77.3147 53.199C77.3111 52.5139 77.2658 51.1304 77.3428 50.4971Z" fill="var(--fill-0, white)"/>
<path id="Vector_29" d="M83.7755 74.8616L84.5765 74.8794C84.4436 76.0454 84.1592 77.4656 83.9501 78.6364C83.7674 79.6653 83.5472 81.0992 83.2548 82.0677L82.6019 82.0597L81.4515 82.0677C81.9226 80.5617 82.5386 76.5516 82.7837 74.8772L83.7755 74.8616Z" fill="var(--fill-0, white)"/>
<path id="Vector_30" d="M76.4712 62.731C77.186 62.6878 77.6181 62.6889 78.3339 62.7261C78.1179 64.3838 77.4688 68.218 77.0658 69.7522C76.8532 69.8621 75.6607 69.8103 75.3492 69.8081C75.6662 67.57 76.3038 64.9293 76.4712 62.731Z" fill="var(--fill-0, white)"/>
<path id="Vector_31" d="M62.499 62.7155C63.0927 62.6952 63.7398 62.7079 64.3378 62.7081C63.8316 64.91 63.6085 67.668 63.0735 69.7782C62.5006 69.8356 61.9293 69.7909 61.2717 69.8593C61.6711 67.7292 62.2391 64.8267 62.499 62.7155Z" fill="var(--fill-0, white)"/>
<path id="Vector_32" d="M87.4452 50.5402C88.2535 50.566 91.8215 50.4297 92.2509 50.661C92.3006 50.9236 92.3062 50.9095 92.2597 51.17C91.9184 51.4566 90.8522 51.3408 90.3547 51.3256C90.3916 52.8276 90.3628 54.4432 90.3644 55.9541C90.366 56.5252 90.3716 57.0963 90.3804 57.6673L89.355 57.6885L89.3846 51.3133C89.0538 51.3202 88.7237 51.3347 88.3937 51.3571C87.9852 51.3832 88.0004 51.4053 87.6119 51.2626C87.3859 50.9841 87.4636 50.992 87.4452 50.5402Z" fill="var(--fill-0, white)"/>
<path id="Vector_33" d="M75.5539 87.2408C75.9157 87.2184 76.1477 87.1736 76.4918 87.2921C76.5745 87.5116 76.5077 92.9533 76.5073 93.5381C77.2814 93.5133 78.2859 93.333 78.9361 93.6222C79.1195 93.8794 79.0563 93.8601 79.068 94.2439C78.6457 94.3368 76.2587 94.3015 75.5374 94.3472C75.5663 91.9784 75.5717 89.6096 75.5539 87.2408Z" fill="var(--fill-0, white)"/>
<path id="Vector_34" d="M136.981 63.7485C137.099 64.3446 137.183 64.9345 137.292 65.5294C137.131 65.2842 136.798 64.8109 136.667 64.5746C136.674 64.3833 136.672 64.3961 136.754 64.2226L136.881 64.3392L136.877 64.3434L136.929 64.3614C136.972 64.1203 136.973 63.9885 136.981 63.7485Z" fill="var(--fill-0, #B73331)" fill-opacity="0.0196078"/>
<path id="Vector_35" d="M135.484 51.6918C135.488 51.4014 135.475 51.4171 135.629 51.1747L135.761 51.1936L135.89 51.5269C135.83 51.836 135.862 51.9546 135.687 52.1645C135.52 51.9729 135.55 51.956 135.484 51.6918Z" fill="var(--fill-0, #B73331)" fill-opacity="0.0156863"/>
<path id="Vector_36" d="M29.1605 89.1104C29.3396 88.9735 29.2454 88.9943 29.4375 88.9775L29.5087 89.1633C29.5319 89.0231 29.5067 89.1008 29.6132 88.943C29.6265 89.3339 29.6357 89.684 29.6277 90.0773C29.4828 89.7858 29.2788 89.4044 29.1605 89.1104Z" fill="var(--fill-0, #B73331)" fill-opacity="0.0235294"/>
<path id="Vector_37" d="M26.4457 75.4443L26.8875 75.3427C26.7849 75.6171 26.7246 75.8769 26.5338 76.0803C26.4203 75.8559 26.4454 75.6964 26.4457 75.4443Z" fill="var(--fill-0, #B73331)" fill-opacity="0.0117647"/>
</g>
</svg>
