<svg preserveAspectRatio="none" width="100%" height="100%" overflow="visible" style="display: block;" viewBox="0 0 66 48" fill="none" xmlns="http://www.w3.org/2000/svg">
<path id="Vector" d="M47.8244 30.8571C39.4773 27.2274 36.4647 24 36.4647 14.8571C36.4647 5.71429 42.1446 0 51.2323 0C60.3201 0 66 5.71429 66 14.8571C66 30.8571 61.4561 36.5714 43.2805 48C47.8244 40 47.8244 37.7143 47.8244 30.8571ZM11.3597 30.8571C3.0126 27.2274 0 24 0 14.8571C0 5.71428 5.67987 0 14.7677 0C23.8554 0 29.5353 5.71428 29.5353 14.8571C29.5353 30.8571 24.9914 36.5714 6.81584 48C11.3597 40 11.3597 37.7143 11.3597 30.8571Z" fill="var(--fill-0, #592C33)"/>
</svg>
